<?xml version="1.0" encoding="utf-8" standalone="no"?><svg xmlns="http://www.w3.org/2000/svg" xmlns:xlink="http://www.w3.org/1999/xlink" width="140.081mm" height="30.073600000000003mm" viewBox="4010 3454.5 551.5 118.4"><title>Photo View</title><rect x="4010" y="3454.5" width="551.5" height="118.4" fill="#000000" stroke="none"/><defs xmlns="http://www.w3.org/2000/svg" id="patterns"><pattern id="gridPattern" x="4000" y="3000" width="10" height="10" patternUnits="userSpaceOnUse"><rect id="gridCell" x="0" y="0" width="0.26317" height="0.26317" fill="#FFFFFF" stroke="none" fill-opacity="0.8"/></pattern><pattern id="gridPattern2" x="4000.26317" y="3000.26317" width="10" height="10" patternUnits="userSpaceOnUse"><path id="gridCell2" d="M10 0V10H-10" fill="none" stroke="#FFFFFF" stroke-width="0.26317" stroke-opacity="0.6"/></pattern><marker id="arrowOnStart" orient="auto" refY="0" refX="0" style="overflow:visible" markerUnits="strokeWidth"><path d="M 2,0 l 4,-2, 0,4 z" stroke-width="6"/></marker><marker id="arrowOnEnd" orient="auto" refY="0" refX="0" style="overflow:visible" markerUnits="strokeWidth"><path d="M -2,0 l -4,-2, 0,4 z" stroke-width="6"/></marker><marker id="arrowOnStartChrome" orient="auto" refY="0" refX="0" style="overflow:visible" markerUnits="strokeWidth"><path d="M 2,0 l 4,-2, 0,4 z" stroke-width="3" stroke="#FFFFFF"/></marker><marker id="arrowOnEndChrome" orient="auto" refY="0" refX="0" style="overflow:visible" markerUnits="strokeWidth"><path d="M -2,0 l -4,-2, 0,4 z" stroke-width="3" stroke="#FFFFFF"/></marker><svg id="icon-lock" title="Unlock" viewBox="0 0 20 20" height="20" width="20"><path stroke="#F0F" stroke-width="2" style="cursor:pointer;fill-opacity:.001;fill:#fff" d="M 5 7 C 5 -1 15 -1 15 7L1 7 1 19 19 19 19 7 15 7"/></svg><mask id="multiLayerMask" maskUnits="userSpaceOnUse" x="4020" y="3464.5" width="531.5" height="98.4"><path d="M4020 3562.9252,4020 3464.5,4551.4961 3464.5,4551.4961 3562.9252z" stroke="none" fill="white"/><g fill="black"><circle cx="4035" cy="3544.5" r="1.8" stroke-width="0"/><circle cx="4035" cy="3534.5" r="1.8" stroke-width="0"/><circle cx="4035" cy="3524.5" r="1.8" stroke-width="0"/><circle cx="4035" cy="3514.5" r="1.8" stroke-width="0"/><circle cx="4035" cy="3504.5" r="1.8" stroke-width="0"/><circle cx="4035" cy="3494.5" r="1.8" stroke-width="0"/><circle cx="4035" cy="3484.5" r="1.8" stroke-width="0"/><circle cx="4153.8582" cy="3528.6736" r="1.8" stroke-width="0"/><circle cx="4134.1732" cy="3536.9406" r="1.8" stroke-width="0"/><circle cx="4248.3464" cy="3528.6736" r="1.8" stroke-width="0"/><circle cx="4228.6614" cy="3536.9406" r="1.8" stroke-width="0"/><circle cx="4342.8346" cy="3528.6736" r="1.8" stroke-width="0"/><circle cx="4323.1496" cy="3536.9406" r="1.8" stroke-width="0"/><circle cx="4437.3228" cy="3528.6736" r="1.8" stroke-width="0"/><circle cx="4417.6378" cy="3536.9406" r="1.8" stroke-width="0"/><circle cx="4531.811" cy="3528.6736" r="1.8" stroke-width="0"/><circle cx="4512.126" cy="3536.9406" r="1.8" stroke-width="0"/><circle cx="4112.52" cy="3513.713" r="3.7402" stroke-width="0"/><circle cx="4155.827" cy="3513.713" r="3.7402" stroke-width="0"/><circle cx="4134.173" cy="3513.713" r="6.6929" stroke-width="0"/><circle cx="4207.008" cy="3513.713" r="3.7402" stroke-width="0"/><circle cx="4250.315" cy="3513.713" r="3.7402" stroke-width="0"/><circle cx="4228.661" cy="3513.713" r="6.6929" stroke-width="0"/><circle cx="4301.497" cy="3513.713" r="3.7402" stroke-width="0"/><circle cx="4344.804" cy="3513.713" r="3.7402" stroke-width="0"/><circle cx="4323.15" cy="3513.713" r="6.6929" stroke-width="0"/><circle cx="4395.985" cy="3513.713" r="3.7402" stroke-width="0"/><circle cx="4439.292" cy="3513.713" r="3.7402" stroke-width="0"/><circle cx="4417.638" cy="3513.713" r="6.6929" stroke-width="0"/><circle cx="4490.473" cy="3513.713" r="3.7402" stroke-width="0"/><circle cx="4533.78" cy="3513.713" r="3.7402" stroke-width="0"/><circle cx="4512.126" cy="3513.713" r="6.6929" stroke-width="0"/><circle cx="4059.37" cy="3478.28" r="4" stroke-width="0"/><circle cx="4102.677" cy="3478.28" r="4" stroke-width="0"/><circle cx="4181.417" cy="3478.28" r="4" stroke-width="0"/><circle cx="4275.906" cy="3478.28" r="4" stroke-width="0"/><circle cx="4370.394" cy="3478.28" r="4" stroke-width="0"/><circle cx="4464.882" cy="3478.28" r="4" stroke-width="0"/><circle cx="4543.622" cy="3478.5" r="4" stroke-width="0"/><circle cx="4059.37" cy="3549.146" r="4" stroke-width="0"/><circle cx="4102.677" cy="3549.146" r="4" stroke-width="0"/><circle cx="4181.417" cy="3549.146" r="4" stroke-width="0"/><circle cx="4275.906" cy="3549.146" r="4" stroke-width="0"/><circle cx="4370.394" cy="3549.146" r="4" stroke-width="0"/><circle cx="4464.882" cy="3549.146" r="4" stroke-width="0"/><circle cx="4543.622" cy="3549.146" r="4" stroke-width="0"/><circle cx="4059.37" cy="3513.713" r="9.9055" stroke-width="0"/></g></mask><mask id="topBoardSolderMask" maskUnits="userSpaceOnUse" x="4020" y="3464.5" width="531.5" height="98.4"><path d="M4020 3562.9252,4020 3464.5,4551.4961 3464.5,4551.4961 3562.9252z" stroke="none" fill="white"/><g fill="black"><polygon points="4031.6 3547.9 4031.6 3541.1 4038.4 3541.1 4038.4 3547.9" stroke-width="0" c_etype="pad_outer"/><ellipse cx="4035" cy="3534.5" rx="3.4" ry="3.4" stroke-width="0" c_etype="pad_outer"/><ellipse cx="4035" cy="3524.5" rx="3.4" ry="3.4" stroke-width="0" c_etype="pad_outer"/><ellipse cx="4035" cy="3514.5" rx="3.4" ry="3.4" stroke-width="0" c_etype="pad_outer"/><ellipse cx="4035" cy="3504.5" rx="3.4" ry="3.4" stroke-width="0" c_etype="pad_outer"/><ellipse cx="4035" cy="3494.5" rx="3.4" ry="3.4" stroke-width="0" c_etype="pad_outer"/><ellipse cx="4035" cy="3484.5" rx="3.4" ry="3.4" stroke-width="0" c_etype="pad_outer"/><ellipse cx="4153.858" cy="3528.674" rx="3.4" ry="3.4" stroke-width="0" c_etype="pad_outer"/><ellipse cx="4134.173" cy="3536.941" rx="3.4" ry="3.4" stroke-width="0" c_etype="pad_outer"/><ellipse cx="4248.346" cy="3528.674" rx="3.4" ry="3.4" stroke-width="0" c_etype="pad_outer"/><ellipse cx="4228.661" cy="3536.941" rx="3.4" ry="3.4" stroke-width="0" c_etype="pad_outer"/><ellipse cx="4342.835" cy="3528.674" rx="3.4" ry="3.4" stroke-width="0" c_etype="pad_outer"/><ellipse cx="4323.15" cy="3536.941" rx="3.4" ry="3.4" stroke-width="0" c_etype="pad_outer"/><ellipse cx="4437.323" cy="3528.674" rx="3.4" ry="3.4" stroke-width="0" c_etype="pad_outer"/><ellipse cx="4417.638" cy="3536.941" rx="3.4" ry="3.4" stroke-width="0" c_etype="pad_outer"/><ellipse cx="4531.811" cy="3528.674" rx="3.4" ry="3.4" stroke-width="0" c_etype="pad_outer"/><ellipse cx="4512.126" cy="3536.941" rx="3.4" ry="3.4" stroke-width="0" c_etype="pad_outer"/></g></mask><mask id="topSignalSolderMask" maskUnits="userSpaceOnUse" x="4020" y="3464.5" width="531.5" height="98.4"><path d="M4020 3562.9252,4020 3464.5,4551.4961 3464.5,4551.4961 3562.9252z" stroke="none" fill="white"/><g fill="black"><polygon points="4031.6 3547.9 4031.6 3541.1 4038.4 3541.1 4038.4 3547.9" stroke-width="0" c_etype="pad_outer"/><ellipse cx="4035" cy="3534.5" rx="3.4" ry="3.4" stroke-width="0" c_etype="pad_outer"/><ellipse cx="4035" cy="3524.5" rx="3.4" ry="3.4" stroke-width="0" c_etype="pad_outer"/><ellipse cx="4035" cy="3514.5" rx="3.4" ry="3.4" stroke-width="0" c_etype="pad_outer"/><ellipse cx="4035" cy="3504.5" rx="3.4" ry="3.4" stroke-width="0" c_etype="pad_outer"/><ellipse cx="4035" cy="3494.5" rx="3.4" ry="3.4" stroke-width="0" c_etype="pad_outer"/><ellipse cx="4035" cy="3484.5" rx="3.4" ry="3.4" stroke-width="0" c_etype="pad_outer"/><ellipse cx="4153.858" cy="3528.674" rx="3.4" ry="3.4" stroke-width="0" c_etype="pad_outer"/><ellipse cx="4134.173" cy="3536.941" rx="3.4" ry="3.4" stroke-width="0" c_etype="pad_outer"/><ellipse cx="4248.346" cy="3528.674" rx="3.4" ry="3.4" stroke-width="0" c_etype="pad_outer"/><ellipse cx="4228.661" cy="3536.941" rx="3.4" ry="3.4" stroke-width="0" c_etype="pad_outer"/><ellipse cx="4342.835" cy="3528.674" rx="3.4" ry="3.4" stroke-width="0" c_etype="pad_outer"/><ellipse cx="4323.15" cy="3536.941" rx="3.4" ry="3.4" stroke-width="0" c_etype="pad_outer"/><ellipse cx="4437.323" cy="3528.674" rx="3.4" ry="3.4" stroke-width="0" c_etype="pad_outer"/><ellipse cx="4417.638" cy="3536.941" rx="3.4" ry="3.4" stroke-width="0" c_etype="pad_outer"/><ellipse cx="4531.811" cy="3528.674" rx="3.4" ry="3.4" stroke-width="0" c_etype="pad_outer"/><ellipse cx="4512.126" cy="3536.941" rx="3.4" ry="3.4" stroke-width="0" c_etype="pad_outer"/></g></mask><mask id="bottomBoardSolderMask" maskUnits="userSpaceOnUse" x="4020" y="3464.5" width="531.5" height="98.4"><path d="M4020 3562.9252,4020 3464.5,4551.4961 3464.5,4551.4961 3562.9252z" stroke="none" fill="white"/><g fill="black"><polygon points="4031.6 3547.9 4031.6 3541.1 4038.4 3541.1 4038.4 3547.9" stroke-width="0" c_etype="pad_outer"/><ellipse cx="4035" cy="3534.5" rx="3.4" ry="3.4" stroke-width="0" c_etype="pad_outer"/><ellipse cx="4035" cy="3524.5" rx="3.4" ry="3.4" stroke-width="0" c_etype="pad_outer"/><ellipse cx="4035" cy="3514.5" rx="3.4" ry="3.4" stroke-width="0" c_etype="pad_outer"/><ellipse cx="4035" cy="3504.5" rx="3.4" ry="3.4" stroke-width="0" c_etype="pad_outer"/><ellipse cx="4035" cy="3494.5" rx="3.4" ry="3.4" stroke-width="0" c_etype="pad_outer"/><ellipse cx="4035" cy="3484.5" rx="3.4" ry="3.4" stroke-width="0" c_etype="pad_outer"/><ellipse cx="4153.858" cy="3528.674" rx="3.4" ry="3.4" stroke-width="0" c_etype="pad_outer"/><ellipse cx="4134.173" cy="3536.941" rx="3.4" ry="3.4" stroke-width="0" c_etype="pad_outer"/><ellipse cx="4248.346" cy="3528.674" rx="3.4" ry="3.4" stroke-width="0" c_etype="pad_outer"/><ellipse cx="4228.661" cy="3536.941" rx="3.4" ry="3.4" stroke-width="0" c_etype="pad_outer"/><ellipse cx="4342.835" cy="3528.674" rx="3.4" ry="3.4" stroke-width="0" c_etype="pad_outer"/><ellipse cx="4323.15" cy="3536.941" rx="3.4" ry="3.4" stroke-width="0" c_etype="pad_outer"/><ellipse cx="4437.323" cy="3528.674" rx="3.4" ry="3.4" stroke-width="0" c_etype="pad_outer"/><ellipse cx="4417.638" cy="3536.941" rx="3.4" ry="3.4" stroke-width="0" c_etype="pad_outer"/><ellipse cx="4531.811" cy="3528.674" rx="3.4" ry="3.4" stroke-width="0" c_etype="pad_outer"/><ellipse cx="4512.126" cy="3536.941" rx="3.4" ry="3.4" stroke-width="0" c_etype="pad_outer"/></g></mask><mask id="bottomSignalSolderMask" maskUnits="userSpaceOnUse" x="4020" y="3464.5" width="531.5" height="98.4"><path d="M4020 3562.9252,4020 3464.5,4551.4961 3464.5,4551.4961 3562.9252z" stroke="none" fill="white"/><g fill="black"><polygon points="4031.6 3547.9 4031.6 3541.1 4038.4 3541.1 4038.4 3547.9" stroke-width="0" c_etype="pad_outer"/><ellipse cx="4035" cy="3534.5" rx="3.4" ry="3.4" stroke-width="0" c_etype="pad_outer"/><ellipse cx="4035" cy="3524.5" rx="3.4" ry="3.4" stroke-width="0" c_etype="pad_outer"/><ellipse cx="4035" cy="3514.5" rx="3.4" ry="3.4" stroke-width="0" c_etype="pad_outer"/><ellipse cx="4035" cy="3504.5" rx="3.4" ry="3.4" stroke-width="0" c_etype="pad_outer"/><ellipse cx="4035" cy="3494.5" rx="3.4" ry="3.4" stroke-width="0" c_etype="pad_outer"/><ellipse cx="4035" cy="3484.5" rx="3.4" ry="3.4" stroke-width="0" c_etype="pad_outer"/><ellipse cx="4153.858" cy="3528.674" rx="3.4" ry="3.4" stroke-width="0" c_etype="pad_outer"/><ellipse cx="4134.173" cy="3536.941" rx="3.4" ry="3.4" stroke-width="0" c_etype="pad_outer"/><ellipse cx="4248.346" cy="3528.674" rx="3.4" ry="3.4" stroke-width="0" c_etype="pad_outer"/><ellipse cx="4228.661" cy="3536.941" rx="3.4" ry="3.4" stroke-width="0" c_etype="pad_outer"/><ellipse cx="4342.835" cy="3528.674" rx="3.4" ry="3.4" stroke-width="0" c_etype="pad_outer"/><ellipse cx="4323.15" cy="3536.941" rx="3.4" ry="3.4" stroke-width="0" c_etype="pad_outer"/><ellipse cx="4437.323" cy="3528.674" rx="3.4" ry="3.4" stroke-width="0" c_etype="pad_outer"/><ellipse cx="4417.638" cy="3536.941" rx="3.4" ry="3.4" stroke-width="0" c_etype="pad_outer"/><ellipse cx="4531.811" cy="3528.674" rx="3.4" ry="3.4" stroke-width="0" c_etype="pad_outer"/><ellipse cx="4512.126" cy="3536.941" rx="3.4" ry="3.4" stroke-width="0" c_etype="pad_outer"/></g></mask></defs><g xmlns="http://www.w3.org/2000/svg" id="g1" mask="url(#multiLayerMask)" class="photoview" transform="matrix(-1, 0, 0, 1, 8571.49609375, 0)"><g id="layer_other" class="shapeBox"><path d="M4020 3562.9252,4020 3464.5,4551.4961 3464.5,4551.4961 3562.9252z" stroke="none" id="boardOutlineReal" fill="#80785F"/><path d="M4020 3562.9252,4020 3464.5,4551.4961 3464.5,4551.4961 3562.9252z" stroke="none" id="topBoardSolderReal" mask="url(#topBoardSolderMask)" fill="#002966" display="none"/><g id="topSignalReal" fill="#DCAA14" stroke="#DCAA14" display="none"><polyline points="4342.83 3528.67 4304.17 3528.67 4276 3500.5 4049 3500.5 4035 3514.5" stroke-width="1" c_shapetype="line" stroke-linecap="round" fill="none" layerid="1" net="" id="gge564_1" locked="0"/><polyline points="4035 3494.5 4461 3494.5 4495.17 3528.67 4531.81 3528.67" stroke-width="1" c_shapetype="line" stroke-linecap="round" fill="none" layerid="1" net="" id="gge566_1" locked="0"/><polyline points="4035 3504.5 4042 3497.5 4369 3497.5 4400 3528.5 4400 3528.67 4437.32 3528.67" stroke-width="1" c_shapetype="line" stroke-linecap="round" fill="none" layerid="1" net="" id="gge565_1" locked="0"/><polyline points="4248.35 3528.67 4162.5 3528.67 4157.83 3524 4134.5 3524 4126.5 3532 4062 3532 4054.5 3524.5 4035 3524.5" stroke-width="1" c_shapetype="line" stroke-linecap="round" fill="none" layerid="1" net="" id="gge557_1" locked="0"/><polyline points="4153.858 3528.674 4133.826 3528.674 4128 3534.5 4035 3534.5" stroke-width="1" c_shapetype="line" stroke-linecap="round" fill="none" layerid="1" net="" id="gge554_1" locked="0"/><polyline points="4134.173 3536.941 4061.559 3536.941 4054 3544.5 4035 3544.5" stroke-width="1" c_shapetype="line" stroke-linecap="round" fill="none" layerid="1" net="" id="gge552_1" locked="0"/><polyline points="4417.638 3536.941 4512.126 3536.941" stroke-width="1" c_shapetype="line" stroke-linecap="round" fill="none" layerid="1" net="" id="gge551_1" locked="0"/><polyline points="4323.15 3536.941 4417.638 3536.941" stroke-width="1" c_shapetype="line" stroke-linecap="round" fill="none" layerid="1" net="" id="gge550_1" locked="0"/><polyline points="4228.661 3536.941 4323.15 3536.941" stroke-width="1" c_shapetype="line" stroke-linecap="round" fill="none" layerid="1" net="" id="gge549_1" locked="0"/><polyline points="4134.173 3536.941 4228.661 3536.941" stroke-width="1" c_shapetype="line" stroke-linecap="round" fill="none" layerid="1" net="" id="gge547_1" locked="0"/><g c_partid="part_pad" c_etype="pinpart" layerid="11" id="gge487_11" c_origin="4035,3544.5" net="" c_rotation="90" c_width="6" c_height="6"><polygon points="4032 3547.5 4032 3541.5 4038 3541.5 4038 3547.5" stroke-width="0" c_etype="pad_shell"/></g><g c_partid="part_pad" c_etype="pinpart" layerid="11" id="gge492_11" c_origin="4035,3534.5" net="" c_rotation="90" c_width="6" c_height="6"><ellipse cx="4035" cy="3534.5" rx="3" ry="3" stroke-width="0" c_etype="pad_shell"/></g><g c_partid="part_pad" c_etype="pinpart" layerid="11" id="gge497_11" c_origin="4035,3524.5" net="" c_rotation="90" c_width="6" c_height="6"><ellipse cx="4035" cy="3524.5" rx="3" ry="3" stroke-width="0" c_etype="pad_shell"/></g><g c_partid="part_pad" c_etype="pinpart" layerid="11" id="gge502_11" c_origin="4035,3514.5" net="" c_rotation="90" c_width="6" c_height="6"><ellipse cx="4035" cy="3514.5" rx="3" ry="3" stroke-width="0" c_etype="pad_shell"/></g><g c_partid="part_pad" c_etype="pinpart" layerid="11" id="gge507_11" c_origin="4035,3504.5" net="" c_rotation="90" c_width="6" c_height="6"><ellipse cx="4035" cy="3504.5" rx="3" ry="3" stroke-width="0" c_etype="pad_shell"/></g><g c_partid="part_pad" c_etype="pinpart" layerid="11" id="gge512_11" c_origin="4035,3494.5" net="" c_rotation="90" c_width="6" c_height="6"><ellipse cx="4035" cy="3494.5" rx="3" ry="3" stroke-width="0" c_etype="pad_shell"/></g><g c_partid="part_pad" c_etype="pinpart" layerid="11" id="gge517_11" c_origin="4035,3484.5" net="" c_rotation="90" c_width="6" c_height="6"><ellipse cx="4035" cy="3484.5" rx="3" ry="3" stroke-width="0" c_etype="pad_shell"/></g><g c_partid="part_pad" c_etype="pinpart" layerid="11" id="gge19_11" c_origin="4153.858,3528.674" net="" c_rotation="0" c_width="6" c_height="6"><ellipse cx="4153.858" cy="3528.674" rx="3" ry="3" stroke-width="0" c_etype="pad_shell"/></g><g c_partid="part_pad" c_etype="pinpart" layerid="11" id="gge24_11" c_origin="4134.173,3536.941" net="" c_rotation="0" c_width="6" c_height="6"><ellipse cx="4134.173" cy="3536.941" rx="3" ry="3" stroke-width="0" c_etype="pad_shell"/></g><g c_partid="part_pad" c_etype="pinpart" layerid="11" id="gge47_11" c_origin="4248.346,3528.674" net="" c_rotation="0" c_width="6" c_height="6"><ellipse cx="4248.346" cy="3528.674" rx="3" ry="3" stroke-width="0" c_etype="pad_shell"/></g><g c_partid="part_pad" c_etype="pinpart" layerid="11" id="gge52_11" c_origin="4228.661,3536.941" net="" c_rotation="0" c_width="6" c_height="6"><ellipse cx="4228.661" cy="3536.941" rx="3" ry="3" stroke-width="0" c_etype="pad_shell"/></g><g c_partid="part_pad" c_etype="pinpart" layerid="11" id="gge75_11" c_origin="4342.835,3528.674" net="" c_rotation="0" c_width="6" c_height="6"><ellipse cx="4342.835" cy="3528.674" rx="3" ry="3" stroke-width="0" c_etype="pad_shell"/></g><g c_partid="part_pad" c_etype="pinpart" layerid="11" id="gge80_11" c_origin="4323.15,3536.941" net="" c_rotation="0" c_width="6" c_height="6"><ellipse cx="4323.15" cy="3536.941" rx="3" ry="3" stroke-width="0" c_etype="pad_shell"/></g><g c_partid="part_pad" c_etype="pinpart" layerid="11" id="gge103_11" c_origin="4437.323,3528.674" net="" c_rotation="0" c_width="6" c_height="6"><ellipse cx="4437.323" cy="3528.674" rx="3" ry="3" stroke-width="0" c_etype="pad_shell"/></g><g c_partid="part_pad" c_etype="pinpart" layerid="11" id="gge108_11" c_origin="4417.638,3536.941" net="" c_rotation="0" c_width="6" c_height="6"><ellipse cx="4417.638" cy="3536.941" rx="3" ry="3" stroke-width="0" c_etype="pad_shell"/></g><g c_partid="part_pad" c_etype="pinpart" layerid="11" id="gge131_11" c_origin="4531.811,3528.674" net="" c_rotation="0" c_width="6" c_height="6"><ellipse cx="4531.811" cy="3528.674" rx="3" ry="3" stroke-width="0" c_etype="pad_shell"/></g><g c_partid="part_pad" c_etype="pinpart" layerid="11" id="gge136_11" c_origin="4512.126,3536.941" net="" c_rotation="0" c_width="6" c_height="6"><ellipse cx="4512.126" cy="3536.941" rx="3" ry="3" stroke-width="0" c_etype="pad_shell"/></g></g><g id="topSignalSolderReal" mask="url(#topSignalSolderMask)" fill="#005CB6" stroke="#005CB6" display="none"><polyline points="4342.83 3528.67 4304.17 3528.67 4276 3500.5 4049 3500.5 4035 3514.5" stroke-width="1" c_shapetype="line" stroke-linecap="round" fill="none" layerid="1" net="" id="gge564_1" locked="0"/><polyline points="4035 3494.5 4461 3494.5 4495.17 3528.67 4531.81 3528.67" stroke-width="1" c_shapetype="line" stroke-linecap="round" fill="none" layerid="1" net="" id="gge566_1" locked="0"/><polyline points="4035 3504.5 4042 3497.5 4369 3497.5 4400 3528.5 4400 3528.67 4437.32 3528.67" stroke-width="1" c_shapetype="line" stroke-linecap="round" fill="none" layerid="1" net="" id="gge565_1" locked="0"/><polyline points="4248.35 3528.67 4162.5 3528.67 4157.83 3524 4134.5 3524 4126.5 3532 4062 3532 4054.5 3524.5 4035 3524.5" stroke-width="1" c_shapetype="line" stroke-linecap="round" fill="none" layerid="1" net="" id="gge557_1" locked="0"/><polyline points="4153.858 3528.674 4133.826 3528.674 4128 3534.5 4035 3534.5" stroke-width="1" c_shapetype="line" stroke-linecap="round" fill="none" layerid="1" net="" id="gge554_1" locked="0"/><polyline points="4134.173 3536.941 4061.559 3536.941 4054 3544.5 4035 3544.5" stroke-width="1" c_shapetype="line" stroke-linecap="round" fill="none" layerid="1" net="" id="gge552_1" locked="0"/><polyline points="4417.638 3536.941 4512.126 3536.941" stroke-width="1" c_shapetype="line" stroke-linecap="round" fill="none" layerid="1" net="" id="gge551_1" locked="0"/><polyline points="4323.15 3536.941 4417.638 3536.941" stroke-width="1" c_shapetype="line" stroke-linecap="round" fill="none" layerid="1" net="" id="gge550_1" locked="0"/><polyline points="4228.661 3536.941 4323.15 3536.941" stroke-width="1" c_shapetype="line" stroke-linecap="round" fill="none" layerid="1" net="" id="gge549_1" locked="0"/><polyline points="4134.173 3536.941 4228.661 3536.941" stroke-width="1" c_shapetype="line" stroke-linecap="round" fill="none" layerid="1" net="" id="gge547_1" locked="0"/><g c_partid="part_pad" c_etype="pinpart" layerid="11" id="gge487_11" c_origin="4035,3544.5" net="" c_rotation="90" c_width="6" c_height="6"><polygon points="4032 3547.5 4032 3541.5 4038 3541.5 4038 3547.5" stroke-width="0" c_etype="pad_shell"/></g><g c_partid="part_pad" c_etype="pinpart" layerid="11" id="gge492_11" c_origin="4035,3534.5" net="" c_rotation="90" c_width="6" c_height="6"><ellipse cx="4035" cy="3534.5" rx="3" ry="3" stroke-width="0" c_etype="pad_shell"/></g><g c_partid="part_pad" c_etype="pinpart" layerid="11" id="gge497_11" c_origin="4035,3524.5" net="" c_rotation="90" c_width="6" c_height="6"><ellipse cx="4035" cy="3524.5" rx="3" ry="3" stroke-width="0" c_etype="pad_shell"/></g><g c_partid="part_pad" c_etype="pinpart" layerid="11" id="gge502_11" c_origin="4035,3514.5" net="" c_rotation="90" c_width="6" c_height="6"><ellipse cx="4035" cy="3514.5" rx="3" ry="3" stroke-width="0" c_etype="pad_shell"/></g><g c_partid="part_pad" c_etype="pinpart" layerid="11" id="gge507_11" c_origin="4035,3504.5" net="" c_rotation="90" c_width="6" c_height="6"><ellipse cx="4035" cy="3504.5" rx="3" ry="3" stroke-width="0" c_etype="pad_shell"/></g><g c_partid="part_pad" c_etype="pinpart" layerid="11" id="gge512_11" c_origin="4035,3494.5" net="" c_rotation="90" c_width="6" c_height="6"><ellipse cx="4035" cy="3494.5" rx="3" ry="3" stroke-width="0" c_etype="pad_shell"/></g><g c_partid="part_pad" c_etype="pinpart" layerid="11" id="gge517_11" c_origin="4035,3484.5" net="" c_rotation="90" c_width="6" c_height="6"><ellipse cx="4035" cy="3484.5" rx="3" ry="3" stroke-width="0" c_etype="pad_shell"/></g><g c_partid="part_pad" c_etype="pinpart" layerid="11" id="gge19_11" c_origin="4153.858,3528.674" net="" c_rotation="0" c_width="6" c_height="6"><ellipse cx="4153.858" cy="3528.674" rx="3" ry="3" stroke-width="0" c_etype="pad_shell"/></g><g c_partid="part_pad" c_etype="pinpart" layerid="11" id="gge24_11" c_origin="4134.173,3536.941" net="" c_rotation="0" c_width="6" c_height="6"><ellipse cx="4134.173" cy="3536.941" rx="3" ry="3" stroke-width="0" c_etype="pad_shell"/></g><g c_partid="part_pad" c_etype="pinpart" layerid="11" id="gge47_11" c_origin="4248.346,3528.674" net="" c_rotation="0" c_width="6" c_height="6"><ellipse cx="4248.346" cy="3528.674" rx="3" ry="3" stroke-width="0" c_etype="pad_shell"/></g><g c_partid="part_pad" c_etype="pinpart" layerid="11" id="gge52_11" c_origin="4228.661,3536.941" net="" c_rotation="0" c_width="6" c_height="6"><ellipse cx="4228.661" cy="3536.941" rx="3" ry="3" stroke-width="0" c_etype="pad_shell"/></g><g c_partid="part_pad" c_etype="pinpart" layerid="11" id="gge75_11" c_origin="4342.835,3528.674" net="" c_rotation="0" c_width="6" c_height="6"><ellipse cx="4342.835" cy="3528.674" rx="3" ry="3" stroke-width="0" c_etype="pad_shell"/></g><g c_partid="part_pad" c_etype="pinpart" layerid="11" id="gge80_11" c_origin="4323.15,3536.941" net="" c_rotation="0" c_width="6" c_height="6"><ellipse cx="4323.15" cy="3536.941" rx="3" ry="3" stroke-width="0" c_etype="pad_shell"/></g><g c_partid="part_pad" c_etype="pinpart" layerid="11" id="gge103_11" c_origin="4437.323,3528.674" net="" c_rotation="0" c_width="6" c_height="6"><ellipse cx="4437.323" cy="3528.674" rx="3" ry="3" stroke-width="0" c_etype="pad_shell"/></g><g c_partid="part_pad" c_etype="pinpart" layerid="11" id="gge108_11" c_origin="4417.638,3536.941" net="" c_rotation="0" c_width="6" c_height="6"><ellipse cx="4417.638" cy="3536.941" rx="3" ry="3" stroke-width="0" c_etype="pad_shell"/></g><g c_partid="part_pad" c_etype="pinpart" layerid="11" id="gge131_11" c_origin="4531.811,3528.674" net="" c_rotation="0" c_width="6" c_height="6"><ellipse cx="4531.811" cy="3528.674" rx="3" ry="3" stroke-width="0" c_etype="pad_shell"/></g><g c_partid="part_pad" c_etype="pinpart" layerid="11" id="gge136_11" c_origin="4512.126,3536.941" net="" c_rotation="0" c_width="6" c_height="6"><ellipse cx="4512.126" cy="3536.941" rx="3" ry="3" stroke-width="0" c_etype="pad_shell"/></g></g><g id="topSilkLayer" fill="#FFFFFF" stroke="#FFFFFF" display="none"><g c_partid="part_pcbtext" c_etype="pinpart" c_origin="4042.63,3488.721" c_rotation="0" c_mirror="0" id="gge471_3" locked="0" layerid="3" c_shapetype="group"><path c_fontsize="8" c_fontfamily="" c_text="5v" d="M 4046.99 3480.65 L 4043.36 3480.65 L 4042.99 3483.92 L 4043.36 3483.56 L 4044.45 3483.19 L 4045.54 3483.19 L 4046.63 3483.56 L 4047.36 3484.28 L 4047.72 3485.38 L 4047.72 3486.1 L 4047.36 3487.19 L 4046.63 3487.92 L 4045.54 3488.28 L 4044.45 3488.28 L 4043.36 3487.92 L 4042.99 3487.56 L 4042.63 3486.83 M 4050.12 3483.19 L 4052.3 3488.28 M 4054.48 3483.19 L 4052.3 3488.28" fill="none" stroke-width="0.8"/></g><g c_partid="part_pcbtext" c_etype="pinpart" c_origin="4120,3483.5" c_rotation="0" c_mirror="0" id="gge346_3" locked="0" layerid="3" c_shapetype="group"><path c_fontsize="8" c_fontfamily="" c_text="ORANGE" d="M 4122.18 3475.43 L 4121.45 3475.79 L 4120.73 3476.52 L 4120.36 3477.25 L 4120 3478.34 L 4120 3480.15 L 4120.36 3481.25 L 4120.73 3481.97 L 4121.45 3482.7 L 4122.18 3483.06 L 4123.64 3483.06 L 4124.36 3482.7 L 4125.09 3481.97 L 4125.45 3481.25 L 4125.82 3480.15 L 4125.82 3478.34 L 4125.45 3477.25 L 4125.09 3476.52 L 4124.36 3475.79 L 4123.64 3475.43 L 4122.18 3475.43 M 4128.22 3475.43 L 4128.22 3483.06 M 4128.22 3475.43 L 4131.49 3475.43 L 4132.58 3475.79 L 4132.95 3476.15 L 4133.31 3476.88 L 4133.31 3477.61 L 4132.95 3478.34 L 4132.58 3478.7 L 4131.49 3479.06 L 4128.22 3479.06 M 4130.76 3479.06 L 4133.31 3483.06 M 4138.62 3475.43 L 4135.71 3483.06 M 4138.62 3475.43 L 4141.53 3483.06 M 4136.8 3480.52 L 4140.44 3480.52 M 4143.93 3475.43 L 4143.93 3483.06 M 4143.93 3475.43 L 4149.02 3483.06 M 4149.02 3475.43 L 4149.02 3483.06 M 4156.87 3477.25 L 4156.51 3476.52 L 4155.78 3475.79 L 4155.05 3475.43 L 4153.6 3475.43 L 4152.87 3475.79 L 4152.15 3476.52 L 4151.78 3477.25 L 4151.42 3478.34 L 4151.42 3480.15 L 4151.78 3481.25 L 4152.15 3481.97 L 4152.87 3482.7 L 4153.6 3483.06 L 4155.05 3483.06 L 4155.78 3482.7 L 4156.51 3481.97 L 4156.87 3481.25 L 4156.87 3480.15 M 4155.05 3480.15 L 4156.87 3480.15 M 4159.27 3475.43 L 4159.27 3483.06 M 4159.27 3475.43 L 4164 3475.43 M 4159.27 3479.06 L 4162.18 3479.06 M 4159.27 3483.06 L 4164 3483.06" fill="none" stroke-width="0.8"/></g><g c_partid="part_pcbtext" c_etype="pinpart" c_origin="4216.5,3483.5" c_rotation="0" c_mirror="0" id="gge348_3" locked="0" layerid="3" c_shapetype="group"><path c_fontsize="8" c_fontfamily="" c_text="BLUE" d="M 4216.5 3475.43 L 4216.5 3483.06 M 4216.5 3475.43 L 4219.77 3475.43 L 4220.86 3475.79 L 4221.23 3476.15 L 4221.59 3476.88 L 4221.59 3477.61 L 4221.23 3478.34 L 4220.86 3478.7 L 4219.77 3479.06 M 4216.5 3479.06 L 4219.77 3479.06 L 4220.86 3479.43 L 4221.23 3479.79 L 4221.59 3480.52 L 4221.59 3481.61 L 4221.23 3482.34 L 4220.86 3482.7 L 4219.77 3483.06 L 4216.5 3483.06 M 4223.99 3475.43 L 4223.99 3483.06 M 4223.99 3483.06 L 4228.35 3483.06 M 4230.75 3475.43 L 4230.75 3480.88 L 4231.12 3481.97 L 4231.85 3482.7 L 4232.94 3483.06 L 4233.66 3483.06 L 4234.75 3482.7 L 4235.48 3481.97 L 4235.85 3480.88 L 4235.85 3475.43 M 4238.25 3475.43 L 4238.25 3483.06 M 4238.25 3475.43 L 4242.97 3475.43 M 4238.25 3479.06 L 4241.15 3479.06 M 4238.25 3483.06 L 4242.97 3483.06" fill="none" stroke-width="0.8"/></g><g c_partid="part_pcbtext" c_etype="pinpart" c_origin="4301.5,3483.5" c_rotation="0" c_mirror="0" id="gge350_3" locked="0" layerid="3" c_shapetype="group"><path c_fontsize="8" c_fontfamily="" c_text="YELLOW" d="M 4301.5 3475.43 L 4304.41 3479.06 L 4304.41 3483.06 M 4307.32 3475.43 L 4304.41 3479.06 M 4309.72 3475.43 L 4309.72 3483.06 M 4309.72 3475.43 L 4314.45 3475.43 M 4309.72 3479.06 L 4312.63 3479.06 M 4309.72 3483.06 L 4314.45 3483.06 M 4316.85 3475.43 L 4316.85 3483.06 M 4316.85 3483.06 L 4321.21 3483.06 M 4323.61 3475.43 L 4323.61 3483.06 M 4323.61 3483.06 L 4327.97 3483.06 M 4332.55 3475.43 L 4331.83 3475.79 L 4331.1 3476.52 L 4330.74 3477.25 L 4330.37 3478.34 L 4330.37 3480.15 L 4330.74 3481.25 L 4331.1 3481.97 L 4331.83 3482.7 L 4332.55 3483.06 L 4334.01 3483.06 L 4334.74 3482.7 L 4335.46 3481.97 L 4335.83 3481.25 L 4336.19 3480.15 L 4336.19 3478.34 L 4335.83 3477.25 L 4335.46 3476.52 L 4334.74 3475.79 L 4334.01 3475.43 L 4332.55 3475.43 M 4338.59 3475.43 L 4340.41 3483.06 M 4342.23 3475.43 L 4340.41 3483.06 M 4342.23 3475.43 L 4344.05 3483.06 M 4345.86 3475.43 L 4344.05 3483.06" fill="none" stroke-width="0.8"/></g><g c_partid="part_pcbtext" c_etype="pinpart" c_origin="4409,3483.5" c_rotation="0" c_mirror="0" id="gge352_3" locked="0" layerid="3" c_shapetype="group"><path c_fontsize="8" c_fontfamily="" c_text="RED" d="M 4409 3475.43 L 4409 3483.06 M 4409 3475.43 L 4412.27 3475.43 L 4413.36 3475.79 L 4413.73 3476.15 L 4414.09 3476.88 L 4414.09 3477.61 L 4413.73 3478.34 L 4413.36 3478.7 L 4412.27 3479.06 L 4409 3479.06 M 4411.55 3479.06 L 4414.09 3483.06 M 4416.49 3475.43 L 4416.49 3483.06 M 4416.49 3475.43 L 4421.22 3475.43 M 4416.49 3479.06 L 4419.4 3479.06 M 4416.49 3483.06 L 4421.22 3483.06 M 4423.62 3475.43 L 4423.62 3483.06 M 4423.62 3475.43 L 4426.16 3475.43 L 4427.25 3475.79 L 4427.98 3476.52 L 4428.35 3477.25 L 4428.71 3478.34 L 4428.71 3480.15 L 4428.35 3481.25 L 4427.98 3481.97 L 4427.25 3482.7 L 4426.16 3483.06 L 4423.62 3483.06" fill="none" stroke-width="0.8"/></g><g c_partid="part_pcbtext" c_etype="pinpart" c_origin="4487,3483.5" c_rotation="0" c_mirror="0" id="gge354_3" locked="0" layerid="3" c_shapetype="group"><path c_fontsize="8" c_fontfamily="" c_text="GREEN" d="M 4492.45 3477.25 L 4492.09 3476.52 L 4491.36 3475.79 L 4490.64 3475.43 L 4489.18 3475.43 L 4488.45 3475.79 L 4487.73 3476.52 L 4487.36 3477.25 L 4487 3478.34 L 4487 3480.15 L 4487.36 3481.25 L 4487.73 3481.97 L 4488.45 3482.7 L 4489.18 3483.06 L 4490.64 3483.06 L 4491.36 3482.7 L 4492.09 3481.97 L 4492.45 3481.25 L 4492.45 3480.15 M 4490.64 3480.15 L 4492.45 3480.15 M 4494.85 3475.43 L 4494.85 3483.06 M 4494.85 3475.43 L 4498.13 3475.43 L 4499.22 3475.79 L 4499.58 3476.15 L 4499.95 3476.88 L 4499.95 3477.61 L 4499.58 3478.34 L 4499.22 3478.7 L 4498.13 3479.06 L 4494.85 3479.06 M 4497.4 3479.06 L 4499.95 3483.06 M 4502.35 3475.43 L 4502.35 3483.06 M 4502.35 3475.43 L 4507.07 3475.43 M 4502.35 3479.06 L 4505.25 3479.06 M 4502.35 3483.06 L 4507.07 3483.06 M 4509.47 3475.43 L 4509.47 3483.06 M 4509.47 3475.43 L 4514.2 3475.43 M 4509.47 3479.06 L 4512.38 3479.06 M 4509.47 3483.06 L 4514.2 3483.06 M 4516.6 3475.43 L 4516.6 3483.06 M 4516.6 3475.43 L 4521.69 3483.06 M 4521.69 3475.43 L 4521.69 3483.06" fill="none" stroke-width="0.8"/></g><g c_partid="part_pcbtext" c_etype="pinpart" c_origin="4042.63,3538.721" c_rotation="0" c_mirror="0" id="gge359_3" locked="0" layerid="3" c_shapetype="group"><path c_fontsize="8" c_fontfamily="" c_text="O" d="M 4044.81 3530.65 L 4044.08 3531.01 L 4043.36 3531.74 L 4042.99 3532.47 L 4042.63 3533.56 L 4042.63 3535.38 L 4042.99 3536.47 L 4043.36 3537.19 L 4044.08 3537.92 L 4044.81 3538.28 L 4046.27 3538.28 L 4046.99 3537.92 L 4047.72 3537.19 L 4048.08 3536.47 L 4048.45 3535.38 L 4048.45 3533.56 L 4048.08 3532.47 L 4047.72 3531.74 L 4046.99 3531.01 L 4046.27 3530.65 L 4044.81 3530.65" fill="none" stroke-width="0.8"/></g><g c_partid="part_pcbtext" c_etype="pinpart" c_origin="4042.63,3548.721" c_rotation="0" c_mirror="0" id="gge362_3" locked="0" layerid="3" c_shapetype="group"><path c_fontsize="8" c_fontfamily="" c_text="GND" d="M 4048.0799 3542.4705 L 4047.7199 3541.7405 L 4046.9899 3541.0105 L 4046.2699 3540.6505 L 4044.8099 3540.6505 L 4044.0799 3541.0105 L 4043.3599 3541.7405 L 4042.9899 3542.4705 L 4042.6299 3543.5605 L 4042.6299 3545.3705 L 4042.9899 3546.4705 L 4043.3599 3547.1905 L 4044.0799 3547.9205 L 4044.8099 3548.2805 L 4046.2699 3548.2805 L 4046.9899 3547.9205 L 4047.7199 3547.1905 L 4048.0799 3546.4705 L 4048.0799 3545.3705 M 4046.2699 3545.3705 L 4048.0799 3545.3705 M 4050.4799 3540.6505 L 4050.4799 3548.2805 M 4050.4799 3540.6505 L 4055.5799 3548.2805 M 4055.5799 3540.6505 L 4055.5799 3548.2805 M 4057.9799 3540.6505 L 4057.9799 3548.2805 M 4057.9799 3540.6505 L 4060.5199 3540.6505 L 4061.6099 3541.0105 L 4062.3399 3541.7405 L 4062.6999 3542.4705 L 4063.0699 3543.5605 L 4063.0699 3545.3705 L 4062.6999 3546.4705 L 4062.3399 3547.1905 L 4061.6099 3547.9205 L 4060.5199 3548.2805 L 4057.9799 3548.2805" fill="none" stroke-width="0.8"/></g><g c_partid="part_pcbtext" c_etype="pinpart" c_origin="4043,3528" c_rotation="0" c_mirror="0" id="gge373_3" locked="0" layerid="3" c_shapetype="group"><path c_fontsize="8" c_fontfamily="" c_text="B" d="M 4043.0001 3519.9295 L 4043.0001 3527.5595 M 4043.0001 3519.9295 L 4046.2701 3519.9295 L 4047.3601 3520.2895 L 4047.7301 3520.6595 L 4048.0901 3521.3795 L 4048.0901 3522.1095 L 4047.7301 3522.8395 L 4047.3601 3523.1995 L 4046.2701 3523.5595 M 4043.0001 3523.5595 L 4046.2701 3523.5595 L 4047.3601 3523.9295 L 4047.7301 3524.2895 L 4048.0901 3525.0195 L 4048.0901 3526.1095 L 4047.7301 3526.8395 L 4047.3601 3527.1995 L 4046.2701 3527.5595 L 4043.0001 3527.5595" fill="none" stroke-width="0.8"/></g><g c_partid="part_pcbtext" c_etype="pinpart" c_origin="4042.63,3518.221" c_rotation="0" c_mirror="0" id="gge377_3" locked="0" layerid="3" c_shapetype="group"><path c_fontsize="8" c_fontfamily="" c_text="Y" d="M 4042.63 3510.15 L 4045.54 3513.78 L 4045.54 3517.78 M 4048.45 3510.15 L 4045.54 3513.78" fill="none" stroke-width="0.8"/></g><g c_partid="part_pcbtext" c_etype="pinpart" c_origin="4043,3508" c_rotation="0" c_mirror="0" id="gge381_3" locked="0" layerid="3" c_shapetype="group"><path c_fontsize="8" c_fontfamily="" c_text="R" d="M 4043.0001 3499.9295 L 4043.0001 3507.5595 M 4043.0001 3499.9295 L 4046.2701 3499.9295 L 4047.3601 3500.2895 L 4047.7301 3500.6595 L 4048.0901 3501.3795 L 4048.0901 3502.1095 L 4047.7301 3502.8395 L 4047.3601 3503.1995 L 4046.2701 3503.5595 L 4043.0001 3503.5595 M 4045.5501 3503.5595 L 4048.0901 3507.5595" fill="none" stroke-width="0.8"/></g><g c_partid="part_pcbtext" c_etype="pinpart" c_origin="4042.63,3498.221" c_rotation="0" c_mirror="0" id="gge385_3" locked="0" layerid="3" c_shapetype="group"><path c_fontsize="8" c_fontfamily="" c_text="G" d="M 4048.08 3491.97 L 4047.72 3491.24 L 4046.99 3490.51 L 4046.27 3490.15 L 4044.81 3490.15 L 4044.08 3490.51 L 4043.36 3491.24 L 4042.99 3491.97 L 4042.63 3493.06 L 4042.63 3494.88 L 4042.99 3495.97 L 4043.36 3496.69 L 4044.08 3497.42 L 4044.81 3497.78 L 4046.27 3497.78 L 4046.99 3497.42 L 4047.72 3496.69 L 4048.08 3495.97 L 4048.08 3494.88 M 4046.27 3494.88 L 4048.08 3494.88" fill="none" stroke-width="0.8"/></g><g c_partid="part_pcbtext" c_etype="" c_origin="4021,3515" c_rotation="90" c_mirror="0" id="gge399_3" locked="0" layerid="3" c_shapetype="group" display="none"><path c_fontsize="4.5" c_fontfamily="" c_text="1x7 2.54mm Header Strip" d="M 4017.2798 3515.0002L4017.0698 3514.5902 L4016.4598 3513.9802 L4020.7498 3513.9802 M 4017.8898 3512.6302L4020.7498 3510.3802 M 4017.8898 3510.3802L4020.7498 3512.6302 M 4016.4598 3506.1602L4020.7498 3508.2102 M 4016.4598 3509.0302L4016.4598 3506.1602 M 4017.4798 3501.4602L4017.2798 3501.4602 L4016.8698 3501.2502 L4016.6598 3501.0502 L4016.4598 3500.6402 L4016.4598 3499.8202 L4016.6598 3499.4102 L4016.8698 3499.2102 L4017.2798 3499.0002 L4017.6898 3499.0002 L4018.0998 3499.2102 L4018.7098 3499.6202 L4020.7498 3501.6602 L4020.7498 3498.8002 M 4019.7298 3497.2502L4019.9398 3497.4502 L4020.1398 3497.2502 L4019.9398 3497.0402 L4019.7298 3497.2502 M 4016.4598 3493.2402L4016.4598 3495.2802 L4018.2998 3495.4902 L4018.0998 3495.2802 L4017.8898 3494.6702 L4017.8898 3494.0502 L4018.0998 3493.4402 L4018.4998 3493.0302 L4019.1198 3492.8302 L4019.5298 3492.8302 L4020.1398 3493.0302 L4020.5498 3493.4402 L4020.7498 3494.0502 L4020.7498 3494.6702 L4020.5498 3495.2802 L4020.3498 3495.4902 L4019.9398 3495.6902 M 4016.4598 3489.4302L4019.3198 3491.4802 L4019.3198 3488.4102 M 4016.4598 3489.4302L4020.7498 3489.4302 M 4017.8898 3487.0602L4020.7498 3487.0602 M 4018.7098 3487.0602L4018.0998 3486.4502 L4017.8898 3486.0402 L4017.8898 3485.4202 L4018.0998 3485.0102 L4018.7098 3484.8102 L4020.7498 3484.8102 M 4018.7098 3484.8102L4018.0998 3484.2002 L4017.8898 3483.7902 L4017.8898 3483.1702 L4018.0998 3482.7602 L4018.7098 3482.5602 L4020.7498 3482.5602 M 4017.8898 3481.2102L4020.7498 3481.2102 M 4018.7098 3481.2102L4018.0998 3480.6002 L4017.8898 3480.1902 L4017.8898 3479.5702 L4018.0998 3479.1602 L4018.7098 3478.9602 L4020.7498 3478.9602 M 4018.7098 3478.9602L4018.0998 3478.3502 L4017.8898 3477.9402 L4017.8898 3477.3202 L4018.0998 3476.9102 L4018.7098 3476.7102 L4020.7498 3476.7102 M 4016.4598 3472.2102L4020.7498 3472.2102 M 4016.4598 3469.3502L4020.7498 3469.3502 M 4018.4998 3472.2102L4018.4998 3469.3502 M 4019.1198 3468.0002L4019.1198 3465.5402 L4018.7098 3465.5402 L4018.2998 3465.7502 L4018.0998 3465.9502 L4017.8898 3466.3602 L4017.8898 3466.9702 L4018.0998 3467.3802 L4018.4998 3467.7902 L4019.1198 3468.0002 L4019.5298 3468.0002 L4020.1398 3467.7902 L4020.5498 3467.3802 L4020.7498 3466.9702 L4020.7498 3466.3602 L4020.5498 3465.9502 L4020.1398 3465.5402 M 4017.8898 3461.7402L4020.7498 3461.7402 M 4018.4998 3461.7402L4018.0998 3462.1502 L4017.8898 3462.5502 L4017.8898 3463.1702 L4018.0998 3463.5802 L4018.4998 3463.9902 L4019.1198 3464.1902 L4019.5298 3464.1902 L4020.1398 3463.9902 L4020.5498 3463.5802 L4020.7498 3463.1702 L4020.7498 3462.5502 L4020.5498 3462.1502 L4020.1398 3461.7402 M 4016.4598 3457.9302L4020.7498 3457.9302 M 4018.4998 3457.9302L4018.0998 3458.3402 L4017.8898 3458.7502 L4017.8898 3459.3602 L4018.0998 3459.7702 L4018.4998 3460.1802 L4019.1198 3460.3902 L4019.5298 3460.3902 L4020.1398 3460.1802 L4020.5498 3459.7702 L4020.7498 3459.3602 L4020.7498 3458.7502 L4020.5498 3458.3402 L4020.1398 3457.9302 M 4019.1198 3456.5802L4019.1198 3454.1302 L4018.7098 3454.1302 L4018.2998 3454.3302 L4018.0998 3454.5402 L4017.8898 3454.9502 L4017.8898 3455.5602 L4018.0998 3455.9702 L4018.4998 3456.3802 L4019.1198 3456.5802 L4019.5298 3456.5802 L4020.1398 3456.3802 L4020.5498 3455.9702 L4020.7498 3455.5602 L4020.7498 3454.9502 L4020.5498 3454.5402 L4020.1398 3454.1302 M 4017.8898 3452.7802L4020.7498 3452.7802 M 4019.1198 3452.7802L4018.4998 3452.5702 L4018.0998 3452.1602 L4017.8898 3451.7502 L4017.8898 3451.1402 M 4017.0698 3443.7802L4016.6598 3444.1902 L4016.4598 3444.8002 L4016.4598 3445.6202 L4016.6598 3446.2302 L4017.0698 3446.6402 L4017.4798 3446.6402 L4017.8898 3446.4402 L4018.0998 3446.2302 L4018.2998 3445.8202 L4018.7098 3444.6002 L4018.9098 3444.1902 L4019.1198 3443.9802 L4019.5298 3443.7802 L4020.1398 3443.7802 L4020.5498 3444.1902 L4020.7498 3444.8002 L4020.7498 3445.6202 L4020.5498 3446.2302 L4020.1398 3446.6402 M 4016.4598 3441.8102L4019.9398 3441.8102 L4020.5498 3441.6102 L4020.7498 3441.2002 L4020.7498 3440.7902 M 4017.8898 3442.4302L4017.8898 3441.0002 M 4017.8898 3439.4402L4020.7498 3439.4402 M 4019.1198 3439.4402L4018.4998 3439.2402 L4018.0998 3438.8302 L4017.8898 3438.4202 L4017.8898 3437.8002 M 4016.4598 3436.4502L4016.6598 3436.2502 L4016.4598 3436.0502 L4016.2498 3436.2502 L4016.4598 3436.4502 M 4017.8898 3436.2502L4020.7498 3436.2502 M 4017.8898 3434.7002L4022.1898 3434.7002 M 4018.4998 3434.7002L4018.0998 3434.2902 L4017.8898 3433.8802 L4017.8898 3433.2602 L4018.0998 3432.8502 L4018.4998 3432.4502 L4019.1198 3432.2402 L4019.5298 3432.2402 L4020.1398 3432.4502 L4020.5498 3432.8502 L4020.7498 3433.2602 L4020.7498 3433.8802 L4020.5498 3434.2902 L4020.1398 3434.7002 " fill="none" stroke-width="0.6" c_note="note_name" style=""/></g><g c_partid="part_pcbtext" c_etype="" c_origin="4027.5,3535" c_rotation="90" c_mirror="0" id="gge401_3" locked="0" layerid="3" c_shapetype="group"><path c_fontsize="4.5" c_fontfamily="" c_text="CONTROLLER" d="M 4023.98 3531.93 L 4023.57 3532.14 L 4023.16 3532.55 L 4022.96 3532.95 L 4022.96 3533.77 L 4023.16 3534.18 L 4023.57 3534.59 L 4023.98 3534.8 L 4024.6 3535 L 4025.62 3535 L 4026.23 3534.8 L 4026.64 3534.59 L 4027.05 3534.18 L 4027.25 3533.77 L 4027.25 3532.95 L 4027.05 3532.55 L 4026.64 3532.14 L 4026.23 3531.93 M 4022.96 3529.35 L 4023.16 3529.76 L 4023.57 3530.17 L 4023.98 3530.38 L 4024.6 3530.58 L 4025.62 3530.58 L 4026.23 3530.38 L 4026.64 3530.17 L 4027.05 3529.76 L 4027.25 3529.35 L 4027.25 3528.54 L 4027.05 3528.13 L 4026.64 3527.72 L 4026.23 3527.51 L 4025.62 3527.31 L 4024.6 3527.31 L 4023.98 3527.51 L 4023.57 3527.72 L 4023.16 3528.13 L 4022.96 3528.54 L 4022.96 3529.35 M 4022.96 3525.96 L 4027.25 3525.96 M 4022.96 3525.96 L 4027.25 3523.1 M 4022.96 3523.1 L 4027.25 3523.1 M 4022.96 3520.31 L 4027.25 3520.31 M 4022.96 3521.75 L 4022.96 3518.88 M 4022.96 3517.53 L 4027.25 3517.53 M 4022.96 3517.53 L 4022.96 3515.69 L 4023.16 3515.08 L 4023.37 3514.87 L 4023.78 3514.67 L 4024.19 3514.67 L 4024.6 3514.87 L 4024.8 3515.08 L 4025 3515.69 L 4025 3517.53 M 4025 3516.1 L 4027.25 3514.67 M 4022.96 3512.09 L 4023.16 3512.5 L 4023.57 3512.91 L 4023.98 3513.11 L 4024.6 3513.32 L 4025.62 3513.32 L 4026.23 3513.11 L 4026.64 3512.91 L 4027.05 3512.5 L 4027.25 3512.09 L 4027.25 3511.27 L 4027.05 3510.86 L 4026.64 3510.45 L 4026.23 3510.25 L 4025.62 3510.05 L 4024.6 3510.05 L 4023.98 3510.25 L 4023.57 3510.45 L 4023.16 3510.86 L 4022.96 3511.27 L 4022.96 3512.09 M 4022.96 3508.7 L 4027.25 3508.7 M 4027.25 3508.7 L 4027.25 3506.24 M 4022.96 3504.89 L 4027.25 3504.89 M 4027.25 3504.89 L 4027.25 3502.44 M 4022.96 3501.09 L 4027.25 3501.09 M 4022.96 3501.09 L 4022.96 3498.43 M 4025 3501.09 L 4025 3499.45 M 4027.25 3501.09 L 4027.25 3498.43 M 4022.96 3497.08 L 4027.25 3497.08 M 4022.96 3497.08 L 4022.96 3495.24 L 4023.16 3494.62 L 4023.37 3494.42 L 4023.78 3494.21 L 4024.19 3494.21 L 4024.6 3494.42 L 4024.8 3494.62 L 4025 3495.24 L 4025 3497.08 M 4025 3495.65 L 4027.25 3494.21" fill="none" stroke-width="0.6" c_note="note_pre" style=""/></g><g c_partid="part_pcbtext" c_etype="" c_origin="4134.173,3497.713" c_rotation="0" c_mirror="0" id="gge3_3" locked="0" layerid="3" c_shapetype="group" display="none"><path c_fontsize="4.5" c_fontfamily="" c_text="KailhChocLowProfileOK" d="M 4134.1732 3493.1726 L 4134.1732 3497.4626 M 4137.0332 3493.1726 L 4134.1732 3496.0326 M 4135.1932 3495.0126 L 4137.0332 3497.4626 M 4140.8432 3494.6026 L 4140.8432 3497.4626 M 4140.8432 3495.2126 L 4140.4332 3494.8126 L 4140.0232 3494.6026 L 4139.4132 3494.6026 L 4139.0032 3494.8126 L 4138.5932 3495.2126 L 4138.3832 3495.8326 L 4138.3832 3496.2426 L 4138.5932 3496.8526 L 4139.0032 3497.2626 L 4139.4132 3497.4626 L 4140.0232 3497.4626 L 4140.4332 3497.2626 L 4140.8432 3496.8526 M 4142.1932 3493.1726 L 4142.3932 3493.3726 L 4142.6032 3493.1726 L 4142.3932 3492.9626 L 4142.1932 3493.1726 M 4142.3932 3494.6026 L 4142.3932 3497.4626 M 4143.9532 3493.1726 L 4143.9532 3497.4626 M 4145.3032 3493.1726 L 4145.3032 3497.4626 M 4145.3032 3495.4226 L 4145.9132 3494.8126 L 4146.3232 3494.6026 L 4146.9332 3494.6026 L 4147.3432 3494.8126 L 4147.5532 3495.4226 L 4147.5532 3497.4626 M 4151.9732 3494.1926 L 4151.7632 3493.7826 L 4151.3532 3493.3726 L 4150.9432 3493.1726 L 4150.1232 3493.1726 L 4149.7232 3493.3726 L 4149.3132 3493.7826 L 4149.1032 3494.1926 L 4148.9032 3494.8126 L 4148.9032 3495.8326 L 4149.1032 3496.4426 L 4149.3132 3496.8526 L 4149.7232 3497.2626 L 4150.1232 3497.4626 L 4150.9432 3497.4626 L 4151.3532 3497.2626 L 4151.7632 3496.8526 L 4151.9732 3496.4426 M 4153.3232 3493.1726 L 4153.3232 3497.4626 M 4153.3232 3495.4226 L 4153.9332 3494.8126 L 4154.3432 3494.6026 L 4154.9532 3494.6026 L 4155.3632 3494.8126 L 4155.5732 3495.4226 L 4155.5732 3497.4626 M 4157.9432 3494.6026 L 4157.5332 3494.8126 L 4157.1232 3495.2126 L 4156.9232 3495.8326 L 4156.9232 3496.2426 L 4157.1232 3496.8526 L 4157.5332 3497.2626 L 4157.9432 3497.4626 L 4158.5532 3497.4626 L 4158.9632 3497.2626 L 4159.3732 3496.8526 L 4159.5732 3496.2426 L 4159.5732 3495.8326 L 4159.3732 3495.2126 L 4158.9632 3494.8126 L 4158.5532 3494.6026 L 4157.9432 3494.6026 M 4163.3832 3495.2126 L 4162.9732 3494.8126 L 4162.5632 3494.6026 L 4161.9532 3494.6026 L 4161.5432 3494.8126 L 4161.1332 3495.2126 L 4160.9232 3495.8326 L 4160.9232 3496.2426 L 4161.1332 3496.8526 L 4161.5432 3497.2626 L 4161.9532 3497.4626 L 4162.5632 3497.4626 L 4162.9732 3497.2626 L 4163.3832 3496.8526 M 4164.7332 3493.1726 L 4164.7332 3497.4626 M 4164.7332 3497.4626 L 4167.1832 3497.4626 M 4169.5632 3494.6026 L 4169.1532 3494.8126 L 4168.7432 3495.2126 L 4168.5332 3495.8326 L 4168.5332 3496.2426 L 4168.7432 3496.8526 L 4169.1532 3497.2626 L 4169.5632 3497.4626 L 4170.1732 3497.4626 L 4170.5832 3497.2626 L 4170.9932 3496.8526 L 4171.1932 3496.2426 L 4171.1932 3495.8326 L 4170.9932 3495.2126 L 4170.5832 3494.8126 L 4170.1732 3494.6026 L 4169.5632 3494.6026 M 4172.5432 3494.6026 L 4173.3632 3497.4626 M 4174.1832 3494.6026 L 4173.3632 3497.4626 M 4174.1832 3494.6026 L 4175.0032 3497.4626 M 4175.8232 3494.6026 L 4175.0032 3497.4626 M 4177.1732 3493.1726 L 4177.1732 3497.4626 M 4177.1732 3493.1726 L 4179.0132 3493.1726 L 4179.6232 3493.3726 L 4179.8232 3493.5826 L 4180.0332 3493.9926 L 4180.0332 3494.6026 L 4179.8232 3495.0126 L 4179.6232 3495.2126 L 4179.0132 3495.4226 L 4177.1732 3495.4226 M 4181.3832 3494.6026 L 4181.3832 3497.4626 M 4181.3832 3495.8326 L 4181.5832 3495.2126 L 4181.9932 3494.8126 L 4182.4032 3494.6026 L 4183.0232 3494.6026 M 4185.3932 3494.6026 L 4184.9832 3494.8126 L 4184.5732 3495.2126 L 4184.3732 3495.8326 L 4184.3732 3496.2426 L 4184.5732 3496.8526 L 4184.9832 3497.2626 L 4185.3932 3497.4626 L 4186.0032 3497.4626 L 4186.4132 3497.2626 L 4186.8232 3496.8526 L 4187.0232 3496.2426 L 4187.0232 3495.8326 L 4186.8232 3495.2126 L 4186.4132 3494.8126 L 4186.0032 3494.6026 L 4185.3932 3494.6026 M 4190.0132 3493.1726 L 4189.6032 3493.1726 L 4189.1932 3493.3726 L 4188.9932 3493.9926 L 4188.9932 3497.4626 M 4188.3732 3494.6026 L 4189.8132 3494.6026 M 4191.3632 3493.1726 L 4191.5732 3493.3726 L 4191.7732 3493.1726 L 4191.5732 3492.9626 L 4191.3632 3493.1726 M 4191.5732 3494.6026 L 4191.5732 3497.4626 M 4193.1232 3493.1726 L 4193.1232 3497.4626 M 4194.4732 3495.8326 L 4196.9232 3495.8326 L 4196.9232 3495.4226 L 4196.7232 3495.0126 L 4196.5232 3494.8126 L 4196.1132 3494.6026 L 4195.4932 3494.6026 L 4195.0832 3494.8126 L 4194.6732 3495.2126 L 4194.4732 3495.8326 L 4194.4732 3496.2426 L 4194.6732 3496.8526 L 4195.0832 3497.2626 L 4195.4932 3497.4626 L 4196.1132 3497.4626 L 4196.5232 3497.2626 L 4196.9232 3496.8526 M 4199.5032 3493.1726 L 4199.0932 3493.3726 L 4198.6832 3493.7826 L 4198.4832 3494.1926 L 4198.2732 3494.8126 L 4198.2732 3495.8326 L 4198.4832 3496.4426 L 4198.6832 3496.8526 L 4199.0932 3497.2626 L 4199.5032 3497.4626 L 4200.3232 3497.4626 L 4200.7332 3497.2626 L 4201.1432 3496.8526 L 4201.3432 3496.4426 L 4201.5532 3495.8326 L 4201.5532 3494.8126 L 4201.3432 3494.1926 L 4201.1432 3493.7826 L 4200.7332 3493.3726 L 4200.3232 3493.1726 L 4199.5032 3493.1726 M 4202.9032 3493.1726 L 4202.9032 3497.4626 M 4205.7632 3493.1726 L 4202.9032 3496.0326 M 4203.9232 3495.0126 L 4205.7632 3497.4626" fill="none" stroke-width="0.6" c_note="note_name" style=""/></g><g c_partid="part_pcbtext" c_etype="" c_origin="4134.173,3504.713" c_rotation="0" c_mirror="0" id="gge5_3" locked="0" layerid="3" c_shapetype="group"><path c_fontsize="4.5" c_fontfamily="" c_text="U1" d="M 4134.1732 3500.1726 L 4134.1732 3503.2426 L 4134.3732 3503.8526 L 4134.7832 3504.2626 L 4135.4032 3504.4626 L 4135.8132 3504.4626 L 4136.4232 3504.2626 L 4136.8332 3503.8526 L 4137.0332 3503.2426 L 4137.0332 3500.1726 M 4138.3832 3500.9926 L 4138.7932 3500.7826 L 4139.4132 3500.1726 L 4139.4132 3504.4626" fill="none" stroke-width="0.6" c_note="note_pre" style=""/></g><g c_partid="part_pcbtext" c_etype="" c_origin="4228.661,3497.713" c_rotation="0" c_mirror="0" id="gge31_3" locked="0" layerid="3" c_shapetype="group" display="none"><path c_fontsize="4.5" c_fontfamily="" c_text="KailhChocLowProfileOK" d="M 4228.6614 3493.1726 L 4228.6614 3497.4626 M 4231.5214 3493.1726 L 4228.6614 3496.0326 M 4229.6814 3495.0126 L 4231.5214 3497.4626 M 4235.3314 3494.6026 L 4235.3314 3497.4626 M 4235.3314 3495.2126 L 4234.9214 3494.8126 L 4234.5114 3494.6026 L 4233.9014 3494.6026 L 4233.4914 3494.8126 L 4233.0814 3495.2126 L 4232.8714 3495.8326 L 4232.8714 3496.2426 L 4233.0814 3496.8526 L 4233.4914 3497.2626 L 4233.9014 3497.4626 L 4234.5114 3497.4626 L 4234.9214 3497.2626 L 4235.3314 3496.8526 M 4236.6814 3493.1726 L 4236.8814 3493.3726 L 4237.0914 3493.1726 L 4236.8814 3492.9626 L 4236.6814 3493.1726 M 4236.8814 3494.6026 L 4236.8814 3497.4626 M 4238.4414 3493.1726 L 4238.4414 3497.4626 M 4239.7914 3493.1726 L 4239.7914 3497.4626 M 4239.7914 3495.4226 L 4240.4014 3494.8126 L 4240.8114 3494.6026 L 4241.4214 3494.6026 L 4241.8314 3494.8126 L 4242.0414 3495.4226 L 4242.0414 3497.4626 M 4246.4614 3494.1926 L 4246.2514 3493.7826 L 4245.8414 3493.3726 L 4245.4314 3493.1726 L 4244.6114 3493.1726 L 4244.2114 3493.3726 L 4243.8014 3493.7826 L 4243.5914 3494.1926 L 4243.3914 3494.8126 L 4243.3914 3495.8326 L 4243.5914 3496.4426 L 4243.8014 3496.8526 L 4244.2114 3497.2626 L 4244.6114 3497.4626 L 4245.4314 3497.4626 L 4245.8414 3497.2626 L 4246.2514 3496.8526 L 4246.4614 3496.4426 M 4247.8114 3493.1726 L 4247.8114 3497.4626 M 4247.8114 3495.4226 L 4248.4214 3494.8126 L 4248.8314 3494.6026 L 4249.4414 3494.6026 L 4249.8514 3494.8126 L 4250.0614 3495.4226 L 4250.0614 3497.4626 M 4252.4314 3494.6026 L 4252.0214 3494.8126 L 4251.6114 3495.2126 L 4251.4114 3495.8326 L 4251.4114 3496.2426 L 4251.6114 3496.8526 L 4252.0214 3497.2626 L 4252.4314 3497.4626 L 4253.0414 3497.4626 L 4253.4514 3497.2626 L 4253.8614 3496.8526 L 4254.0614 3496.2426 L 4254.0614 3495.8326 L 4253.8614 3495.2126 L 4253.4514 3494.8126 L 4253.0414 3494.6026 L 4252.4314 3494.6026 M 4257.8714 3495.2126 L 4257.4614 3494.8126 L 4257.0514 3494.6026 L 4256.4414 3494.6026 L 4256.0314 3494.8126 L 4255.6214 3495.2126 L 4255.4114 3495.8326 L 4255.4114 3496.2426 L 4255.6214 3496.8526 L 4256.0314 3497.2626 L 4256.4414 3497.4626 L 4257.0514 3497.4626 L 4257.4614 3497.2626 L 4257.8714 3496.8526 M 4259.2214 3493.1726 L 4259.2214 3497.4626 M 4259.2214 3497.4626 L 4261.6714 3497.4626 M 4264.0514 3494.6026 L 4263.6414 3494.8126 L 4263.2314 3495.2126 L 4263.0214 3495.8326 L 4263.0214 3496.2426 L 4263.2314 3496.8526 L 4263.6414 3497.2626 L 4264.0514 3497.4626 L 4264.6614 3497.4626 L 4265.0714 3497.2626 L 4265.4814 3496.8526 L 4265.6814 3496.2426 L 4265.6814 3495.8326 L 4265.4814 3495.2126 L 4265.0714 3494.8126 L 4264.6614 3494.6026 L 4264.0514 3494.6026 M 4267.0314 3494.6026 L 4267.8514 3497.4626 M 4268.6714 3494.6026 L 4267.8514 3497.4626 M 4268.6714 3494.6026 L 4269.4914 3497.4626 M 4270.3114 3494.6026 L 4269.4914 3497.4626 M 4271.6614 3493.1726 L 4271.6614 3497.4626 M 4271.6614 3493.1726 L 4273.5014 3493.1726 L 4274.1114 3493.3726 L 4274.3114 3493.5826 L 4274.5214 3493.9926 L 4274.5214 3494.6026 L 4274.3114 3495.0126 L 4274.1114 3495.2126 L 4273.5014 3495.4226 L 4271.6614 3495.4226 M 4275.8714 3494.6026 L 4275.8714 3497.4626 M 4275.8714 3495.8326 L 4276.0714 3495.2126 L 4276.4814 3494.8126 L 4276.8914 3494.6026 L 4277.5114 3494.6026 M 4279.8814 3494.6026 L 4279.4714 3494.8126 L 4279.0614 3495.2126 L 4278.8614 3495.8326 L 4278.8614 3496.2426 L 4279.0614 3496.8526 L 4279.4714 3497.2626 L 4279.8814 3497.4626 L 4280.4914 3497.4626 L 4280.9014 3497.2626 L 4281.3114 3496.8526 L 4281.5114 3496.2426 L 4281.5114 3495.8326 L 4281.3114 3495.2126 L 4280.9014 3494.8126 L 4280.4914 3494.6026 L 4279.8814 3494.6026 M 4284.5014 3493.1726 L 4284.0914 3493.1726 L 4283.6814 3493.3726 L 4283.4814 3493.9926 L 4283.4814 3497.4626 M 4282.8614 3494.6026 L 4284.3014 3494.6026 M 4285.8514 3493.1726 L 4286.0614 3493.3726 L 4286.2614 3493.1726 L 4286.0614 3492.9626 L 4285.8514 3493.1726 M 4286.0614 3494.6026 L 4286.0614 3497.4626 M 4287.6114 3493.1726 L 4287.6114 3497.4626 M 4288.9614 3495.8326 L 4291.4114 3495.8326 L 4291.4114 3495.4226 L 4291.2114 3495.0126 L 4291.0114 3494.8126 L 4290.6014 3494.6026 L 4289.9814 3494.6026 L 4289.5714 3494.8126 L 4289.1614 3495.2126 L 4288.9614 3495.8326 L 4288.9614 3496.2426 L 4289.1614 3496.8526 L 4289.5714 3497.2626 L 4289.9814 3497.4626 L 4290.6014 3497.4626 L 4291.0114 3497.2626 L 4291.4114 3496.8526 M 4293.9914 3493.1726 L 4293.5814 3493.3726 L 4293.1714 3493.7826 L 4292.9714 3494.1926 L 4292.7614 3494.8126 L 4292.7614 3495.8326 L 4292.9714 3496.4426 L 4293.1714 3496.8526 L 4293.5814 3497.2626 L 4293.9914 3497.4626 L 4294.8114 3497.4626 L 4295.2214 3497.2626 L 4295.6314 3496.8526 L 4295.8314 3496.4426 L 4296.0414 3495.8326 L 4296.0414 3494.8126 L 4295.8314 3494.1926 L 4295.6314 3493.7826 L 4295.2214 3493.3726 L 4294.8114 3493.1726 L 4293.9914 3493.1726 M 4297.3914 3493.1726 L 4297.3914 3497.4626 M 4300.2514 3493.1726 L 4297.3914 3496.0326 M 4298.4114 3495.0126 L 4300.2514 3497.4626" fill="none" stroke-width="0.6" c_note="note_name" style=""/></g><g c_partid="part_pcbtext" c_etype="" c_origin="4228.661,3504.713" c_rotation="0" c_mirror="0" id="gge33_3" locked="0" layerid="3" c_shapetype="group"><path c_fontsize="4.5" c_fontfamily="" c_text="U2" d="M 4228.6614 3500.1726 L 4228.6614 3503.2426 L 4228.8614 3503.8526 L 4229.2714 3504.2626 L 4229.8914 3504.4626 L 4230.3014 3504.4626 L 4230.9114 3504.2626 L 4231.3214 3503.8526 L 4231.5214 3503.2426 L 4231.5214 3500.1726 M 4233.0814 3501.1926 L 4233.0814 3500.9926 L 4233.2814 3500.5826 L 4233.4914 3500.3726 L 4233.9014 3500.1726 L 4234.7114 3500.1726 L 4235.1214 3500.3726 L 4235.3314 3500.5826 L 4235.5314 3500.9926 L 4235.5314 3501.4026 L 4235.3314 3501.8126 L 4234.9214 3502.4226 L 4232.8714 3504.4626 L 4235.7414 3504.4626" fill="none" stroke-width="0.6" c_note="note_pre" style=""/></g><g c_partid="part_pcbtext" c_etype="" c_origin="4323.15,3497.713" c_rotation="0" c_mirror="0" id="gge59_3" locked="0" layerid="3" c_shapetype="group" display="none"><path c_fontsize="4.5" c_fontfamily="" c_text="KailhChocLowProfileOK" d="M 4323.1496 3493.1726 L 4323.1496 3497.4626 M 4326.0096 3493.1726 L 4323.1496 3496.0326 M 4324.1696 3495.0126 L 4326.0096 3497.4626 M 4329.8196 3494.6026 L 4329.8196 3497.4626 M 4329.8196 3495.2126 L 4329.4096 3494.8126 L 4328.9996 3494.6026 L 4328.3896 3494.6026 L 4327.9796 3494.8126 L 4327.5696 3495.2126 L 4327.3596 3495.8326 L 4327.3596 3496.2426 L 4327.5696 3496.8526 L 4327.9796 3497.2626 L 4328.3896 3497.4626 L 4328.9996 3497.4626 L 4329.4096 3497.2626 L 4329.8196 3496.8526 M 4331.1696 3493.1726 L 4331.3696 3493.3726 L 4331.5796 3493.1726 L 4331.3696 3492.9626 L 4331.1696 3493.1726 M 4331.3696 3494.6026 L 4331.3696 3497.4626 M 4332.9296 3493.1726 L 4332.9296 3497.4626 M 4334.2796 3493.1726 L 4334.2796 3497.4626 M 4334.2796 3495.4226 L 4334.8896 3494.8126 L 4335.2996 3494.6026 L 4335.9096 3494.6026 L 4336.3196 3494.8126 L 4336.5296 3495.4226 L 4336.5296 3497.4626 M 4340.9496 3494.1926 L 4340.7396 3493.7826 L 4340.3296 3493.3726 L 4339.9196 3493.1726 L 4339.0996 3493.1726 L 4338.6996 3493.3726 L 4338.2896 3493.7826 L 4338.0796 3494.1926 L 4337.8796 3494.8126 L 4337.8796 3495.8326 L 4338.0796 3496.4426 L 4338.2896 3496.8526 L 4338.6996 3497.2626 L 4339.0996 3497.4626 L 4339.9196 3497.4626 L 4340.3296 3497.2626 L 4340.7396 3496.8526 L 4340.9496 3496.4426 M 4342.2996 3493.1726 L 4342.2996 3497.4626 M 4342.2996 3495.4226 L 4342.9096 3494.8126 L 4343.3196 3494.6026 L 4343.9296 3494.6026 L 4344.3396 3494.8126 L 4344.5496 3495.4226 L 4344.5496 3497.4626 M 4346.9196 3494.6026 L 4346.5096 3494.8126 L 4346.0996 3495.2126 L 4345.8996 3495.8326 L 4345.8996 3496.2426 L 4346.0996 3496.8526 L 4346.5096 3497.2626 L 4346.9196 3497.4626 L 4347.5296 3497.4626 L 4347.9396 3497.2626 L 4348.3496 3496.8526 L 4348.5496 3496.2426 L 4348.5496 3495.8326 L 4348.3496 3495.2126 L 4347.9396 3494.8126 L 4347.5296 3494.6026 L 4346.9196 3494.6026 M 4352.3596 3495.2126 L 4351.9496 3494.8126 L 4351.5396 3494.6026 L 4350.9296 3494.6026 L 4350.5196 3494.8126 L 4350.1096 3495.2126 L 4349.8996 3495.8326 L 4349.8996 3496.2426 L 4350.1096 3496.8526 L 4350.5196 3497.2626 L 4350.9296 3497.4626 L 4351.5396 3497.4626 L 4351.9496 3497.2626 L 4352.3596 3496.8526 M 4353.7096 3493.1726 L 4353.7096 3497.4626 M 4353.7096 3497.4626 L 4356.1596 3497.4626 M 4358.5396 3494.6026 L 4358.1296 3494.8126 L 4357.7196 3495.2126 L 4357.5096 3495.8326 L 4357.5096 3496.2426 L 4357.7196 3496.8526 L 4358.1296 3497.2626 L 4358.5396 3497.4626 L 4359.1496 3497.4626 L 4359.5596 3497.2626 L 4359.9696 3496.8526 L 4360.1696 3496.2426 L 4360.1696 3495.8326 L 4359.9696 3495.2126 L 4359.5596 3494.8126 L 4359.1496 3494.6026 L 4358.5396 3494.6026 M 4361.5196 3494.6026 L 4362.3396 3497.4626 M 4363.1596 3494.6026 L 4362.3396 3497.4626 M 4363.1596 3494.6026 L 4363.9796 3497.4626 M 4364.7996 3494.6026 L 4363.9796 3497.4626 M 4366.1496 3493.1726 L 4366.1496 3497.4626 M 4366.1496 3493.1726 L 4367.9896 3493.1726 L 4368.5996 3493.3726 L 4368.7996 3493.5826 L 4369.0096 3493.9926 L 4369.0096 3494.6026 L 4368.7996 3495.0126 L 4368.5996 3495.2126 L 4367.9896 3495.4226 L 4366.1496 3495.4226 M 4370.3596 3494.6026 L 4370.3596 3497.4626 M 4370.3596 3495.8326 L 4370.5596 3495.2126 L 4370.9696 3494.8126 L 4371.3796 3494.6026 L 4371.9996 3494.6026 M 4374.3696 3494.6026 L 4373.9596 3494.8126 L 4373.5496 3495.2126 L 4373.3496 3495.8326 L 4373.3496 3496.2426 L 4373.5496 3496.8526 L 4373.9596 3497.2626 L 4374.3696 3497.4626 L 4374.9796 3497.4626 L 4375.3896 3497.2626 L 4375.7996 3496.8526 L 4375.9996 3496.2426 L 4375.9996 3495.8326 L 4375.7996 3495.2126 L 4375.3896 3494.8126 L 4374.9796 3494.6026 L 4374.3696 3494.6026 M 4378.9896 3493.1726 L 4378.5796 3493.1726 L 4378.1696 3493.3726 L 4377.9696 3493.9926 L 4377.9696 3497.4626 M 4377.3496 3494.6026 L 4378.7896 3494.6026 M 4380.3396 3493.1726 L 4380.5496 3493.3726 L 4380.7496 3493.1726 L 4380.5496 3492.9626 L 4380.3396 3493.1726 M 4380.5496 3494.6026 L 4380.5496 3497.4626 M 4382.0996 3493.1726 L 4382.0996 3497.4626 M 4383.4496 3495.8326 L 4385.8996 3495.8326 L 4385.8996 3495.4226 L 4385.6996 3495.0126 L 4385.4996 3494.8126 L 4385.0896 3494.6026 L 4384.4696 3494.6026 L 4384.0596 3494.8126 L 4383.6496 3495.2126 L 4383.4496 3495.8326 L 4383.4496 3496.2426 L 4383.6496 3496.8526 L 4384.0596 3497.2626 L 4384.4696 3497.4626 L 4385.0896 3497.4626 L 4385.4996 3497.2626 L 4385.8996 3496.8526 M 4388.4796 3493.1726 L 4388.0696 3493.3726 L 4387.6596 3493.7826 L 4387.4596 3494.1926 L 4387.2496 3494.8126 L 4387.2496 3495.8326 L 4387.4596 3496.4426 L 4387.6596 3496.8526 L 4388.0696 3497.2626 L 4388.4796 3497.4626 L 4389.2996 3497.4626 L 4389.7096 3497.2626 L 4390.1196 3496.8526 L 4390.3196 3496.4426 L 4390.5296 3495.8326 L 4390.5296 3494.8126 L 4390.3196 3494.1926 L 4390.1196 3493.7826 L 4389.7096 3493.3726 L 4389.2996 3493.1726 L 4388.4796 3493.1726 M 4391.8796 3493.1726 L 4391.8796 3497.4626 M 4394.7396 3493.1726 L 4391.8796 3496.0326 M 4392.8996 3495.0126 L 4394.7396 3497.4626" fill="none" stroke-width="0.6" c_note="note_name" style=""/></g><g c_partid="part_pcbtext" c_etype="" c_origin="4323.15,3504.713" c_rotation="0" c_mirror="0" id="gge61_3" locked="0" layerid="3" c_shapetype="group"><path c_fontsize="4.5" c_fontfamily="" c_text="U3" d="M 4323.1496 3500.1726 L 4323.1496 3503.2426 L 4323.3496 3503.8526 L 4323.7596 3504.2626 L 4324.3796 3504.4626 L 4324.7896 3504.4626 L 4325.3996 3504.2626 L 4325.8096 3503.8526 L 4326.0096 3503.2426 L 4326.0096 3500.1726 M 4327.7696 3500.1726 L 4330.0196 3500.1726 L 4328.7996 3501.8126 L 4329.4096 3501.8126 L 4329.8196 3502.0126 L 4330.0196 3502.2126 L 4330.2296 3502.8326 L 4330.2296 3503.2426 L 4330.0196 3503.8526 L 4329.6096 3504.2626 L 4328.9996 3504.4626 L 4328.3896 3504.4626 L 4327.7696 3504.2626 L 4327.5696 3504.0626 L 4327.3596 3503.6526" fill="none" stroke-width="0.6" c_note="note_pre" style=""/></g><g c_partid="part_pcbtext" c_etype="" c_origin="4417.638,3497.713" c_rotation="0" c_mirror="0" id="gge87_3" locked="0" layerid="3" c_shapetype="group" display="none"><path c_fontsize="4.5" c_fontfamily="" c_text="KailhChocLowProfileOK" d="M 4417.6378 3493.1726 L 4417.6378 3497.4626 M 4420.4978 3493.1726 L 4417.6378 3496.0326 M 4418.6578 3495.0126 L 4420.4978 3497.4626 M 4424.3078 3494.6026 L 4424.3078 3497.4626 M 4424.3078 3495.2126 L 4423.8978 3494.8126 L 4423.4878 3494.6026 L 4422.8778 3494.6026 L 4422.4678 3494.8126 L 4422.0578 3495.2126 L 4421.8478 3495.8326 L 4421.8478 3496.2426 L 4422.0578 3496.8526 L 4422.4678 3497.2626 L 4422.8778 3497.4626 L 4423.4878 3497.4626 L 4423.8978 3497.2626 L 4424.3078 3496.8526 M 4425.6578 3493.1726 L 4425.8578 3493.3726 L 4426.0678 3493.1726 L 4425.8578 3492.9626 L 4425.6578 3493.1726 M 4425.8578 3494.6026 L 4425.8578 3497.4626 M 4427.4178 3493.1726 L 4427.4178 3497.4626 M 4428.7678 3493.1726 L 4428.7678 3497.4626 M 4428.7678 3495.4226 L 4429.3778 3494.8126 L 4429.7878 3494.6026 L 4430.3978 3494.6026 L 4430.8078 3494.8126 L 4431.0178 3495.4226 L 4431.0178 3497.4626 M 4435.4378 3494.1926 L 4435.2278 3493.7826 L 4434.8178 3493.3726 L 4434.4078 3493.1726 L 4433.5878 3493.1726 L 4433.1878 3493.3726 L 4432.7778 3493.7826 L 4432.5678 3494.1926 L 4432.3678 3494.8126 L 4432.3678 3495.8326 L 4432.5678 3496.4426 L 4432.7778 3496.8526 L 4433.1878 3497.2626 L 4433.5878 3497.4626 L 4434.4078 3497.4626 L 4434.8178 3497.2626 L 4435.2278 3496.8526 L 4435.4378 3496.4426 M 4436.7878 3493.1726 L 4436.7878 3497.4626 M 4436.7878 3495.4226 L 4437.3978 3494.8126 L 4437.8078 3494.6026 L 4438.4178 3494.6026 L 4438.8278 3494.8126 L 4439.0378 3495.4226 L 4439.0378 3497.4626 M 4441.4078 3494.6026 L 4440.9978 3494.8126 L 4440.5878 3495.2126 L 4440.3878 3495.8326 L 4440.3878 3496.2426 L 4440.5878 3496.8526 L 4440.9978 3497.2626 L 4441.4078 3497.4626 L 4442.0178 3497.4626 L 4442.4278 3497.2626 L 4442.8378 3496.8526 L 4443.0378 3496.2426 L 4443.0378 3495.8326 L 4442.8378 3495.2126 L 4442.4278 3494.8126 L 4442.0178 3494.6026 L 4441.4078 3494.6026 M 4446.8478 3495.2126 L 4446.4378 3494.8126 L 4446.0278 3494.6026 L 4445.4178 3494.6026 L 4445.0078 3494.8126 L 4444.5978 3495.2126 L 4444.3878 3495.8326 L 4444.3878 3496.2426 L 4444.5978 3496.8526 L 4445.0078 3497.2626 L 4445.4178 3497.4626 L 4446.0278 3497.4626 L 4446.4378 3497.2626 L 4446.8478 3496.8526 M 4448.1978 3493.1726 L 4448.1978 3497.4626 M 4448.1978 3497.4626 L 4450.6478 3497.4626 M 4453.0278 3494.6026 L 4452.6178 3494.8126 L 4452.2078 3495.2126 L 4451.9978 3495.8326 L 4451.9978 3496.2426 L 4452.2078 3496.8526 L 4452.6178 3497.2626 L 4453.0278 3497.4626 L 4453.6378 3497.4626 L 4454.0478 3497.2626 L 4454.4578 3496.8526 L 4454.6578 3496.2426 L 4454.6578 3495.8326 L 4454.4578 3495.2126 L 4454.0478 3494.8126 L 4453.6378 3494.6026 L 4453.0278 3494.6026 M 4456.0078 3494.6026 L 4456.8278 3497.4626 M 4457.6478 3494.6026 L 4456.8278 3497.4626 M 4457.6478 3494.6026 L 4458.4678 3497.4626 M 4459.2878 3494.6026 L 4458.4678 3497.4626 M 4460.6378 3493.1726 L 4460.6378 3497.4626 M 4460.6378 3493.1726 L 4462.4778 3493.1726 L 4463.0878 3493.3726 L 4463.2878 3493.5826 L 4463.4978 3493.9926 L 4463.4978 3494.6026 L 4463.2878 3495.0126 L 4463.0878 3495.2126 L 4462.4778 3495.4226 L 4460.6378 3495.4226 M 4464.8478 3494.6026 L 4464.8478 3497.4626 M 4464.8478 3495.8326 L 4465.0478 3495.2126 L 4465.4578 3494.8126 L 4465.8678 3494.6026 L 4466.4878 3494.6026 M 4468.8578 3494.6026 L 4468.4478 3494.8126 L 4468.0378 3495.2126 L 4467.8378 3495.8326 L 4467.8378 3496.2426 L 4468.0378 3496.8526 L 4468.4478 3497.2626 L 4468.8578 3497.4626 L 4469.4678 3497.4626 L 4469.8778 3497.2626 L 4470.2878 3496.8526 L 4470.4878 3496.2426 L 4470.4878 3495.8326 L 4470.2878 3495.2126 L 4469.8778 3494.8126 L 4469.4678 3494.6026 L 4468.8578 3494.6026 M 4473.4778 3493.1726 L 4473.0678 3493.1726 L 4472.6578 3493.3726 L 4472.4578 3493.9926 L 4472.4578 3497.4626 M 4471.8378 3494.6026 L 4473.2778 3494.6026 M 4474.8278 3493.1726 L 4475.0378 3493.3726 L 4475.2378 3493.1726 L 4475.0378 3492.9626 L 4474.8278 3493.1726 M 4475.0378 3494.6026 L 4475.0378 3497.4626 M 4476.5878 3493.1726 L 4476.5878 3497.4626 M 4477.9378 3495.8326 L 4480.3878 3495.8326 L 4480.3878 3495.4226 L 4480.1878 3495.0126 L 4479.9878 3494.8126 L 4479.5778 3494.6026 L 4478.9578 3494.6026 L 4478.5478 3494.8126 L 4478.1378 3495.2126 L 4477.9378 3495.8326 L 4477.9378 3496.2426 L 4478.1378 3496.8526 L 4478.5478 3497.2626 L 4478.9578 3497.4626 L 4479.5778 3497.4626 L 4479.9878 3497.2626 L 4480.3878 3496.8526 M 4482.9678 3493.1726 L 4482.5578 3493.3726 L 4482.1478 3493.7826 L 4481.9478 3494.1926 L 4481.7378 3494.8126 L 4481.7378 3495.8326 L 4481.9478 3496.4426 L 4482.1478 3496.8526 L 4482.5578 3497.2626 L 4482.9678 3497.4626 L 4483.7878 3497.4626 L 4484.1978 3497.2626 L 4484.6078 3496.8526 L 4484.8078 3496.4426 L 4485.0178 3495.8326 L 4485.0178 3494.8126 L 4484.8078 3494.1926 L 4484.6078 3493.7826 L 4484.1978 3493.3726 L 4483.7878 3493.1726 L 4482.9678 3493.1726 M 4486.3678 3493.1726 L 4486.3678 3497.4626 M 4489.2278 3493.1726 L 4486.3678 3496.0326 M 4487.3878 3495.0126 L 4489.2278 3497.4626" fill="none" stroke-width="0.6" c_note="note_name" style=""/></g><g c_partid="part_pcbtext" c_etype="" c_origin="4417.638,3504.713" c_rotation="0" c_mirror="0" id="gge89_3" locked="0" layerid="3" c_shapetype="group"><path c_fontsize="4.5" c_fontfamily="" c_text="U4" d="M 4417.6378 3500.1726 L 4417.6378 3503.2426 L 4417.8378 3503.8526 L 4418.2478 3504.2626 L 4418.8678 3504.4626 L 4419.2778 3504.4626 L 4419.8878 3504.2626 L 4420.2978 3503.8526 L 4420.4978 3503.2426 L 4420.4978 3500.1726 M 4423.8978 3500.1726 L 4421.8478 3503.0326 L 4424.9178 3503.0326 M 4423.8978 3500.1726 L 4423.8978 3504.4626" fill="none" stroke-width="0.6" c_note="note_pre" style=""/></g><g c_partid="part_pcbtext" c_etype="" c_origin="4512.126,3497.713" c_rotation="0" c_mirror="0" id="gge115_3" locked="0" layerid="3" c_shapetype="group" display="none"><path c_fontsize="4.5" c_fontfamily="" c_text="KailhChocLowProfileOK" d="M 4512.126 3493.1726 L 4512.126 3497.4626 M 4514.986 3493.1726 L 4512.126 3496.0326 M 4513.146 3495.0126 L 4514.986 3497.4626 M 4518.796 3494.6026 L 4518.796 3497.4626 M 4518.796 3495.2126 L 4518.386 3494.8126 L 4517.976 3494.6026 L 4517.366 3494.6026 L 4516.956 3494.8126 L 4516.546 3495.2126 L 4516.336 3495.8326 L 4516.336 3496.2426 L 4516.546 3496.8526 L 4516.956 3497.2626 L 4517.366 3497.4626 L 4517.976 3497.4626 L 4518.386 3497.2626 L 4518.796 3496.8526 M 4520.146 3493.1726 L 4520.346 3493.3726 L 4520.556 3493.1726 L 4520.346 3492.9626 L 4520.146 3493.1726 M 4520.346 3494.6026 L 4520.346 3497.4626 M 4521.906 3493.1726 L 4521.906 3497.4626 M 4523.256 3493.1726 L 4523.256 3497.4626 M 4523.256 3495.4226 L 4523.866 3494.8126 L 4524.276 3494.6026 L 4524.886 3494.6026 L 4525.296 3494.8126 L 4525.506 3495.4226 L 4525.506 3497.4626 M 4529.926 3494.1926 L 4529.716 3493.7826 L 4529.306 3493.3726 L 4528.896 3493.1726 L 4528.076 3493.1726 L 4527.676 3493.3726 L 4527.266 3493.7826 L 4527.056 3494.1926 L 4526.856 3494.8126 L 4526.856 3495.8326 L 4527.056 3496.4426 L 4527.266 3496.8526 L 4527.676 3497.2626 L 4528.076 3497.4626 L 4528.896 3497.4626 L 4529.306 3497.2626 L 4529.716 3496.8526 L 4529.926 3496.4426 M 4531.276 3493.1726 L 4531.276 3497.4626 M 4531.276 3495.4226 L 4531.886 3494.8126 L 4532.296 3494.6026 L 4532.906 3494.6026 L 4533.316 3494.8126 L 4533.526 3495.4226 L 4533.526 3497.4626 M 4535.896 3494.6026 L 4535.486 3494.8126 L 4535.076 3495.2126 L 4534.876 3495.8326 L 4534.876 3496.2426 L 4535.076 3496.8526 L 4535.486 3497.2626 L 4535.896 3497.4626 L 4536.506 3497.4626 L 4536.916 3497.2626 L 4537.326 3496.8526 L 4537.526 3496.2426 L 4537.526 3495.8326 L 4537.326 3495.2126 L 4536.916 3494.8126 L 4536.506 3494.6026 L 4535.896 3494.6026 M 4541.336 3495.2126 L 4540.926 3494.8126 L 4540.516 3494.6026 L 4539.906 3494.6026 L 4539.496 3494.8126 L 4539.086 3495.2126 L 4538.876 3495.8326 L 4538.876 3496.2426 L 4539.086 3496.8526 L 4539.496 3497.2626 L 4539.906 3497.4626 L 4540.516 3497.4626 L 4540.926 3497.2626 L 4541.336 3496.8526 M 4542.686 3493.1726 L 4542.686 3497.4626 M 4542.686 3497.4626 L 4545.136 3497.4626 M 4547.516 3494.6026 L 4547.106 3494.8126 L 4546.696 3495.2126 L 4546.486 3495.8326 L 4546.486 3496.2426 L 4546.696 3496.8526 L 4547.106 3497.2626 L 4547.516 3497.4626 L 4548.126 3497.4626 L 4548.536 3497.2626 L 4548.946 3496.8526 L 4549.146 3496.2426 L 4549.146 3495.8326 L 4548.946 3495.2126 L 4548.536 3494.8126 L 4548.126 3494.6026 L 4547.516 3494.6026 M 4550.496 3494.6026 L 4551.316 3497.4626 M 4552.136 3494.6026 L 4551.316 3497.4626 M 4552.136 3494.6026 L 4552.956 3497.4626 M 4553.776 3494.6026 L 4552.956 3497.4626 M 4555.126 3493.1726 L 4555.126 3497.4626 M 4555.126 3493.1726 L 4556.966 3493.1726 L 4557.576 3493.3726 L 4557.776 3493.5826 L 4557.986 3493.9926 L 4557.986 3494.6026 L 4557.776 3495.0126 L 4557.576 3495.2126 L 4556.966 3495.4226 L 4555.126 3495.4226 M 4559.336 3494.6026 L 4559.336 3497.4626 M 4559.336 3495.8326 L 4559.536 3495.2126 L 4559.946 3494.8126 L 4560.356 3494.6026 L 4560.976 3494.6026 M 4563.346 3494.6026 L 4562.936 3494.8126 L 4562.526 3495.2126 L 4562.326 3495.8326 L 4562.326 3496.2426 L 4562.526 3496.8526 L 4562.936 3497.2626 L 4563.346 3497.4626 L 4563.956 3497.4626 L 4564.366 3497.2626 L 4564.776 3496.8526 L 4564.976 3496.2426 L 4564.976 3495.8326 L 4564.776 3495.2126 L 4564.366 3494.8126 L 4563.956 3494.6026 L 4563.346 3494.6026 M 4567.966 3493.1726 L 4567.556 3493.1726 L 4567.146 3493.3726 L 4566.946 3493.9926 L 4566.946 3497.4626 M 4566.326 3494.6026 L 4567.766 3494.6026 M 4569.316 3493.1726 L 4569.526 3493.3726 L 4569.726 3493.1726 L 4569.526 3492.9626 L 4569.316 3493.1726 M 4569.526 3494.6026 L 4569.526 3497.4626 M 4571.076 3493.1726 L 4571.076 3497.4626 M 4572.426 3495.8326 L 4574.876 3495.8326 L 4574.876 3495.4226 L 4574.676 3495.0126 L 4574.476 3494.8126 L 4574.066 3494.6026 L 4573.446 3494.6026 L 4573.036 3494.8126 L 4572.626 3495.2126 L 4572.426 3495.8326 L 4572.426 3496.2426 L 4572.626 3496.8526 L 4573.036 3497.2626 L 4573.446 3497.4626 L 4574.066 3497.4626 L 4574.476 3497.2626 L 4574.876 3496.8526 M 4577.456 3493.1726 L 4577.046 3493.3726 L 4576.636 3493.7826 L 4576.436 3494.1926 L 4576.226 3494.8126 L 4576.226 3495.8326 L 4576.436 3496.4426 L 4576.636 3496.8526 L 4577.046 3497.2626 L 4577.456 3497.4626 L 4578.276 3497.4626 L 4578.686 3497.2626 L 4579.096 3496.8526 L 4579.296 3496.4426 L 4579.506 3495.8326 L 4579.506 3494.8126 L 4579.296 3494.1926 L 4579.096 3493.7826 L 4578.686 3493.3726 L 4578.276 3493.1726 L 4577.456 3493.1726 M 4580.856 3493.1726 L 4580.856 3497.4626 M 4583.716 3493.1726 L 4580.856 3496.0326 M 4581.876 3495.0126 L 4583.716 3497.4626" fill="none" stroke-width="0.6" c_note="note_name" style=""/></g><g c_partid="part_pcbtext" c_etype="" c_origin="4512.126,3504.713" c_rotation="0" c_mirror="0" id="gge117_3" locked="0" layerid="3" c_shapetype="group"><path c_fontsize="4.5" c_fontfamily="" c_text="U5" d="M 4512.126 3500.1726 L 4512.126 3503.2426 L 4512.326 3503.8526 L 4512.736 3504.2626 L 4513.356 3504.4626 L 4513.766 3504.4626 L 4514.376 3504.2626 L 4514.786 3503.8526 L 4514.986 3503.2426 L 4514.986 3500.1726 M 4518.796 3500.1726 L 4516.746 3500.1726 L 4516.546 3502.0126 L 4516.746 3501.8126 L 4517.366 3501.6026 L 4517.976 3501.6026 L 4518.586 3501.8126 L 4518.996 3502.2126 L 4519.206 3502.8326 L 4519.206 3503.2426 L 4518.996 3503.8526 L 4518.586 3504.2626 L 4517.976 3504.4626 L 4517.366 3504.4626 L 4516.746 3504.2626 L 4516.546 3504.0626 L 4516.336 3503.6526" fill="none" stroke-width="0.6" c_note="note_pre" style=""/></g><polyline points="4029.5 3550 4029.5 3479 4040.5 3479 4040.5 3550 4029.5 3550" stroke-width="1" c_shapetype="line" stroke-linecap="round" fill="none" layerid="3" net="" id="gge486_3" locked="0"/></g><path d="M4020 3562.9252,4020 3464.5,4551.4961 3464.5,4551.4961 3562.9252z" stroke="none" id="bottomBoardSolderReal" mask="url(#bottomBoardSolderMask)" fill="#002966"/><g id="bottomSignalReal" fill="#DCAA14" stroke="#DCAA14"><g c_partid="part_pad" c_etype="pinpart" layerid="11" id="gge487_11" c_origin="4035,3544.5" net="" c_rotation="90" c_width="6" c_height="6"><polygon points="4032 3547.5 4032 3541.5 4038 3541.5 4038 3547.5" stroke-width="0" c_etype="pad_outer"/></g><g c_partid="part_pad" c_etype="pinpart" layerid="11" id="gge492_11" c_origin="4035,3534.5" net="" c_rotation="90" c_width="6" c_height="6"><ellipse cx="4035" cy="3534.5" rx="3" ry="3" stroke-width="0" c_etype="pad_hole"/></g><g c_partid="part_pad" c_etype="pinpart" layerid="11" id="gge497_11" c_origin="4035,3524.5" net="" c_rotation="90" c_width="6" c_height="6"><ellipse cx="4035" cy="3524.5" rx="3" ry="3" stroke-width="0" c_etype="pad_hole"/></g><g c_partid="part_pad" c_etype="pinpart" layerid="11" id="gge502_11" c_origin="4035,3514.5" net="" c_rotation="90" c_width="6" c_height="6"><ellipse cx="4035" cy="3514.5" rx="3" ry="3" stroke-width="0" c_etype="pad_hole"/></g><g c_partid="part_pad" c_etype="pinpart" layerid="11" id="gge507_11" c_origin="4035,3504.5" net="" c_rotation="90" c_width="6" c_height="6"><ellipse cx="4035" cy="3504.5" rx="3" ry="3" stroke-width="0" c_etype="pad_hole"/></g><g c_partid="part_pad" c_etype="pinpart" layerid="11" id="gge512_11" c_origin="4035,3494.5" net="" c_rotation="90" c_width="6" c_height="6"><ellipse cx="4035" cy="3494.5" rx="3" ry="3" stroke-width="0" c_etype="pad_hole"/></g><g c_partid="part_pad" c_etype="pinpart" layerid="11" id="gge517_11" c_origin="4035,3484.5" net="" c_rotation="90" c_width="6" c_height="6"><ellipse cx="4035" cy="3484.5" rx="3" ry="3" stroke-width="0" c_etype="pad_hole"/></g><g c_partid="part_pad" c_etype="pinpart" layerid="11" id="gge19_11" c_origin="4153.858,3528.674" net="" c_rotation="0" c_width="6" c_height="6"><ellipse cx="4153.858" cy="3528.674" rx="3" ry="3" stroke-width="0" c_etype="pad_hole"/></g><g c_partid="part_pad" c_etype="pinpart" layerid="11" id="gge24_11" c_origin="4134.173,3536.941" net="" c_rotation="0" c_width="6" c_height="6"><ellipse cx="4134.173" cy="3536.941" rx="3" ry="3" stroke-width="0" c_etype="pad_hole"/></g><g c_partid="part_pad" c_etype="pinpart" layerid="11" id="gge47_11" c_origin="4248.346,3528.674" net="" c_rotation="0" c_width="6" c_height="6"><ellipse cx="4248.346" cy="3528.674" rx="3" ry="3" stroke-width="0" c_etype="pad_hole"/></g><g c_partid="part_pad" c_etype="pinpart" layerid="11" id="gge52_11" c_origin="4228.661,3536.941" net="" c_rotation="0" c_width="6" c_height="6"><ellipse cx="4228.661" cy="3536.941" rx="3" ry="3" stroke-width="0" c_etype="pad_hole"/></g><g c_partid="part_pad" c_etype="pinpart" layerid="11" id="gge75_11" c_origin="4342.835,3528.674" net="" c_rotation="0" c_width="6" c_height="6"><ellipse cx="4342.835" cy="3528.674" rx="3" ry="3" stroke-width="0" c_etype="pad_hole"/></g><g c_partid="part_pad" c_etype="pinpart" layerid="11" id="gge80_11" c_origin="4323.15,3536.941" net="" c_rotation="0" c_width="6" c_height="6"><ellipse cx="4323.15" cy="3536.941" rx="3" ry="3" stroke-width="0" c_etype="pad_hole"/></g><g c_partid="part_pad" c_etype="pinpart" layerid="11" id="gge103_11" c_origin="4437.323,3528.674" net="" c_rotation="0" c_width="6" c_height="6"><ellipse cx="4437.323" cy="3528.674" rx="3" ry="3" stroke-width="0" c_etype="pad_hole"/></g><g c_partid="part_pad" c_etype="pinpart" layerid="11" id="gge108_11" c_origin="4417.638,3536.941" net="" c_rotation="0" c_width="6" c_height="6"><ellipse cx="4417.638" cy="3536.941" rx="3" ry="3" stroke-width="0" c_etype="pad_hole"/></g><g c_partid="part_pad" c_etype="pinpart" layerid="11" id="gge131_11" c_origin="4531.811,3528.674" net="" c_rotation="0" c_width="6" c_height="6"><ellipse cx="4531.811" cy="3528.674" rx="3" ry="3" stroke-width="0" c_etype="pad_hole"/></g><g c_partid="part_pad" c_etype="pinpart" layerid="11" id="gge136_11" c_origin="4512.126,3536.941" net="" c_rotation="0" c_width="6" c_height="6"><ellipse cx="4512.126" cy="3536.941" rx="3" ry="3" stroke-width="0" c_etype="pad_hole"/></g></g><g id="bottomSignalSolderReal" mask="url(#bottomSignalSolderMask)" fill="#005CB6" stroke="#005CB6"><g c_partid="part_pad" c_etype="pinpart" layerid="11" id="gge487_11" c_origin="4035,3544.5" net="" c_rotation="90" c_width="6" c_height="6"><polygon points="4032 3547.5 4032 3541.5 4038 3541.5 4038 3547.5" stroke-width="0" c_etype="pad_outer"/></g><g c_partid="part_pad" c_etype="pinpart" layerid="11" id="gge492_11" c_origin="4035,3534.5" net="" c_rotation="90" c_width="6" c_height="6"><ellipse cx="4035" cy="3534.5" rx="3" ry="3" stroke-width="0" c_etype="pad_hole"/></g><g c_partid="part_pad" c_etype="pinpart" layerid="11" id="gge497_11" c_origin="4035,3524.5" net="" c_rotation="90" c_width="6" c_height="6"><ellipse cx="4035" cy="3524.5" rx="3" ry="3" stroke-width="0" c_etype="pad_hole"/></g><g c_partid="part_pad" c_etype="pinpart" layerid="11" id="gge502_11" c_origin="4035,3514.5" net="" c_rotation="90" c_width="6" c_height="6"><ellipse cx="4035" cy="3514.5" rx="3" ry="3" stroke-width="0" c_etype="pad_hole"/></g><g c_partid="part_pad" c_etype="pinpart" layerid="11" id="gge507_11" c_origin="4035,3504.5" net="" c_rotation="90" c_width="6" c_height="6"><ellipse cx="4035" cy="3504.5" rx="3" ry="3" stroke-width="0" c_etype="pad_hole"/></g><g c_partid="part_pad" c_etype="pinpart" layerid="11" id="gge512_11" c_origin="4035,3494.5" net="" c_rotation="90" c_width="6" c_height="6"><ellipse cx="4035" cy="3494.5" rx="3" ry="3" stroke-width="0" c_etype="pad_hole"/></g><g c_partid="part_pad" c_etype="pinpart" layerid="11" id="gge517_11" c_origin="4035,3484.5" net="" c_rotation="90" c_width="6" c_height="6"><ellipse cx="4035" cy="3484.5" rx="3" ry="3" stroke-width="0" c_etype="pad_hole"/></g><g c_partid="part_pad" c_etype="pinpart" layerid="11" id="gge19_11" c_origin="4153.858,3528.674" net="" c_rotation="0" c_width="6" c_height="6"><ellipse cx="4153.858" cy="3528.674" rx="3" ry="3" stroke-width="0" c_etype="pad_hole"/></g><g c_partid="part_pad" c_etype="pinpart" layerid="11" id="gge24_11" c_origin="4134.173,3536.941" net="" c_rotation="0" c_width="6" c_height="6"><ellipse cx="4134.173" cy="3536.941" rx="3" ry="3" stroke-width="0" c_etype="pad_hole"/></g><g c_partid="part_pad" c_etype="pinpart" layerid="11" id="gge47_11" c_origin="4248.346,3528.674" net="" c_rotation="0" c_width="6" c_height="6"><ellipse cx="4248.346" cy="3528.674" rx="3" ry="3" stroke-width="0" c_etype="pad_hole"/></g><g c_partid="part_pad" c_etype="pinpart" layerid="11" id="gge52_11" c_origin="4228.661,3536.941" net="" c_rotation="0" c_width="6" c_height="6"><ellipse cx="4228.661" cy="3536.941" rx="3" ry="3" stroke-width="0" c_etype="pad_hole"/></g><g c_partid="part_pad" c_etype="pinpart" layerid="11" id="gge75_11" c_origin="4342.835,3528.674" net="" c_rotation="0" c_width="6" c_height="6"><ellipse cx="4342.835" cy="3528.674" rx="3" ry="3" stroke-width="0" c_etype="pad_hole"/></g><g c_partid="part_pad" c_etype="pinpart" layerid="11" id="gge80_11" c_origin="4323.15,3536.941" net="" c_rotation="0" c_width="6" c_height="6"><ellipse cx="4323.15" cy="3536.941" rx="3" ry="3" stroke-width="0" c_etype="pad_hole"/></g><g c_partid="part_pad" c_etype="pinpart" layerid="11" id="gge103_11" c_origin="4437.323,3528.674" net="" c_rotation="0" c_width="6" c_height="6"><ellipse cx="4437.323" cy="3528.674" rx="3" ry="3" stroke-width="0" c_etype="pad_hole"/></g><g c_partid="part_pad" c_etype="pinpart" layerid="11" id="gge108_11" c_origin="4417.638,3536.941" net="" c_rotation="0" c_width="6" c_height="6"><ellipse cx="4417.638" cy="3536.941" rx="3" ry="3" stroke-width="0" c_etype="pad_hole"/></g><g c_partid="part_pad" c_etype="pinpart" layerid="11" id="gge131_11" c_origin="4531.811,3528.674" net="" c_rotation="0" c_width="6" c_height="6"><ellipse cx="4531.811" cy="3528.674" rx="3" ry="3" stroke-width="0" c_etype="pad_hole"/></g><g c_partid="part_pad" c_etype="pinpart" layerid="11" id="gge136_11" c_origin="4512.126,3536.941" net="" c_rotation="0" c_width="6" c_height="6"><ellipse cx="4512.126" cy="3536.941" rx="3" ry="3" stroke-width="0" c_etype="pad_hole"/></g></g><g id="bottomSilkLayer" fill="#FFFFFF" stroke="#FFFFFF"><g c_partid="part_pcbtext" c_etype="pinpart" c_origin="4537,3499" c_rotation="0" c_mirror="1" id="gge391_4" locked="0" layerid="4" c_shapetype="group"><path c_fontsize="8" c_fontfamily="" c_text="DIM_FRETBOARD PROTOTYPE 0.2  -  SUITS KAILH LOW PROFILE SWITCHES" d="M 4537 3490.9273 L 4537 3498.5636 M 4537 3490.9273 L 4534.4545 3490.9273 L 4533.3636 3491.2909 L 4532.6364 3492.0182 L 4532.2727 3492.7455 L 4531.9091 3493.8364 L 4531.9091 3495.6545 L 4532.2727 3496.7455 L 4532.6364 3497.4727 L 4533.3636 3498.2 L 4534.4545 3498.5636 L 4537 3498.5636 M 4529.5091 3490.9273 L 4529.5091 3498.5636 M 4527.1091 3490.9273 L 4527.1091 3498.5636 M 4527.1091 3490.9273 L 4524.2 3498.5636 M 4521.2909 3490.9273 L 4524.2 3498.5636 M 4521.2909 3490.9273 L 4521.2909 3498.5636 M 4518.8909 3501.1091 L 4512.3455 3501.1091 M 4509.9455 3490.9273 L 4509.9455 3498.5636 M 4509.9455 3490.9273 L 4505.2182 3490.9273 M 4509.9455 3494.5636 L 4507.0364 3494.5636 M 4502.8182 3490.9273 L 4502.8182 3498.5636 M 4502.8182 3490.9273 L 4499.5455 3490.9273 L 4498.4545 3491.2909 L 4498.0909 3491.6545 L 4497.7273 3492.3818 L 4497.7273 3493.1091 L 4498.0909 3493.8364 L 4498.4545 3494.2 L 4499.5455 3494.5636 L 4502.8182 3494.5636 M 4500.2727 3494.5636 L 4497.7273 3498.5636 M 4495.3273 3490.9273 L 4495.3273 3498.5636 M 4495.3273 3490.9273 L 4490.6 3490.9273 M 4495.3273 3494.5636 L 4492.4182 3494.5636 M 4495.3273 3498.5636 L 4490.6 3498.5636 M 4485.6545 3490.9273 L 4485.6545 3498.5636 M 4488.2 3490.9273 L 4483.1091 3490.9273 M 4480.7091 3490.9273 L 4480.7091 3498.5636 M 4480.7091 3490.9273 L 4477.4364 3490.9273 L 4476.3455 3491.2909 L 4475.9818 3491.6545 L 4475.6182 3492.3818 L 4475.6182 3493.1091 L 4475.9818 3493.8364 L 4476.3455 3494.2 L 4477.4364 3494.5636 M 4480.7091 3494.5636 L 4477.4364 3494.5636 L 4476.3455 3494.9273 L 4475.9818 3495.2909 L 4475.6182 3496.0182 L 4475.6182 3497.1091 L 4475.9818 3497.8364 L 4476.3455 3498.2 L 4477.4364 3498.5636 L 4480.7091 3498.5636 M 4471.0364 3490.9273 L 4471.7636 3491.2909 L 4472.4909 3492.0182 L 4472.8545 3492.7455 L 4473.2182 3493.8364 L 4473.2182 3495.6545 L 4472.8545 3496.7455 L 4472.4909 3497.4727 L 4471.7636 3498.2 L 4471.0364 3498.5636 L 4469.5818 3498.5636 L 4468.8545 3498.2 L 4468.1273 3497.4727 L 4467.7636 3496.7455 L 4467.4 3495.6545 L 4467.4 3493.8364 L 4467.7636 3492.7455 L 4468.1273 3492.0182 L 4468.8545 3491.2909 L 4469.5818 3490.9273 L 4471.0364 3490.9273 M 4462.0909 3490.9273 L 4465 3498.5636 M 4462.0909 3490.9273 L 4459.1818 3498.5636 M 4463.9091 3496.0182 L 4460.2727 3496.0182 M 4456.7818 3490.9273 L 4456.7818 3498.5636 M 4456.7818 3490.9273 L 4453.5091 3490.9273 L 4452.4182 3491.2909 L 4452.0545 3491.6545 L 4451.6909 3492.3818 L 4451.6909 3493.1091 L 4452.0545 3493.8364 L 4452.4182 3494.2 L 4453.5091 3494.5636 L 4456.7818 3494.5636 M 4454.2364 3494.5636 L 4451.6909 3498.5636 M 4449.2909 3490.9273 L 4449.2909 3498.5636 M 4449.2909 3490.9273 L 4446.7455 3490.9273 L 4445.6545 3491.2909 L 4444.9273 3492.0182 L 4444.5636 3492.7455 L 4444.2 3493.8364 L 4444.2 3495.6545 L 4444.5636 3496.7455 L 4444.9273 3497.4727 L 4445.6545 3498.2 L 4446.7455 3498.5636 L 4449.2909 3498.5636 M 4436.2 3490.9273 L 4436.2 3498.5636 M 4436.2 3490.9273 L 4432.9273 3490.9273 L 4431.8364 3491.2909 L 4431.4727 3491.6545 L 4431.1091 3492.3818 L 4431.1091 3493.4727 L 4431.4727 3494.2 L 4431.8364 3494.5636 L 4432.9273 3494.9273 L 4436.2 3494.9273 M 4428.7091 3490.9273 L 4428.7091 3498.5636 M 4428.7091 3490.9273 L 4425.4364 3490.9273 L 4424.3455 3491.2909 L 4423.9818 3491.6545 L 4423.6182 3492.3818 L 4423.6182 3493.1091 L 4423.9818 3493.8364 L 4424.3455 3494.2 L 4425.4364 3494.5636 L 4428.7091 3494.5636 M 4426.1636 3494.5636 L 4423.6182 3498.5636 M 4419.0364 3490.9273 L 4419.7636 3491.2909 L 4420.4909 3492.0182 L 4420.8545 3492.7455 L 4421.2182 3493.8364 L 4421.2182 3495.6545 L 4420.8545 3496.7455 L 4420.4909 3497.4727 L 4419.7636 3498.2 L 4419.0364 3498.5636 L 4417.5818 3498.5636 L 4416.8545 3498.2 L 4416.1273 3497.4727 L 4415.7636 3496.7455 L 4415.4 3495.6545 L 4415.4 3493.8364 L 4415.7636 3492.7455 L 4416.1273 3492.0182 L 4416.8545 3491.2909 L 4417.5818 3490.9273 L 4419.0364 3490.9273 M 4410.4545 3490.9273 L 4410.4545 3498.5636 M 4413 3490.9273 L 4407.9091 3490.9273 M 4403.3273 3490.9273 L 4404.0545 3491.2909 L 4404.7818 3492.0182 L 4405.1455 3492.7455 L 4405.5091 3493.8364 L 4405.5091 3495.6545 L 4405.1455 3496.7455 L 4404.7818 3497.4727 L 4404.0545 3498.2 L 4403.3273 3498.5636 L 4401.8727 3498.5636 L 4401.1455 3498.2 L 4400.4182 3497.4727 L 4400.0545 3496.7455 L 4399.6909 3495.6545 L 4399.6909 3493.8364 L 4400.0545 3492.7455 L 4400.4182 3492.0182 L 4401.1455 3491.2909 L 4401.8727 3490.9273 L 4403.3273 3490.9273 M 4394.7455 3490.9273 L 4394.7455 3498.5636 M 4397.2909 3490.9273 L 4392.2 3490.9273 M 4389.8 3490.9273 L 4386.8909 3494.5636 L 4386.8909 3498.5636 M 4383.9818 3490.9273 L 4386.8909 3494.5636 M 4381.5818 3490.9273 L 4381.5818 3498.5636 M 4381.5818 3490.9273 L 4378.3091 3490.9273 L 4377.2182 3491.2909 L 4376.8545 3491.6545 L 4376.4909 3492.3818 L 4376.4909 3493.4727 L 4376.8545 3494.2 L 4377.2182 3494.5636 L 4378.3091 3494.9273 L 4381.5818 3494.9273 M 4374.0909 3490.9273 L 4374.0909 3498.5636 M 4374.0909 3490.9273 L 4369.3636 3490.9273 M 4374.0909 3494.5636 L 4371.1818 3494.5636 M 4374.0909 3498.5636 L 4369.3636 3498.5636 M 4359.1818 3490.9273 L 4360.2727 3491.2909 L 4361 3492.3818 L 4361.3636 3494.2 L 4361.3636 3495.2909 L 4361 3497.1091 L 4360.2727 3498.2 L 4359.1818 3498.5636 L 4358.4545 3498.5636 L 4357.3636 3498.2 L 4356.6364 3497.1091 L 4356.2727 3495.2909 L 4356.2727 3494.2 L 4356.6364 3492.3818 L 4357.3636 3491.2909 L 4358.4545 3490.9273 L 4359.1818 3490.9273 M 4353.5091 3496.7455 L 4353.8727 3497.1091 L 4353.5091 3497.4727 L 4353.1455 3497.1091 L 4353.5091 3496.7455 M 4350.3818 3492.7455 L 4350.3818 3492.3818 L 4350.0182 3491.6545 L 4349.6545 3491.2909 L 4348.9273 3490.9273 L 4347.4727 3490.9273 L 4346.7455 3491.2909 L 4346.3818 3491.6545 L 4346.0182 3492.3818 L 4346.0182 3493.1091 L 4346.3818 3493.8364 L 4347.1091 3494.9273 L 4350.7455 3498.5636 L 4345.6545 3498.5636 M 4332.0545 3495.2909 L 4325.5091 3495.2909 M 4306.8182 3492.0182 L 4307.5455 3491.2909 L 4308.6364 3490.9273 L 4310.0909 3490.9273 L 4311.1818 3491.2909 L 4311.9091 3492.0182 L 4311.9091 3492.7455 L 4311.5455 3493.4727 L 4311.1818 3493.8364 L 4310.4545 3494.2 L 4308.2727 3494.9273 L 4307.5455 3495.2909 L 4307.1818 3495.6545 L 4306.8182 3496.3818 L 4306.8182 3497.4727 L 4307.5455 3498.2 L 4308.6364 3498.5636 L 4310.0909 3498.5636 L 4311.1818 3498.2 L 4311.9091 3497.4727 M 4304.4182 3490.9273 L 4304.4182 3496.3818 L 4304.0545 3497.4727 L 4303.3273 3498.2 L 4302.2364 3498.5636 L 4301.5091 3498.5636 L 4300.4182 3498.2 L 4299.6909 3497.4727 L 4299.3273 3496.3818 L 4299.3273 3490.9273 M 4296.9273 3490.9273 L 4296.9273 3498.5636 M 4291.9818 3490.9273 L 4291.9818 3498.5636 M 4294.5273 3490.9273 L 4289.4364 3490.9273 M 4281.9455 3492.0182 L 4282.6727 3491.2909 L 4283.7636 3490.9273 L 4285.2182 3490.9273 L 4286.3091 3491.2909 L 4287.0364 3492.0182 L 4287.0364 3492.7455 L 4286.6727 3493.4727 L 4286.3091 3493.8364 L 4285.5818 3494.2 L 4283.4 3494.9273 L 4282.6727 3495.2909 L 4282.3091 3495.6545 L 4281.9455 3496.3818 L 4281.9455 3497.4727 L 4282.6727 3498.2 L 4283.7636 3498.5636 L 4285.2182 3498.5636 L 4286.3091 3498.2 L 4287.0364 3497.4727 M 4273.9455 3490.9273 L 4273.9455 3498.5636 M 4268.8545 3490.9273 L 4273.9455 3496.0182 M 4272.1273 3494.2 L 4268.8545 3498.5636 M 4263.5455 3490.9273 L 4266.4545 3498.5636 M 4263.5455 3490.9273 L 4260.6364 3498.5636 M 4265.3636 3496.0182 L 4261.7273 3496.0182 M 4258.2364 3490.9273 L 4258.2364 3498.5636 M 4255.8364 3490.9273 L 4255.8364 3498.5636 M 4255.8364 3498.5636 L 4251.4727 3498.5636 M 4249.0727 3490.9273 L 4249.0727 3498.5636 M 4243.9818 3490.9273 L 4243.9818 3498.5636 M 4249.0727 3494.5636 L 4243.9818 3494.5636 M 4235.9818 3490.9273 L 4235.9818 3498.5636 M 4235.9818 3498.5636 L 4231.6182 3498.5636 M 4227.0364 3490.9273 L 4227.7636 3491.2909 L 4228.4909 3492.0182 L 4228.8545 3492.7455 L 4229.2182 3493.8364 L 4229.2182 3495.6545 L 4228.8545 3496.7455 L 4228.4909 3497.4727 L 4227.7636 3498.2 L 4227.0364 3498.5636 L 4225.5818 3498.5636 L 4224.8545 3498.2 L 4224.1273 3497.4727 L 4223.7636 3496.7455 L 4223.4 3495.6545 L 4223.4 3493.8364 L 4223.7636 3492.7455 L 4224.1273 3492.0182 L 4224.8545 3491.2909 L 4225.5818 3490.9273 L 4227.0364 3490.9273 M 4221 3490.9273 L 4219.1818 3498.5636 M 4217.3636 3490.9273 L 4219.1818 3498.5636 M 4217.3636 3490.9273 L 4215.5455 3498.5636 M 4213.7273 3490.9273 L 4215.5455 3498.5636 M 4205.7273 3490.9273 L 4205.7273 3498.5636 M 4205.7273 3490.9273 L 4202.4545 3490.9273 L 4201.3636 3491.2909 L 4201 3491.6545 L 4200.6364 3492.3818 L 4200.6364 3493.4727 L 4201 3494.2 L 4201.3636 3494.5636 L 4202.4545 3494.9273 L 4205.7273 3494.9273 M 4198.2364 3490.9273 L 4198.2364 3498.5636 M 4198.2364 3490.9273 L 4194.9636 3490.9273 L 4193.8727 3491.2909 L 4193.5091 3491.6545 L 4193.1455 3492.3818 L 4193.1455 3493.1091 L 4193.5091 3493.8364 L 4193.8727 3494.2 L 4194.9636 3494.5636 L 4198.2364 3494.5636 M 4195.6909 3494.5636 L 4193.1455 3498.5636 M 4188.5636 3490.9273 L 4189.2909 3491.2909 L 4190.0182 3492.0182 L 4190.3818 3492.7455 L 4190.7455 3493.8364 L 4190.7455 3495.6545 L 4190.3818 3496.7455 L 4190.0182 3497.4727 L 4189.2909 3498.2 L 4188.5636 3498.5636 L 4187.1091 3498.5636 L 4186.3818 3498.2 L 4185.6545 3497.4727 L 4185.2909 3496.7455 L 4184.9273 3495.6545 L 4184.9273 3493.8364 L 4185.2909 3492.7455 L 4185.6545 3492.0182 L 4186.3818 3491.2909 L 4187.1091 3490.9273 L 4188.5636 3490.9273 M 4182.5273 3490.9273 L 4182.5273 3498.5636 M 4182.5273 3490.9273 L 4177.8 3490.9273 M 4182.5273 3494.5636 L 4179.6182 3494.5636 M 4175.4 3490.9273 L 4175.4 3498.5636 M 4173 3490.9273 L 4173 3498.5636 M 4173 3498.5636 L 4168.6364 3498.5636 M 4166.2364 3490.9273 L 4166.2364 3498.5636 M 4166.2364 3490.9273 L 4161.5091 3490.9273 M 4166.2364 3494.5636 L 4163.3273 3494.5636 M 4166.2364 3498.5636 L 4161.5091 3498.5636 M 4148.4182 3492.0182 L 4149.1455 3491.2909 L 4150.2364 3490.9273 L 4151.6909 3490.9273 L 4152.7818 3491.2909 L 4153.5091 3492.0182 L 4153.5091 3492.7455 L 4153.1455 3493.4727 L 4152.7818 3493.8364 L 4152.0545 3494.2 L 4149.8727 3494.9273 L 4149.1455 3495.2909 L 4148.7818 3495.6545 L 4148.4182 3496.3818 L 4148.4182 3497.4727 L 4149.1455 3498.2 L 4150.2364 3498.5636 L 4151.6909 3498.5636 L 4152.7818 3498.2 L 4153.5091 3497.4727 M 4146.0182 3490.9273 L 4144.2 3498.5636 M 4142.3818 3490.9273 L 4144.2 3498.5636 M 4142.3818 3490.9273 L 4140.5636 3498.5636 M 4138.7455 3490.9273 L 4140.5636 3498.5636 M 4136.3455 3490.9273 L 4136.3455 3498.5636 M 4131.4 3490.9273 L 4131.4 3498.5636 M 4133.9455 3490.9273 L 4128.8545 3490.9273 M 4121 3492.7455 L 4121.3636 3492.0182 L 4122.0909 3491.2909 L 4122.8182 3490.9273 L 4124.2727 3490.9273 L 4125 3491.2909 L 4125.7273 3492.0182 L 4126.0909 3492.7455 L 4126.4545 3493.8364 L 4126.4545 3495.6545 L 4126.0909 3496.7455 L 4125.7273 3497.4727 L 4125 3498.2 L 4124.2727 3498.5636 L 4122.8182 3498.5636 L 4122.0909 3498.2 L 4121.3636 3497.4727 L 4121 3496.7455 M 4118.6 3490.9273 L 4118.6 3498.5636 M 4113.5091 3490.9273 L 4113.5091 3498.5636 M 4118.6 3494.5636 L 4113.5091 3494.5636 M 4111.1091 3490.9273 L 4111.1091 3498.5636 M 4111.1091 3490.9273 L 4106.3818 3490.9273 M 4111.1091 3494.5636 L 4108.2 3494.5636 M 4111.1091 3498.5636 L 4106.3818 3498.5636 M 4098.8909 3492.0182 L 4099.6182 3491.2909 L 4100.7091 3490.9273 L 4102.1636 3490.9273 L 4103.2545 3491.2909 L 4103.9818 3492.0182 L 4103.9818 3492.7455 L 4103.6182 3493.4727 L 4103.2545 3493.8364 L 4102.5273 3494.2 L 4100.3455 3494.9273 L 4099.6182 3495.2909 L 4099.2545 3495.6545 L 4098.8909 3496.3818 L 4098.8909 3497.4727 L 4099.6182 3498.2 L 4100.7091 3498.5636 L 4102.1636 3498.5636 L 4103.2545 3498.2 L 4103.9818 3497.4727" fill="none" stroke-width="0.8"/></g><g c_partid="part_pcbtext" c_etype="pinpart" c_origin="4358.5,3553" c_rotation="0" c_mirror="1" id="gge395_4" locked="0" layerid="4" c_shapetype="group"><path c_fontsize="8" c_fontfamily="" c_text="16/08/2020" d="M4358.5 3546.3818L4357.7727 3546.0182 4356.6818 3544.9273 4356.6818 3552.5636M4349.9182 3546.0182L4350.2818 3545.2909 4351.3727 3544.9273 4352.1 3544.9273 4353.1909 3545.2909 4353.9182 3546.3818 4354.2818 3548.2 4354.2818 3550.0182 4353.9182 3551.4727 4353.1909 3552.2 4352.1 3552.5636 4351.7364 3552.5636 4350.6455 3552.2 4349.9182 3551.4727 4349.5545 3550.3818 4349.5545 3550.0182 4349.9182 3548.9273 4350.6455 3548.2 4351.7364 3547.8364 4352.1 3547.8364 4353.1909 3548.2 4353.9182 3548.9273 4354.2818 3550.0182M4340.6091 3543.4727L4347.1545 3555.1091M4336.0273 3544.9273L4337.1182 3545.2909 4337.8455 3546.3818 4338.2091 3548.2 4338.2091 3549.2909 4337.8455 3551.1091 4337.1182 3552.2 4336.0273 3552.5636 4335.3 3552.5636 4334.2091 3552.2 4333.4818 3551.1091 4333.1182 3549.2909 4333.1182 3548.2 4333.4818 3546.3818 4334.2091 3545.2909 4335.3 3544.9273 4336.0273 3544.9273M4328.9 3544.9273L4329.9909 3545.2909 4330.3545 3546.0182 4330.3545 3546.7455 4329.9909 3547.4727 4329.2636 3547.8364 4327.8091 3548.2 4326.7182 3548.5636 4325.9909 3549.2909 4325.6273 3550.0182 4325.6273 3551.1091 4325.9909 3551.8364 4326.3545 3552.2 4327.4455 3552.5636 4328.9 3552.5636 4329.9909 3552.2 4330.3545 3551.8364 4330.7182 3551.1091 4330.7182 3550.0182 4330.3545 3549.2909 4329.6273 3548.5636 4328.5364 3548.2 4327.0818 3547.8364 4326.3545 3547.4727 4325.9909 3546.7455 4325.9909 3546.0182 4326.3545 3545.2909 4327.4455 3544.9273 4328.9 3544.9273M4316.6818 3543.4727L4323.2273 3555.1091M4313.9182 3546.7455L4313.9182 3546.3818 4313.5545 3545.6545 4313.1909 3545.2909 4312.4636 3544.9273 4311.0091 3544.9273 4310.2818 3545.2909 4309.9182 3545.6545 4309.5545 3546.3818 4309.5545 3547.1091 4309.9182 3547.8364 4310.6455 3548.9273 4314.2818 3552.5636 4309.1909 3552.5636M4304.6091 3544.9273L4305.7 3545.2909 4306.4273 3546.3818 4306.7909 3548.2 4306.7909 3549.2909 4306.4273 3551.1091 4305.7 3552.2 4304.6091 3552.5636 4303.8818 3552.5636 4302.7909 3552.2 4302.0636 3551.1091 4301.7 3549.2909 4301.7 3548.2 4302.0636 3546.3818 4302.7909 3545.2909 4303.8818 3544.9273 4304.6091 3544.9273M4298.9364 3546.7455L4298.9364 3546.3818 4298.5727 3545.6545 4298.2091 3545.2909 4297.4818 3544.9273 4296.0273 3544.9273 4295.3 3545.2909 4294.9364 3545.6545 4294.5727 3546.3818 4294.5727 3547.1091 4294.9364 3547.8364 4295.6636 3548.9273 4299.3 3552.5636 4294.2091 3552.5636M4289.6273 3544.9273L4290.7182 3545.2909 4291.4455 3546.3818 4291.8091 3548.2 4291.8091 3549.2909 4291.4455 3551.1091 4290.7182 3552.2 4289.6273 3552.5636 4288.9 3552.5636 4287.8091 3552.2 4287.0818 3551.1091 4286.7182 3549.2909 4286.7182 3548.2 4287.0818 3546.3818 4287.8091 3545.2909 4288.9 3544.9273 4289.6273 3544.9273" fill="none" stroke-width="0.8"/></g></g></g></g></svg>