<?xml version="1.0" encoding="utf-8" standalone="no"?><svg xmlns="http://www.w3.org/2000/svg" xmlns:xlink="http://www.w3.org/1999/xlink" width="45.085mm" height="56.007mm" viewBox="4010 3634.5 177.5 220.5"><title>Photo View</title><rect x="4010" y="3634.5" width="177.5" height="220.5" fill="#000000" stroke="none"/><defs xmlns="http://www.w3.org/2000/svg" id="patterns"><pattern id="gridPattern" x="4000" y="3000" width="10" height="10" patternUnits="userSpaceOnUse"><rect id="gridCell" x="0" y="0" width="0.1852" height="0.1852" fill="#FFFFFF" stroke="none" fill-opacity="0.8"/></pattern><pattern id="gridPattern2" x="4000.1852" y="3000.1852" width="10" height="10" patternUnits="userSpaceOnUse"><path id="gridCell2" d="M10 0V10H-10" fill="none" stroke="#FFFFFF" stroke-width="0.1852" stroke-opacity="0.6"/></pattern><marker id="arrowOnStart" orient="auto" refY="0" refX="0" style="overflow:visible" markerUnits="strokeWidth"><path d="M 2,0 l 4,-2, 0,4 z" stroke-width="6"/></marker><marker id="arrowOnEnd" orient="auto" refY="0" refX="0" style="overflow:visible" markerUnits="strokeWidth"><path d="M -2,0 l -4,-2, 0,4 z" stroke-width="6"/></marker><marker id="arrowOnStartChrome" orient="auto" refY="0" refX="0" style="overflow:visible" markerUnits="strokeWidth"><path d="M 2,0 l 4,-2, 0,4 z" stroke-width="3" stroke="#FFFFFF"/></marker><marker id="arrowOnEndChrome" orient="auto" refY="0" refX="0" style="overflow:visible" markerUnits="strokeWidth"><path d="M -2,0 l -4,-2, 0,4 z" stroke-width="3" stroke="#FFFFFF"/></marker><svg id="icon-lock" title="Unlock" viewBox="0 0 20 20" height="20" width="20"><path stroke="#F0F" stroke-width="2" style="cursor:pointer;fill-opacity:.001;fill:#fff" d="M 5 7 C 5 -1 15 -1 15 7L1 7 1 19 19 19 19 7 15 7"/></svg><mask id="multiLayerMask" maskUnits="userSpaceOnUse" x="4019.6" y="3644.5" width="157.8" height="200.5"><path d="M4020 3845,4020 3644.5,4177.48 3644.5,4177.48 3845z" stroke="none" fill="white"/><g fill="black"><circle cx="4065.45" cy="3687.41" r="0.6102" stroke-width="0"/><circle cx="4042.15" cy="3727.56" r="3" stroke-width="0"/><circle cx="4067.15" cy="3717.56" r="3" stroke-width="0"/><circle cx="4062.15" cy="3757.56" r="2" stroke-width="0"/><circle cx="4052.15" cy="3757.56" r="2" stroke-width="0"/><circle cx="4124.83" cy="3727.56" r="3" stroke-width="0"/><circle cx="4149.83" cy="3717.56" r="3" stroke-width="0"/><circle cx="4144.83" cy="3757.56" r="2" stroke-width="0"/><circle cx="4134.83" cy="3757.56" r="2" stroke-width="0"/><circle cx="4050" cy="3832" r="1.8" stroke-width="0"/><circle cx="4060" cy="3832" r="1.8" stroke-width="0"/><circle cx="4070" cy="3832" r="1.8" stroke-width="0"/><circle cx="4080" cy="3832" r="1.8" stroke-width="0"/><circle cx="4090" cy="3832" r="1.8" stroke-width="0"/><circle cx="4100" cy="3832" r="1.8" stroke-width="0"/><circle cx="4110" cy="3832" r="1.8" stroke-width="0"/><circle cx="4120" cy="3832" r="1.8" stroke-width="0"/><circle cx="4130" cy="3832" r="1.8" stroke-width="0"/><circle cx="4140" cy="3832" r="1.8" stroke-width="0"/><circle cx="4043.5" cy="3657.5" r="1.8" stroke-width="0"/><circle cx="4053.5" cy="3657.5" r="1.8" stroke-width="0"/><circle cx="4063.5" cy="3657.5" r="1.8" stroke-width="0"/><circle cx="4073.5" cy="3657.5" r="1.8" stroke-width="0"/><circle cx="4083.5" cy="3657.5" r="1.8" stroke-width="0"/><circle cx="4093.5" cy="3657.5" r="1.8" stroke-width="0"/><circle cx="4103.5" cy="3657.5" r="1.8" stroke-width="0"/><circle cx="4113.5" cy="3657.5" r="1.8" stroke-width="0"/><circle cx="4123.5" cy="3657.5" r="1.8" stroke-width="0"/><circle cx="4133.5" cy="3657.5" r="1.8" stroke-width="0"/><circle cx="4143.5" cy="3657.5" r="1.8" stroke-width="0"/><circle cx="4153.5" cy="3657.5" r="1.8" stroke-width="0"/><circle cx="4057.15" cy="3737.56" r="8.25" stroke-width="0"/><circle cx="4139.83" cy="3737.56" r="8.25" stroke-width="0"/><circle cx="4035.5" cy="3678.5" r="9.8425" stroke-width="0"/><circle cx="4161.484" cy="3678.5" r="9.8425" stroke-width="0"/><circle cx="4035.5" cy="3812.358" r="9.8425" stroke-width="0"/><circle cx="4161.484" cy="3812.358" r="9.8425" stroke-width="0"/></g></mask><mask id="topBoardSolderMask" maskUnits="userSpaceOnUse" x="4019.6" y="3644.5" width="157.8" height="200.5"><path d="M4020 3845,4020 3644.5,4177.48 3644.5,4177.48 3845z" stroke="none" fill="white"/><g fill="black"><ellipse cx="4042.15" cy="3727.56" rx="4.7" ry="4.7" stroke-width="0" c_etype="pad_outer"/><ellipse cx="4067.15" cy="3717.56" rx="4.7" ry="4.7" stroke-width="0" c_etype="pad_outer"/><ellipse cx="4062.15" cy="3757.56" rx="3.4" ry="3.4" stroke-width="0" c_etype="pad_outer"/><ellipse cx="4052.15" cy="3757.56" rx="3.4" ry="3.4" stroke-width="0" c_etype="pad_outer"/><ellipse cx="4124.83" cy="3727.56" rx="4.7" ry="4.7" stroke-width="0" c_etype="pad_outer"/><ellipse cx="4149.83" cy="3717.56" rx="4.7" ry="4.7" stroke-width="0" c_etype="pad_outer"/><ellipse cx="4144.83" cy="3757.56" rx="3.4" ry="3.4" stroke-width="0" c_etype="pad_outer"/><ellipse cx="4134.83" cy="3757.56" rx="3.4" ry="3.4" stroke-width="0" c_etype="pad_outer"/><polygon points="4046.6 3835.4 4046.6 3828.6 4053.4 3828.6 4053.4 3835.4" stroke-width="0" c_etype="pad_outer"/><ellipse cx="4060" cy="3832" rx="3.4" ry="3.4" stroke-width="0" c_etype="pad_outer"/><ellipse cx="4070" cy="3832" rx="3.4" ry="3.4" stroke-width="0" c_etype="pad_outer"/><ellipse cx="4080" cy="3832" rx="3.4" ry="3.4" stroke-width="0" c_etype="pad_outer"/><ellipse cx="4090" cy="3832" rx="3.4" ry="3.4" stroke-width="0" c_etype="pad_outer"/><ellipse cx="4100" cy="3832" rx="3.4" ry="3.4" stroke-width="0" c_etype="pad_outer"/><ellipse cx="4110" cy="3832" rx="3.4" ry="3.4" stroke-width="0" c_etype="pad_outer"/><ellipse cx="4120" cy="3832" rx="3.4" ry="3.4" stroke-width="0" c_etype="pad_outer"/><ellipse cx="4130" cy="3832" rx="3.4" ry="3.4" stroke-width="0" c_etype="pad_outer"/><ellipse cx="4140" cy="3832" rx="3.4" ry="3.4" stroke-width="0" c_etype="pad_outer"/><polygon points="4040.1 3660.9 4040.1 3654.1 4046.9 3654.1 4046.9 3660.9" stroke-width="0" c_etype="pad_outer"/><ellipse cx="4053.5" cy="3657.5" rx="3.4" ry="3.4" stroke-width="0" c_etype="pad_outer"/><ellipse cx="4063.5" cy="3657.5" rx="3.4" ry="3.4" stroke-width="0" c_etype="pad_outer"/><ellipse cx="4073.5" cy="3657.5" rx="3.4" ry="3.4" stroke-width="0" c_etype="pad_outer"/><ellipse cx="4083.5" cy="3657.5" rx="3.4" ry="3.4" stroke-width="0" c_etype="pad_outer"/><ellipse cx="4093.5" cy="3657.5" rx="3.4" ry="3.4" stroke-width="0" c_etype="pad_outer"/><ellipse cx="4103.5" cy="3657.5" rx="3.4" ry="3.4" stroke-width="0" c_etype="pad_outer"/><ellipse cx="4113.5" cy="3657.5" rx="3.4" ry="3.4" stroke-width="0" c_etype="pad_outer"/><ellipse cx="4123.5" cy="3657.5" rx="3.4" ry="3.4" stroke-width="0" c_etype="pad_outer"/><ellipse cx="4133.5" cy="3657.5" rx="3.4" ry="3.4" stroke-width="0" c_etype="pad_outer"/><ellipse cx="4143.5" cy="3657.5" rx="3.4" ry="3.4" stroke-width="0" c_etype="pad_outer"/><ellipse cx="4153.5" cy="3657.5" rx="3.4" ry="3.4" stroke-width="0" c_etype="pad_outer"/></g></mask><mask id="topSignalSolderMask" maskUnits="userSpaceOnUse" x="4019.6" y="3644.5" width="157.8" height="200.5"><path d="M4020 3845,4020 3644.5,4177.48 3644.5,4177.48 3845z" stroke="none" fill="white"/><g fill="black"><ellipse cx="4042.15" cy="3727.56" rx="4.7" ry="4.7" stroke-width="0" c_etype="pad_outer"/><ellipse cx="4067.15" cy="3717.56" rx="4.7" ry="4.7" stroke-width="0" c_etype="pad_outer"/><ellipse cx="4062.15" cy="3757.56" rx="3.4" ry="3.4" stroke-width="0" c_etype="pad_outer"/><ellipse cx="4052.15" cy="3757.56" rx="3.4" ry="3.4" stroke-width="0" c_etype="pad_outer"/><ellipse cx="4124.83" cy="3727.56" rx="4.7" ry="4.7" stroke-width="0" c_etype="pad_outer"/><ellipse cx="4149.83" cy="3717.56" rx="4.7" ry="4.7" stroke-width="0" c_etype="pad_outer"/><ellipse cx="4144.83" cy="3757.56" rx="3.4" ry="3.4" stroke-width="0" c_etype="pad_outer"/><ellipse cx="4134.83" cy="3757.56" rx="3.4" ry="3.4" stroke-width="0" c_etype="pad_outer"/><polygon points="4046.6 3835.4 4046.6 3828.6 4053.4 3828.6 4053.4 3835.4" stroke-width="0" c_etype="pad_outer"/><ellipse cx="4060" cy="3832" rx="3.4" ry="3.4" stroke-width="0" c_etype="pad_outer"/><ellipse cx="4070" cy="3832" rx="3.4" ry="3.4" stroke-width="0" c_etype="pad_outer"/><ellipse cx="4080" cy="3832" rx="3.4" ry="3.4" stroke-width="0" c_etype="pad_outer"/><ellipse cx="4090" cy="3832" rx="3.4" ry="3.4" stroke-width="0" c_etype="pad_outer"/><ellipse cx="4100" cy="3832" rx="3.4" ry="3.4" stroke-width="0" c_etype="pad_outer"/><ellipse cx="4110" cy="3832" rx="3.4" ry="3.4" stroke-width="0" c_etype="pad_outer"/><ellipse cx="4120" cy="3832" rx="3.4" ry="3.4" stroke-width="0" c_etype="pad_outer"/><ellipse cx="4130" cy="3832" rx="3.4" ry="3.4" stroke-width="0" c_etype="pad_outer"/><ellipse cx="4140" cy="3832" rx="3.4" ry="3.4" stroke-width="0" c_etype="pad_outer"/><polygon points="4040.1 3660.9 4040.1 3654.1 4046.9 3654.1 4046.9 3660.9" stroke-width="0" c_etype="pad_outer"/><ellipse cx="4053.5" cy="3657.5" rx="3.4" ry="3.4" stroke-width="0" c_etype="pad_outer"/><ellipse cx="4063.5" cy="3657.5" rx="3.4" ry="3.4" stroke-width="0" c_etype="pad_outer"/><ellipse cx="4073.5" cy="3657.5" rx="3.4" ry="3.4" stroke-width="0" c_etype="pad_outer"/><ellipse cx="4083.5" cy="3657.5" rx="3.4" ry="3.4" stroke-width="0" c_etype="pad_outer"/><ellipse cx="4093.5" cy="3657.5" rx="3.4" ry="3.4" stroke-width="0" c_etype="pad_outer"/><ellipse cx="4103.5" cy="3657.5" rx="3.4" ry="3.4" stroke-width="0" c_etype="pad_outer"/><ellipse cx="4113.5" cy="3657.5" rx="3.4" ry="3.4" stroke-width="0" c_etype="pad_outer"/><ellipse cx="4123.5" cy="3657.5" rx="3.4" ry="3.4" stroke-width="0" c_etype="pad_outer"/><ellipse cx="4133.5" cy="3657.5" rx="3.4" ry="3.4" stroke-width="0" c_etype="pad_outer"/><ellipse cx="4143.5" cy="3657.5" rx="3.4" ry="3.4" stroke-width="0" c_etype="pad_outer"/><ellipse cx="4153.5" cy="3657.5" rx="3.4" ry="3.4" stroke-width="0" c_etype="pad_outer"/></g></mask><mask id="bottomBoardSolderMask" maskUnits="userSpaceOnUse" x="4019.6" y="3644.5" width="157.8" height="200.5"><path d="M4020 3845,4020 3644.5,4177.48 3644.5,4177.48 3845z" stroke="none" fill="white"/><g fill="black"><ellipse cx="4042.15" cy="3727.56" rx="4.7" ry="4.7" stroke-width="0" c_etype="pad_outer"/><ellipse cx="4067.15" cy="3717.56" rx="4.7" ry="4.7" stroke-width="0" c_etype="pad_outer"/><ellipse cx="4062.15" cy="3757.56" rx="3.4" ry="3.4" stroke-width="0" c_etype="pad_outer"/><ellipse cx="4052.15" cy="3757.56" rx="3.4" ry="3.4" stroke-width="0" c_etype="pad_outer"/><ellipse cx="4124.83" cy="3727.56" rx="4.7" ry="4.7" stroke-width="0" c_etype="pad_outer"/><ellipse cx="4149.83" cy="3717.56" rx="4.7" ry="4.7" stroke-width="0" c_etype="pad_outer"/><ellipse cx="4144.83" cy="3757.56" rx="3.4" ry="3.4" stroke-width="0" c_etype="pad_outer"/><ellipse cx="4134.83" cy="3757.56" rx="3.4" ry="3.4" stroke-width="0" c_etype="pad_outer"/><polygon points="4046.6 3835.4 4046.6 3828.6 4053.4 3828.6 4053.4 3835.4" stroke-width="0" c_etype="pad_outer"/><ellipse cx="4060" cy="3832" rx="3.4" ry="3.4" stroke-width="0" c_etype="pad_outer"/><ellipse cx="4070" cy="3832" rx="3.4" ry="3.4" stroke-width="0" c_etype="pad_outer"/><ellipse cx="4080" cy="3832" rx="3.4" ry="3.4" stroke-width="0" c_etype="pad_outer"/><ellipse cx="4090" cy="3832" rx="3.4" ry="3.4" stroke-width="0" c_etype="pad_outer"/><ellipse cx="4100" cy="3832" rx="3.4" ry="3.4" stroke-width="0" c_etype="pad_outer"/><ellipse cx="4110" cy="3832" rx="3.4" ry="3.4" stroke-width="0" c_etype="pad_outer"/><ellipse cx="4120" cy="3832" rx="3.4" ry="3.4" stroke-width="0" c_etype="pad_outer"/><ellipse cx="4130" cy="3832" rx="3.4" ry="3.4" stroke-width="0" c_etype="pad_outer"/><ellipse cx="4140" cy="3832" rx="3.4" ry="3.4" stroke-width="0" c_etype="pad_outer"/><polygon points="4040.1 3660.9 4040.1 3654.1 4046.9 3654.1 4046.9 3660.9" stroke-width="0" c_etype="pad_outer"/><ellipse cx="4053.5" cy="3657.5" rx="3.4" ry="3.4" stroke-width="0" c_etype="pad_outer"/><ellipse cx="4063.5" cy="3657.5" rx="3.4" ry="3.4" stroke-width="0" c_etype="pad_outer"/><ellipse cx="4073.5" cy="3657.5" rx="3.4" ry="3.4" stroke-width="0" c_etype="pad_outer"/><ellipse cx="4083.5" cy="3657.5" rx="3.4" ry="3.4" stroke-width="0" c_etype="pad_outer"/><ellipse cx="4093.5" cy="3657.5" rx="3.4" ry="3.4" stroke-width="0" c_etype="pad_outer"/><ellipse cx="4103.5" cy="3657.5" rx="3.4" ry="3.4" stroke-width="0" c_etype="pad_outer"/><ellipse cx="4113.5" cy="3657.5" rx="3.4" ry="3.4" stroke-width="0" c_etype="pad_outer"/><ellipse cx="4123.5" cy="3657.5" rx="3.4" ry="3.4" stroke-width="0" c_etype="pad_outer"/><ellipse cx="4133.5" cy="3657.5" rx="3.4" ry="3.4" stroke-width="0" c_etype="pad_outer"/><ellipse cx="4143.5" cy="3657.5" rx="3.4" ry="3.4" stroke-width="0" c_etype="pad_outer"/><ellipse cx="4153.5" cy="3657.5" rx="3.4" ry="3.4" stroke-width="0" c_etype="pad_outer"/></g></mask><mask id="bottomSignalSolderMask" maskUnits="userSpaceOnUse" x="4019.6" y="3644.5" width="157.8" height="200.5"><path d="M4020 3845,4020 3644.5,4177.48 3644.5,4177.48 3845z" stroke="none" fill="white"/><g fill="black"><ellipse cx="4042.15" cy="3727.56" rx="4.7" ry="4.7" stroke-width="0" c_etype="pad_outer"/><ellipse cx="4067.15" cy="3717.56" rx="4.7" ry="4.7" stroke-width="0" c_etype="pad_outer"/><ellipse cx="4062.15" cy="3757.56" rx="3.4" ry="3.4" stroke-width="0" c_etype="pad_outer"/><ellipse cx="4052.15" cy="3757.56" rx="3.4" ry="3.4" stroke-width="0" c_etype="pad_outer"/><ellipse cx="4124.83" cy="3727.56" rx="4.7" ry="4.7" stroke-width="0" c_etype="pad_outer"/><ellipse cx="4149.83" cy="3717.56" rx="4.7" ry="4.7" stroke-width="0" c_etype="pad_outer"/><ellipse cx="4144.83" cy="3757.56" rx="3.4" ry="3.4" stroke-width="0" c_etype="pad_outer"/><ellipse cx="4134.83" cy="3757.56" rx="3.4" ry="3.4" stroke-width="0" c_etype="pad_outer"/><polygon points="4046.6 3835.4 4046.6 3828.6 4053.4 3828.6 4053.4 3835.4" stroke-width="0" c_etype="pad_outer"/><ellipse cx="4060" cy="3832" rx="3.4" ry="3.4" stroke-width="0" c_etype="pad_outer"/><ellipse cx="4070" cy="3832" rx="3.4" ry="3.4" stroke-width="0" c_etype="pad_outer"/><ellipse cx="4080" cy="3832" rx="3.4" ry="3.4" stroke-width="0" c_etype="pad_outer"/><ellipse cx="4090" cy="3832" rx="3.4" ry="3.4" stroke-width="0" c_etype="pad_outer"/><ellipse cx="4100" cy="3832" rx="3.4" ry="3.4" stroke-width="0" c_etype="pad_outer"/><ellipse cx="4110" cy="3832" rx="3.4" ry="3.4" stroke-width="0" c_etype="pad_outer"/><ellipse cx="4120" cy="3832" rx="3.4" ry="3.4" stroke-width="0" c_etype="pad_outer"/><ellipse cx="4130" cy="3832" rx="3.4" ry="3.4" stroke-width="0" c_etype="pad_outer"/><ellipse cx="4140" cy="3832" rx="3.4" ry="3.4" stroke-width="0" c_etype="pad_outer"/><polygon points="4040.1 3660.9 4040.1 3654.1 4046.9 3654.1 4046.9 3660.9" stroke-width="0" c_etype="pad_outer"/><ellipse cx="4053.5" cy="3657.5" rx="3.4" ry="3.4" stroke-width="0" c_etype="pad_outer"/><ellipse cx="4063.5" cy="3657.5" rx="3.4" ry="3.4" stroke-width="0" c_etype="pad_outer"/><ellipse cx="4073.5" cy="3657.5" rx="3.4" ry="3.4" stroke-width="0" c_etype="pad_outer"/><ellipse cx="4083.5" cy="3657.5" rx="3.4" ry="3.4" stroke-width="0" c_etype="pad_outer"/><ellipse cx="4093.5" cy="3657.5" rx="3.4" ry="3.4" stroke-width="0" c_etype="pad_outer"/><ellipse cx="4103.5" cy="3657.5" rx="3.4" ry="3.4" stroke-width="0" c_etype="pad_outer"/><ellipse cx="4113.5" cy="3657.5" rx="3.4" ry="3.4" stroke-width="0" c_etype="pad_outer"/><ellipse cx="4123.5" cy="3657.5" rx="3.4" ry="3.4" stroke-width="0" c_etype="pad_outer"/><ellipse cx="4133.5" cy="3657.5" rx="3.4" ry="3.4" stroke-width="0" c_etype="pad_outer"/><ellipse cx="4143.5" cy="3657.5" rx="3.4" ry="3.4" stroke-width="0" c_etype="pad_outer"/><ellipse cx="4153.5" cy="3657.5" rx="3.4" ry="3.4" stroke-width="0" c_etype="pad_outer"/></g></mask></defs><g xmlns="http://www.w3.org/2000/svg" id="g1" mask="url(#multiLayerMask)" class="photoview" transform="matrix(-1, 0, 0, 1, 8197.47998046875, 0)"><g id="layer_other" class="shapeBox"><path d="M4020 3845,4020 3644.5,4177.48 3644.5,4177.48 3845z" stroke="none" id="boardOutlineReal" fill="#80785F"/><path d="M4020 3845,4020 3644.5,4177.48 3644.5,4177.48 3845z" stroke="none" id="topBoardSolderReal" mask="url(#topBoardSolderMask)" fill="#0B3B0B" display="none"/><g id="topSignalReal" fill="#DCAA14" stroke="#DCAA14" display="none"><polyline points="4143.5 3657.5 4143.5 3708.89 4124.83 3727.56" stroke-width="3.937" c_shapetype="line" stroke-linecap="round" fill="none" layerid="1" net="" id="gge1175_1" locked="0"/><polyline points="4070 3832 4070 3730.33 4059.87 3720.19 4059.87 3661.14 4063.5 3657.5" stroke-width="3.937" c_shapetype="line" stroke-linecap="round" fill="none" layerid="1" net="" id="gge1173_1" locked="0"/><polyline points="4083.5 3657.5 4083.5 3825.5 4090 3832" stroke-width="3.937" c_shapetype="line" stroke-linecap="round" fill="none" layerid="1" net="" id="gge1172_1" locked="0"/><polyline points="4093.5 3657.5 4093.5 3825.5 4100 3832" stroke-width="3.937" c_shapetype="line" stroke-linecap="round" fill="none" layerid="1" net="" id="gge1171_1" locked="0"/><polyline points="4103.5 3657.5 4103.5 3825.5 4110 3832" stroke-width="3.937" c_shapetype="line" stroke-linecap="round" fill="none" layerid="1" net="" id="gge1170_1" locked="0"/><polyline points="4123.5 3657.5 4117.8 3663.2 4117.8 3829.8 4120 3832" stroke-width="3.937" c_shapetype="line" stroke-linecap="round" fill="none" layerid="1" net="" id="gge1169_1" locked="0"/><polyline points="4073.5 3657.5 4075.61 3659.61 4075.61 3827.61 4080 3832" stroke-width="3.937" c_shapetype="line" stroke-linecap="round" fill="none" layerid="1" net="" id="gge1168_1" locked="0"/><polyline points="4053.5 3657.5 4053.5 3703.33 4034.87 3721.96 4034.87 3775.43 4060 3800.55 4060 3832" stroke-width="3.937" c_shapetype="line" stroke-linecap="round" fill="none" layerid="1" net="" id="gge1167_1" locked="0"/><polyline points="4065.45 3687.41 4067.15 3689.11 4067.15 3717.56" stroke-width="3.937" c_shapetype="line" stroke-linecap="round" fill="none" layerid="1" net="" id="gge1164_1" locked="0"/><g c_partid="part_via" c_etype="pinpart" layerid="11" id="gge1165_11" c_origin="4065.45,3687.41" net="" c_rotation="undefined"><circle cx="4065.45" cy="3687.41" r="1.2008" stroke-width="0"/></g><g c_partid="part_pad" c_etype="pinpart" layerid="11" id="gge860_11" c_origin="4042.15,3727.56" net="" c_rotation="0" c_width="8.6" c_height="8.6"><ellipse cx="4042.15" cy="3727.56" rx="4.3" ry="4.3" stroke-width="0" c_etype="pad_shell"/></g><g c_partid="part_pad" c_etype="pinpart" layerid="11" id="gge865_11" c_origin="4067.15,3717.56" net="" c_rotation="0" c_width="8.6" c_height="8.6"><ellipse cx="4067.15" cy="3717.56" rx="4.3" ry="4.3" stroke-width="0" c_etype="pad_shell"/></g><g c_partid="part_pad" c_etype="pinpart" layerid="11" id="gge870_11" c_origin="4062.15,3757.56" net="" c_rotation="0" c_width="6" c_height="6"><ellipse cx="4062.15" cy="3757.56" rx="3" ry="3" stroke-width="0" c_etype="pad_shell"/></g><g c_partid="part_pad" c_etype="pinpart" layerid="11" id="gge875_11" c_origin="4052.15,3757.56" net="" c_rotation="0" c_width="6" c_height="6"><ellipse cx="4052.15" cy="3757.56" rx="3" ry="3" stroke-width="0" c_etype="pad_shell"/></g><g c_partid="part_pad" c_etype="pinpart" layerid="11" id="gge901_11" c_origin="4124.83,3727.56" net="" c_rotation="0" c_width="8.6" c_height="8.6"><ellipse cx="4124.83" cy="3727.56" rx="4.3" ry="4.3" stroke-width="0" c_etype="pad_shell"/></g><g c_partid="part_pad" c_etype="pinpart" layerid="11" id="gge906_11" c_origin="4149.83,3717.56" net="" c_rotation="0" c_width="8.6" c_height="8.6"><ellipse cx="4149.83" cy="3717.56" rx="4.3" ry="4.3" stroke-width="0" c_etype="pad_shell"/></g><g c_partid="part_pad" c_etype="pinpart" layerid="11" id="gge911_11" c_origin="4144.83,3757.56" net="" c_rotation="0" c_width="6" c_height="6"><ellipse cx="4144.83" cy="3757.56" rx="3" ry="3" stroke-width="0" c_etype="pad_shell"/></g><g c_partid="part_pad" c_etype="pinpart" layerid="11" id="gge916_11" c_origin="4134.83,3757.56" net="" c_rotation="0" c_width="6" c_height="6"><ellipse cx="4134.83" cy="3757.56" rx="3" ry="3" stroke-width="0" c_etype="pad_shell"/></g><g c_partid="part_pad" c_etype="pinpart" layerid="11" id="gge1017_11" c_origin="4050,3832" net="" c_rotation="0" c_width="6" c_height="6"><polygon points="4047 3829 4053 3829 4053 3835 4047 3835" stroke-width="0" c_etype="pad_shell"/></g><g c_partid="part_pad" c_etype="pinpart" layerid="11" id="gge1022_11" c_origin="4060,3832" net="" c_rotation="0" c_width="6" c_height="6"><ellipse cx="4060" cy="3832" rx="3" ry="3" stroke-width="0" c_etype="pad_shell"/></g><g c_partid="part_pad" c_etype="pinpart" layerid="11" id="gge1027_11" c_origin="4070,3832" net="" c_rotation="0" c_width="6" c_height="6"><ellipse cx="4070" cy="3832" rx="3" ry="3" stroke-width="0" c_etype="pad_shell"/></g><g c_partid="part_pad" c_etype="pinpart" layerid="11" id="gge1032_11" c_origin="4080,3832" net="" c_rotation="0" c_width="6" c_height="6"><ellipse cx="4080" cy="3832" rx="3" ry="3" stroke-width="0" c_etype="pad_shell"/></g><g c_partid="part_pad" c_etype="pinpart" layerid="11" id="gge1037_11" c_origin="4090,3832" net="" c_rotation="0" c_width="6" c_height="6"><ellipse cx="4090" cy="3832" rx="3" ry="3" stroke-width="0" c_etype="pad_shell"/></g><g c_partid="part_pad" c_etype="pinpart" layerid="11" id="gge1042_11" c_origin="4100,3832" net="" c_rotation="0" c_width="6" c_height="6"><ellipse cx="4100" cy="3832" rx="3" ry="3" stroke-width="0" c_etype="pad_shell"/></g><g c_partid="part_pad" c_etype="pinpart" layerid="11" id="gge1047_11" c_origin="4110,3832" net="" c_rotation="0" c_width="6" c_height="6"><ellipse cx="4110" cy="3832" rx="3" ry="3" stroke-width="0" c_etype="pad_shell"/></g><g c_partid="part_pad" c_etype="pinpart" layerid="11" id="gge1052_11" c_origin="4120,3832" net="" c_rotation="0" c_width="6" c_height="6"><ellipse cx="4120" cy="3832" rx="3" ry="3" stroke-width="0" c_etype="pad_shell"/></g><g c_partid="part_pad" c_etype="pinpart" layerid="11" id="gge1057_11" c_origin="4130,3832" net="" c_rotation="0" c_width="6" c_height="6"><ellipse cx="4130" cy="3832" rx="3" ry="3" stroke-width="0" c_etype="pad_shell"/></g><g c_partid="part_pad" c_etype="pinpart" layerid="11" id="gge1062_11" c_origin="4140,3832" net="" c_rotation="0" c_width="6" c_height="6"><ellipse cx="4140" cy="3832" rx="3" ry="3" stroke-width="0" c_etype="pad_shell"/></g><g c_partid="part_pad" c_etype="pinpart" layerid="11" id="gge1074_11" c_origin="4043.5,3657.5" net="" c_rotation="0" c_width="6" c_height="6"><polygon points="4040.5 3654.5 4046.5 3654.5 4046.5 3660.5 4040.5 3660.5" stroke-width="0" c_etype="pad_shell"/></g><g c_partid="part_pad" c_etype="pinpart" layerid="11" id="gge1079_11" c_origin="4053.5,3657.5" net="" c_rotation="0" c_width="6" c_height="6"><ellipse cx="4053.5" cy="3657.5" rx="3" ry="3" stroke-width="0" c_etype="pad_shell"/></g><g c_partid="part_pad" c_etype="pinpart" layerid="11" id="gge1084_11" c_origin="4063.5,3657.5" net="" c_rotation="0" c_width="6" c_height="6"><ellipse cx="4063.5" cy="3657.5" rx="3" ry="3" stroke-width="0" c_etype="pad_shell"/></g><g c_partid="part_pad" c_etype="pinpart" layerid="11" id="gge1089_11" c_origin="4073.5,3657.5" net="" c_rotation="0" c_width="6" c_height="6"><ellipse cx="4073.5" cy="3657.5" rx="3" ry="3" stroke-width="0" c_etype="pad_shell"/></g><g c_partid="part_pad" c_etype="pinpart" layerid="11" id="gge1094_11" c_origin="4083.5,3657.5" net="" c_rotation="0" c_width="6" c_height="6"><ellipse cx="4083.5" cy="3657.5" rx="3" ry="3" stroke-width="0" c_etype="pad_shell"/></g><g c_partid="part_pad" c_etype="pinpart" layerid="11" id="gge1099_11" c_origin="4093.5,3657.5" net="" c_rotation="0" c_width="6" c_height="6"><ellipse cx="4093.5" cy="3657.5" rx="3" ry="3" stroke-width="0" c_etype="pad_shell"/></g><g c_partid="part_pad" c_etype="pinpart" layerid="11" id="gge1104_11" c_origin="4103.5,3657.5" net="" c_rotation="0" c_width="6" c_height="6"><ellipse cx="4103.5" cy="3657.5" rx="3" ry="3" stroke-width="0" c_etype="pad_shell"/></g><g c_partid="part_pad" c_etype="pinpart" layerid="11" id="gge1109_11" c_origin="4113.5,3657.5" net="" c_rotation="0" c_width="6" c_height="6"><ellipse cx="4113.5" cy="3657.5" rx="3" ry="3" stroke-width="0" c_etype="pad_shell"/></g><g c_partid="part_pad" c_etype="pinpart" layerid="11" id="gge1114_11" c_origin="4123.5,3657.5" net="" c_rotation="0" c_width="6" c_height="6"><ellipse cx="4123.5" cy="3657.5" rx="3" ry="3" stroke-width="0" c_etype="pad_shell"/></g><g c_partid="part_pad" c_etype="pinpart" layerid="11" id="gge1119_11" c_origin="4133.5,3657.5" net="" c_rotation="0" c_width="6" c_height="6"><ellipse cx="4133.5" cy="3657.5" rx="3" ry="3" stroke-width="0" c_etype="pad_shell"/></g><g c_partid="part_pad" c_etype="pinpart" layerid="11" id="gge1124_11" c_origin="4143.5,3657.5" net="" c_rotation="0" c_width="6" c_height="6"><ellipse cx="4143.5" cy="3657.5" rx="3" ry="3" stroke-width="0" c_etype="pad_shell"/></g><g c_partid="part_pad" c_etype="pinpart" layerid="11" id="gge1129_11" c_origin="4153.5,3657.5" net="" c_rotation="0" c_width="6" c_height="6"><ellipse cx="4153.5" cy="3657.5" rx="3" ry="3" stroke-width="0" c_etype="pad_shell"/></g></g><g id="topSignalSolderReal" mask="url(#topSignalSolderMask)" fill="#00BE00" stroke="#00BE00" display="none"><polyline points="4143.5 3657.5 4143.5 3708.89 4124.83 3727.56" stroke-width="3.937" c_shapetype="line" stroke-linecap="round" fill="none" layerid="1" net="" id="gge1175_1" locked="0"/><polyline points="4070 3832 4070 3730.33 4059.87 3720.19 4059.87 3661.14 4063.5 3657.5" stroke-width="3.937" c_shapetype="line" stroke-linecap="round" fill="none" layerid="1" net="" id="gge1173_1" locked="0"/><polyline points="4083.5 3657.5 4083.5 3825.5 4090 3832" stroke-width="3.937" c_shapetype="line" stroke-linecap="round" fill="none" layerid="1" net="" id="gge1172_1" locked="0"/><polyline points="4093.5 3657.5 4093.5 3825.5 4100 3832" stroke-width="3.937" c_shapetype="line" stroke-linecap="round" fill="none" layerid="1" net="" id="gge1171_1" locked="0"/><polyline points="4103.5 3657.5 4103.5 3825.5 4110 3832" stroke-width="3.937" c_shapetype="line" stroke-linecap="round" fill="none" layerid="1" net="" id="gge1170_1" locked="0"/><polyline points="4123.5 3657.5 4117.8 3663.2 4117.8 3829.8 4120 3832" stroke-width="3.937" c_shapetype="line" stroke-linecap="round" fill="none" layerid="1" net="" id="gge1169_1" locked="0"/><polyline points="4073.5 3657.5 4075.61 3659.61 4075.61 3827.61 4080 3832" stroke-width="3.937" c_shapetype="line" stroke-linecap="round" fill="none" layerid="1" net="" id="gge1168_1" locked="0"/><polyline points="4053.5 3657.5 4053.5 3703.33 4034.87 3721.96 4034.87 3775.43 4060 3800.55 4060 3832" stroke-width="3.937" c_shapetype="line" stroke-linecap="round" fill="none" layerid="1" net="" id="gge1167_1" locked="0"/><polyline points="4065.45 3687.41 4067.15 3689.11 4067.15 3717.56" stroke-width="3.937" c_shapetype="line" stroke-linecap="round" fill="none" layerid="1" net="" id="gge1164_1" locked="0"/><g c_partid="part_via" c_etype="pinpart" layerid="11" id="gge1165_11" c_origin="4065.45,3687.41" net="" c_rotation="undefined"><circle cx="4065.45" cy="3687.41" r="1.2008" stroke-width="0"/></g><g c_partid="part_pad" c_etype="pinpart" layerid="11" id="gge860_11" c_origin="4042.15,3727.56" net="" c_rotation="0" c_width="8.6" c_height="8.6"><ellipse cx="4042.15" cy="3727.56" rx="4.3" ry="4.3" stroke-width="0" c_etype="pad_shell"/></g><g c_partid="part_pad" c_etype="pinpart" layerid="11" id="gge865_11" c_origin="4067.15,3717.56" net="" c_rotation="0" c_width="8.6" c_height="8.6"><ellipse cx="4067.15" cy="3717.56" rx="4.3" ry="4.3" stroke-width="0" c_etype="pad_shell"/></g><g c_partid="part_pad" c_etype="pinpart" layerid="11" id="gge870_11" c_origin="4062.15,3757.56" net="" c_rotation="0" c_width="6" c_height="6"><ellipse cx="4062.15" cy="3757.56" rx="3" ry="3" stroke-width="0" c_etype="pad_shell"/></g><g c_partid="part_pad" c_etype="pinpart" layerid="11" id="gge875_11" c_origin="4052.15,3757.56" net="" c_rotation="0" c_width="6" c_height="6"><ellipse cx="4052.15" cy="3757.56" rx="3" ry="3" stroke-width="0" c_etype="pad_shell"/></g><g c_partid="part_pad" c_etype="pinpart" layerid="11" id="gge901_11" c_origin="4124.83,3727.56" net="" c_rotation="0" c_width="8.6" c_height="8.6"><ellipse cx="4124.83" cy="3727.56" rx="4.3" ry="4.3" stroke-width="0" c_etype="pad_shell"/></g><g c_partid="part_pad" c_etype="pinpart" layerid="11" id="gge906_11" c_origin="4149.83,3717.56" net="" c_rotation="0" c_width="8.6" c_height="8.6"><ellipse cx="4149.83" cy="3717.56" rx="4.3" ry="4.3" stroke-width="0" c_etype="pad_shell"/></g><g c_partid="part_pad" c_etype="pinpart" layerid="11" id="gge911_11" c_origin="4144.83,3757.56" net="" c_rotation="0" c_width="6" c_height="6"><ellipse cx="4144.83" cy="3757.56" rx="3" ry="3" stroke-width="0" c_etype="pad_shell"/></g><g c_partid="part_pad" c_etype="pinpart" layerid="11" id="gge916_11" c_origin="4134.83,3757.56" net="" c_rotation="0" c_width="6" c_height="6"><ellipse cx="4134.83" cy="3757.56" rx="3" ry="3" stroke-width="0" c_etype="pad_shell"/></g><g c_partid="part_pad" c_etype="pinpart" layerid="11" id="gge1017_11" c_origin="4050,3832" net="" c_rotation="0" c_width="6" c_height="6"><polygon points="4047 3829 4053 3829 4053 3835 4047 3835" stroke-width="0" c_etype="pad_shell"/></g><g c_partid="part_pad" c_etype="pinpart" layerid="11" id="gge1022_11" c_origin="4060,3832" net="" c_rotation="0" c_width="6" c_height="6"><ellipse cx="4060" cy="3832" rx="3" ry="3" stroke-width="0" c_etype="pad_shell"/></g><g c_partid="part_pad" c_etype="pinpart" layerid="11" id="gge1027_11" c_origin="4070,3832" net="" c_rotation="0" c_width="6" c_height="6"><ellipse cx="4070" cy="3832" rx="3" ry="3" stroke-width="0" c_etype="pad_shell"/></g><g c_partid="part_pad" c_etype="pinpart" layerid="11" id="gge1032_11" c_origin="4080,3832" net="" c_rotation="0" c_width="6" c_height="6"><ellipse cx="4080" cy="3832" rx="3" ry="3" stroke-width="0" c_etype="pad_shell"/></g><g c_partid="part_pad" c_etype="pinpart" layerid="11" id="gge1037_11" c_origin="4090,3832" net="" c_rotation="0" c_width="6" c_height="6"><ellipse cx="4090" cy="3832" rx="3" ry="3" stroke-width="0" c_etype="pad_shell"/></g><g c_partid="part_pad" c_etype="pinpart" layerid="11" id="gge1042_11" c_origin="4100,3832" net="" c_rotation="0" c_width="6" c_height="6"><ellipse cx="4100" cy="3832" rx="3" ry="3" stroke-width="0" c_etype="pad_shell"/></g><g c_partid="part_pad" c_etype="pinpart" layerid="11" id="gge1047_11" c_origin="4110,3832" net="" c_rotation="0" c_width="6" c_height="6"><ellipse cx="4110" cy="3832" rx="3" ry="3" stroke-width="0" c_etype="pad_shell"/></g><g c_partid="part_pad" c_etype="pinpart" layerid="11" id="gge1052_11" c_origin="4120,3832" net="" c_rotation="0" c_width="6" c_height="6"><ellipse cx="4120" cy="3832" rx="3" ry="3" stroke-width="0" c_etype="pad_shell"/></g><g c_partid="part_pad" c_etype="pinpart" layerid="11" id="gge1057_11" c_origin="4130,3832" net="" c_rotation="0" c_width="6" c_height="6"><ellipse cx="4130" cy="3832" rx="3" ry="3" stroke-width="0" c_etype="pad_shell"/></g><g c_partid="part_pad" c_etype="pinpart" layerid="11" id="gge1062_11" c_origin="4140,3832" net="" c_rotation="0" c_width="6" c_height="6"><ellipse cx="4140" cy="3832" rx="3" ry="3" stroke-width="0" c_etype="pad_shell"/></g><g c_partid="part_pad" c_etype="pinpart" layerid="11" id="gge1074_11" c_origin="4043.5,3657.5" net="" c_rotation="0" c_width="6" c_height="6"><polygon points="4040.5 3654.5 4046.5 3654.5 4046.5 3660.5 4040.5 3660.5" stroke-width="0" c_etype="pad_shell"/></g><g c_partid="part_pad" c_etype="pinpart" layerid="11" id="gge1079_11" c_origin="4053.5,3657.5" net="" c_rotation="0" c_width="6" c_height="6"><ellipse cx="4053.5" cy="3657.5" rx="3" ry="3" stroke-width="0" c_etype="pad_shell"/></g><g c_partid="part_pad" c_etype="pinpart" layerid="11" id="gge1084_11" c_origin="4063.5,3657.5" net="" c_rotation="0" c_width="6" c_height="6"><ellipse cx="4063.5" cy="3657.5" rx="3" ry="3" stroke-width="0" c_etype="pad_shell"/></g><g c_partid="part_pad" c_etype="pinpart" layerid="11" id="gge1089_11" c_origin="4073.5,3657.5" net="" c_rotation="0" c_width="6" c_height="6"><ellipse cx="4073.5" cy="3657.5" rx="3" ry="3" stroke-width="0" c_etype="pad_shell"/></g><g c_partid="part_pad" c_etype="pinpart" layerid="11" id="gge1094_11" c_origin="4083.5,3657.5" net="" c_rotation="0" c_width="6" c_height="6"><ellipse cx="4083.5" cy="3657.5" rx="3" ry="3" stroke-width="0" c_etype="pad_shell"/></g><g c_partid="part_pad" c_etype="pinpart" layerid="11" id="gge1099_11" c_origin="4093.5,3657.5" net="" c_rotation="0" c_width="6" c_height="6"><ellipse cx="4093.5" cy="3657.5" rx="3" ry="3" stroke-width="0" c_etype="pad_shell"/></g><g c_partid="part_pad" c_etype="pinpart" layerid="11" id="gge1104_11" c_origin="4103.5,3657.5" net="" c_rotation="0" c_width="6" c_height="6"><ellipse cx="4103.5" cy="3657.5" rx="3" ry="3" stroke-width="0" c_etype="pad_shell"/></g><g c_partid="part_pad" c_etype="pinpart" layerid="11" id="gge1109_11" c_origin="4113.5,3657.5" net="" c_rotation="0" c_width="6" c_height="6"><ellipse cx="4113.5" cy="3657.5" rx="3" ry="3" stroke-width="0" c_etype="pad_shell"/></g><g c_partid="part_pad" c_etype="pinpart" layerid="11" id="gge1114_11" c_origin="4123.5,3657.5" net="" c_rotation="0" c_width="6" c_height="6"><ellipse cx="4123.5" cy="3657.5" rx="3" ry="3" stroke-width="0" c_etype="pad_shell"/></g><g c_partid="part_pad" c_etype="pinpart" layerid="11" id="gge1119_11" c_origin="4133.5,3657.5" net="" c_rotation="0" c_width="6" c_height="6"><ellipse cx="4133.5" cy="3657.5" rx="3" ry="3" stroke-width="0" c_etype="pad_shell"/></g><g c_partid="part_pad" c_etype="pinpart" layerid="11" id="gge1124_11" c_origin="4143.5,3657.5" net="" c_rotation="0" c_width="6" c_height="6"><ellipse cx="4143.5" cy="3657.5" rx="3" ry="3" stroke-width="0" c_etype="pad_shell"/></g><g c_partid="part_pad" c_etype="pinpart" layerid="11" id="gge1129_11" c_origin="4153.5,3657.5" net="" c_rotation="0" c_width="6" c_height="6"><ellipse cx="4153.5" cy="3657.5" rx="3" ry="3" stroke-width="0" c_etype="pad_shell"/></g></g><g id="topSilkLayer" fill="#FFFFFF" stroke="#FFFFFF" display="none"><polyline points="4109 3706.5 4171 3706.5 4171 3768.5 4109 3768.5 4109 3706.5" stroke-width="1" c_shapetype="line" stroke-linecap="round" fill="none" layerid="3" net="" id="gge629_3" locked="0"/><polyline points="4026.5 3706.5 4088 3706.5 4088 3768.5 4026.5 3768.5 4026.5 3706.5" stroke-width="1" c_shapetype="line" stroke-linecap="round" fill="none" layerid="3" net="" id="gge627_3" locked="0"/><polyline points="4044.5 3826.5 4145.5 3826.5 4145.5 3837.5 4044.5 3837.5 4044.5 3826.5" stroke-width="1" c_shapetype="line" stroke-linecap="round" fill="none" layerid="3" net="" id="gge1016_3" locked="0"/><polyline points="4038 3652 4159 3652 4159 3663 4038 3663 4038 3652" stroke-width="1" c_shapetype="line" stroke-linecap="round" fill="none" layerid="3" net="" id="gge1073_3" locked="0"/><g c_partid="part_pcbtext" c_etype="pinpart" c_origin="4142.5,3824.5" c_rotation="90" c_mirror="0" id="gge692_3" locked="0" layerid="3" c_shapetype="group"><path c_fontsize="5.905511811023622" c_fontfamily="" c_text="MID" d="M 4136.54 3824.5 L 4142.18 3824.5 M 4136.54 3824.5 L 4142.18 3822.35 M 4136.54 3820.21 L 4142.18 3822.35 M 4136.54 3820.21 L 4142.18 3820.21 M 4136.54 3818.43 L 4142.18 3818.43 M 4136.54 3816.66 L 4142.18 3816.66 M 4136.54 3816.66 L 4136.54 3814.78 L 4136.81 3813.98 L 4137.35 3813.44 L 4137.88 3813.17 L 4138.69 3812.9 L 4140.03 3812.9 L 4140.84 3813.17 L 4141.37 3813.44 L 4141.91 3813.98 L 4142.18 3814.78 L 4142.18 3816.66" fill="none" stroke-width="0.8"/></g><g c_partid="part_pcbtext" c_etype="pinpart" c_origin="4133,3824" c_rotation="90" c_mirror="0" id="gge688_3" locked="0" layerid="3" c_shapetype="group"><path c_fontsize="5.905511811023622" c_fontfamily="" c_text="RIGHT" d="M 4127.04 3824 L 4132.68 3824 M 4127.04 3824 L 4127.04 3821.58 L 4127.31 3820.78 L 4127.58 3820.51 L 4128.11 3820.24 L 4128.65 3820.24 L 4129.19 3820.51 L 4129.46 3820.78 L 4129.73 3821.58 L 4129.73 3824 M 4129.73 3822.12 L 4132.68 3820.24 M 4127.04 3818.47 L 4132.68 3818.47 M 4128.38 3812.67 L 4127.85 3812.94 L 4127.31 3813.48 L 4127.04 3814.01 L 4127.04 3815.09 L 4127.31 3815.62 L 4127.85 3816.16 L 4128.38 3816.43 L 4129.19 3816.7 L 4130.53 3816.7 L 4131.34 3816.43 L 4131.87 3816.16 L 4132.41 3815.62 L 4132.68 3815.09 L 4132.68 3814.01 L 4132.41 3813.48 L 4131.87 3812.94 L 4131.34 3812.67 L 4130.53 3812.67 M 4130.53 3814.01 L 4130.53 3812.67 M 4127.04 3810.9 L 4132.68 3810.9 M 4127.04 3807.14 L 4132.68 3807.14 M 4129.73 3810.9 L 4129.73 3807.14 M 4127.04 3803.49 L 4132.68 3803.49 M 4127.04 3805.37 L 4127.04 3801.61" fill="none" stroke-width="0.8"/></g><g c_partid="part_pcbtext" c_etype="pinpart" c_origin="4123,3824.5" c_rotation="90" c_mirror="0" id="gge684_3" locked="0" layerid="3" c_shapetype="group"><path c_fontsize="5.905511811023622" c_fontfamily="" c_text="DOWN" d="M 4117.04 3824.5 L 4122.68 3824.5 M 4117.04 3824.5 L 4117.04 3822.62 L 4117.31 3821.82 L 4117.85 3821.28 L 4118.38 3821.01 L 4119.19 3820.74 L 4120.53 3820.74 L 4121.34 3821.01 L 4121.87 3821.28 L 4122.41 3821.82 L 4122.68 3822.62 L 4122.68 3824.5 M 4117.04 3817.36 L 4117.31 3817.9 L 4117.85 3818.43 L 4118.38 3818.7 L 4119.19 3818.97 L 4120.53 3818.97 L 4121.34 3818.7 L 4121.87 3818.43 L 4122.41 3817.9 L 4122.68 3817.36 L 4122.68 3816.29 L 4122.41 3815.75 L 4121.87 3815.21 L 4121.34 3814.94 L 4120.53 3814.68 L 4119.19 3814.68 L 4118.38 3814.94 L 4117.85 3815.21 L 4117.31 3815.75 L 4117.04 3816.29 L 4117.04 3817.36 M 4117.04 3812.9 L 4122.68 3811.56 M 4117.04 3810.22 L 4122.68 3811.56 M 4117.04 3810.22 L 4122.68 3808.88 M 4117.04 3807.54 L 4122.68 3808.88 M 4117.04 3805.76 L 4122.68 3805.76 M 4117.04 3805.76 L 4122.68 3802.01 M 4117.04 3802.01 L 4122.68 3802.01" fill="none" stroke-width="0.8"/></g><g c_partid="part_pcbtext" c_etype="pinpart" c_origin="4113,3825" c_rotation="90" c_mirror="0" id="gge680_3" locked="0" layerid="3" c_shapetype="group"><path c_fontsize="5.905511811023622" c_fontfamily="" c_text="LEFT" d="M 4107.04 3825 L 4112.68 3825 M 4112.68 3825 L 4112.68 3821.78 M 4107.04 3820.01 L 4112.68 3820.01 M 4107.04 3820.01 L 4107.04 3816.52 M 4109.73 3820.01 L 4109.73 3817.86 M 4112.68 3820.01 L 4112.68 3816.52 M 4107.04 3814.75 L 4112.68 3814.75 M 4107.04 3814.75 L 4107.04 3811.26 M 4109.73 3814.75 L 4109.73 3812.6 M 4107.04 3807.61 L 4112.68 3807.61 M 4107.04 3809.48 L 4107.04 3805.73" fill="none" stroke-width="0.8"/></g><g c_partid="part_pcbtext" c_etype="pinpart" c_origin="4103,3824.5" c_rotation="90" c_mirror="0" id="gge676_3" locked="0" layerid="3" c_shapetype="group"><path c_fontsize="5.905511811023622" c_fontfamily="" c_text="UP" d="M 4097.04 3824.5 L 4101.07 3824.5 L 4101.87 3824.23 L 4102.41 3823.69 L 4102.68 3822.89 L 4102.68 3822.35 L 4102.41 3821.55 L 4101.87 3821.01 L 4101.07 3820.74 L 4097.04 3820.74 M 4097.04 3818.97 L 4102.68 3818.97 M 4097.04 3818.97 L 4097.04 3816.55 L 4097.31 3815.75 L 4097.58 3815.48 L 4098.11 3815.21 L 4098.92 3815.21 L 4099.46 3815.48 L 4099.73 3815.75 L 4099.99 3816.55 L 4099.99 3818.97" fill="none" stroke-width="0.8"/></g><g c_partid="part_pcbtext" c_etype="pinpart" c_origin="4093,3824.5" c_rotation="90" c_mirror="0" id="gge672_3" locked="0" layerid="3" c_shapetype="group"><path c_fontsize="5.905511811023622" c_fontfamily="" c_text="S/POW" d="M 4087.85 3820.74 L 4087.31 3821.28 L 4087.04 3822.08 L 4087.04 3823.16 L 4087.31 3823.96 L 4087.85 3824.5 L 4088.38 3824.5 L 4088.92 3824.23 L 4089.19 3823.96 L 4089.46 3823.43 L 4089.99 3821.82 L 4090.26 3821.28 L 4090.53 3821.01 L 4091.07 3820.74 L 4091.87 3820.74 L 4092.41 3821.28 L 4092.68 3822.08 L 4092.68 3823.16 L 4092.41 3823.96 L 4091.87 3824.5 M 4085.97 3814.14 L 4094.56 3818.97 M 4087.04 3812.37 L 4092.68 3812.37 M 4087.04 3812.37 L 4087.04 3809.95 L 4087.31 3809.15 L 4087.58 3808.88 L 4088.11 3808.61 L 4088.92 3808.61 L 4089.46 3808.88 L 4089.73 3809.15 L 4089.99 3809.95 L 4089.99 3812.37 M 4087.04 3805.23 L 4087.31 3805.76 L 4087.85 3806.3 L 4088.38 3806.57 L 4089.19 3806.84 L 4090.53 3806.84 L 4091.34 3806.57 L 4091.87 3806.3 L 4092.41 3805.76 L 4092.68 3805.23 L 4092.68 3804.15 L 4092.41 3803.62 L 4091.87 3803.08 L 4091.34 3802.81 L 4090.53 3802.54 L 4089.19 3802.54 L 4088.38 3802.81 L 4087.85 3803.08 L 4087.31 3803.62 L 4087.04 3804.15 L 4087.04 3805.23 M 4087.04 3800.77 L 4092.68 3799.43 M 4087.04 3798.09 L 4092.68 3799.43 M 4087.04 3798.09 L 4092.68 3796.74 M 4087.04 3795.4 L 4092.68 3796.74" fill="none" stroke-width="0.8"/></g><g c_partid="part_pcbtext" c_etype="pinpart" c_origin="4082.5,3824" c_rotation="90" c_mirror="0" id="gge668_3" locked="0" layerid="3" c_shapetype="group"><path c_fontsize="5.905511811023622" c_fontfamily="" c_text="START" d="M 4077.35 3820.24 L 4076.81 3820.78 L 4076.54 3821.58 L 4076.54 3822.66 L 4076.81 3823.46 L 4077.35 3824 L 4077.88 3824 L 4078.42 3823.73 L 4078.69 3823.46 L 4078.96 3822.93 L 4079.49 3821.32 L 4079.76 3820.78 L 4080.03 3820.51 L 4080.57 3820.24 L 4081.37 3820.24 L 4081.91 3820.78 L 4082.18 3821.58 L 4082.18 3822.66 L 4081.91 3823.46 L 4081.37 3824 M 4076.54 3816.59 L 4082.18 3816.59 M 4076.54 3818.47 L 4076.54 3814.71 M 4076.54 3810.79 L 4082.18 3812.94 M 4076.54 3810.79 L 4082.18 3808.65 M 4080.3 3812.14 L 4080.3 3809.45 M 4076.54 3806.87 L 4082.18 3806.87 M 4076.54 3806.87 L 4076.54 3804.46 L 4076.81 3803.65 L 4077.08 3803.38 L 4077.61 3803.12 L 4078.15 3803.12 L 4078.69 3803.38 L 4078.96 3803.65 L 4079.23 3804.46 L 4079.23 3806.87 M 4079.23 3804.99 L 4082.18 3803.12 M 4076.54 3799.47 L 4082.18 3799.47 M 4076.54 3801.34 L 4076.54 3797.59" fill="none" stroke-width="0.8"/></g><g c_partid="part_pcbtext" c_etype="pinpart" c_origin="4072.5,3824.5" c_rotation="90" c_mirror="0" id="gge664_3" locked="0" layerid="3" c_shapetype="group"><path c_fontsize="5.905511811023622" c_fontfamily="" c_text="WHAM" d="M 4066.54 3824.5 L 4072.18 3823.16 M 4066.54 3821.82 L 4072.18 3823.16 M 4066.54 3821.82 L 4072.18 3820.47 M 4066.54 3819.13 L 4072.18 3820.47 M 4066.54 3817.36 L 4072.18 3817.36 M 4066.54 3813.6 L 4072.18 3813.6 M 4069.23 3817.36 L 4069.23 3813.6 M 4066.54 3809.68 L 4072.18 3811.83 M 4066.54 3809.68 L 4072.18 3807.54 M 4070.3 3811.02 L 4070.3 3808.34 M 4066.54 3805.76 L 4072.18 3805.76 M 4066.54 3805.76 L 4072.18 3803.62 M 4066.54 3801.47 L 4072.18 3803.62 M 4066.54 3801.47 L 4072.18 3801.47" fill="none" stroke-width="0.8"/></g><g c_partid="part_pcbtext" c_etype="pinpart" c_origin="4062.5,3824.5" c_rotation="90" c_mirror="0" id="gge660_3" locked="0" layerid="3" c_shapetype="group"><path c_fontsize="5.905511811023622" c_fontfamily="" c_text="5V" d="M 4056.54 3821.28 L 4056.54 3823.96 L 4058.96 3824.23 L 4058.69 3823.96 L 4058.42 3823.16 L 4058.42 3822.35 L 4058.69 3821.55 L 4059.23 3821.01 L 4060.03 3820.74 L 4060.57 3820.74 L 4061.37 3821.01 L 4061.91 3821.55 L 4062.18 3822.35 L 4062.18 3823.16 L 4061.91 3823.96 L 4061.64 3824.23 L 4061.1 3824.5 M 4056.54 3818.97 L 4062.18 3816.82 M 4056.54 3814.68 L 4062.18 3816.82" fill="none" stroke-width="0.8"/></g><g c_partid="part_pcbtext" c_etype="pinpart" c_origin="4053,3825" c_rotation="90" c_mirror="0" id="gge631_3" locked="0" layerid="3" c_shapetype="group"><path c_fontsize="5.905511811023622" c_fontfamily="" c_text="GND" d="M 4048.38 3820.97 L 4047.85 3821.24 L 4047.31 3821.78 L 4047.04 3822.32 L 4047.04 3823.39 L 4047.31 3823.93 L 4047.85 3824.46 L 4048.38 3824.73 L 4049.19 3825 L 4050.53 3825 L 4051.34 3824.73 L 4051.87 3824.46 L 4052.41 3823.93 L 4052.68 3823.39 L 4052.68 3822.32 L 4052.41 3821.78 L 4051.87 3821.24 L 4051.34 3820.97 L 4050.53 3820.97 M 4050.53 3822.32 L 4050.53 3820.97 M 4047.04 3819.2 L 4052.68 3819.2 M 4047.04 3819.2 L 4052.68 3815.44 M 4047.04 3815.44 L 4052.68 3815.44 M 4047.04 3813.67 L 4052.68 3813.67 M 4047.04 3813.67 L 4047.04 3811.79 L 4047.31 3810.99 L 4047.85 3810.45 L 4048.38 3810.18 L 4049.19 3809.91 L 4050.53 3809.91 L 4051.34 3810.18 L 4051.87 3810.45 L 4052.41 3810.99 L 4052.68 3811.79 L 4052.68 3813.67" fill="none" stroke-width="0.8"/></g><g c_partid="part_pcbtext" c_etype="pinpart" c_origin="4130.5,3664" c_rotation="270" c_mirror="0" id="gge1206_3" locked="0" layerid="3" c_shapetype="group"><path c_fontsize="4.921259842519685" c_fontfamily="" c_text="MID" d="M 4135.47 3664 L 4130.77 3664 M 4135.47 3664 L 4130.77 3665.79 M 4135.47 3667.58 L 4130.77 3665.79 M 4135.47 3667.58 L 4130.77 3667.58 M 4135.47 3669.06 L 4130.77 3669.06 M 4135.47 3670.53 L 4130.77 3670.53 M 4135.47 3670.53 L 4135.47 3672.1 L 4135.24 3672.77 L 4134.79 3673.22 L 4134.35 3673.44 L 4133.68 3673.66 L 4132.56 3673.66 L 4131.89 3673.44 L 4131.44 3673.22 L 4130.99 3672.77 L 4130.77 3672.1 L 4130.77 3670.53" fill="none" stroke-width="0.8"/></g><g c_partid="part_pcbtext" c_etype="pinpart" c_origin="4121,3663.5" c_rotation="270" c_mirror="0" id="gge1207_3" locked="0" layerid="3" c_shapetype="group"><path c_fontsize="4.921259842519685" c_fontfamily="" c_text="RIGHT" d="M 4125.97 3663.5 L 4121.27 3663.5 M 4125.97 3663.5 L 4125.97 3665.51 L 4125.74 3666.18 L 4125.52 3666.41 L 4125.07 3666.63 L 4124.62 3666.63 L 4124.18 3666.41 L 4123.95 3666.18 L 4123.73 3665.51 L 4123.73 3663.5 M 4123.73 3665.07 L 4121.27 3666.63 M 4125.97 3668.11 L 4121.27 3668.11 M 4124.85 3672.94 L 4125.29 3672.72 L 4125.74 3672.27 L 4125.97 3671.82 L 4125.97 3670.93 L 4125.74 3670.48 L 4125.29 3670.03 L 4124.85 3669.81 L 4124.18 3669.58 L 4123.06 3669.58 L 4122.39 3669.81 L 4121.94 3670.03 L 4121.49 3670.48 L 4121.27 3670.93 L 4121.27 3671.82 L 4121.49 3672.27 L 4121.94 3672.72 L 4122.39 3672.94 L 4123.06 3672.94 M 4123.06 3671.82 L 4123.06 3672.94 M 4125.97 3674.42 L 4121.27 3674.42 M 4125.97 3677.55 L 4121.27 3677.55 M 4123.73 3674.42 L 4123.73 3677.55 M 4125.97 3680.59 L 4121.27 3680.59 M 4125.97 3679.02 L 4125.97 3682.16" fill="none" stroke-width="0.8"/></g><g c_partid="part_pcbtext" c_etype="pinpart" c_origin="4111,3664" c_rotation="270" c_mirror="0" id="gge1208_3" locked="0" layerid="3" c_shapetype="group"><path c_fontsize="4.921259842519685" c_fontfamily="" c_text="DOWN" d="M 4115.97 3664 L 4111.27 3664 M 4115.97 3664 L 4115.97 3665.57 L 4115.74 3666.24 L 4115.29 3666.68 L 4114.85 3666.91 L 4114.18 3667.13 L 4113.06 3667.13 L 4112.39 3666.91 L 4111.94 3666.68 L 4111.49 3666.24 L 4111.27 3665.57 L 4111.27 3664 M 4115.97 3669.95 L 4115.74 3669.5 L 4115.29 3669.06 L 4114.85 3668.83 L 4114.18 3668.61 L 4113.06 3668.61 L 4112.39 3668.83 L 4111.94 3669.06 L 4111.49 3669.5 L 4111.27 3669.95 L 4111.27 3670.85 L 4111.49 3671.29 L 4111.94 3671.74 L 4112.39 3671.96 L 4113.06 3672.19 L 4114.18 3672.19 L 4114.85 3671.96 L 4115.29 3671.74 L 4115.74 3671.29 L 4115.97 3670.85 L 4115.97 3669.95 M 4115.97 3673.66 L 4111.27 3674.78 M 4115.97 3675.9 L 4111.27 3674.78 M 4115.97 3675.9 L 4111.27 3677.02 M 4115.97 3678.14 L 4111.27 3677.02 M 4115.97 3679.61 L 4111.27 3679.61 M 4115.97 3679.61 L 4111.27 3682.75 M 4115.97 3682.75 L 4111.27 3682.75" fill="none" stroke-width="0.8"/></g><g c_partid="part_pcbtext" c_etype="pinpart" c_origin="4101,3664.5" c_rotation="270" c_mirror="0" id="gge1209_3" locked="0" layerid="3" c_shapetype="group"><path c_fontsize="4.921259842519685" c_fontfamily="" c_text="LEFT" d="M 4105.97 3664.5 L 4101.27 3664.5 M 4101.27 3664.5 L 4101.27 3667.18 M 4105.97 3668.66 L 4101.27 3668.66 M 4105.97 3668.66 L 4105.97 3671.57 M 4103.73 3668.66 L 4103.73 3670.45 M 4101.27 3668.66 L 4101.27 3671.57 M 4105.97 3673.05 L 4101.27 3673.05 M 4105.97 3673.05 L 4105.97 3675.95 M 4103.73 3673.05 L 4103.73 3674.83 M 4105.97 3679 L 4101.27 3679 M 4105.97 3677.43 L 4105.97 3680.56" fill="none" stroke-width="0.8"/></g><g c_partid="part_pcbtext" c_etype="pinpart" c_origin="4091,3664" c_rotation="270" c_mirror="0" id="gge1210_3" locked="0" layerid="3" c_shapetype="group"><path c_fontsize="4.921259842519685" c_fontfamily="" c_text="UP" d="M 4095.97 3664 L 4092.61 3664 L 4091.94 3664.22 L 4091.49 3664.67 L 4091.27 3665.34 L 4091.27 3665.79 L 4091.49 3666.46 L 4091.94 3666.91 L 4092.61 3667.13 L 4095.97 3667.13 M 4095.97 3668.61 L 4091.27 3668.61 M 4095.97 3668.61 L 4095.97 3670.62 L 4095.74 3671.29 L 4095.52 3671.52 L 4095.07 3671.74 L 4094.4 3671.74 L 4093.95 3671.52 L 4093.73 3671.29 L 4093.51 3670.62 L 4093.51 3668.61" fill="none" stroke-width="0.8"/></g><g c_partid="part_pcbtext" c_etype="pinpart" c_origin="4081,3664" c_rotation="270" c_mirror="0" id="gge1211_3" locked="0" layerid="3" c_shapetype="group"><path c_fontsize="4.921259842519685" c_fontfamily="" c_text="S/POW" d="M 4085.29 3667.13 L 4085.74 3666.68 L 4085.97 3666.01 L 4085.97 3665.12 L 4085.74 3664.45 L 4085.29 3664 L 4084.85 3664 L 4084.4 3664.22 L 4084.18 3664.45 L 4083.95 3664.89 L 4083.51 3666.24 L 4083.28 3666.68 L 4083.06 3666.91 L 4082.61 3667.13 L 4081.94 3667.13 L 4081.49 3666.68 L 4081.27 3666.01 L 4081.27 3665.12 L 4081.49 3664.45 L 4081.94 3664 M 4086.86 3672.63 L 4079.7 3668.61 M 4085.97 3674.11 L 4081.27 3674.11 M 4085.97 3674.11 L 4085.97 3676.12 L 4085.74 3676.8 L 4085.52 3677.02 L 4085.07 3677.24 L 4084.4 3677.24 L 4083.95 3677.02 L 4083.73 3676.8 L 4083.51 3676.12 L 4083.51 3674.11 M 4085.97 3680.06 L 4085.74 3679.61 L 4085.29 3679.17 L 4084.85 3678.94 L 4084.18 3678.72 L 4083.06 3678.72 L 4082.39 3678.94 L 4081.94 3679.17 L 4081.49 3679.61 L 4081.27 3680.06 L 4081.27 3680.96 L 4081.49 3681.4 L 4081.94 3681.85 L 4082.39 3682.07 L 4083.06 3682.3 L 4084.18 3682.3 L 4084.85 3682.07 L 4085.29 3681.85 L 4085.74 3681.4 L 4085.97 3680.96 L 4085.97 3680.06 M 4085.97 3683.77 L 4081.27 3684.89 M 4085.97 3686.01 L 4081.27 3684.89 M 4085.97 3686.01 L 4081.27 3687.13 M 4085.97 3688.25 L 4081.27 3687.13" fill="none" stroke-width="0.8"/></g><g c_partid="part_pcbtext" c_etype="pinpart" c_origin="4070.5,3663.5" c_rotation="270" c_mirror="0" id="gge1212_3" locked="0" layerid="3" c_shapetype="group"><path c_fontsize="4.921259842519685" c_fontfamily="" c_text="START" d="M 4074.79 3666.63 L 4075.24 3666.18 L 4075.47 3665.51 L 4075.47 3664.62 L 4075.24 3663.95 L 4074.79 3663.5 L 4074.35 3663.5 L 4073.9 3663.72 L 4073.68 3663.95 L 4073.45 3664.39 L 4073.01 3665.74 L 4072.78 3666.18 L 4072.56 3666.41 L 4072.11 3666.63 L 4071.44 3666.63 L 4070.99 3666.18 L 4070.77 3665.51 L 4070.77 3664.62 L 4070.99 3663.95 L 4071.44 3663.5 M 4075.47 3669.67 L 4070.77 3669.67 M 4075.47 3668.11 L 4075.47 3671.24 M 4075.47 3674.51 L 4070.77 3672.72 M 4075.47 3674.51 L 4070.77 3676.3 M 4072.33 3673.39 L 4072.33 3675.62 M 4075.47 3677.77 L 4070.77 3677.77 M 4075.47 3677.77 L 4075.47 3679.78 L 4075.24 3680.46 L 4075.02 3680.68 L 4074.57 3680.9 L 4074.12 3680.9 L 4073.68 3680.68 L 4073.45 3680.46 L 4073.23 3679.78 L 4073.23 3677.77 M 4073.23 3679.34 L 4070.77 3680.9 M 4075.47 3683.95 L 4070.77 3683.95 M 4075.47 3682.38 L 4075.47 3685.51" fill="none" stroke-width="0.8"/></g><g c_partid="part_pcbtext" c_etype="pinpart" c_origin="4060.5,3664" c_rotation="270" c_mirror="0" id="gge1213_3" locked="0" layerid="3" c_shapetype="group"><path c_fontsize="4.921259842519685" c_fontfamily="" c_text="WHAM" d="M 4065.47 3664 L 4060.77 3665.12 M 4065.47 3666.24 L 4060.77 3665.12 M 4065.47 3666.24 L 4060.77 3667.36 M 4065.47 3668.47 L 4060.77 3667.36 M 4065.47 3669.95 L 4060.77 3669.95 M 4065.47 3673.08 L 4060.77 3673.08 M 4063.23 3669.95 L 4063.23 3673.08 M 4065.47 3676.35 L 4060.77 3674.56 M 4065.47 3676.35 L 4060.77 3678.14 M 4062.33 3675.23 L 4062.33 3677.47 M 4065.47 3679.61 L 4060.77 3679.61 M 4065.47 3679.61 L 4060.77 3681.4 M 4065.47 3683.19 L 4060.77 3681.4 M 4065.47 3683.19 L 4060.77 3683.19" fill="none" stroke-width="0.8"/></g><g c_partid="part_pcbtext" c_etype="pinpart" c_origin="4050.5,3664" c_rotation="270" c_mirror="0" id="gge1214_3" locked="0" layerid="3" c_shapetype="group"><path c_fontsize="4.921259842519685" c_fontfamily="" c_text="5V" d="M 4055.47 3666.68 L 4055.47 3664.45 L 4053.45 3664.22 L 4053.68 3664.45 L 4053.9 3665.12 L 4053.9 3665.79 L 4053.68 3666.46 L 4053.23 3666.91 L 4052.56 3667.13 L 4052.11 3667.13 L 4051.44 3666.91 L 4050.99 3666.46 L 4050.77 3665.79 L 4050.77 3665.12 L 4050.99 3664.45 L 4051.22 3664.22 L 4051.66 3664 M 4055.47 3668.61 L 4050.77 3670.4 M 4055.47 3672.19 L 4050.77 3670.4" fill="none" stroke-width="0.8"/></g><g c_partid="part_pcbtext" c_etype="pinpart" c_origin="4041,3664.5" c_rotation="270" c_mirror="0" id="gge1215_3" locked="0" layerid="3" c_shapetype="group"><path c_fontsize="4.921259842519685" c_fontfamily="" c_text="GND" d="M 4044.85 3667.86 L 4045.29 3667.63 L 4045.74 3667.18 L 4045.97 3666.74 L 4045.97 3665.84 L 4045.74 3665.39 L 4045.29 3664.95 L 4044.85 3664.72 L 4044.18 3664.5 L 4043.06 3664.5 L 4042.39 3664.72 L 4041.94 3664.95 L 4041.49 3665.39 L 4041.27 3665.84 L 4041.27 3666.74 L 4041.49 3667.18 L 4041.94 3667.63 L 4042.39 3667.86 L 4043.06 3667.86 M 4043.06 3666.74 L 4043.06 3667.86 M 4045.97 3669.33 L 4041.27 3669.33 M 4045.97 3669.33 L 4041.27 3672.46 M 4045.97 3672.46 L 4041.27 3672.46 M 4045.97 3673.94 L 4041.27 3673.94 M 4045.97 3673.94 L 4045.97 3675.51 L 4045.74 3676.18 L 4045.29 3676.62 L 4044.85 3676.85 L 4044.18 3677.07 L 4043.06 3677.07 L 4042.39 3676.85 L 4041.94 3676.62 L 4041.49 3676.18 L 4041.27 3675.51 L 4041.27 3673.94" fill="none" stroke-width="0.8"/></g><g c_partid="part_pcbtext" c_etype="pinpart" c_origin="4139.5,3664" c_rotation="270" c_mirror="0" id="gge1219_3" locked="0" layerid="3" c_shapetype="group"><path c_fontsize="4.921259842519685" c_fontfamily="" c_text="STR_UP" d="M 4143.79 3667.13 L 4144.24 3666.68 L 4144.47 3666.01 L 4144.47 3665.12 L 4144.24 3664.45 L 4143.79 3664 L 4143.35 3664 L 4142.9 3664.22 L 4142.68 3664.45 L 4142.45 3664.89 L 4142.01 3666.24 L 4141.78 3666.68 L 4141.56 3666.91 L 4141.11 3667.13 L 4140.44 3667.13 L 4139.99 3666.68 L 4139.77 3666.01 L 4139.77 3665.12 L 4139.99 3664.45 L 4140.44 3664 M 4144.47 3670.17 L 4139.77 3670.17 M 4144.47 3668.61 L 4144.47 3671.74 M 4144.47 3673.22 L 4139.77 3673.22 M 4144.47 3673.22 L 4144.47 3675.23 L 4144.24 3675.9 L 4144.02 3676.12 L 4143.57 3676.35 L 4143.12 3676.35 L 4142.68 3676.12 L 4142.45 3675.9 L 4142.23 3675.23 L 4142.23 3673.22 M 4142.23 3674.78 L 4139.77 3676.35 M 4138.2 3677.82 L 4138.2 3681.85 M 4144.47 3683.33 L 4141.11 3683.33 L 4140.44 3683.55 L 4139.99 3684 L 4139.77 3684.67 L 4139.77 3685.12 L 4139.99 3685.79 L 4140.44 3686.24 L 4141.11 3686.46 L 4144.47 3686.46 M 4144.47 3687.94 L 4139.77 3687.94 M 4144.47 3687.94 L 4144.47 3689.95 L 4144.24 3690.62 L 4144.02 3690.84 L 4143.57 3691.07 L 4142.9 3691.07 L 4142.45 3690.84 L 4142.23 3690.62 L 4142.01 3689.95 L 4142.01 3687.94" fill="none" stroke-width="0.8"/></g><g c_partid="part_pcbtext" c_etype="pinpart" c_origin="4148.5,3664" c_rotation="270" c_mirror="0" id="gge1223_3" locked="0" layerid="3" c_shapetype="group"><path c_fontsize="4.921259842519685" c_fontfamily="" c_text="STR_DWN" d="M 4152.79 3667.13 L 4153.24 3666.68 L 4153.47 3666.01 L 4153.47 3665.12 L 4153.24 3664.45 L 4152.79 3664 L 4152.35 3664 L 4151.9 3664.22 L 4151.68 3664.45 L 4151.45 3664.89 L 4151.01 3666.24 L 4150.78 3666.68 L 4150.56 3666.91 L 4150.11 3667.13 L 4149.44 3667.13 L 4148.99 3666.68 L 4148.77 3666.01 L 4148.77 3665.12 L 4148.99 3664.45 L 4149.44 3664 M 4153.47 3670.17 L 4148.77 3670.17 M 4153.47 3668.61 L 4153.47 3671.74 M 4153.47 3673.22 L 4148.77 3673.22 M 4153.47 3673.22 L 4153.47 3675.23 L 4153.24 3675.9 L 4153.02 3676.12 L 4152.57 3676.35 L 4152.12 3676.35 L 4151.68 3676.12 L 4151.45 3675.9 L 4151.23 3675.23 L 4151.23 3673.22 M 4151.23 3674.78 L 4148.77 3676.35 M 4147.2 3677.82 L 4147.2 3681.85 M 4153.47 3683.33 L 4148.77 3683.33 M 4153.47 3683.33 L 4153.47 3684.89 L 4153.24 3685.56 L 4152.79 3686.01 L 4152.35 3686.24 L 4151.68 3686.46 L 4150.56 3686.46 L 4149.89 3686.24 L 4149.44 3686.01 L 4148.99 3685.56 L 4148.77 3684.89 L 4148.77 3683.33 M 4153.47 3687.94 L 4148.77 3689.05 M 4153.47 3690.17 L 4148.77 3689.05 M 4153.47 3690.17 L 4148.77 3691.29 M 4153.47 3692.41 L 4148.77 3691.29 M 4153.47 3693.89 L 4148.77 3693.89 M 4153.47 3693.89 L 4148.77 3697.02 M 4153.47 3697.02 L 4148.77 3697.02" fill="none" stroke-width="0.8"/></g><g c_partid="part_pcbtext" c_etype="" c_origin="4057.154,3691.555" c_rotation="0" c_mirror="0" id="gge98_3" locked="0" layerid="3" c_shapetype="group" display="none"><path c_fontsize="4.5" c_fontfamily="" c_text="CHERRY MX" d="M 4060.22 3688.04L4060.02 3687.63 L4059.61 3687.22 L4059.2 3687.01 L4058.38 3687.01 L4057.97 3687.22 L4057.56 3687.63 L4057.36 3688.04 L4057.15 3688.65 L4057.15 3689.67 L4057.36 3690.29 L4057.56 3690.7 L4057.97 3691.11 L4058.38 3691.31 L4059.2 3691.31 L4059.61 3691.11 L4060.02 3690.7 L4060.22 3690.29 M 4061.57 3687.01L4061.57 3691.31 M 4064.44 3687.01L4064.44 3691.31 M 4061.57 3689.06L4064.44 3689.06 M 4065.79 3687.01L4065.79 3691.31 M 4065.79 3687.01L4068.44 3687.01 M 4065.79 3689.06L4067.42 3689.06 M 4065.79 3691.31L4068.44 3691.31 M 4069.79 3687.01L4069.79 3691.31 M 4069.79 3687.01L4071.64 3687.01 L4072.25 3687.22 L4072.45 3687.42 L4072.66 3687.83 L4072.66 3688.24 L4072.45 3688.65 L4072.25 3688.86 L4071.64 3689.06 L4069.79 3689.06 M 4071.23 3689.06L4072.66 3691.31 M 4074.01 3687.01L4074.01 3691.31 M 4074.01 3687.01L4075.85 3687.01 L4076.46 3687.22 L4076.67 3687.42 L4076.87 3687.83 L4076.87 3688.24 L4076.67 3688.65 L4076.46 3688.86 L4075.85 3689.06 L4074.01 3689.06 M 4075.44 3689.06L4076.87 3691.31 M 4078.22 3687.01L4079.86 3689.06 L4079.86 3691.31 M 4081.49 3687.01L4079.86 3689.06 M 4085.99 3687.01L4085.99 3691.31 M 4085.99 3687.01L4087.63 3691.31 M 4089.27 3687.01L4087.63 3691.31 M 4089.27 3687.01L4089.27 3691.31 M 4090.62 3687.01L4093.48 3691.31 M 4093.48 3687.01L4090.62 3691.31 " fill="none" stroke-width="0.6" c_note="note_name" style=""/></g><g c_partid="part_pcbtext" c_etype="" c_origin="4054.5,3702.5" c_rotation="0" c_mirror="0" id="gge100_3" locked="0" layerid="3" c_shapetype="group"><path c_fontsize="4.5" c_fontfamily="" c_text="UP" d="M 4054.5 3697.96L4054.5 3701.03 L4054.7 3701.64 L4055.11 3702.05 L4055.73 3702.25 L4056.14 3702.25 L4056.75 3702.05 L4057.16 3701.64 L4057.36 3701.03 L4057.36 3697.96 M 4058.71 3697.96L4058.71 3702.25 M 4058.71 3697.96L4060.55 3697.96 L4061.17 3698.16 L4061.37 3698.37 L4061.58 3698.78 L4061.58 3699.39 L4061.37 3699.8 L4061.17 3700 L4060.55 3700.21 L4058.71 3700.21 " fill="none" stroke-width="0.6" c_note="note_pre" style=""/></g><g c_partid="part_pcbtext" c_etype="" c_origin="4139.831,3691.555" c_rotation="0" c_mirror="0" id="gge141_3" locked="0" layerid="3" c_shapetype="group" display="none"><path c_fontsize="4.5" c_fontfamily="" c_text="CHERRY MX" d="M 4142.9 3688.04L4142.69 3687.63 L4142.29 3687.22 L4141.88 3687.01 L4141.06 3687.01 L4140.65 3687.22 L4140.24 3687.63 L4140.04 3688.04 L4139.83 3688.65 L4139.83 3689.67 L4140.04 3690.29 L4140.24 3690.7 L4140.65 3691.11 L4141.06 3691.31 L4141.88 3691.31 L4142.29 3691.11 L4142.69 3690.7 L4142.9 3690.29 M 4144.25 3687.01L4144.25 3691.31 M 4147.11 3687.01L4147.11 3691.31 M 4144.25 3689.06L4147.11 3689.06 M 4148.46 3687.01L4148.46 3691.31 M 4148.46 3687.01L4151.12 3687.01 M 4148.46 3689.06L4150.1 3689.06 M 4148.46 3691.31L4151.12 3691.31 M 4152.47 3687.01L4152.47 3691.31 M 4152.47 3687.01L4154.31 3687.01 L4154.93 3687.22 L4155.13 3687.42 L4155.34 3687.83 L4155.34 3688.24 L4155.13 3688.65 L4154.93 3688.86 L4154.31 3689.06 L4152.47 3689.06 M 4153.9 3689.06L4155.34 3691.31 M 4156.69 3687.01L4156.69 3691.31 M 4156.69 3687.01L4158.53 3687.01 L4159.14 3687.22 L4159.34 3687.42 L4159.55 3687.83 L4159.55 3688.24 L4159.34 3688.65 L4159.14 3688.86 L4158.53 3689.06 L4156.69 3689.06 M 4158.12 3689.06L4159.55 3691.31 M 4160.9 3687.01L4162.54 3689.06 L4162.54 3691.31 M 4164.17 3687.01L4162.54 3689.06 M 4168.67 3687.01L4168.67 3691.31 M 4168.67 3687.01L4170.31 3691.31 M 4171.94 3687.01L4170.31 3691.31 M 4171.94 3687.01L4171.94 3691.31 M 4173.29 3687.01L4176.16 3691.31 M 4176.16 3687.01L4173.29 3691.31 " fill="none" stroke-width="0.6" c_note="note_name" style=""/></g><g c_partid="part_pcbtext" c_etype="" c_origin="4131,3703" c_rotation="0" c_mirror="0" id="gge143_3" locked="0" layerid="3" c_shapetype="group"><path c_fontsize="4.5" c_fontfamily="" c_text="DOWN" d="M 4131 3698.46L4131 3702.75 M 4131 3698.46L4132.43 3698.46 L4133.05 3698.66 L4133.45 3699.07 L4133.66 3699.48 L4133.86 3700.1 L4133.86 3701.12 L4133.66 3701.73 L4133.45 3702.14 L4133.05 3702.55 L4132.43 3702.75 L4131 3702.75 M 4136.44 3698.46L4136.03 3698.66 L4135.62 3699.07 L4135.42 3699.48 L4135.21 3700.1 L4135.21 3701.12 L4135.42 3701.73 L4135.62 3702.14 L4136.03 3702.55 L4136.44 3702.75 L4137.26 3702.75 L4137.67 3702.55 L4138.08 3702.14 L4138.28 3701.73 L4138.49 3701.12 L4138.49 3700.1 L4138.28 3699.48 L4138.08 3699.07 L4137.67 3698.66 L4137.26 3698.46 L4136.44 3698.46 M 4139.84 3698.46L4140.86 3702.75 M 4141.88 3698.46L4140.86 3702.75 M 4141.88 3698.46L4142.9 3702.75 M 4143.93 3698.46L4142.9 3702.75 M 4145.28 3698.46L4145.28 3702.75 M 4145.28 3698.46L4148.14 3702.75 M 4148.14 3698.46L4148.14 3702.75 " fill="none" stroke-width="0.6" c_note="note_pre" style=""/></g><g c_partid="part_pcbtext" c_etype="" c_origin="4094.5,3818" c_rotation="0" c_mirror="" id="gge1012_3" locked="0" layerid="3" c_shapetype="group" display="none"><path c_fontsize="4.5" c_fontfamily="" c_text="IN" d="M 4094.5 3813.46 L 4094.5 3817.75 M 4095.85 3813.46 L 4095.85 3817.75 M 4095.85 3813.46 L 4098.71 3817.75 M 4098.71 3813.46 L 4098.71 3817.75" fill="none" stroke-width="0.6" c_note="note_name" style=""/></g><g c_partid="part_pcbtext" c_etype="" c_origin="4085,3843.5" c_rotation="0" c_mirror="0" id="gge1014_3" locked="0" layerid="3" c_shapetype="group"><path c_fontsize="4.5" c_fontfamily="" c_text="MID_BOARD" d="M 4085 3838.96 L 4085 3843.25 M 4085 3838.96 L 4086.64 3843.25 M 4088.27 3838.96 L 4086.64 3843.25 M 4088.27 3838.96 L 4088.27 3843.25 M 4089.62 3838.96 L 4089.62 3843.25 M 4090.97 3838.96 L 4090.97 3843.25 M 4090.97 3838.96 L 4092.4 3838.96 L 4093.02 3839.16 L 4093.43 3839.57 L 4093.63 3839.98 L 4093.84 3840.6 L 4093.84 3841.62 L 4093.63 3842.23 L 4093.43 3842.64 L 4093.02 3843.05 L 4092.4 3843.25 L 4090.97 3843.25 M 4095.19 3844.69 L 4098.87 3844.69 M 4100.22 3838.96 L 4100.22 3843.25 M 4100.22 3838.96 L 4102.06 3838.96 L 4102.67 3839.16 L 4102.88 3839.37 L 4103.08 3839.78 L 4103.08 3840.19 L 4102.88 3840.6 L 4102.67 3840.8 L 4102.06 3841 M 4100.22 3841 L 4102.06 3841 L 4102.67 3841.21 L 4102.88 3841.41 L 4103.08 3841.82 L 4103.08 3842.44 L 4102.88 3842.85 L 4102.67 3843.05 L 4102.06 3843.25 L 4100.22 3843.25 M 4105.66 3838.96 L 4105.25 3839.16 L 4104.84 3839.57 L 4104.64 3839.98 L 4104.43 3840.6 L 4104.43 3841.62 L 4104.64 3842.23 L 4104.84 3842.64 L 4105.25 3843.05 L 4105.66 3843.25 L 4106.48 3843.25 L 4106.89 3843.05 L 4107.3 3842.64 L 4107.5 3842.23 L 4107.7 3841.62 L 4107.7 3840.6 L 4107.5 3839.98 L 4107.3 3839.57 L 4106.89 3839.16 L 4106.48 3838.96 L 4105.66 3838.96 M 4110.69 3838.96 L 4109.05 3843.25 M 4110.69 3838.96 L 4112.33 3843.25 M 4109.67 3841.82 L 4111.71 3841.82 M 4113.68 3838.96 L 4113.68 3843.25 M 4113.68 3838.96 L 4115.52 3838.96 L 4116.13 3839.16 L 4116.34 3839.37 L 4116.54 3839.78 L 4116.54 3840.19 L 4116.34 3840.6 L 4116.13 3840.8 L 4115.52 3841 L 4113.68 3841 M 4115.11 3841 L 4116.54 3843.25 M 4117.89 3838.96 L 4117.89 3843.25 M 4117.89 3838.96 L 4119.32 3838.96 L 4119.94 3839.16 L 4120.35 3839.57 L 4120.55 3839.98 L 4120.75 3840.6 L 4120.75 3841.62 L 4120.55 3842.23 L 4120.35 3842.64 L 4119.94 3843.05 L 4119.32 3843.25 L 4117.89 3843.25" fill="none" stroke-width="0.6" c_note="note_pre" style=""/></g><g c_partid="part_pcbtext" c_etype="" c_origin="4098.5,3643.5" c_rotation="0" c_mirror="" id="gge1069_3" locked="0" layerid="3" c_shapetype="group" display="none"><path c_fontsize="4.5" c_fontfamily="" c_text="OUT" d="M 4099.73 3638.96 L 4099.32 3639.16 L 4098.91 3639.57 L 4098.7 3639.98 L 4098.5 3640.6 L 4098.5 3641.62 L 4098.7 3642.23 L 4098.91 3642.64 L 4099.32 3643.05 L 4099.73 3643.25 L 4100.55 3643.25 L 4100.95 3643.05 L 4101.36 3642.64 L 4101.57 3642.23 L 4101.77 3641.62 L 4101.77 3640.6 L 4101.57 3639.98 L 4101.36 3639.57 L 4100.95 3639.16 L 4100.55 3638.96 L 4099.73 3638.96 M 4103.12 3638.96 L 4103.12 3642.03 L 4103.33 3642.64 L 4103.74 3643.05 L 4104.35 3643.25 L 4104.76 3643.25 L 4105.37 3643.05 L 4105.78 3642.64 L 4105.99 3642.03 L 4105.99 3638.96 M 4108.77 3638.96 L 4108.77 3643.25 M 4107.34 3638.96 L 4110.2 3638.96" fill="none" stroke-width="0.6" c_note="note_name" style=""/></g><g c_partid="part_pcbtext" c_etype="" c_origin="4078.5,3650.5" c_rotation="0" c_mirror="0" id="gge1071_3" locked="0" layerid="3" c_shapetype="group"><path c_fontsize="4.5" c_fontfamily="" c_text="CONTROLLER" d="M 4081.57 3646.98 L 4081.36 3646.57 L 4080.95 3646.16 L 4080.55 3645.96 L 4079.73 3645.96 L 4079.32 3646.16 L 4078.91 3646.57 L 4078.7 3646.98 L 4078.5 3647.6 L 4078.5 3648.62 L 4078.7 3649.23 L 4078.91 3649.64 L 4079.32 3650.05 L 4079.73 3650.25 L 4080.55 3650.25 L 4080.95 3650.05 L 4081.36 3649.64 L 4081.57 3649.23 M 4084.15 3645.96 L 4083.74 3646.16 L 4083.33 3646.57 L 4083.12 3646.98 L 4082.92 3647.6 L 4082.92 3648.62 L 4083.12 3649.23 L 4083.33 3649.64 L 4083.74 3650.05 L 4084.15 3650.25 L 4084.96 3650.25 L 4085.37 3650.05 L 4085.78 3649.64 L 4085.99 3649.23 L 4086.19 3648.62 L 4086.19 3647.6 L 4085.99 3646.98 L 4085.78 3646.57 L 4085.37 3646.16 L 4084.96 3645.96 L 4084.15 3645.96 M 4087.54 3645.96 L 4087.54 3650.25 M 4087.54 3645.96 L 4090.4 3650.25 M 4090.4 3645.96 L 4090.4 3650.25 M 4093.19 3645.96 L 4093.19 3650.25 M 4091.75 3645.96 L 4094.62 3645.96 M 4095.97 3645.96 L 4095.97 3650.25 M 4095.97 3645.96 L 4097.81 3645.96 L 4098.42 3646.16 L 4098.63 3646.37 L 4098.83 3646.78 L 4098.83 3647.19 L 4098.63 3647.6 L 4098.42 3647.8 L 4097.81 3648 L 4095.97 3648 M 4097.4 3648 L 4098.83 3650.25 M 4101.41 3645.96 L 4101 3646.16 L 4100.59 3646.57 L 4100.39 3646.98 L 4100.18 3647.6 L 4100.18 3648.62 L 4100.39 3649.23 L 4100.59 3649.64 L 4101 3650.05 L 4101.41 3650.25 L 4102.23 3650.25 L 4102.64 3650.05 L 4103.05 3649.64 L 4103.25 3649.23 L 4103.45 3648.62 L 4103.45 3647.6 L 4103.25 3646.98 L 4103.05 3646.57 L 4102.64 3646.16 L 4102.23 3645.96 L 4101.41 3645.96 M 4104.8 3645.96 L 4104.8 3650.25 M 4104.8 3650.25 L 4107.26 3650.25 M 4108.61 3645.96 L 4108.61 3650.25 M 4108.61 3650.25 L 4111.06 3650.25 M 4112.41 3645.96 L 4112.41 3650.25 M 4112.41 3645.96 L 4115.07 3645.96 M 4112.41 3648 L 4114.05 3648 M 4112.41 3650.25 L 4115.07 3650.25 M 4116.42 3645.96 L 4116.42 3650.25 M 4116.42 3645.96 L 4118.26 3645.96 L 4118.88 3646.16 L 4119.08 3646.37 L 4119.29 3646.78 L 4119.29 3647.19 L 4119.08 3647.6 L 4118.88 3647.8 L 4118.26 3648 L 4116.42 3648 M 4117.85 3648 L 4119.29 3650.25" fill="none" stroke-width="0.6" c_note="note_pre" style=""/></g></g><path d="M4020 3845,4020 3644.5,4177.48 3644.5,4177.48 3845z" stroke="none" id="bottomBoardSolderReal" mask="url(#bottomBoardSolderMask)" fill="#0B3B0B"/><g id="bottomSignalReal" fill="#DCAA14" stroke="#DCAA14"><polyline points="4153.5 3657.5 4101.96 3709.04 4060.67 3709.04 4042.15 3727.56" stroke-width="3.937" c_shapetype="line" stroke-linecap="round" fill="none" layerid="2" net="" id="gge1174_2" locked="0"/><polyline points="4113.5 3657.5 4095.95 3675.05 4084.28 3675.05 4034.69 3724.64 4034.69 3748.05 4103.07 3816.43 4114.43 3816.43 4130 3832" stroke-width="3.937" c_shapetype="line" stroke-linecap="round" fill="none" layerid="2" net="" id="gge1166_2" locked="0"/><polyline points="4043.5 3657.5 4043.5 3664.44" stroke-width="3.937" c_shapetype="line" stroke-linecap="round" fill="none" layerid="2" net="" id="gge1163_2" locked="0"/><polyline points="4149.83 3717.56 4067.15 3717.56" stroke-width="3.937" c_shapetype="line" stroke-linecap="round" fill="none" layerid="2" net="" id="gge1162_2" locked="0"/><polyline points="4043.5 3664.44 4065.45 3686.39 4065.45 3687.41" stroke-width="3.937" c_shapetype="line" stroke-linecap="round" fill="none" layerid="2" net="" id="gge1161_2" locked="0"/><polyline points="4065.45 3687.41 4030.01 3722.85 4030.01 3786.7 4050 3806.69 4050 3832" stroke-width="3.937" c_shapetype="line" stroke-linecap="round" fill="none" layerid="2" net="" id="gge1160_2" locked="0"/><polyline points="4140 3832 4140 3777.93 4174.19 3743.73 4174.19 3669.77 4156.2 3651.77 4139.23 3651.77 4133.5 3657.5" stroke-width="3.937" c_shapetype="line" stroke-linecap="round" fill="none" layerid="2" net="" id="gge1159_2" locked="0"/><g c_partid="part_via" c_etype="pinpart" layerid="11" id="gge1165_11" c_origin="4065.45,3687.41" net="" c_rotation="undefined"><circle cx="4065.45" cy="3687.41" r="1.2008" stroke-width="0"/></g><g c_partid="part_pad" c_etype="pinpart" layerid="11" id="gge860_11" c_origin="4042.15,3727.56" net="" c_rotation="0" c_width="8.6" c_height="8.6"><ellipse cx="4042.15" cy="3727.56" rx="4.3" ry="4.3" stroke-width="0" c_etype="pad_hole"/></g><g c_partid="part_pad" c_etype="pinpart" layerid="11" id="gge865_11" c_origin="4067.15,3717.56" net="" c_rotation="0" c_width="8.6" c_height="8.6"><ellipse cx="4067.15" cy="3717.56" rx="4.3" ry="4.3" stroke-width="0" c_etype="pad_hole"/></g><g c_partid="part_pad" c_etype="pinpart" layerid="11" id="gge870_11" c_origin="4062.15,3757.56" net="" c_rotation="0" c_width="6" c_height="6"><ellipse cx="4062.15" cy="3757.56" rx="3" ry="3" stroke-width="0" c_etype="pad_hole"/></g><g c_partid="part_pad" c_etype="pinpart" layerid="11" id="gge875_11" c_origin="4052.15,3757.56" net="" c_rotation="0" c_width="6" c_height="6"><ellipse cx="4052.15" cy="3757.56" rx="3" ry="3" stroke-width="0" c_etype="pad_hole"/></g><g c_partid="part_pad" c_etype="pinpart" layerid="11" id="gge901_11" c_origin="4124.83,3727.56" net="" c_rotation="0" c_width="8.6" c_height="8.6"><ellipse cx="4124.83" cy="3727.56" rx="4.3" ry="4.3" stroke-width="0" c_etype="pad_hole"/></g><g c_partid="part_pad" c_etype="pinpart" layerid="11" id="gge906_11" c_origin="4149.83,3717.56" net="" c_rotation="0" c_width="8.6" c_height="8.6"><ellipse cx="4149.83" cy="3717.56" rx="4.3" ry="4.3" stroke-width="0" c_etype="pad_hole"/></g><g c_partid="part_pad" c_etype="pinpart" layerid="11" id="gge911_11" c_origin="4144.83,3757.56" net="" c_rotation="0" c_width="6" c_height="6"><ellipse cx="4144.83" cy="3757.56" rx="3" ry="3" stroke-width="0" c_etype="pad_hole"/></g><g c_partid="part_pad" c_etype="pinpart" layerid="11" id="gge916_11" c_origin="4134.83,3757.56" net="" c_rotation="0" c_width="6" c_height="6"><ellipse cx="4134.83" cy="3757.56" rx="3" ry="3" stroke-width="0" c_etype="pad_hole"/></g><g c_partid="part_pad" c_etype="pinpart" layerid="11" id="gge1017_11" c_origin="4050,3832" net="" c_rotation="0" c_width="6" c_height="6"><polygon points="4047 3829 4053 3829 4053 3835 4047 3835" stroke-width="0" c_etype="pad_outer"/></g><g c_partid="part_pad" c_etype="pinpart" layerid="11" id="gge1022_11" c_origin="4060,3832" net="" c_rotation="0" c_width="6" c_height="6"><ellipse cx="4060" cy="3832" rx="3" ry="3" stroke-width="0" c_etype="pad_hole"/></g><g c_partid="part_pad" c_etype="pinpart" layerid="11" id="gge1027_11" c_origin="4070,3832" net="" c_rotation="0" c_width="6" c_height="6"><ellipse cx="4070" cy="3832" rx="3" ry="3" stroke-width="0" c_etype="pad_hole"/></g><g c_partid="part_pad" c_etype="pinpart" layerid="11" id="gge1032_11" c_origin="4080,3832" net="" c_rotation="0" c_width="6" c_height="6"><ellipse cx="4080" cy="3832" rx="3" ry="3" stroke-width="0" c_etype="pad_hole"/></g><g c_partid="part_pad" c_etype="pinpart" layerid="11" id="gge1037_11" c_origin="4090,3832" net="" c_rotation="0" c_width="6" c_height="6"><ellipse cx="4090" cy="3832" rx="3" ry="3" stroke-width="0" c_etype="pad_hole"/></g><g c_partid="part_pad" c_etype="pinpart" layerid="11" id="gge1042_11" c_origin="4100,3832" net="" c_rotation="0" c_width="6" c_height="6"><ellipse cx="4100" cy="3832" rx="3" ry="3" stroke-width="0" c_etype="pad_hole"/></g><g c_partid="part_pad" c_etype="pinpart" layerid="11" id="gge1047_11" c_origin="4110,3832" net="" c_rotation="0" c_width="6" c_height="6"><ellipse cx="4110" cy="3832" rx="3" ry="3" stroke-width="0" c_etype="pad_hole"/></g><g c_partid="part_pad" c_etype="pinpart" layerid="11" id="gge1052_11" c_origin="4120,3832" net="" c_rotation="0" c_width="6" c_height="6"><ellipse cx="4120" cy="3832" rx="3" ry="3" stroke-width="0" c_etype="pad_hole"/></g><g c_partid="part_pad" c_etype="pinpart" layerid="11" id="gge1057_11" c_origin="4130,3832" net="" c_rotation="0" c_width="6" c_height="6"><ellipse cx="4130" cy="3832" rx="3" ry="3" stroke-width="0" c_etype="pad_hole"/></g><g c_partid="part_pad" c_etype="pinpart" layerid="11" id="gge1062_11" c_origin="4140,3832" net="" c_rotation="0" c_width="6" c_height="6"><ellipse cx="4140" cy="3832" rx="3" ry="3" stroke-width="0" c_etype="pad_hole"/></g><g c_partid="part_pad" c_etype="pinpart" layerid="11" id="gge1074_11" c_origin="4043.5,3657.5" net="" c_rotation="0" c_width="6" c_height="6"><polygon points="4040.5 3654.5 4046.5 3654.5 4046.5 3660.5 4040.5 3660.5" stroke-width="0" c_etype="pad_outer"/></g><g c_partid="part_pad" c_etype="pinpart" layerid="11" id="gge1079_11" c_origin="4053.5,3657.5" net="" c_rotation="0" c_width="6" c_height="6"><ellipse cx="4053.5" cy="3657.5" rx="3" ry="3" stroke-width="0" c_etype="pad_hole"/></g><g c_partid="part_pad" c_etype="pinpart" layerid="11" id="gge1084_11" c_origin="4063.5,3657.5" net="" c_rotation="0" c_width="6" c_height="6"><ellipse cx="4063.5" cy="3657.5" rx="3" ry="3" stroke-width="0" c_etype="pad_hole"/></g><g c_partid="part_pad" c_etype="pinpart" layerid="11" id="gge1089_11" c_origin="4073.5,3657.5" net="" c_rotation="0" c_width="6" c_height="6"><ellipse cx="4073.5" cy="3657.5" rx="3" ry="3" stroke-width="0" c_etype="pad_hole"/></g><g c_partid="part_pad" c_etype="pinpart" layerid="11" id="gge1094_11" c_origin="4083.5,3657.5" net="" c_rotation="0" c_width="6" c_height="6"><ellipse cx="4083.5" cy="3657.5" rx="3" ry="3" stroke-width="0" c_etype="pad_hole"/></g><g c_partid="part_pad" c_etype="pinpart" layerid="11" id="gge1099_11" c_origin="4093.5,3657.5" net="" c_rotation="0" c_width="6" c_height="6"><ellipse cx="4093.5" cy="3657.5" rx="3" ry="3" stroke-width="0" c_etype="pad_hole"/></g><g c_partid="part_pad" c_etype="pinpart" layerid="11" id="gge1104_11" c_origin="4103.5,3657.5" net="" c_rotation="0" c_width="6" c_height="6"><ellipse cx="4103.5" cy="3657.5" rx="3" ry="3" stroke-width="0" c_etype="pad_hole"/></g><g c_partid="part_pad" c_etype="pinpart" layerid="11" id="gge1109_11" c_origin="4113.5,3657.5" net="" c_rotation="0" c_width="6" c_height="6"><ellipse cx="4113.5" cy="3657.5" rx="3" ry="3" stroke-width="0" c_etype="pad_hole"/></g><g c_partid="part_pad" c_etype="pinpart" layerid="11" id="gge1114_11" c_origin="4123.5,3657.5" net="" c_rotation="0" c_width="6" c_height="6"><ellipse cx="4123.5" cy="3657.5" rx="3" ry="3" stroke-width="0" c_etype="pad_hole"/></g><g c_partid="part_pad" c_etype="pinpart" layerid="11" id="gge1119_11" c_origin="4133.5,3657.5" net="" c_rotation="0" c_width="6" c_height="6"><ellipse cx="4133.5" cy="3657.5" rx="3" ry="3" stroke-width="0" c_etype="pad_hole"/></g><g c_partid="part_pad" c_etype="pinpart" layerid="11" id="gge1124_11" c_origin="4143.5,3657.5" net="" c_rotation="0" c_width="6" c_height="6"><ellipse cx="4143.5" cy="3657.5" rx="3" ry="3" stroke-width="0" c_etype="pad_hole"/></g><g c_partid="part_pad" c_etype="pinpart" layerid="11" id="gge1129_11" c_origin="4153.5,3657.5" net="" c_rotation="0" c_width="6" c_height="6"><ellipse cx="4153.5" cy="3657.5" rx="3" ry="3" stroke-width="0" c_etype="pad_hole"/></g></g><g id="bottomSignalSolderReal" mask="url(#bottomSignalSolderMask)" fill="#00BE00" stroke="#00BE00"><polyline points="4153.5 3657.5 4101.96 3709.04 4060.67 3709.04 4042.15 3727.56" stroke-width="3.937" c_shapetype="line" stroke-linecap="round" fill="none" layerid="2" net="" id="gge1174_2" locked="0"/><polyline points="4113.5 3657.5 4095.95 3675.05 4084.28 3675.05 4034.69 3724.64 4034.69 3748.05 4103.07 3816.43 4114.43 3816.43 4130 3832" stroke-width="3.937" c_shapetype="line" stroke-linecap="round" fill="none" layerid="2" net="" id="gge1166_2" locked="0"/><polyline points="4043.5 3657.5 4043.5 3664.44" stroke-width="3.937" c_shapetype="line" stroke-linecap="round" fill="none" layerid="2" net="" id="gge1163_2" locked="0"/><polyline points="4149.83 3717.56 4067.15 3717.56" stroke-width="3.937" c_shapetype="line" stroke-linecap="round" fill="none" layerid="2" net="" id="gge1162_2" locked="0"/><polyline points="4043.5 3664.44 4065.45 3686.39 4065.45 3687.41" stroke-width="3.937" c_shapetype="line" stroke-linecap="round" fill="none" layerid="2" net="" id="gge1161_2" locked="0"/><polyline points="4065.45 3687.41 4030.01 3722.85 4030.01 3786.7 4050 3806.69 4050 3832" stroke-width="3.937" c_shapetype="line" stroke-linecap="round" fill="none" layerid="2" net="" id="gge1160_2" locked="0"/><polyline points="4140 3832 4140 3777.93 4174.19 3743.73 4174.19 3669.77 4156.2 3651.77 4139.23 3651.77 4133.5 3657.5" stroke-width="3.937" c_shapetype="line" stroke-linecap="round" fill="none" layerid="2" net="" id="gge1159_2" locked="0"/><g c_partid="part_via" c_etype="pinpart" layerid="11" id="gge1165_11" c_origin="4065.45,3687.41" net="" c_rotation="undefined"><circle cx="4065.45" cy="3687.41" r="1.2008" stroke-width="0"/></g><g c_partid="part_pad" c_etype="pinpart" layerid="11" id="gge860_11" c_origin="4042.15,3727.56" net="" c_rotation="0" c_width="8.6" c_height="8.6"><ellipse cx="4042.15" cy="3727.56" rx="4.3" ry="4.3" stroke-width="0" c_etype="pad_hole"/></g><g c_partid="part_pad" c_etype="pinpart" layerid="11" id="gge865_11" c_origin="4067.15,3717.56" net="" c_rotation="0" c_width="8.6" c_height="8.6"><ellipse cx="4067.15" cy="3717.56" rx="4.3" ry="4.3" stroke-width="0" c_etype="pad_hole"/></g><g c_partid="part_pad" c_etype="pinpart" layerid="11" id="gge870_11" c_origin="4062.15,3757.56" net="" c_rotation="0" c_width="6" c_height="6"><ellipse cx="4062.15" cy="3757.56" rx="3" ry="3" stroke-width="0" c_etype="pad_hole"/></g><g c_partid="part_pad" c_etype="pinpart" layerid="11" id="gge875_11" c_origin="4052.15,3757.56" net="" c_rotation="0" c_width="6" c_height="6"><ellipse cx="4052.15" cy="3757.56" rx="3" ry="3" stroke-width="0" c_etype="pad_hole"/></g><g c_partid="part_pad" c_etype="pinpart" layerid="11" id="gge901_11" c_origin="4124.83,3727.56" net="" c_rotation="0" c_width="8.6" c_height="8.6"><ellipse cx="4124.83" cy="3727.56" rx="4.3" ry="4.3" stroke-width="0" c_etype="pad_hole"/></g><g c_partid="part_pad" c_etype="pinpart" layerid="11" id="gge906_11" c_origin="4149.83,3717.56" net="" c_rotation="0" c_width="8.6" c_height="8.6"><ellipse cx="4149.83" cy="3717.56" rx="4.3" ry="4.3" stroke-width="0" c_etype="pad_hole"/></g><g c_partid="part_pad" c_etype="pinpart" layerid="11" id="gge911_11" c_origin="4144.83,3757.56" net="" c_rotation="0" c_width="6" c_height="6"><ellipse cx="4144.83" cy="3757.56" rx="3" ry="3" stroke-width="0" c_etype="pad_hole"/></g><g c_partid="part_pad" c_etype="pinpart" layerid="11" id="gge916_11" c_origin="4134.83,3757.56" net="" c_rotation="0" c_width="6" c_height="6"><ellipse cx="4134.83" cy="3757.56" rx="3" ry="3" stroke-width="0" c_etype="pad_hole"/></g><g c_partid="part_pad" c_etype="pinpart" layerid="11" id="gge1017_11" c_origin="4050,3832" net="" c_rotation="0" c_width="6" c_height="6"><polygon points="4047 3829 4053 3829 4053 3835 4047 3835" stroke-width="0" c_etype="pad_outer"/></g><g c_partid="part_pad" c_etype="pinpart" layerid="11" id="gge1022_11" c_origin="4060,3832" net="" c_rotation="0" c_width="6" c_height="6"><ellipse cx="4060" cy="3832" rx="3" ry="3" stroke-width="0" c_etype="pad_hole"/></g><g c_partid="part_pad" c_etype="pinpart" layerid="11" id="gge1027_11" c_origin="4070,3832" net="" c_rotation="0" c_width="6" c_height="6"><ellipse cx="4070" cy="3832" rx="3" ry="3" stroke-width="0" c_etype="pad_hole"/></g><g c_partid="part_pad" c_etype="pinpart" layerid="11" id="gge1032_11" c_origin="4080,3832" net="" c_rotation="0" c_width="6" c_height="6"><ellipse cx="4080" cy="3832" rx="3" ry="3" stroke-width="0" c_etype="pad_hole"/></g><g c_partid="part_pad" c_etype="pinpart" layerid="11" id="gge1037_11" c_origin="4090,3832" net="" c_rotation="0" c_width="6" c_height="6"><ellipse cx="4090" cy="3832" rx="3" ry="3" stroke-width="0" c_etype="pad_hole"/></g><g c_partid="part_pad" c_etype="pinpart" layerid="11" id="gge1042_11" c_origin="4100,3832" net="" c_rotation="0" c_width="6" c_height="6"><ellipse cx="4100" cy="3832" rx="3" ry="3" stroke-width="0" c_etype="pad_hole"/></g><g c_partid="part_pad" c_etype="pinpart" layerid="11" id="gge1047_11" c_origin="4110,3832" net="" c_rotation="0" c_width="6" c_height="6"><ellipse cx="4110" cy="3832" rx="3" ry="3" stroke-width="0" c_etype="pad_hole"/></g><g c_partid="part_pad" c_etype="pinpart" layerid="11" id="gge1052_11" c_origin="4120,3832" net="" c_rotation="0" c_width="6" c_height="6"><ellipse cx="4120" cy="3832" rx="3" ry="3" stroke-width="0" c_etype="pad_hole"/></g><g c_partid="part_pad" c_etype="pinpart" layerid="11" id="gge1057_11" c_origin="4130,3832" net="" c_rotation="0" c_width="6" c_height="6"><ellipse cx="4130" cy="3832" rx="3" ry="3" stroke-width="0" c_etype="pad_hole"/></g><g c_partid="part_pad" c_etype="pinpart" layerid="11" id="gge1062_11" c_origin="4140,3832" net="" c_rotation="0" c_width="6" c_height="6"><ellipse cx="4140" cy="3832" rx="3" ry="3" stroke-width="0" c_etype="pad_hole"/></g><g c_partid="part_pad" c_etype="pinpart" layerid="11" id="gge1074_11" c_origin="4043.5,3657.5" net="" c_rotation="0" c_width="6" c_height="6"><polygon points="4040.5 3654.5 4046.5 3654.5 4046.5 3660.5 4040.5 3660.5" stroke-width="0" c_etype="pad_outer"/></g><g c_partid="part_pad" c_etype="pinpart" layerid="11" id="gge1079_11" c_origin="4053.5,3657.5" net="" c_rotation="0" c_width="6" c_height="6"><ellipse cx="4053.5" cy="3657.5" rx="3" ry="3" stroke-width="0" c_etype="pad_hole"/></g><g c_partid="part_pad" c_etype="pinpart" layerid="11" id="gge1084_11" c_origin="4063.5,3657.5" net="" c_rotation="0" c_width="6" c_height="6"><ellipse cx="4063.5" cy="3657.5" rx="3" ry="3" stroke-width="0" c_etype="pad_hole"/></g><g c_partid="part_pad" c_etype="pinpart" layerid="11" id="gge1089_11" c_origin="4073.5,3657.5" net="" c_rotation="0" c_width="6" c_height="6"><ellipse cx="4073.5" cy="3657.5" rx="3" ry="3" stroke-width="0" c_etype="pad_hole"/></g><g c_partid="part_pad" c_etype="pinpart" layerid="11" id="gge1094_11" c_origin="4083.5,3657.5" net="" c_rotation="0" c_width="6" c_height="6"><ellipse cx="4083.5" cy="3657.5" rx="3" ry="3" stroke-width="0" c_etype="pad_hole"/></g><g c_partid="part_pad" c_etype="pinpart" layerid="11" id="gge1099_11" c_origin="4093.5,3657.5" net="" c_rotation="0" c_width="6" c_height="6"><ellipse cx="4093.5" cy="3657.5" rx="3" ry="3" stroke-width="0" c_etype="pad_hole"/></g><g c_partid="part_pad" c_etype="pinpart" layerid="11" id="gge1104_11" c_origin="4103.5,3657.5" net="" c_rotation="0" c_width="6" c_height="6"><ellipse cx="4103.5" cy="3657.5" rx="3" ry="3" stroke-width="0" c_etype="pad_hole"/></g><g c_partid="part_pad" c_etype="pinpart" layerid="11" id="gge1109_11" c_origin="4113.5,3657.5" net="" c_rotation="0" c_width="6" c_height="6"><ellipse cx="4113.5" cy="3657.5" rx="3" ry="3" stroke-width="0" c_etype="pad_hole"/></g><g c_partid="part_pad" c_etype="pinpart" layerid="11" id="gge1114_11" c_origin="4123.5,3657.5" net="" c_rotation="0" c_width="6" c_height="6"><ellipse cx="4123.5" cy="3657.5" rx="3" ry="3" stroke-width="0" c_etype="pad_hole"/></g><g c_partid="part_pad" c_etype="pinpart" layerid="11" id="gge1119_11" c_origin="4133.5,3657.5" net="" c_rotation="0" c_width="6" c_height="6"><ellipse cx="4133.5" cy="3657.5" rx="3" ry="3" stroke-width="0" c_etype="pad_hole"/></g><g c_partid="part_pad" c_etype="pinpart" layerid="11" id="gge1124_11" c_origin="4143.5,3657.5" net="" c_rotation="0" c_width="6" c_height="6"><ellipse cx="4143.5" cy="3657.5" rx="3" ry="3" stroke-width="0" c_etype="pad_hole"/></g><g c_partid="part_pad" c_etype="pinpart" layerid="11" id="gge1129_11" c_origin="4153.5,3657.5" net="" c_rotation="0" c_width="6" c_height="6"><ellipse cx="4153.5" cy="3657.5" rx="3" ry="3" stroke-width="0" c_etype="pad_hole"/></g></g><g id="bottomSilkLayer" fill="#FFFFFF" stroke="#FFFFFF"><g c_partid="part_pcbtext" c_etype="pinpart" c_origin="4146.5,3689.5" c_rotation="0" c_mirror="1" id="gge268_4" locked="0" layerid="4" c_shapetype="group"><path c_fontsize="8" c_fontfamily="" c_text="WOR_STRUMMER" d="M 4146.5 3681.4273 L 4144.6818 3689.0636 M 4142.8636 3681.4273 L 4144.6818 3689.0636 M 4142.8636 3681.4273 L 4141.0455 3689.0636 M 4139.2273 3681.4273 L 4141.0455 3689.0636 M 4134.6455 3681.4273 L 4135.3727 3681.7909 L 4136.1 3682.5182 L 4136.4636 3683.2455 L 4136.8273 3684.3364 L 4136.8273 3686.1545 L 4136.4636 3687.2455 L 4136.1 3687.9727 L 4135.3727 3688.7 L 4134.6455 3689.0636 L 4133.1909 3689.0636 L 4132.4636 3688.7 L 4131.7364 3687.9727 L 4131.3727 3687.2455 L 4131.0091 3686.1545 L 4131.0091 3684.3364 L 4131.3727 3683.2455 L 4131.7364 3682.5182 L 4132.4636 3681.7909 L 4133.1909 3681.4273 L 4134.6455 3681.4273 M 4128.6091 3681.4273 L 4128.6091 3689.0636 M 4128.6091 3681.4273 L 4125.3364 3681.4273 L 4124.2455 3681.7909 L 4123.8818 3682.1545 L 4123.5182 3682.8818 L 4123.5182 3683.6091 L 4123.8818 3684.3364 L 4124.2455 3684.7 L 4125.3364 3685.0636 L 4128.6091 3685.0636 M 4126.0636 3685.0636 L 4123.5182 3689.0636 M 4121.1182 3691.6091 L 4114.5727 3691.6091 M 4107.0818 3682.5182 L 4107.8091 3681.7909 L 4108.9 3681.4273 L 4110.3545 3681.4273 L 4111.4455 3681.7909 L 4112.1727 3682.5182 L 4112.1727 3683.2455 L 4111.8091 3683.9727 L 4111.4455 3684.3364 L 4110.7182 3684.7 L 4108.5364 3685.4273 L 4107.8091 3685.7909 L 4107.4455 3686.1545 L 4107.0818 3686.8818 L 4107.0818 3687.9727 L 4107.8091 3688.7 L 4108.9 3689.0636 L 4110.3545 3689.0636 L 4111.4455 3688.7 L 4112.1727 3687.9727 M 4102.1364 3681.4273 L 4102.1364 3689.0636 M 4104.6818 3681.4273 L 4099.5909 3681.4273 M 4097.1909 3681.4273 L 4097.1909 3689.0636 M 4097.1909 3681.4273 L 4093.9182 3681.4273 L 4092.8273 3681.7909 L 4092.4636 3682.1545 L 4092.1 3682.8818 L 4092.1 3683.6091 L 4092.4636 3684.3364 L 4092.8273 3684.7 L 4093.9182 3685.0636 L 4097.1909 3685.0636 M 4094.6455 3685.0636 L 4092.1 3689.0636 M 4089.7 3681.4273 L 4089.7 3686.8818 L 4089.3364 3687.9727 L 4088.6091 3688.7 L 4087.5182 3689.0636 L 4086.7909 3689.0636 L 4085.7 3688.7 L 4084.9727 3687.9727 L 4084.6091 3686.8818 L 4084.6091 3681.4273 M 4082.2091 3681.4273 L 4082.2091 3689.0636 M 4082.2091 3681.4273 L 4079.3 3689.0636 M 4076.3909 3681.4273 L 4079.3 3689.0636 M 4076.3909 3681.4273 L 4076.3909 3689.0636 M 4073.9909 3681.4273 L 4073.9909 3689.0636 M 4073.9909 3681.4273 L 4071.0818 3689.0636 M 4068.1727 3681.4273 L 4071.0818 3689.0636 M 4068.1727 3681.4273 L 4068.1727 3689.0636 M 4065.7727 3681.4273 L 4065.7727 3689.0636 M 4065.7727 3681.4273 L 4061.0455 3681.4273 M 4065.7727 3685.0636 L 4062.8636 3685.0636 M 4065.7727 3689.0636 L 4061.0455 3689.0636 M 4058.6455 3681.4273 L 4058.6455 3689.0636 M 4058.6455 3681.4273 L 4055.3727 3681.4273 L 4054.2818 3681.7909 L 4053.9182 3682.1545 L 4053.5545 3682.8818 L 4053.5545 3683.6091 L 4053.9182 3684.3364 L 4054.2818 3684.7 L 4055.3727 3685.0636 L 4058.6455 3685.0636 M 4056.1 3685.0636 L 4053.5545 3689.0636" fill="none" stroke-width="0.8"/></g><g c_partid="part_pcbtext" c_etype="pinpart" c_origin="4129.5,3706" c_rotation="0" c_mirror="1" id="gge271_4" locked="0" layerid="4" c_shapetype="group"><path c_fontsize="8" c_fontfamily="" c_text="PROTOTYPE" d="M 4129.5 3697.9273 L 4129.5 3705.5636 M 4129.5 3697.9273 L 4126.2273 3697.9273 L 4125.1364 3698.2909 L 4124.7727 3698.6545 L 4124.4091 3699.3818 L 4124.4091 3700.4727 L 4124.7727 3701.2 L 4125.1364 3701.5636 L 4126.2273 3701.9273 L 4129.5 3701.9273 M 4122.0091 3697.9273 L 4122.0091 3705.5636 M 4122.0091 3697.9273 L 4118.7364 3697.9273 L 4117.6455 3698.2909 L 4117.2818 3698.6545 L 4116.9182 3699.3818 L 4116.9182 3700.1091 L 4117.2818 3700.8364 L 4117.6455 3701.2 L 4118.7364 3701.5636 L 4122.0091 3701.5636 M 4119.4636 3701.5636 L 4116.9182 3705.5636 M 4112.3364 3697.9273 L 4113.0636 3698.2909 L 4113.7909 3699.0182 L 4114.1545 3699.7455 L 4114.5182 3700.8364 L 4114.5182 3702.6545 L 4114.1545 3703.7455 L 4113.7909 3704.4727 L 4113.0636 3705.2 L 4112.3364 3705.5636 L 4110.8818 3705.5636 L 4110.1545 3705.2 L 4109.4273 3704.4727 L 4109.0636 3703.7455 L 4108.7 3702.6545 L 4108.7 3700.8364 L 4109.0636 3699.7455 L 4109.4273 3699.0182 L 4110.1545 3698.2909 L 4110.8818 3697.9273 L 4112.3364 3697.9273 M 4103.7545 3697.9273 L 4103.7545 3705.5636 M 4106.3 3697.9273 L 4101.2091 3697.9273 M 4096.6273 3697.9273 L 4097.3545 3698.2909 L 4098.0818 3699.0182 L 4098.4455 3699.7455 L 4098.8091 3700.8364 L 4098.8091 3702.6545 L 4098.4455 3703.7455 L 4098.0818 3704.4727 L 4097.3545 3705.2 L 4096.6273 3705.5636 L 4095.1727 3705.5636 L 4094.4455 3705.2 L 4093.7182 3704.4727 L 4093.3545 3703.7455 L 4092.9909 3702.6545 L 4092.9909 3700.8364 L 4093.3545 3699.7455 L 4093.7182 3699.0182 L 4094.4455 3698.2909 L 4095.1727 3697.9273 L 4096.6273 3697.9273 M 4088.0455 3697.9273 L 4088.0455 3705.5636 M 4090.5909 3697.9273 L 4085.5 3697.9273 M 4083.1 3697.9273 L 4080.1909 3701.5636 L 4080.1909 3705.5636 M 4077.2818 3697.9273 L 4080.1909 3701.5636 M 4074.8818 3697.9273 L 4074.8818 3705.5636 M 4074.8818 3697.9273 L 4071.6091 3697.9273 L 4070.5182 3698.2909 L 4070.1545 3698.6545 L 4069.7909 3699.3818 L 4069.7909 3700.4727 L 4070.1545 3701.2 L 4070.5182 3701.5636 L 4071.6091 3701.9273 L 4074.8818 3701.9273 M 4067.3909 3697.9273 L 4067.3909 3705.5636 M 4067.3909 3697.9273 L 4062.6636 3697.9273 M 4067.3909 3701.5636 L 4064.4818 3701.5636 M 4067.3909 3705.5636 L 4062.6636 3705.5636" fill="none" stroke-width="0.8"/></g><g c_partid="part_pcbtext" c_etype="pinpart" c_origin="4147,3772" c_rotation="0" c_mirror="1" id="gge275_4" locked="0" layerid="4" c_shapetype="group"><path c_fontsize="8" c_fontfamily="" c_text="SUITS CHERRY MX" d="M 4141.9091 3765.0182 L 4142.6364 3764.2909 L 4143.7273 3763.9273 L 4145.1818 3763.9273 L 4146.2727 3764.2909 L 4147 3765.0182 L 4147 3765.7455 L 4146.6364 3766.4727 L 4146.2727 3766.8364 L 4145.5455 3767.2 L 4143.3636 3767.9273 L 4142.6364 3768.2909 L 4142.2727 3768.6545 L 4141.9091 3769.3818 L 4141.9091 3770.4727 L 4142.6364 3771.2 L 4143.7273 3771.5636 L 4145.1818 3771.5636 L 4146.2727 3771.2 L 4147 3770.4727 M 4139.5091 3763.9273 L 4139.5091 3769.3818 L 4139.1455 3770.4727 L 4138.4182 3771.2 L 4137.3273 3771.5636 L 4136.6 3771.5636 L 4135.5091 3771.2 L 4134.7818 3770.4727 L 4134.4182 3769.3818 L 4134.4182 3763.9273 M 4132.0182 3763.9273 L 4132.0182 3771.5636 M 4127.0727 3763.9273 L 4127.0727 3771.5636 M 4129.6182 3763.9273 L 4124.5273 3763.9273 M 4117.0364 3765.0182 L 4117.7636 3764.2909 L 4118.8545 3763.9273 L 4120.3091 3763.9273 L 4121.4 3764.2909 L 4122.1273 3765.0182 L 4122.1273 3765.7455 L 4121.7636 3766.4727 L 4121.4 3766.8364 L 4120.6727 3767.2 L 4118.4909 3767.9273 L 4117.7636 3768.2909 L 4117.4 3768.6545 L 4117.0364 3769.3818 L 4117.0364 3770.4727 L 4117.7636 3771.2 L 4118.8545 3771.5636 L 4120.3091 3771.5636 L 4121.4 3771.2 L 4122.1273 3770.4727 M 4103.5818 3765.7455 L 4103.9455 3765.0182 L 4104.6727 3764.2909 L 4105.4 3763.9273 L 4106.8545 3763.9273 L 4107.5818 3764.2909 L 4108.3091 3765.0182 L 4108.6727 3765.7455 L 4109.0364 3766.8364 L 4109.0364 3768.6545 L 4108.6727 3769.7455 L 4108.3091 3770.4727 L 4107.5818 3771.2 L 4106.8545 3771.5636 L 4105.4 3771.5636 L 4104.6727 3771.2 L 4103.9455 3770.4727 L 4103.5818 3769.7455 M 4101.1818 3763.9273 L 4101.1818 3771.5636 M 4096.0909 3763.9273 L 4096.0909 3771.5636 M 4101.1818 3767.5636 L 4096.0909 3767.5636 M 4093.6909 3763.9273 L 4093.6909 3771.5636 M 4093.6909 3763.9273 L 4088.9636 3763.9273 M 4093.6909 3767.5636 L 4090.7818 3767.5636 M 4093.6909 3771.5636 L 4088.9636 3771.5636 M 4086.5636 3763.9273 L 4086.5636 3771.5636 M 4086.5636 3763.9273 L 4083.2909 3763.9273 L 4082.2 3764.2909 L 4081.8364 3764.6545 L 4081.4727 3765.3818 L 4081.4727 3766.1091 L 4081.8364 3766.8364 L 4082.2 3767.2 L 4083.2909 3767.5636 L 4086.5636 3767.5636 M 4084.0182 3767.5636 L 4081.4727 3771.5636 M 4079.0727 3763.9273 L 4079.0727 3771.5636 M 4079.0727 3763.9273 L 4075.8 3763.9273 L 4074.7091 3764.2909 L 4074.3455 3764.6545 L 4073.9818 3765.3818 L 4073.9818 3766.1091 L 4074.3455 3766.8364 L 4074.7091 3767.2 L 4075.8 3767.5636 L 4079.0727 3767.5636 M 4076.5273 3767.5636 L 4073.9818 3771.5636 M 4071.5818 3763.9273 L 4068.6727 3767.5636 L 4068.6727 3771.5636 M 4065.7636 3763.9273 L 4068.6727 3767.5636 M 4057.7636 3763.9273 L 4057.7636 3771.5636 M 4057.7636 3763.9273 L 4054.8545 3771.5636 M 4051.9455 3763.9273 L 4054.8545 3771.5636 M 4051.9455 3763.9273 L 4051.9455 3771.5636 M 4049.5455 3763.9273 L 4044.4545 3771.5636 M 4044.4545 3763.9273 L 4049.5455 3771.5636" fill="none" stroke-width="0.8"/></g><g c_partid="part_pcbtext" c_etype="pinpart" c_origin="4129.5,3799" c_rotation="0" c_mirror="1" id="gge278_4" locked="0" layerid="4" c_shapetype="group"><path c_fontsize="8" c_fontfamily="" c_text="11/08/2020" d="M 4129.5 3792.3818 L 4128.7727 3792.0182 L 4127.6818 3790.9273 L 4127.6818 3798.5636 M 4125.2818 3792.3818 L 4124.5545 3792.0182 L 4123.4636 3790.9273 L 4123.4636 3798.5636 M 4114.5182 3789.4727 L 4121.0636 3801.1091 M 4109.9364 3790.9273 L 4111.0273 3791.2909 L 4111.7545 3792.3818 L 4112.1182 3794.2 L 4112.1182 3795.2909 L 4111.7545 3797.1091 L 4111.0273 3798.2 L 4109.9364 3798.5636 L 4109.2091 3798.5636 L 4108.1182 3798.2 L 4107.3909 3797.1091 L 4107.0273 3795.2909 L 4107.0273 3794.2 L 4107.3909 3792.3818 L 4108.1182 3791.2909 L 4109.2091 3790.9273 L 4109.9364 3790.9273 M 4102.8091 3790.9273 L 4103.9 3791.2909 L 4104.2636 3792.0182 L 4104.2636 3792.7455 L 4103.9 3793.4727 L 4103.1727 3793.8364 L 4101.7182 3794.2 L 4100.6273 3794.5636 L 4099.9 3795.2909 L 4099.5364 3796.0182 L 4099.5364 3797.1091 L 4099.9 3797.8364 L 4100.2636 3798.2 L 4101.3545 3798.5636 L 4102.8091 3798.5636 L 4103.9 3798.2 L 4104.2636 3797.8364 L 4104.6273 3797.1091 L 4104.6273 3796.0182 L 4104.2636 3795.2909 L 4103.5364 3794.5636 L 4102.4455 3794.2 L 4100.9909 3793.8364 L 4100.2636 3793.4727 L 4099.9 3792.7455 L 4099.9 3792.0182 L 4100.2636 3791.2909 L 4101.3545 3790.9273 L 4102.8091 3790.9273 M 4090.5909 3789.4727 L 4097.1364 3801.1091 M 4087.8273 3792.7455 L 4087.8273 3792.3818 L 4087.4636 3791.6545 L 4087.1 3791.2909 L 4086.3727 3790.9273 L 4084.9182 3790.9273 L 4084.1909 3791.2909 L 4083.8273 3791.6545 L 4083.4636 3792.3818 L 4083.4636 3793.1091 L 4083.8273 3793.8364 L 4084.5545 3794.9273 L 4088.1909 3798.5636 L 4083.1 3798.5636 M 4078.5182 3790.9273 L 4079.6091 3791.2909 L 4080.3364 3792.3818 L 4080.7 3794.2 L 4080.7 3795.2909 L 4080.3364 3797.1091 L 4079.6091 3798.2 L 4078.5182 3798.5636 L 4077.7909 3798.5636 L 4076.7 3798.2 L 4075.9727 3797.1091 L 4075.6091 3795.2909 L 4075.6091 3794.2 L 4075.9727 3792.3818 L 4076.7 3791.2909 L 4077.7909 3790.9273 L 4078.5182 3790.9273 M 4072.8455 3792.7455 L 4072.8455 3792.3818 L 4072.4818 3791.6545 L 4072.1182 3791.2909 L 4071.3909 3790.9273 L 4069.9364 3790.9273 L 4069.2091 3791.2909 L 4068.8455 3791.6545 L 4068.4818 3792.3818 L 4068.4818 3793.1091 L 4068.8455 3793.8364 L 4069.5727 3794.9273 L 4073.2091 3798.5636 L 4068.1182 3798.5636 M 4063.5364 3790.9273 L 4064.6273 3791.2909 L 4065.3545 3792.3818 L 4065.7182 3794.2 L 4065.7182 3795.2909 L 4065.3545 3797.1091 L 4064.6273 3798.2 L 4063.5364 3798.5636 L 4062.8091 3798.5636 L 4061.7182 3798.2 L 4060.9909 3797.1091 L 4060.6273 3795.2909 L 4060.6273 3794.2 L 4060.9909 3792.3818 L 4061.7182 3791.2909 L 4062.8091 3790.9273 L 4063.5364 3790.9273" fill="none" stroke-width="0.8"/></g><g c_partid="part_pcbtext" c_etype="pinpart" c_origin="4126,3786" c_rotation="0" c_mirror="1" id="gge282_4" locked="0" layerid="4" c_shapetype="group"><path c_fontsize="8" c_fontfamily="" c_text="SWITCHES" d="M 4120.9091 3779.0182 L 4121.6364 3778.2909 L 4122.7273 3777.9273 L 4124.1818 3777.9273 L 4125.2727 3778.2909 L 4126 3779.0182 L 4126 3779.7455 L 4125.6364 3780.4727 L 4125.2727 3780.8364 L 4124.5455 3781.2 L 4122.3636 3781.9273 L 4121.6364 3782.2909 L 4121.2727 3782.6545 L 4120.9091 3783.3818 L 4120.9091 3784.4727 L 4121.6364 3785.2 L 4122.7273 3785.5636 L 4124.1818 3785.5636 L 4125.2727 3785.2 L 4126 3784.4727 M 4118.5091 3777.9273 L 4116.6909 3785.5636 M 4114.8727 3777.9273 L 4116.6909 3785.5636 M 4114.8727 3777.9273 L 4113.0545 3785.5636 M 4111.2364 3777.9273 L 4113.0545 3785.5636 M 4108.8364 3777.9273 L 4108.8364 3785.5636 M 4103.8909 3777.9273 L 4103.8909 3785.5636 M 4106.4364 3777.9273 L 4101.3455 3777.9273 M 4093.4909 3779.7455 L 4093.8545 3779.0182 L 4094.5818 3778.2909 L 4095.3091 3777.9273 L 4096.7636 3777.9273 L 4097.4909 3778.2909 L 4098.2182 3779.0182 L 4098.5818 3779.7455 L 4098.9455 3780.8364 L 4098.9455 3782.6545 L 4098.5818 3783.7455 L 4098.2182 3784.4727 L 4097.4909 3785.2 L 4096.7636 3785.5636 L 4095.3091 3785.5636 L 4094.5818 3785.2 L 4093.8545 3784.4727 L 4093.4909 3783.7455 M 4091.0909 3777.9273 L 4091.0909 3785.5636 M 4086 3777.9273 L 4086 3785.5636 M 4091.0909 3781.5636 L 4086 3781.5636 M 4083.6 3777.9273 L 4083.6 3785.5636 M 4083.6 3777.9273 L 4078.8727 3777.9273 M 4083.6 3781.5636 L 4080.6909 3781.5636 M 4083.6 3785.5636 L 4078.8727 3785.5636 M 4071.3818 3779.0182 L 4072.1091 3778.2909 L 4073.2 3777.9273 L 4074.6545 3777.9273 L 4075.7455 3778.2909 L 4076.4727 3779.0182 L 4076.4727 3779.7455 L 4076.1091 3780.4727 L 4075.7455 3780.8364 L 4075.0182 3781.2 L 4072.8364 3781.9273 L 4072.1091 3782.2909 L 4071.7455 3782.6545 L 4071.3818 3783.3818 L 4071.3818 3784.4727 L 4072.1091 3785.2 L 4073.2 3785.5636 L 4074.6545 3785.5636 L 4075.7455 3785.2 L 4076.4727 3784.4727" fill="none" stroke-width="0.8"/></g></g></g></g></svg>