<?xml version="1.0" encoding="utf-8" standalone="no"?><svg xmlns="http://www.w3.org/2000/svg" xmlns:xlink="http://www.w3.org/1999/xlink" width="140.081mm" height="30.073600000000003mm" viewBox="4010 3454.5 551.5 118.4"><title>Photo View</title><rect x="4010" y="3454.5" width="551.5" height="118.4" fill="#000000" stroke="none"/><defs xmlns="http://www.w3.org/2000/svg" id="patterns"><pattern id="gridPattern" x="4000" y="3000" width="10" height="10" patternUnits="userSpaceOnUse"><rect id="gridCell" x="0" y="0" width="0.26317" height="0.26317" fill="#FFFFFF" stroke="none" fill-opacity="0.8"/></pattern><pattern id="gridPattern2" x="4000.26317" y="3000.26317" width="10" height="10" patternUnits="userSpaceOnUse"><path id="gridCell2" d="M10 0V10H-10" fill="none" stroke="#FFFFFF" stroke-width="0.26317" stroke-opacity="0.6"/></pattern><marker id="arrowOnStart" orient="auto" refY="0" refX="0" style="overflow:visible" markerUnits="strokeWidth"><path d="M 2,0 l 4,-2, 0,4 z" stroke-width="6"/></marker><marker id="arrowOnEnd" orient="auto" refY="0" refX="0" style="overflow:visible" markerUnits="strokeWidth"><path d="M -2,0 l -4,-2, 0,4 z" stroke-width="6"/></marker><marker id="arrowOnStartChrome" orient="auto" refY="0" refX="0" style="overflow:visible" markerUnits="strokeWidth"><path d="M 2,0 l 4,-2, 0,4 z" stroke-width="3" stroke="#FFFFFF"/></marker><marker id="arrowOnEndChrome" orient="auto" refY="0" refX="0" style="overflow:visible" markerUnits="strokeWidth"><path d="M -2,0 l -4,-2, 0,4 z" stroke-width="3" stroke="#FFFFFF"/></marker><svg id="icon-lock" title="Unlock" viewBox="0 0 20 20" height="20" width="20"><path stroke="#F0F" stroke-width="2" style="cursor:pointer;fill-opacity:.001;fill:#fff" d="M 5 7 C 5 -1 15 -1 15 7L1 7 1 19 19 19 19 7 15 7"/></svg><mask id="multiLayerMask" maskUnits="userSpaceOnUse" x="4020" y="3464.5" width="531.5" height="98.4"><path d="M4020 3562.9252,4020 3464.5,4551.4961 3464.5,4551.4961 3562.9252z" stroke="none" fill="white"/><g fill="black"><circle cx="4153.8582" cy="3528.6736" r="1.8" stroke-width="0"/><circle cx="4134.1732" cy="3536.9406" r="1.8" stroke-width="0"/><circle cx="4248.3464" cy="3528.6736" r="1.8" stroke-width="0"/><circle cx="4228.6614" cy="3536.9406" r="1.8" stroke-width="0"/><circle cx="4342.8346" cy="3528.6736" r="1.8" stroke-width="0"/><circle cx="4323.1496" cy="3536.9406" r="1.8" stroke-width="0"/><circle cx="4437.3228" cy="3528.6736" r="1.8" stroke-width="0"/><circle cx="4417.6378" cy="3536.9406" r="1.8" stroke-width="0"/><circle cx="4531.811" cy="3528.6736" r="1.8" stroke-width="0"/><circle cx="4512.126" cy="3536.9406" r="1.8" stroke-width="0"/><circle cx="4035.4996" cy="3518.5002" r="2.0079" stroke-width="0"/><circle cx="4035.4996" cy="3528.5" r="2.0079" stroke-width="0"/><circle cx="4035.4996" cy="3538.5" r="2.0079" stroke-width="0"/><circle cx="4035.4996" cy="3508.5004" r="2.0079" stroke-width="0"/><circle cx="4035.4994" cy="3498.5004" r="2.0079" stroke-width="0"/><circle cx="4035.4997" cy="3488.5003" r="2.0079" stroke-width="0"/><circle cx="4112.52" cy="3513.713" r="3.7402" stroke-width="0"/><circle cx="4155.827" cy="3513.713" r="3.7402" stroke-width="0"/><circle cx="4134.173" cy="3513.713" r="6.6929" stroke-width="0"/><circle cx="4207.008" cy="3513.713" r="3.7402" stroke-width="0"/><circle cx="4250.315" cy="3513.713" r="3.7402" stroke-width="0"/><circle cx="4228.661" cy="3513.713" r="6.6929" stroke-width="0"/><circle cx="4301.497" cy="3513.713" r="3.7402" stroke-width="0"/><circle cx="4344.804" cy="3513.713" r="3.7402" stroke-width="0"/><circle cx="4323.15" cy="3513.713" r="6.6929" stroke-width="0"/><circle cx="4395.985" cy="3513.713" r="3.7402" stroke-width="0"/><circle cx="4439.292" cy="3513.713" r="3.7402" stroke-width="0"/><circle cx="4417.638" cy="3513.713" r="6.6929" stroke-width="0"/><circle cx="4490.473" cy="3513.713" r="3.7402" stroke-width="0"/><circle cx="4533.78" cy="3513.713" r="3.7402" stroke-width="0"/><circle cx="4512.126" cy="3513.713" r="6.6929" stroke-width="0"/><circle cx="4059.37" cy="3478.28" r="4" stroke-width="0"/><circle cx="4102.677" cy="3478.28" r="4" stroke-width="0"/><circle cx="4181.417" cy="3478.28" r="4" stroke-width="0"/><circle cx="4275.906" cy="3478.28" r="4" stroke-width="0"/><circle cx="4370.394" cy="3478.28" r="4" stroke-width="0"/><circle cx="4464.882" cy="3478.28" r="4" stroke-width="0"/><circle cx="4543.622" cy="3478.5" r="4" stroke-width="0"/><circle cx="4059.37" cy="3549.146" r="4" stroke-width="0"/><circle cx="4102.677" cy="3549.146" r="4" stroke-width="0"/><circle cx="4181.417" cy="3549.146" r="4" stroke-width="0"/><circle cx="4275.906" cy="3549.146" r="4" stroke-width="0"/><circle cx="4370.394" cy="3549.146" r="4" stroke-width="0"/><circle cx="4464.882" cy="3549.146" r="4" stroke-width="0"/><circle cx="4543.622" cy="3549.146" r="4" stroke-width="0"/><circle cx="4059.37" cy="3513.713" r="9.9055" stroke-width="0"/></g></mask><mask id="topBoardSolderMask" maskUnits="userSpaceOnUse" x="4020" y="3464.5" width="531.5" height="98.4"><path d="M4020 3562.9252,4020 3464.5,4551.4961 3464.5,4551.4961 3562.9252z" stroke="none" fill="white"/><g fill="black"><ellipse cx="4153.858" cy="3528.674" rx="3.4" ry="3.4" stroke-width="0" c_etype="pad_outer"/><ellipse cx="4134.173" cy="3536.941" rx="3.4" ry="3.4" stroke-width="0" c_etype="pad_outer"/><ellipse cx="4248.346" cy="3528.674" rx="3.4" ry="3.4" stroke-width="0" c_etype="pad_outer"/><ellipse cx="4228.661" cy="3536.941" rx="3.4" ry="3.4" stroke-width="0" c_etype="pad_outer"/><ellipse cx="4342.835" cy="3528.674" rx="3.4" ry="3.4" stroke-width="0" c_etype="pad_outer"/><ellipse cx="4323.15" cy="3536.941" rx="3.4" ry="3.4" stroke-width="0" c_etype="pad_outer"/><ellipse cx="4437.323" cy="3528.674" rx="3.4" ry="3.4" stroke-width="0" c_etype="pad_outer"/><ellipse cx="4417.638" cy="3536.941" rx="3.4" ry="3.4" stroke-width="0" c_etype="pad_outer"/><ellipse cx="4531.811" cy="3528.674" rx="3.4" ry="3.4" stroke-width="0" c_etype="pad_outer"/><ellipse cx="4512.126" cy="3536.941" rx="3.4" ry="3.4" stroke-width="0" c_etype="pad_outer"/><ellipse cx="4035.5" cy="3518.5" rx="3.74645" ry="3.74645" stroke-width="0" c_etype="pad_outer"/><ellipse cx="4035.5" cy="3528.5" rx="3.74645" ry="3.74645" stroke-width="0" c_etype="pad_outer"/><ellipse cx="4035.5" cy="3538.5" rx="3.74645" ry="3.74645" stroke-width="0" c_etype="pad_outer"/><ellipse cx="4035.5" cy="3508.5" rx="3.74645" ry="3.74645" stroke-width="0" c_etype="pad_outer"/><ellipse cx="4035.5" cy="3498.5" rx="3.74645" ry="3.74645" stroke-width="0" c_etype="pad_outer"/><ellipse cx="4035.5" cy="3488.5" rx="3.74645" ry="3.74645" stroke-width="0" c_etype="pad_outer"/></g></mask><mask id="topSignalSolderMask" maskUnits="userSpaceOnUse" x="4020" y="3464.5" width="531.5" height="98.4"><path d="M4020 3562.9252,4020 3464.5,4551.4961 3464.5,4551.4961 3562.9252z" stroke="none" fill="white"/><g fill="black"><ellipse cx="4153.858" cy="3528.674" rx="3.4" ry="3.4" stroke-width="0" c_etype="pad_outer"/><ellipse cx="4134.173" cy="3536.941" rx="3.4" ry="3.4" stroke-width="0" c_etype="pad_outer"/><ellipse cx="4248.346" cy="3528.674" rx="3.4" ry="3.4" stroke-width="0" c_etype="pad_outer"/><ellipse cx="4228.661" cy="3536.941" rx="3.4" ry="3.4" stroke-width="0" c_etype="pad_outer"/><ellipse cx="4342.835" cy="3528.674" rx="3.4" ry="3.4" stroke-width="0" c_etype="pad_outer"/><ellipse cx="4323.15" cy="3536.941" rx="3.4" ry="3.4" stroke-width="0" c_etype="pad_outer"/><ellipse cx="4437.323" cy="3528.674" rx="3.4" ry="3.4" stroke-width="0" c_etype="pad_outer"/><ellipse cx="4417.638" cy="3536.941" rx="3.4" ry="3.4" stroke-width="0" c_etype="pad_outer"/><ellipse cx="4531.811" cy="3528.674" rx="3.4" ry="3.4" stroke-width="0" c_etype="pad_outer"/><ellipse cx="4512.126" cy="3536.941" rx="3.4" ry="3.4" stroke-width="0" c_etype="pad_outer"/><ellipse cx="4035.5" cy="3518.5" rx="3.74645" ry="3.74645" stroke-width="0" c_etype="pad_outer"/><ellipse cx="4035.5" cy="3528.5" rx="3.74645" ry="3.74645" stroke-width="0" c_etype="pad_outer"/><ellipse cx="4035.5" cy="3538.5" rx="3.74645" ry="3.74645" stroke-width="0" c_etype="pad_outer"/><ellipse cx="4035.5" cy="3508.5" rx="3.74645" ry="3.74645" stroke-width="0" c_etype="pad_outer"/><ellipse cx="4035.5" cy="3498.5" rx="3.74645" ry="3.74645" stroke-width="0" c_etype="pad_outer"/><ellipse cx="4035.5" cy="3488.5" rx="3.74645" ry="3.74645" stroke-width="0" c_etype="pad_outer"/></g></mask><mask id="bottomBoardSolderMask" maskUnits="userSpaceOnUse" x="4020" y="3464.5" width="531.5" height="98.4"><path d="M4020 3562.9252,4020 3464.5,4551.4961 3464.5,4551.4961 3562.9252z" stroke="none" fill="white"/><g fill="black"><ellipse cx="4153.858" cy="3528.674" rx="3.4" ry="3.4" stroke-width="0" c_etype="pad_outer"/><ellipse cx="4134.173" cy="3536.941" rx="3.4" ry="3.4" stroke-width="0" c_etype="pad_outer"/><ellipse cx="4248.346" cy="3528.674" rx="3.4" ry="3.4" stroke-width="0" c_etype="pad_outer"/><ellipse cx="4228.661" cy="3536.941" rx="3.4" ry="3.4" stroke-width="0" c_etype="pad_outer"/><ellipse cx="4342.835" cy="3528.674" rx="3.4" ry="3.4" stroke-width="0" c_etype="pad_outer"/><ellipse cx="4323.15" cy="3536.941" rx="3.4" ry="3.4" stroke-width="0" c_etype="pad_outer"/><ellipse cx="4437.323" cy="3528.674" rx="3.4" ry="3.4" stroke-width="0" c_etype="pad_outer"/><ellipse cx="4417.638" cy="3536.941" rx="3.4" ry="3.4" stroke-width="0" c_etype="pad_outer"/><ellipse cx="4531.811" cy="3528.674" rx="3.4" ry="3.4" stroke-width="0" c_etype="pad_outer"/><ellipse cx="4512.126" cy="3536.941" rx="3.4" ry="3.4" stroke-width="0" c_etype="pad_outer"/><ellipse cx="4035.5" cy="3518.5" rx="3.74645" ry="3.74645" stroke-width="0" c_etype="pad_outer"/><ellipse cx="4035.5" cy="3528.5" rx="3.74645" ry="3.74645" stroke-width="0" c_etype="pad_outer"/><ellipse cx="4035.5" cy="3538.5" rx="3.74645" ry="3.74645" stroke-width="0" c_etype="pad_outer"/><ellipse cx="4035.5" cy="3508.5" rx="3.74645" ry="3.74645" stroke-width="0" c_etype="pad_outer"/><ellipse cx="4035.5" cy="3498.5" rx="3.74645" ry="3.74645" stroke-width="0" c_etype="pad_outer"/><ellipse cx="4035.5" cy="3488.5" rx="3.74645" ry="3.74645" stroke-width="0" c_etype="pad_outer"/></g></mask><mask id="bottomSignalSolderMask" maskUnits="userSpaceOnUse" x="4020" y="3464.5" width="531.5" height="98.4"><path d="M4020 3562.9252,4020 3464.5,4551.4961 3464.5,4551.4961 3562.9252z" stroke="none" fill="white"/><g fill="black"><ellipse cx="4153.858" cy="3528.674" rx="3.4" ry="3.4" stroke-width="0" c_etype="pad_outer"/><ellipse cx="4134.173" cy="3536.941" rx="3.4" ry="3.4" stroke-width="0" c_etype="pad_outer"/><ellipse cx="4248.346" cy="3528.674" rx="3.4" ry="3.4" stroke-width="0" c_etype="pad_outer"/><ellipse cx="4228.661" cy="3536.941" rx="3.4" ry="3.4" stroke-width="0" c_etype="pad_outer"/><ellipse cx="4342.835" cy="3528.674" rx="3.4" ry="3.4" stroke-width="0" c_etype="pad_outer"/><ellipse cx="4323.15" cy="3536.941" rx="3.4" ry="3.4" stroke-width="0" c_etype="pad_outer"/><ellipse cx="4437.323" cy="3528.674" rx="3.4" ry="3.4" stroke-width="0" c_etype="pad_outer"/><ellipse cx="4417.638" cy="3536.941" rx="3.4" ry="3.4" stroke-width="0" c_etype="pad_outer"/><ellipse cx="4531.811" cy="3528.674" rx="3.4" ry="3.4" stroke-width="0" c_etype="pad_outer"/><ellipse cx="4512.126" cy="3536.941" rx="3.4" ry="3.4" stroke-width="0" c_etype="pad_outer"/><ellipse cx="4035.5" cy="3518.5" rx="3.74645" ry="3.74645" stroke-width="0" c_etype="pad_outer"/><ellipse cx="4035.5" cy="3528.5" rx="3.74645" ry="3.74645" stroke-width="0" c_etype="pad_outer"/><ellipse cx="4035.5" cy="3538.5" rx="3.74645" ry="3.74645" stroke-width="0" c_etype="pad_outer"/><ellipse cx="4035.5" cy="3508.5" rx="3.74645" ry="3.74645" stroke-width="0" c_etype="pad_outer"/><ellipse cx="4035.5" cy="3498.5" rx="3.74645" ry="3.74645" stroke-width="0" c_etype="pad_outer"/><ellipse cx="4035.5" cy="3488.5" rx="3.74645" ry="3.74645" stroke-width="0" c_etype="pad_outer"/></g></mask></defs><g xmlns="http://www.w3.org/2000/svg" id="g1" mask="url(#multiLayerMask)" class="photoview"><g id="layer_other" class="shapeBox"><path d="M4020 3562.9252,4020 3464.5,4551.4961 3464.5,4551.4961 3562.9252z" stroke="none" id="boardOutlineReal" fill="#80785F"/><path d="M4020 3562.9252,4020 3464.5,4551.4961 3464.5,4551.4961 3562.9252z" stroke="none" id="topBoardSolderReal" mask="url(#topBoardSolderMask)" fill="#0B3B0B"/><g id="topSignalReal" fill="#DCAA14" stroke="#DCAA14"><polyline points="4531.811 3528.6736 4489.6736 3528.6736 4453.5 3492.5 4039.5 3492.5 4035.5 3488.5" stroke-width="1" c_shapetype="line" stroke-linecap="round" fill="none" layerid="1" net="" id="gge342_1" locked="0"/><polyline points="4035.5 3498.5 4040 3498.5 4042.5 3496 4362 3496 4394.5 3528.5 4437.1492 3528.5 4437.3228 3528.6736" stroke-width="1" c_shapetype="line" stroke-linecap="round" fill="none" layerid="1" net="" id="gge345_1" locked="0"/><polyline points="4342.8346 3528.6736 4299.6736 3528.6736 4270.5 3499.5 4044.5 3499.5 4035.5 3508.5" stroke-width="1" c_shapetype="line" stroke-linecap="round" fill="none" layerid="1" net="" id="gge344_1" locked="0"/><polyline points="4153.86 3528.67 4150.03 3532.5 4039.5 3532.5 4035.5 3528.5" stroke-width="1" c_shapetype="line" stroke-linecap="round" fill="none" layerid="1" net="" id="gge323_1" locked="0"/><polyline points="4134.17 3537 4037 3537 4035.5 3538.5" stroke-width="1" c_shapetype="line" stroke-linecap="round" fill="none" layerid="1" net="" id="gge326_1" locked="0"/><polyline points="4035.5 3518.5 4037.5 3518.5 4047.5 3528.5 4143 3528.5 4149 3522.5 4157.5 3522.5 4161 3525.5 4245.1728 3525.5 4248.3464 3528.6736" stroke-width="1" c_shapetype="line" stroke-linecap="round" fill="none" layerid="1" net="" id="gge324_1" locked="0"/><polyline points="4417.6378 3536.9406 4512.126 3536.9406" stroke-width="1" c_shapetype="line" stroke-linecap="round" fill="none" layerid="1" net="" id="gge316_1" locked="0"/><polyline points="4323.1496 3536.9406 4417.6378 3536.9406" stroke-width="1" c_shapetype="line" stroke-linecap="round" fill="none" layerid="1" net="" id="gge314_1" locked="0"/><polyline points="4228.6614 3536.9406 4325 3536.9406" stroke-width="1" c_shapetype="line" stroke-linecap="round" fill="none" layerid="1" net="" id="gge313_1" locked="0"/><polyline points="4134.1732 3536.9406 4228.6614 3536.9406" stroke-width="1" c_shapetype="line" stroke-linecap="round" fill="none" layerid="1" net="" id="gge312_1" locked="0"/><g c_partid="part_pad" c_etype="pinpart" layerid="11" id="gge19_11" c_origin="4153.858,3528.674" net="" c_rotation="0" c_width="6" c_height="6"><ellipse cx="4153.858" cy="3528.674" rx="3" ry="3" stroke-width="0" c_etype="pad_shell"/></g><g c_partid="part_pad" c_etype="pinpart" layerid="11" id="gge24_11" c_origin="4134.173,3536.941" net="" c_rotation="0" c_width="6" c_height="6"><ellipse cx="4134.173" cy="3536.941" rx="3" ry="3" stroke-width="0" c_etype="pad_shell"/></g><g c_partid="part_pad" c_etype="pinpart" layerid="11" id="gge47_11" c_origin="4248.346,3528.674" net="" c_rotation="0" c_width="6" c_height="6"><ellipse cx="4248.346" cy="3528.674" rx="3" ry="3" stroke-width="0" c_etype="pad_shell"/></g><g c_partid="part_pad" c_etype="pinpart" layerid="11" id="gge52_11" c_origin="4228.661,3536.941" net="" c_rotation="0" c_width="6" c_height="6"><ellipse cx="4228.661" cy="3536.941" rx="3" ry="3" stroke-width="0" c_etype="pad_shell"/></g><g c_partid="part_pad" c_etype="pinpart" layerid="11" id="gge75_11" c_origin="4342.835,3528.674" net="" c_rotation="0" c_width="6" c_height="6"><ellipse cx="4342.835" cy="3528.674" rx="3" ry="3" stroke-width="0" c_etype="pad_shell"/></g><g c_partid="part_pad" c_etype="pinpart" layerid="11" id="gge80_11" c_origin="4323.15,3536.941" net="" c_rotation="0" c_width="6" c_height="6"><ellipse cx="4323.15" cy="3536.941" rx="3" ry="3" stroke-width="0" c_etype="pad_shell"/></g><g c_partid="part_pad" c_etype="pinpart" layerid="11" id="gge103_11" c_origin="4437.323,3528.674" net="" c_rotation="0" c_width="6" c_height="6"><ellipse cx="4437.323" cy="3528.674" rx="3" ry="3" stroke-width="0" c_etype="pad_shell"/></g><g c_partid="part_pad" c_etype="pinpart" layerid="11" id="gge108_11" c_origin="4417.638,3536.941" net="" c_rotation="0" c_width="6" c_height="6"><ellipse cx="4417.638" cy="3536.941" rx="3" ry="3" stroke-width="0" c_etype="pad_shell"/></g><g c_partid="part_pad" c_etype="pinpart" layerid="11" id="gge131_11" c_origin="4531.811,3528.674" net="" c_rotation="0" c_width="6" c_height="6"><ellipse cx="4531.811" cy="3528.674" rx="3" ry="3" stroke-width="0" c_etype="pad_shell"/></g><g c_partid="part_pad" c_etype="pinpart" layerid="11" id="gge136_11" c_origin="4512.126,3536.941" net="" c_rotation="0" c_width="6" c_height="6"><ellipse cx="4512.126" cy="3536.941" rx="3" ry="3" stroke-width="0" c_etype="pad_shell"/></g><g c_partid="part_pad" c_etype="pinpart" layerid="11" id="gge153_11" c_origin="4035.5,3518.5" net="" c_rotation="90" c_width="6.6929" c_height="6.6929"><ellipse cx="4035.5" cy="3518.5" rx="3.34645" ry="3.34645" stroke-width="0" c_etype="pad_shell"/></g><g c_partid="part_pad" c_etype="pinpart" layerid="11" id="gge158_11" c_origin="4035.5,3528.5" net="" c_rotation="90" c_width="6.6929" c_height="6.6929"><ellipse cx="4035.5" cy="3528.5" rx="3.34645" ry="3.34645" stroke-width="0" c_etype="pad_shell"/></g><g c_partid="part_pad" c_etype="pinpart" layerid="11" id="gge163_11" c_origin="4035.5,3538.5" net="" c_rotation="90" c_width="6.6929" c_height="6.6929"><ellipse cx="4035.5" cy="3538.5" rx="3.34645" ry="3.34645" stroke-width="0" c_etype="pad_shell"/></g><g c_partid="part_pad" c_etype="pinpart" layerid="11" id="gge168_11" c_origin="4035.5,3508.5" net="" c_rotation="90" c_width="6.6929" c_height="6.6929"><ellipse cx="4035.5" cy="3508.5" rx="3.34645" ry="3.34645" stroke-width="0" c_etype="pad_shell"/></g><g c_partid="part_pad" c_etype="pinpart" layerid="11" id="gge173_11" c_origin="4035.5,3498.5" net="" c_rotation="90" c_width="6.6929" c_height="6.6929"><ellipse cx="4035.5" cy="3498.5" rx="3.34645" ry="3.34645" stroke-width="0" c_etype="pad_shell"/></g><g c_partid="part_pad" c_etype="pinpart" layerid="11" id="gge178_11" c_origin="4035.5,3488.5" net="" c_rotation="90" c_width="6.6929" c_height="6.6929"><ellipse cx="4035.5" cy="3488.5" rx="3.34645" ry="3.34645" stroke-width="0" c_etype="pad_shell"/></g></g><g id="topSignalSolderReal" mask="url(#topSignalSolderMask)" fill="#00BE00" stroke="#00BE00"><polyline points="4531.811 3528.6736 4489.6736 3528.6736 4453.5 3492.5 4039.5 3492.5 4035.5 3488.5" stroke-width="1" c_shapetype="line" stroke-linecap="round" fill="none" layerid="1" net="" id="gge342_1" locked="0"/><polyline points="4035.5 3498.5 4040 3498.5 4042.5 3496 4362 3496 4394.5 3528.5 4437.1492 3528.5 4437.3228 3528.6736" stroke-width="1" c_shapetype="line" stroke-linecap="round" fill="none" layerid="1" net="" id="gge345_1" locked="0"/><polyline points="4342.8346 3528.6736 4299.6736 3528.6736 4270.5 3499.5 4044.5 3499.5 4035.5 3508.5" stroke-width="1" c_shapetype="line" stroke-linecap="round" fill="none" layerid="1" net="" id="gge344_1" locked="0"/><polyline points="4153.86 3528.67 4150.03 3532.5 4039.5 3532.5 4035.5 3528.5" stroke-width="1" c_shapetype="line" stroke-linecap="round" fill="none" layerid="1" net="" id="gge323_1" locked="0"/><polyline points="4134.17 3537 4037 3537 4035.5 3538.5" stroke-width="1" c_shapetype="line" stroke-linecap="round" fill="none" layerid="1" net="" id="gge326_1" locked="0"/><polyline points="4035.5 3518.5 4037.5 3518.5 4047.5 3528.5 4143 3528.5 4149 3522.5 4157.5 3522.5 4161 3525.5 4245.1728 3525.5 4248.3464 3528.6736" stroke-width="1" c_shapetype="line" stroke-linecap="round" fill="none" layerid="1" net="" id="gge324_1" locked="0"/><polyline points="4417.6378 3536.9406 4512.126 3536.9406" stroke-width="1" c_shapetype="line" stroke-linecap="round" fill="none" layerid="1" net="" id="gge316_1" locked="0"/><polyline points="4323.1496 3536.9406 4417.6378 3536.9406" stroke-width="1" c_shapetype="line" stroke-linecap="round" fill="none" layerid="1" net="" id="gge314_1" locked="0"/><polyline points="4228.6614 3536.9406 4325 3536.9406" stroke-width="1" c_shapetype="line" stroke-linecap="round" fill="none" layerid="1" net="" id="gge313_1" locked="0"/><polyline points="4134.1732 3536.9406 4228.6614 3536.9406" stroke-width="1" c_shapetype="line" stroke-linecap="round" fill="none" layerid="1" net="" id="gge312_1" locked="0"/><g c_partid="part_pad" c_etype="pinpart" layerid="11" id="gge19_11" c_origin="4153.858,3528.674" net="" c_rotation="0" c_width="6" c_height="6"><ellipse cx="4153.858" cy="3528.674" rx="3" ry="3" stroke-width="0" c_etype="pad_shell"/></g><g c_partid="part_pad" c_etype="pinpart" layerid="11" id="gge24_11" c_origin="4134.173,3536.941" net="" c_rotation="0" c_width="6" c_height="6"><ellipse cx="4134.173" cy="3536.941" rx="3" ry="3" stroke-width="0" c_etype="pad_shell"/></g><g c_partid="part_pad" c_etype="pinpart" layerid="11" id="gge47_11" c_origin="4248.346,3528.674" net="" c_rotation="0" c_width="6" c_height="6"><ellipse cx="4248.346" cy="3528.674" rx="3" ry="3" stroke-width="0" c_etype="pad_shell"/></g><g c_partid="part_pad" c_etype="pinpart" layerid="11" id="gge52_11" c_origin="4228.661,3536.941" net="" c_rotation="0" c_width="6" c_height="6"><ellipse cx="4228.661" cy="3536.941" rx="3" ry="3" stroke-width="0" c_etype="pad_shell"/></g><g c_partid="part_pad" c_etype="pinpart" layerid="11" id="gge75_11" c_origin="4342.835,3528.674" net="" c_rotation="0" c_width="6" c_height="6"><ellipse cx="4342.835" cy="3528.674" rx="3" ry="3" stroke-width="0" c_etype="pad_shell"/></g><g c_partid="part_pad" c_etype="pinpart" layerid="11" id="gge80_11" c_origin="4323.15,3536.941" net="" c_rotation="0" c_width="6" c_height="6"><ellipse cx="4323.15" cy="3536.941" rx="3" ry="3" stroke-width="0" c_etype="pad_shell"/></g><g c_partid="part_pad" c_etype="pinpart" layerid="11" id="gge103_11" c_origin="4437.323,3528.674" net="" c_rotation="0" c_width="6" c_height="6"><ellipse cx="4437.323" cy="3528.674" rx="3" ry="3" stroke-width="0" c_etype="pad_shell"/></g><g c_partid="part_pad" c_etype="pinpart" layerid="11" id="gge108_11" c_origin="4417.638,3536.941" net="" c_rotation="0" c_width="6" c_height="6"><ellipse cx="4417.638" cy="3536.941" rx="3" ry="3" stroke-width="0" c_etype="pad_shell"/></g><g c_partid="part_pad" c_etype="pinpart" layerid="11" id="gge131_11" c_origin="4531.811,3528.674" net="" c_rotation="0" c_width="6" c_height="6"><ellipse cx="4531.811" cy="3528.674" rx="3" ry="3" stroke-width="0" c_etype="pad_shell"/></g><g c_partid="part_pad" c_etype="pinpart" layerid="11" id="gge136_11" c_origin="4512.126,3536.941" net="" c_rotation="0" c_width="6" c_height="6"><ellipse cx="4512.126" cy="3536.941" rx="3" ry="3" stroke-width="0" c_etype="pad_shell"/></g><g c_partid="part_pad" c_etype="pinpart" layerid="11" id="gge153_11" c_origin="4035.5,3518.5" net="" c_rotation="90" c_width="6.6929" c_height="6.6929"><ellipse cx="4035.5" cy="3518.5" rx="3.34645" ry="3.34645" stroke-width="0" c_etype="pad_shell"/></g><g c_partid="part_pad" c_etype="pinpart" layerid="11" id="gge158_11" c_origin="4035.5,3528.5" net="" c_rotation="90" c_width="6.6929" c_height="6.6929"><ellipse cx="4035.5" cy="3528.5" rx="3.34645" ry="3.34645" stroke-width="0" c_etype="pad_shell"/></g><g c_partid="part_pad" c_etype="pinpart" layerid="11" id="gge163_11" c_origin="4035.5,3538.5" net="" c_rotation="90" c_width="6.6929" c_height="6.6929"><ellipse cx="4035.5" cy="3538.5" rx="3.34645" ry="3.34645" stroke-width="0" c_etype="pad_shell"/></g><g c_partid="part_pad" c_etype="pinpart" layerid="11" id="gge168_11" c_origin="4035.5,3508.5" net="" c_rotation="90" c_width="6.6929" c_height="6.6929"><ellipse cx="4035.5" cy="3508.5" rx="3.34645" ry="3.34645" stroke-width="0" c_etype="pad_shell"/></g><g c_partid="part_pad" c_etype="pinpart" layerid="11" id="gge173_11" c_origin="4035.5,3498.5" net="" c_rotation="90" c_width="6.6929" c_height="6.6929"><ellipse cx="4035.5" cy="3498.5" rx="3.34645" ry="3.34645" stroke-width="0" c_etype="pad_shell"/></g><g c_partid="part_pad" c_etype="pinpart" layerid="11" id="gge178_11" c_origin="4035.5,3488.5" net="" c_rotation="90" c_width="6.6929" c_height="6.6929"><ellipse cx="4035.5" cy="3488.5" rx="3.34645" ry="3.34645" stroke-width="0" c_etype="pad_shell"/></g></g><g id="topSilkLayer" fill="#FFFFFF" stroke="#FFFFFF"><g c_partid="part_pcbtext" c_etype="pinpart" c_origin="4120,3483.5" c_rotation="0" c_mirror="0" id="gge346_3" locked="0" layerid="3" c_shapetype="group"><path c_fontsize="8" c_fontfamily="" c_text="ORANGE" d="M 4122.18 3475.43 L 4121.45 3475.79 L 4120.73 3476.52 L 4120.36 3477.25 L 4120 3478.34 L 4120 3480.15 L 4120.36 3481.25 L 4120.73 3481.97 L 4121.45 3482.7 L 4122.18 3483.06 L 4123.64 3483.06 L 4124.36 3482.7 L 4125.09 3481.97 L 4125.45 3481.25 L 4125.82 3480.15 L 4125.82 3478.34 L 4125.45 3477.25 L 4125.09 3476.52 L 4124.36 3475.79 L 4123.64 3475.43 L 4122.18 3475.43 M 4128.22 3475.43 L 4128.22 3483.06 M 4128.22 3475.43 L 4131.49 3475.43 L 4132.58 3475.79 L 4132.95 3476.15 L 4133.31 3476.88 L 4133.31 3477.61 L 4132.95 3478.34 L 4132.58 3478.7 L 4131.49 3479.06 L 4128.22 3479.06 M 4130.76 3479.06 L 4133.31 3483.06 M 4138.62 3475.43 L 4135.71 3483.06 M 4138.62 3475.43 L 4141.53 3483.06 M 4136.8 3480.52 L 4140.44 3480.52 M 4143.93 3475.43 L 4143.93 3483.06 M 4143.93 3475.43 L 4149.02 3483.06 M 4149.02 3475.43 L 4149.02 3483.06 M 4156.87 3477.25 L 4156.51 3476.52 L 4155.78 3475.79 L 4155.05 3475.43 L 4153.6 3475.43 L 4152.87 3475.79 L 4152.15 3476.52 L 4151.78 3477.25 L 4151.42 3478.34 L 4151.42 3480.15 L 4151.78 3481.25 L 4152.15 3481.97 L 4152.87 3482.7 L 4153.6 3483.06 L 4155.05 3483.06 L 4155.78 3482.7 L 4156.51 3481.97 L 4156.87 3481.25 L 4156.87 3480.15 M 4155.05 3480.15 L 4156.87 3480.15 M 4159.27 3475.43 L 4159.27 3483.06 M 4159.27 3475.43 L 4164 3475.43 M 4159.27 3479.06 L 4162.18 3479.06 M 4159.27 3483.06 L 4164 3483.06" fill="none" stroke-width="0.8"/></g><g c_partid="part_pcbtext" c_etype="pinpart" c_origin="4216.5,3483.5" c_rotation="0" c_mirror="0" id="gge348_3" locked="0" layerid="3" c_shapetype="group"><path c_fontsize="8" c_fontfamily="" c_text="BLUE" d="M 4216.5 3475.43 L 4216.5 3483.06 M 4216.5 3475.43 L 4219.77 3475.43 L 4220.86 3475.79 L 4221.23 3476.15 L 4221.59 3476.88 L 4221.59 3477.61 L 4221.23 3478.34 L 4220.86 3478.7 L 4219.77 3479.06 M 4216.5 3479.06 L 4219.77 3479.06 L 4220.86 3479.43 L 4221.23 3479.79 L 4221.59 3480.52 L 4221.59 3481.61 L 4221.23 3482.34 L 4220.86 3482.7 L 4219.77 3483.06 L 4216.5 3483.06 M 4223.99 3475.43 L 4223.99 3483.06 M 4223.99 3483.06 L 4228.35 3483.06 M 4230.75 3475.43 L 4230.75 3480.88 L 4231.12 3481.97 L 4231.85 3482.7 L 4232.94 3483.06 L 4233.66 3483.06 L 4234.75 3482.7 L 4235.48 3481.97 L 4235.85 3480.88 L 4235.85 3475.43 M 4238.25 3475.43 L 4238.25 3483.06 M 4238.25 3475.43 L 4242.97 3475.43 M 4238.25 3479.06 L 4241.15 3479.06 M 4238.25 3483.06 L 4242.97 3483.06" fill="none" stroke-width="0.8"/></g><g c_partid="part_pcbtext" c_etype="pinpart" c_origin="4301.5,3483.5" c_rotation="0" c_mirror="0" id="gge350_3" locked="0" layerid="3" c_shapetype="group"><path c_fontsize="8" c_fontfamily="" c_text="YELLOW" d="M 4301.5 3475.43 L 4304.41 3479.06 L 4304.41 3483.06 M 4307.32 3475.43 L 4304.41 3479.06 M 4309.72 3475.43 L 4309.72 3483.06 M 4309.72 3475.43 L 4314.45 3475.43 M 4309.72 3479.06 L 4312.63 3479.06 M 4309.72 3483.06 L 4314.45 3483.06 M 4316.85 3475.43 L 4316.85 3483.06 M 4316.85 3483.06 L 4321.21 3483.06 M 4323.61 3475.43 L 4323.61 3483.06 M 4323.61 3483.06 L 4327.97 3483.06 M 4332.55 3475.43 L 4331.83 3475.79 L 4331.1 3476.52 L 4330.74 3477.25 L 4330.37 3478.34 L 4330.37 3480.15 L 4330.74 3481.25 L 4331.1 3481.97 L 4331.83 3482.7 L 4332.55 3483.06 L 4334.01 3483.06 L 4334.74 3482.7 L 4335.46 3481.97 L 4335.83 3481.25 L 4336.19 3480.15 L 4336.19 3478.34 L 4335.83 3477.25 L 4335.46 3476.52 L 4334.74 3475.79 L 4334.01 3475.43 L 4332.55 3475.43 M 4338.59 3475.43 L 4340.41 3483.06 M 4342.23 3475.43 L 4340.41 3483.06 M 4342.23 3475.43 L 4344.05 3483.06 M 4345.86 3475.43 L 4344.05 3483.06" fill="none" stroke-width="0.8"/></g><g c_partid="part_pcbtext" c_etype="pinpart" c_origin="4409,3483.5" c_rotation="0" c_mirror="0" id="gge352_3" locked="0" layerid="3" c_shapetype="group"><path c_fontsize="8" c_fontfamily="" c_text="RED" d="M 4409 3475.43 L 4409 3483.06 M 4409 3475.43 L 4412.27 3475.43 L 4413.36 3475.79 L 4413.73 3476.15 L 4414.09 3476.88 L 4414.09 3477.61 L 4413.73 3478.34 L 4413.36 3478.7 L 4412.27 3479.06 L 4409 3479.06 M 4411.55 3479.06 L 4414.09 3483.06 M 4416.49 3475.43 L 4416.49 3483.06 M 4416.49 3475.43 L 4421.22 3475.43 M 4416.49 3479.06 L 4419.4 3479.06 M 4416.49 3483.06 L 4421.22 3483.06 M 4423.62 3475.43 L 4423.62 3483.06 M 4423.62 3475.43 L 4426.16 3475.43 L 4427.25 3475.79 L 4427.98 3476.52 L 4428.35 3477.25 L 4428.71 3478.34 L 4428.71 3480.15 L 4428.35 3481.25 L 4427.98 3481.97 L 4427.25 3482.7 L 4426.16 3483.06 L 4423.62 3483.06" fill="none" stroke-width="0.8"/></g><g c_partid="part_pcbtext" c_etype="pinpart" c_origin="4487,3483.5" c_rotation="0" c_mirror="0" id="gge354_3" locked="0" layerid="3" c_shapetype="group"><path c_fontsize="8" c_fontfamily="" c_text="GREEN" d="M 4492.45 3477.25 L 4492.09 3476.52 L 4491.36 3475.79 L 4490.64 3475.43 L 4489.18 3475.43 L 4488.45 3475.79 L 4487.73 3476.52 L 4487.36 3477.25 L 4487 3478.34 L 4487 3480.15 L 4487.36 3481.25 L 4487.73 3481.97 L 4488.45 3482.7 L 4489.18 3483.06 L 4490.64 3483.06 L 4491.36 3482.7 L 4492.09 3481.97 L 4492.45 3481.25 L 4492.45 3480.15 M 4490.64 3480.15 L 4492.45 3480.15 M 4494.85 3475.43 L 4494.85 3483.06 M 4494.85 3475.43 L 4498.13 3475.43 L 4499.22 3475.79 L 4499.58 3476.15 L 4499.95 3476.88 L 4499.95 3477.61 L 4499.58 3478.34 L 4499.22 3478.7 L 4498.13 3479.06 L 4494.85 3479.06 M 4497.4 3479.06 L 4499.95 3483.06 M 4502.35 3475.43 L 4502.35 3483.06 M 4502.35 3475.43 L 4507.07 3475.43 M 4502.35 3479.06 L 4505.25 3479.06 M 4502.35 3483.06 L 4507.07 3483.06 M 4509.47 3475.43 L 4509.47 3483.06 M 4509.47 3475.43 L 4514.2 3475.43 M 4509.47 3479.06 L 4512.38 3479.06 M 4509.47 3483.06 L 4514.2 3483.06 M 4516.6 3475.43 L 4516.6 3483.06 M 4516.6 3475.43 L 4521.69 3483.06 M 4521.69 3475.43 L 4521.69 3483.06" fill="none" stroke-width="0.8"/></g><g c_partid="part_pcbtext" c_etype="pinpart" c_origin="4042.63,3533.221" c_rotation="0" c_mirror="0" id="gge359_3" locked="0" layerid="3" c_shapetype="group"><path c_fontsize="8" c_fontfamily="" c_text="O" d="M 4044.81 3525.15L4044.08 3525.51 L4043.36 3526.24 L4042.99 3526.97 L4042.63 3528.06 L4042.63 3529.88 L4042.99 3530.97 L4043.36 3531.69 L4044.08 3532.42 L4044.81 3532.78 L4046.27 3532.78 L4046.99 3532.42 L4047.72 3531.69 L4048.08 3530.97 L4048.45 3529.88 L4048.45 3528.06 L4048.08 3526.97 L4047.72 3526.24 L4046.99 3525.51 L4046.27 3525.15 L4044.81 3525.15 " fill="none" stroke-width="0.8"/></g><g c_partid="part_pcbtext" c_etype="pinpart" c_origin="4042.63,3543.221" c_rotation="0" c_mirror="0" id="gge362_3" locked="0" layerid="3" c_shapetype="group"><path c_fontsize="8" c_fontfamily="" c_text="GND" d="M 4048.0799 3536.9705 L 4047.7199 3536.2405 L 4046.9899 3535.5105 L 4046.2699 3535.1505 L 4044.8099 3535.1505 L 4044.0799 3535.5105 L 4043.3599 3536.2405 L 4042.9899 3536.9705 L 4042.6299 3538.0605 L 4042.6299 3539.8705 L 4042.9899 3540.9705 L 4043.3599 3541.6905 L 4044.0799 3542.4205 L 4044.8099 3542.7805 L 4046.2699 3542.7805 L 4046.9899 3542.4205 L 4047.7199 3541.6905 L 4048.0799 3540.9705 L 4048.0799 3539.8705 M 4046.2699 3539.8705 L 4048.0799 3539.8705 M 4050.4799 3535.1505 L 4050.4799 3542.7805 M 4050.4799 3535.1505 L 4055.5799 3542.7805 M 4055.5799 3535.1505 L 4055.5799 3542.7805 M 4057.9799 3535.1505 L 4057.9799 3542.7805 M 4057.9799 3535.1505 L 4060.5199 3535.1505 L 4061.6099 3535.5105 L 4062.3399 3536.2405 L 4062.6999 3536.9705 L 4063.0699 3538.0605 L 4063.0699 3539.8705 L 4062.6999 3540.9705 L 4062.3399 3541.6905 L 4061.6099 3542.4205 L 4060.5199 3542.7805 L 4057.9799 3542.7805" fill="none" stroke-width="0.8"/></g><g c_partid="part_pcbtext" c_etype="pinpart" c_origin="4043,3522.5" c_rotation="0" c_mirror="0" id="gge373_3" locked="0" layerid="3" c_shapetype="group"><path c_fontsize="8" c_fontfamily="" c_text="B" d="M 4043.0001 3514.4295 L 4043.0001 3522.0595 M 4043.0001 3514.4295 L 4046.2701 3514.4295 L 4047.3601 3514.7895 L 4047.7301 3515.1595 L 4048.0901 3515.8795 L 4048.0901 3516.6095 L 4047.7301 3517.3395 L 4047.3601 3517.6995 L 4046.2701 3518.0595 M 4043.0001 3518.0595 L 4046.2701 3518.0595 L 4047.3601 3518.4295 L 4047.7301 3518.7895 L 4048.0901 3519.5195 L 4048.0901 3520.6095 L 4047.7301 3521.3395 L 4047.3601 3521.6995 L 4046.2701 3522.0595 L 4043.0001 3522.0595" fill="none" stroke-width="0.8"/></g><g c_partid="part_pcbtext" c_etype="pinpart" c_origin="4042.63,3512.721" c_rotation="0" c_mirror="0" id="gge377_3" locked="0" layerid="3" c_shapetype="group"><path c_fontsize="8" c_fontfamily="" c_text="Y" d="M 4042.63 3504.65L4045.54 3508.28 L4045.54 3512.28 M 4048.45 3504.65L4045.54 3508.28 " fill="none" stroke-width="0.8"/></g><g c_partid="part_pcbtext" c_etype="pinpart" c_origin="4043,3502.5" c_rotation="0" c_mirror="0" id="gge381_3" locked="0" layerid="3" c_shapetype="group"><path c_fontsize="8" c_fontfamily="" c_text="R" d="M 4043.0001 3494.4295 L 4043.0001 3502.0595 M 4043.0001 3494.4295 L 4046.2701 3494.4295 L 4047.3601 3494.7895 L 4047.7301 3495.1595 L 4048.0901 3495.8795 L 4048.0901 3496.6095 L 4047.7301 3497.3395 L 4047.3601 3497.6995 L 4046.2701 3498.0595 L 4043.0001 3498.0595 M 4045.5501 3498.0595 L 4048.0901 3502.0595" fill="none" stroke-width="0.8"/></g><g c_partid="part_pcbtext" c_etype="pinpart" c_origin="4042.63,3492.721" c_rotation="0" c_mirror="0" id="gge385_3" locked="0" layerid="3" c_shapetype="group"><path c_fontsize="8" c_fontfamily="" c_text="G" d="M 4048.08 3486.47L4047.72 3485.74 L4046.99 3485.01 L4046.27 3484.65 L4044.81 3484.65 L4044.08 3485.01 L4043.36 3485.74 L4042.99 3486.47 L4042.63 3487.56 L4042.63 3489.38 L4042.99 3490.47 L4043.36 3491.19 L4044.08 3491.92 L4044.81 3492.28 L4046.27 3492.28 L4046.99 3491.92 L4047.72 3491.19 L4048.08 3490.47 L4048.08 3489.38 M 4046.27 3489.38L4048.08 3489.38 " fill="none" stroke-width="0.8"/></g><g c_partid="part_pcbtext" c_etype="" c_origin="4134.173,3497.713" c_rotation="0" c_mirror="0" id="gge3_3" locked="0" layerid="3" c_shapetype="group" display="none"><path c_fontsize="4.5" c_fontfamily="" c_text="KailhChocLowProfileOK" d="M 4134.1732 3493.1726 L 4134.1732 3497.4626 M 4137.0332 3493.1726 L 4134.1732 3496.0326 M 4135.1932 3495.0126 L 4137.0332 3497.4626 M 4140.8432 3494.6026 L 4140.8432 3497.4626 M 4140.8432 3495.2126 L 4140.4332 3494.8126 L 4140.0232 3494.6026 L 4139.4132 3494.6026 L 4139.0032 3494.8126 L 4138.5932 3495.2126 L 4138.3832 3495.8326 L 4138.3832 3496.2426 L 4138.5932 3496.8526 L 4139.0032 3497.2626 L 4139.4132 3497.4626 L 4140.0232 3497.4626 L 4140.4332 3497.2626 L 4140.8432 3496.8526 M 4142.1932 3493.1726 L 4142.3932 3493.3726 L 4142.6032 3493.1726 L 4142.3932 3492.9626 L 4142.1932 3493.1726 M 4142.3932 3494.6026 L 4142.3932 3497.4626 M 4143.9532 3493.1726 L 4143.9532 3497.4626 M 4145.3032 3493.1726 L 4145.3032 3497.4626 M 4145.3032 3495.4226 L 4145.9132 3494.8126 L 4146.3232 3494.6026 L 4146.9332 3494.6026 L 4147.3432 3494.8126 L 4147.5532 3495.4226 L 4147.5532 3497.4626 M 4151.9732 3494.1926 L 4151.7632 3493.7826 L 4151.3532 3493.3726 L 4150.9432 3493.1726 L 4150.1232 3493.1726 L 4149.7232 3493.3726 L 4149.3132 3493.7826 L 4149.1032 3494.1926 L 4148.9032 3494.8126 L 4148.9032 3495.8326 L 4149.1032 3496.4426 L 4149.3132 3496.8526 L 4149.7232 3497.2626 L 4150.1232 3497.4626 L 4150.9432 3497.4626 L 4151.3532 3497.2626 L 4151.7632 3496.8526 L 4151.9732 3496.4426 M 4153.3232 3493.1726 L 4153.3232 3497.4626 M 4153.3232 3495.4226 L 4153.9332 3494.8126 L 4154.3432 3494.6026 L 4154.9532 3494.6026 L 4155.3632 3494.8126 L 4155.5732 3495.4226 L 4155.5732 3497.4626 M 4157.9432 3494.6026 L 4157.5332 3494.8126 L 4157.1232 3495.2126 L 4156.9232 3495.8326 L 4156.9232 3496.2426 L 4157.1232 3496.8526 L 4157.5332 3497.2626 L 4157.9432 3497.4626 L 4158.5532 3497.4626 L 4158.9632 3497.2626 L 4159.3732 3496.8526 L 4159.5732 3496.2426 L 4159.5732 3495.8326 L 4159.3732 3495.2126 L 4158.9632 3494.8126 L 4158.5532 3494.6026 L 4157.9432 3494.6026 M 4163.3832 3495.2126 L 4162.9732 3494.8126 L 4162.5632 3494.6026 L 4161.9532 3494.6026 L 4161.5432 3494.8126 L 4161.1332 3495.2126 L 4160.9232 3495.8326 L 4160.9232 3496.2426 L 4161.1332 3496.8526 L 4161.5432 3497.2626 L 4161.9532 3497.4626 L 4162.5632 3497.4626 L 4162.9732 3497.2626 L 4163.3832 3496.8526 M 4164.7332 3493.1726 L 4164.7332 3497.4626 M 4164.7332 3497.4626 L 4167.1832 3497.4626 M 4169.5632 3494.6026 L 4169.1532 3494.8126 L 4168.7432 3495.2126 L 4168.5332 3495.8326 L 4168.5332 3496.2426 L 4168.7432 3496.8526 L 4169.1532 3497.2626 L 4169.5632 3497.4626 L 4170.1732 3497.4626 L 4170.5832 3497.2626 L 4170.9932 3496.8526 L 4171.1932 3496.2426 L 4171.1932 3495.8326 L 4170.9932 3495.2126 L 4170.5832 3494.8126 L 4170.1732 3494.6026 L 4169.5632 3494.6026 M 4172.5432 3494.6026 L 4173.3632 3497.4626 M 4174.1832 3494.6026 L 4173.3632 3497.4626 M 4174.1832 3494.6026 L 4175.0032 3497.4626 M 4175.8232 3494.6026 L 4175.0032 3497.4626 M 4177.1732 3493.1726 L 4177.1732 3497.4626 M 4177.1732 3493.1726 L 4179.0132 3493.1726 L 4179.6232 3493.3726 L 4179.8232 3493.5826 L 4180.0332 3493.9926 L 4180.0332 3494.6026 L 4179.8232 3495.0126 L 4179.6232 3495.2126 L 4179.0132 3495.4226 L 4177.1732 3495.4226 M 4181.3832 3494.6026 L 4181.3832 3497.4626 M 4181.3832 3495.8326 L 4181.5832 3495.2126 L 4181.9932 3494.8126 L 4182.4032 3494.6026 L 4183.0232 3494.6026 M 4185.3932 3494.6026 L 4184.9832 3494.8126 L 4184.5732 3495.2126 L 4184.3732 3495.8326 L 4184.3732 3496.2426 L 4184.5732 3496.8526 L 4184.9832 3497.2626 L 4185.3932 3497.4626 L 4186.0032 3497.4626 L 4186.4132 3497.2626 L 4186.8232 3496.8526 L 4187.0232 3496.2426 L 4187.0232 3495.8326 L 4186.8232 3495.2126 L 4186.4132 3494.8126 L 4186.0032 3494.6026 L 4185.3932 3494.6026 M 4190.0132 3493.1726 L 4189.6032 3493.1726 L 4189.1932 3493.3726 L 4188.9932 3493.9926 L 4188.9932 3497.4626 M 4188.3732 3494.6026 L 4189.8132 3494.6026 M 4191.3632 3493.1726 L 4191.5732 3493.3726 L 4191.7732 3493.1726 L 4191.5732 3492.9626 L 4191.3632 3493.1726 M 4191.5732 3494.6026 L 4191.5732 3497.4626 M 4193.1232 3493.1726 L 4193.1232 3497.4626 M 4194.4732 3495.8326 L 4196.9232 3495.8326 L 4196.9232 3495.4226 L 4196.7232 3495.0126 L 4196.5232 3494.8126 L 4196.1132 3494.6026 L 4195.4932 3494.6026 L 4195.0832 3494.8126 L 4194.6732 3495.2126 L 4194.4732 3495.8326 L 4194.4732 3496.2426 L 4194.6732 3496.8526 L 4195.0832 3497.2626 L 4195.4932 3497.4626 L 4196.1132 3497.4626 L 4196.5232 3497.2626 L 4196.9232 3496.8526 M 4199.5032 3493.1726 L 4199.0932 3493.3726 L 4198.6832 3493.7826 L 4198.4832 3494.1926 L 4198.2732 3494.8126 L 4198.2732 3495.8326 L 4198.4832 3496.4426 L 4198.6832 3496.8526 L 4199.0932 3497.2626 L 4199.5032 3497.4626 L 4200.3232 3497.4626 L 4200.7332 3497.2626 L 4201.1432 3496.8526 L 4201.3432 3496.4426 L 4201.5532 3495.8326 L 4201.5532 3494.8126 L 4201.3432 3494.1926 L 4201.1432 3493.7826 L 4200.7332 3493.3726 L 4200.3232 3493.1726 L 4199.5032 3493.1726 M 4202.9032 3493.1726 L 4202.9032 3497.4626 M 4205.7632 3493.1726 L 4202.9032 3496.0326 M 4203.9232 3495.0126 L 4205.7632 3497.4626" fill="none" stroke-width="0.6" c_note="note_name" style=""/></g><g c_partid="part_pcbtext" c_etype="" c_origin="4134.173,3504.713" c_rotation="0" c_mirror="0" id="gge5_3" locked="0" layerid="3" c_shapetype="group"><path c_fontsize="4.5" c_fontfamily="" c_text="U1" d="M 4134.1732 3500.1726 L 4134.1732 3503.2426 L 4134.3732 3503.8526 L 4134.7832 3504.2626 L 4135.4032 3504.4626 L 4135.8132 3504.4626 L 4136.4232 3504.2626 L 4136.8332 3503.8526 L 4137.0332 3503.2426 L 4137.0332 3500.1726 M 4138.3832 3500.9926 L 4138.7932 3500.7826 L 4139.4132 3500.1726 L 4139.4132 3504.4626" fill="none" stroke-width="0.6" c_note="note_pre" style=""/></g><g c_partid="part_pcbtext" c_etype="" c_origin="4228.661,3497.713" c_rotation="0" c_mirror="0" id="gge31_3" locked="0" layerid="3" c_shapetype="group" display="none"><path c_fontsize="4.5" c_fontfamily="" c_text="KailhChocLowProfileOK" d="M 4228.6614 3493.1726 L 4228.6614 3497.4626 M 4231.5214 3493.1726 L 4228.6614 3496.0326 M 4229.6814 3495.0126 L 4231.5214 3497.4626 M 4235.3314 3494.6026 L 4235.3314 3497.4626 M 4235.3314 3495.2126 L 4234.9214 3494.8126 L 4234.5114 3494.6026 L 4233.9014 3494.6026 L 4233.4914 3494.8126 L 4233.0814 3495.2126 L 4232.8714 3495.8326 L 4232.8714 3496.2426 L 4233.0814 3496.8526 L 4233.4914 3497.2626 L 4233.9014 3497.4626 L 4234.5114 3497.4626 L 4234.9214 3497.2626 L 4235.3314 3496.8526 M 4236.6814 3493.1726 L 4236.8814 3493.3726 L 4237.0914 3493.1726 L 4236.8814 3492.9626 L 4236.6814 3493.1726 M 4236.8814 3494.6026 L 4236.8814 3497.4626 M 4238.4414 3493.1726 L 4238.4414 3497.4626 M 4239.7914 3493.1726 L 4239.7914 3497.4626 M 4239.7914 3495.4226 L 4240.4014 3494.8126 L 4240.8114 3494.6026 L 4241.4214 3494.6026 L 4241.8314 3494.8126 L 4242.0414 3495.4226 L 4242.0414 3497.4626 M 4246.4614 3494.1926 L 4246.2514 3493.7826 L 4245.8414 3493.3726 L 4245.4314 3493.1726 L 4244.6114 3493.1726 L 4244.2114 3493.3726 L 4243.8014 3493.7826 L 4243.5914 3494.1926 L 4243.3914 3494.8126 L 4243.3914 3495.8326 L 4243.5914 3496.4426 L 4243.8014 3496.8526 L 4244.2114 3497.2626 L 4244.6114 3497.4626 L 4245.4314 3497.4626 L 4245.8414 3497.2626 L 4246.2514 3496.8526 L 4246.4614 3496.4426 M 4247.8114 3493.1726 L 4247.8114 3497.4626 M 4247.8114 3495.4226 L 4248.4214 3494.8126 L 4248.8314 3494.6026 L 4249.4414 3494.6026 L 4249.8514 3494.8126 L 4250.0614 3495.4226 L 4250.0614 3497.4626 M 4252.4314 3494.6026 L 4252.0214 3494.8126 L 4251.6114 3495.2126 L 4251.4114 3495.8326 L 4251.4114 3496.2426 L 4251.6114 3496.8526 L 4252.0214 3497.2626 L 4252.4314 3497.4626 L 4253.0414 3497.4626 L 4253.4514 3497.2626 L 4253.8614 3496.8526 L 4254.0614 3496.2426 L 4254.0614 3495.8326 L 4253.8614 3495.2126 L 4253.4514 3494.8126 L 4253.0414 3494.6026 L 4252.4314 3494.6026 M 4257.8714 3495.2126 L 4257.4614 3494.8126 L 4257.0514 3494.6026 L 4256.4414 3494.6026 L 4256.0314 3494.8126 L 4255.6214 3495.2126 L 4255.4114 3495.8326 L 4255.4114 3496.2426 L 4255.6214 3496.8526 L 4256.0314 3497.2626 L 4256.4414 3497.4626 L 4257.0514 3497.4626 L 4257.4614 3497.2626 L 4257.8714 3496.8526 M 4259.2214 3493.1726 L 4259.2214 3497.4626 M 4259.2214 3497.4626 L 4261.6714 3497.4626 M 4264.0514 3494.6026 L 4263.6414 3494.8126 L 4263.2314 3495.2126 L 4263.0214 3495.8326 L 4263.0214 3496.2426 L 4263.2314 3496.8526 L 4263.6414 3497.2626 L 4264.0514 3497.4626 L 4264.6614 3497.4626 L 4265.0714 3497.2626 L 4265.4814 3496.8526 L 4265.6814 3496.2426 L 4265.6814 3495.8326 L 4265.4814 3495.2126 L 4265.0714 3494.8126 L 4264.6614 3494.6026 L 4264.0514 3494.6026 M 4267.0314 3494.6026 L 4267.8514 3497.4626 M 4268.6714 3494.6026 L 4267.8514 3497.4626 M 4268.6714 3494.6026 L 4269.4914 3497.4626 M 4270.3114 3494.6026 L 4269.4914 3497.4626 M 4271.6614 3493.1726 L 4271.6614 3497.4626 M 4271.6614 3493.1726 L 4273.5014 3493.1726 L 4274.1114 3493.3726 L 4274.3114 3493.5826 L 4274.5214 3493.9926 L 4274.5214 3494.6026 L 4274.3114 3495.0126 L 4274.1114 3495.2126 L 4273.5014 3495.4226 L 4271.6614 3495.4226 M 4275.8714 3494.6026 L 4275.8714 3497.4626 M 4275.8714 3495.8326 L 4276.0714 3495.2126 L 4276.4814 3494.8126 L 4276.8914 3494.6026 L 4277.5114 3494.6026 M 4279.8814 3494.6026 L 4279.4714 3494.8126 L 4279.0614 3495.2126 L 4278.8614 3495.8326 L 4278.8614 3496.2426 L 4279.0614 3496.8526 L 4279.4714 3497.2626 L 4279.8814 3497.4626 L 4280.4914 3497.4626 L 4280.9014 3497.2626 L 4281.3114 3496.8526 L 4281.5114 3496.2426 L 4281.5114 3495.8326 L 4281.3114 3495.2126 L 4280.9014 3494.8126 L 4280.4914 3494.6026 L 4279.8814 3494.6026 M 4284.5014 3493.1726 L 4284.0914 3493.1726 L 4283.6814 3493.3726 L 4283.4814 3493.9926 L 4283.4814 3497.4626 M 4282.8614 3494.6026 L 4284.3014 3494.6026 M 4285.8514 3493.1726 L 4286.0614 3493.3726 L 4286.2614 3493.1726 L 4286.0614 3492.9626 L 4285.8514 3493.1726 M 4286.0614 3494.6026 L 4286.0614 3497.4626 M 4287.6114 3493.1726 L 4287.6114 3497.4626 M 4288.9614 3495.8326 L 4291.4114 3495.8326 L 4291.4114 3495.4226 L 4291.2114 3495.0126 L 4291.0114 3494.8126 L 4290.6014 3494.6026 L 4289.9814 3494.6026 L 4289.5714 3494.8126 L 4289.1614 3495.2126 L 4288.9614 3495.8326 L 4288.9614 3496.2426 L 4289.1614 3496.8526 L 4289.5714 3497.2626 L 4289.9814 3497.4626 L 4290.6014 3497.4626 L 4291.0114 3497.2626 L 4291.4114 3496.8526 M 4293.9914 3493.1726 L 4293.5814 3493.3726 L 4293.1714 3493.7826 L 4292.9714 3494.1926 L 4292.7614 3494.8126 L 4292.7614 3495.8326 L 4292.9714 3496.4426 L 4293.1714 3496.8526 L 4293.5814 3497.2626 L 4293.9914 3497.4626 L 4294.8114 3497.4626 L 4295.2214 3497.2626 L 4295.6314 3496.8526 L 4295.8314 3496.4426 L 4296.0414 3495.8326 L 4296.0414 3494.8126 L 4295.8314 3494.1926 L 4295.6314 3493.7826 L 4295.2214 3493.3726 L 4294.8114 3493.1726 L 4293.9914 3493.1726 M 4297.3914 3493.1726 L 4297.3914 3497.4626 M 4300.2514 3493.1726 L 4297.3914 3496.0326 M 4298.4114 3495.0126 L 4300.2514 3497.4626" fill="none" stroke-width="0.6" c_note="note_name" style=""/></g><g c_partid="part_pcbtext" c_etype="" c_origin="4228.661,3504.713" c_rotation="0" c_mirror="0" id="gge33_3" locked="0" layerid="3" c_shapetype="group"><path c_fontsize="4.5" c_fontfamily="" c_text="U2" d="M 4228.6614 3500.1726 L 4228.6614 3503.2426 L 4228.8614 3503.8526 L 4229.2714 3504.2626 L 4229.8914 3504.4626 L 4230.3014 3504.4626 L 4230.9114 3504.2626 L 4231.3214 3503.8526 L 4231.5214 3503.2426 L 4231.5214 3500.1726 M 4233.0814 3501.1926 L 4233.0814 3500.9926 L 4233.2814 3500.5826 L 4233.4914 3500.3726 L 4233.9014 3500.1726 L 4234.7114 3500.1726 L 4235.1214 3500.3726 L 4235.3314 3500.5826 L 4235.5314 3500.9926 L 4235.5314 3501.4026 L 4235.3314 3501.8126 L 4234.9214 3502.4226 L 4232.8714 3504.4626 L 4235.7414 3504.4626" fill="none" stroke-width="0.6" c_note="note_pre" style=""/></g><g c_partid="part_pcbtext" c_etype="" c_origin="4323.15,3497.713" c_rotation="0" c_mirror="0" id="gge59_3" locked="0" layerid="3" c_shapetype="group" display="none"><path c_fontsize="4.5" c_fontfamily="" c_text="KailhChocLowProfileOK" d="M 4323.1496 3493.1726 L 4323.1496 3497.4626 M 4326.0096 3493.1726 L 4323.1496 3496.0326 M 4324.1696 3495.0126 L 4326.0096 3497.4626 M 4329.8196 3494.6026 L 4329.8196 3497.4626 M 4329.8196 3495.2126 L 4329.4096 3494.8126 L 4328.9996 3494.6026 L 4328.3896 3494.6026 L 4327.9796 3494.8126 L 4327.5696 3495.2126 L 4327.3596 3495.8326 L 4327.3596 3496.2426 L 4327.5696 3496.8526 L 4327.9796 3497.2626 L 4328.3896 3497.4626 L 4328.9996 3497.4626 L 4329.4096 3497.2626 L 4329.8196 3496.8526 M 4331.1696 3493.1726 L 4331.3696 3493.3726 L 4331.5796 3493.1726 L 4331.3696 3492.9626 L 4331.1696 3493.1726 M 4331.3696 3494.6026 L 4331.3696 3497.4626 M 4332.9296 3493.1726 L 4332.9296 3497.4626 M 4334.2796 3493.1726 L 4334.2796 3497.4626 M 4334.2796 3495.4226 L 4334.8896 3494.8126 L 4335.2996 3494.6026 L 4335.9096 3494.6026 L 4336.3196 3494.8126 L 4336.5296 3495.4226 L 4336.5296 3497.4626 M 4340.9496 3494.1926 L 4340.7396 3493.7826 L 4340.3296 3493.3726 L 4339.9196 3493.1726 L 4339.0996 3493.1726 L 4338.6996 3493.3726 L 4338.2896 3493.7826 L 4338.0796 3494.1926 L 4337.8796 3494.8126 L 4337.8796 3495.8326 L 4338.0796 3496.4426 L 4338.2896 3496.8526 L 4338.6996 3497.2626 L 4339.0996 3497.4626 L 4339.9196 3497.4626 L 4340.3296 3497.2626 L 4340.7396 3496.8526 L 4340.9496 3496.4426 M 4342.2996 3493.1726 L 4342.2996 3497.4626 M 4342.2996 3495.4226 L 4342.9096 3494.8126 L 4343.3196 3494.6026 L 4343.9296 3494.6026 L 4344.3396 3494.8126 L 4344.5496 3495.4226 L 4344.5496 3497.4626 M 4346.9196 3494.6026 L 4346.5096 3494.8126 L 4346.0996 3495.2126 L 4345.8996 3495.8326 L 4345.8996 3496.2426 L 4346.0996 3496.8526 L 4346.5096 3497.2626 L 4346.9196 3497.4626 L 4347.5296 3497.4626 L 4347.9396 3497.2626 L 4348.3496 3496.8526 L 4348.5496 3496.2426 L 4348.5496 3495.8326 L 4348.3496 3495.2126 L 4347.9396 3494.8126 L 4347.5296 3494.6026 L 4346.9196 3494.6026 M 4352.3596 3495.2126 L 4351.9496 3494.8126 L 4351.5396 3494.6026 L 4350.9296 3494.6026 L 4350.5196 3494.8126 L 4350.1096 3495.2126 L 4349.8996 3495.8326 L 4349.8996 3496.2426 L 4350.1096 3496.8526 L 4350.5196 3497.2626 L 4350.9296 3497.4626 L 4351.5396 3497.4626 L 4351.9496 3497.2626 L 4352.3596 3496.8526 M 4353.7096 3493.1726 L 4353.7096 3497.4626 M 4353.7096 3497.4626 L 4356.1596 3497.4626 M 4358.5396 3494.6026 L 4358.1296 3494.8126 L 4357.7196 3495.2126 L 4357.5096 3495.8326 L 4357.5096 3496.2426 L 4357.7196 3496.8526 L 4358.1296 3497.2626 L 4358.5396 3497.4626 L 4359.1496 3497.4626 L 4359.5596 3497.2626 L 4359.9696 3496.8526 L 4360.1696 3496.2426 L 4360.1696 3495.8326 L 4359.9696 3495.2126 L 4359.5596 3494.8126 L 4359.1496 3494.6026 L 4358.5396 3494.6026 M 4361.5196 3494.6026 L 4362.3396 3497.4626 M 4363.1596 3494.6026 L 4362.3396 3497.4626 M 4363.1596 3494.6026 L 4363.9796 3497.4626 M 4364.7996 3494.6026 L 4363.9796 3497.4626 M 4366.1496 3493.1726 L 4366.1496 3497.4626 M 4366.1496 3493.1726 L 4367.9896 3493.1726 L 4368.5996 3493.3726 L 4368.7996 3493.5826 L 4369.0096 3493.9926 L 4369.0096 3494.6026 L 4368.7996 3495.0126 L 4368.5996 3495.2126 L 4367.9896 3495.4226 L 4366.1496 3495.4226 M 4370.3596 3494.6026 L 4370.3596 3497.4626 M 4370.3596 3495.8326 L 4370.5596 3495.2126 L 4370.9696 3494.8126 L 4371.3796 3494.6026 L 4371.9996 3494.6026 M 4374.3696 3494.6026 L 4373.9596 3494.8126 L 4373.5496 3495.2126 L 4373.3496 3495.8326 L 4373.3496 3496.2426 L 4373.5496 3496.8526 L 4373.9596 3497.2626 L 4374.3696 3497.4626 L 4374.9796 3497.4626 L 4375.3896 3497.2626 L 4375.7996 3496.8526 L 4375.9996 3496.2426 L 4375.9996 3495.8326 L 4375.7996 3495.2126 L 4375.3896 3494.8126 L 4374.9796 3494.6026 L 4374.3696 3494.6026 M 4378.9896 3493.1726 L 4378.5796 3493.1726 L 4378.1696 3493.3726 L 4377.9696 3493.9926 L 4377.9696 3497.4626 M 4377.3496 3494.6026 L 4378.7896 3494.6026 M 4380.3396 3493.1726 L 4380.5496 3493.3726 L 4380.7496 3493.1726 L 4380.5496 3492.9626 L 4380.3396 3493.1726 M 4380.5496 3494.6026 L 4380.5496 3497.4626 M 4382.0996 3493.1726 L 4382.0996 3497.4626 M 4383.4496 3495.8326 L 4385.8996 3495.8326 L 4385.8996 3495.4226 L 4385.6996 3495.0126 L 4385.4996 3494.8126 L 4385.0896 3494.6026 L 4384.4696 3494.6026 L 4384.0596 3494.8126 L 4383.6496 3495.2126 L 4383.4496 3495.8326 L 4383.4496 3496.2426 L 4383.6496 3496.8526 L 4384.0596 3497.2626 L 4384.4696 3497.4626 L 4385.0896 3497.4626 L 4385.4996 3497.2626 L 4385.8996 3496.8526 M 4388.4796 3493.1726 L 4388.0696 3493.3726 L 4387.6596 3493.7826 L 4387.4596 3494.1926 L 4387.2496 3494.8126 L 4387.2496 3495.8326 L 4387.4596 3496.4426 L 4387.6596 3496.8526 L 4388.0696 3497.2626 L 4388.4796 3497.4626 L 4389.2996 3497.4626 L 4389.7096 3497.2626 L 4390.1196 3496.8526 L 4390.3196 3496.4426 L 4390.5296 3495.8326 L 4390.5296 3494.8126 L 4390.3196 3494.1926 L 4390.1196 3493.7826 L 4389.7096 3493.3726 L 4389.2996 3493.1726 L 4388.4796 3493.1726 M 4391.8796 3493.1726 L 4391.8796 3497.4626 M 4394.7396 3493.1726 L 4391.8796 3496.0326 M 4392.8996 3495.0126 L 4394.7396 3497.4626" fill="none" stroke-width="0.6" c_note="note_name" style=""/></g><g c_partid="part_pcbtext" c_etype="" c_origin="4323.15,3504.713" c_rotation="0" c_mirror="0" id="gge61_3" locked="0" layerid="3" c_shapetype="group"><path c_fontsize="4.5" c_fontfamily="" c_text="U3" d="M 4323.1496 3500.1726 L 4323.1496 3503.2426 L 4323.3496 3503.8526 L 4323.7596 3504.2626 L 4324.3796 3504.4626 L 4324.7896 3504.4626 L 4325.3996 3504.2626 L 4325.8096 3503.8526 L 4326.0096 3503.2426 L 4326.0096 3500.1726 M 4327.7696 3500.1726 L 4330.0196 3500.1726 L 4328.7996 3501.8126 L 4329.4096 3501.8126 L 4329.8196 3502.0126 L 4330.0196 3502.2126 L 4330.2296 3502.8326 L 4330.2296 3503.2426 L 4330.0196 3503.8526 L 4329.6096 3504.2626 L 4328.9996 3504.4626 L 4328.3896 3504.4626 L 4327.7696 3504.2626 L 4327.5696 3504.0626 L 4327.3596 3503.6526" fill="none" stroke-width="0.6" c_note="note_pre" style=""/></g><g c_partid="part_pcbtext" c_etype="" c_origin="4417.638,3497.713" c_rotation="0" c_mirror="0" id="gge87_3" locked="0" layerid="3" c_shapetype="group" display="none"><path c_fontsize="4.5" c_fontfamily="" c_text="KailhChocLowProfileOK" d="M 4417.6378 3493.1726 L 4417.6378 3497.4626 M 4420.4978 3493.1726 L 4417.6378 3496.0326 M 4418.6578 3495.0126 L 4420.4978 3497.4626 M 4424.3078 3494.6026 L 4424.3078 3497.4626 M 4424.3078 3495.2126 L 4423.8978 3494.8126 L 4423.4878 3494.6026 L 4422.8778 3494.6026 L 4422.4678 3494.8126 L 4422.0578 3495.2126 L 4421.8478 3495.8326 L 4421.8478 3496.2426 L 4422.0578 3496.8526 L 4422.4678 3497.2626 L 4422.8778 3497.4626 L 4423.4878 3497.4626 L 4423.8978 3497.2626 L 4424.3078 3496.8526 M 4425.6578 3493.1726 L 4425.8578 3493.3726 L 4426.0678 3493.1726 L 4425.8578 3492.9626 L 4425.6578 3493.1726 M 4425.8578 3494.6026 L 4425.8578 3497.4626 M 4427.4178 3493.1726 L 4427.4178 3497.4626 M 4428.7678 3493.1726 L 4428.7678 3497.4626 M 4428.7678 3495.4226 L 4429.3778 3494.8126 L 4429.7878 3494.6026 L 4430.3978 3494.6026 L 4430.8078 3494.8126 L 4431.0178 3495.4226 L 4431.0178 3497.4626 M 4435.4378 3494.1926 L 4435.2278 3493.7826 L 4434.8178 3493.3726 L 4434.4078 3493.1726 L 4433.5878 3493.1726 L 4433.1878 3493.3726 L 4432.7778 3493.7826 L 4432.5678 3494.1926 L 4432.3678 3494.8126 L 4432.3678 3495.8326 L 4432.5678 3496.4426 L 4432.7778 3496.8526 L 4433.1878 3497.2626 L 4433.5878 3497.4626 L 4434.4078 3497.4626 L 4434.8178 3497.2626 L 4435.2278 3496.8526 L 4435.4378 3496.4426 M 4436.7878 3493.1726 L 4436.7878 3497.4626 M 4436.7878 3495.4226 L 4437.3978 3494.8126 L 4437.8078 3494.6026 L 4438.4178 3494.6026 L 4438.8278 3494.8126 L 4439.0378 3495.4226 L 4439.0378 3497.4626 M 4441.4078 3494.6026 L 4440.9978 3494.8126 L 4440.5878 3495.2126 L 4440.3878 3495.8326 L 4440.3878 3496.2426 L 4440.5878 3496.8526 L 4440.9978 3497.2626 L 4441.4078 3497.4626 L 4442.0178 3497.4626 L 4442.4278 3497.2626 L 4442.8378 3496.8526 L 4443.0378 3496.2426 L 4443.0378 3495.8326 L 4442.8378 3495.2126 L 4442.4278 3494.8126 L 4442.0178 3494.6026 L 4441.4078 3494.6026 M 4446.8478 3495.2126 L 4446.4378 3494.8126 L 4446.0278 3494.6026 L 4445.4178 3494.6026 L 4445.0078 3494.8126 L 4444.5978 3495.2126 L 4444.3878 3495.8326 L 4444.3878 3496.2426 L 4444.5978 3496.8526 L 4445.0078 3497.2626 L 4445.4178 3497.4626 L 4446.0278 3497.4626 L 4446.4378 3497.2626 L 4446.8478 3496.8526 M 4448.1978 3493.1726 L 4448.1978 3497.4626 M 4448.1978 3497.4626 L 4450.6478 3497.4626 M 4453.0278 3494.6026 L 4452.6178 3494.8126 L 4452.2078 3495.2126 L 4451.9978 3495.8326 L 4451.9978 3496.2426 L 4452.2078 3496.8526 L 4452.6178 3497.2626 L 4453.0278 3497.4626 L 4453.6378 3497.4626 L 4454.0478 3497.2626 L 4454.4578 3496.8526 L 4454.6578 3496.2426 L 4454.6578 3495.8326 L 4454.4578 3495.2126 L 4454.0478 3494.8126 L 4453.6378 3494.6026 L 4453.0278 3494.6026 M 4456.0078 3494.6026 L 4456.8278 3497.4626 M 4457.6478 3494.6026 L 4456.8278 3497.4626 M 4457.6478 3494.6026 L 4458.4678 3497.4626 M 4459.2878 3494.6026 L 4458.4678 3497.4626 M 4460.6378 3493.1726 L 4460.6378 3497.4626 M 4460.6378 3493.1726 L 4462.4778 3493.1726 L 4463.0878 3493.3726 L 4463.2878 3493.5826 L 4463.4978 3493.9926 L 4463.4978 3494.6026 L 4463.2878 3495.0126 L 4463.0878 3495.2126 L 4462.4778 3495.4226 L 4460.6378 3495.4226 M 4464.8478 3494.6026 L 4464.8478 3497.4626 M 4464.8478 3495.8326 L 4465.0478 3495.2126 L 4465.4578 3494.8126 L 4465.8678 3494.6026 L 4466.4878 3494.6026 M 4468.8578 3494.6026 L 4468.4478 3494.8126 L 4468.0378 3495.2126 L 4467.8378 3495.8326 L 4467.8378 3496.2426 L 4468.0378 3496.8526 L 4468.4478 3497.2626 L 4468.8578 3497.4626 L 4469.4678 3497.4626 L 4469.8778 3497.2626 L 4470.2878 3496.8526 L 4470.4878 3496.2426 L 4470.4878 3495.8326 L 4470.2878 3495.2126 L 4469.8778 3494.8126 L 4469.4678 3494.6026 L 4468.8578 3494.6026 M 4473.4778 3493.1726 L 4473.0678 3493.1726 L 4472.6578 3493.3726 L 4472.4578 3493.9926 L 4472.4578 3497.4626 M 4471.8378 3494.6026 L 4473.2778 3494.6026 M 4474.8278 3493.1726 L 4475.0378 3493.3726 L 4475.2378 3493.1726 L 4475.0378 3492.9626 L 4474.8278 3493.1726 M 4475.0378 3494.6026 L 4475.0378 3497.4626 M 4476.5878 3493.1726 L 4476.5878 3497.4626 M 4477.9378 3495.8326 L 4480.3878 3495.8326 L 4480.3878 3495.4226 L 4480.1878 3495.0126 L 4479.9878 3494.8126 L 4479.5778 3494.6026 L 4478.9578 3494.6026 L 4478.5478 3494.8126 L 4478.1378 3495.2126 L 4477.9378 3495.8326 L 4477.9378 3496.2426 L 4478.1378 3496.8526 L 4478.5478 3497.2626 L 4478.9578 3497.4626 L 4479.5778 3497.4626 L 4479.9878 3497.2626 L 4480.3878 3496.8526 M 4482.9678 3493.1726 L 4482.5578 3493.3726 L 4482.1478 3493.7826 L 4481.9478 3494.1926 L 4481.7378 3494.8126 L 4481.7378 3495.8326 L 4481.9478 3496.4426 L 4482.1478 3496.8526 L 4482.5578 3497.2626 L 4482.9678 3497.4626 L 4483.7878 3497.4626 L 4484.1978 3497.2626 L 4484.6078 3496.8526 L 4484.8078 3496.4426 L 4485.0178 3495.8326 L 4485.0178 3494.8126 L 4484.8078 3494.1926 L 4484.6078 3493.7826 L 4484.1978 3493.3726 L 4483.7878 3493.1726 L 4482.9678 3493.1726 M 4486.3678 3493.1726 L 4486.3678 3497.4626 M 4489.2278 3493.1726 L 4486.3678 3496.0326 M 4487.3878 3495.0126 L 4489.2278 3497.4626" fill="none" stroke-width="0.6" c_note="note_name" style=""/></g><g c_partid="part_pcbtext" c_etype="" c_origin="4417.638,3504.713" c_rotation="0" c_mirror="0" id="gge89_3" locked="0" layerid="3" c_shapetype="group"><path c_fontsize="4.5" c_fontfamily="" c_text="U4" d="M 4417.6378 3500.1726 L 4417.6378 3503.2426 L 4417.8378 3503.8526 L 4418.2478 3504.2626 L 4418.8678 3504.4626 L 4419.2778 3504.4626 L 4419.8878 3504.2626 L 4420.2978 3503.8526 L 4420.4978 3503.2426 L 4420.4978 3500.1726 M 4423.8978 3500.1726 L 4421.8478 3503.0326 L 4424.9178 3503.0326 M 4423.8978 3500.1726 L 4423.8978 3504.4626" fill="none" stroke-width="0.6" c_note="note_pre" style=""/></g><g c_partid="part_pcbtext" c_etype="" c_origin="4512.126,3497.713" c_rotation="0" c_mirror="0" id="gge115_3" locked="0" layerid="3" c_shapetype="group" display="none"><path c_fontsize="4.5" c_fontfamily="" c_text="KailhChocLowProfileOK" d="M 4512.126 3493.1726 L 4512.126 3497.4626 M 4514.986 3493.1726 L 4512.126 3496.0326 M 4513.146 3495.0126 L 4514.986 3497.4626 M 4518.796 3494.6026 L 4518.796 3497.4626 M 4518.796 3495.2126 L 4518.386 3494.8126 L 4517.976 3494.6026 L 4517.366 3494.6026 L 4516.956 3494.8126 L 4516.546 3495.2126 L 4516.336 3495.8326 L 4516.336 3496.2426 L 4516.546 3496.8526 L 4516.956 3497.2626 L 4517.366 3497.4626 L 4517.976 3497.4626 L 4518.386 3497.2626 L 4518.796 3496.8526 M 4520.146 3493.1726 L 4520.346 3493.3726 L 4520.556 3493.1726 L 4520.346 3492.9626 L 4520.146 3493.1726 M 4520.346 3494.6026 L 4520.346 3497.4626 M 4521.906 3493.1726 L 4521.906 3497.4626 M 4523.256 3493.1726 L 4523.256 3497.4626 M 4523.256 3495.4226 L 4523.866 3494.8126 L 4524.276 3494.6026 L 4524.886 3494.6026 L 4525.296 3494.8126 L 4525.506 3495.4226 L 4525.506 3497.4626 M 4529.926 3494.1926 L 4529.716 3493.7826 L 4529.306 3493.3726 L 4528.896 3493.1726 L 4528.076 3493.1726 L 4527.676 3493.3726 L 4527.266 3493.7826 L 4527.056 3494.1926 L 4526.856 3494.8126 L 4526.856 3495.8326 L 4527.056 3496.4426 L 4527.266 3496.8526 L 4527.676 3497.2626 L 4528.076 3497.4626 L 4528.896 3497.4626 L 4529.306 3497.2626 L 4529.716 3496.8526 L 4529.926 3496.4426 M 4531.276 3493.1726 L 4531.276 3497.4626 M 4531.276 3495.4226 L 4531.886 3494.8126 L 4532.296 3494.6026 L 4532.906 3494.6026 L 4533.316 3494.8126 L 4533.526 3495.4226 L 4533.526 3497.4626 M 4535.896 3494.6026 L 4535.486 3494.8126 L 4535.076 3495.2126 L 4534.876 3495.8326 L 4534.876 3496.2426 L 4535.076 3496.8526 L 4535.486 3497.2626 L 4535.896 3497.4626 L 4536.506 3497.4626 L 4536.916 3497.2626 L 4537.326 3496.8526 L 4537.526 3496.2426 L 4537.526 3495.8326 L 4537.326 3495.2126 L 4536.916 3494.8126 L 4536.506 3494.6026 L 4535.896 3494.6026 M 4541.336 3495.2126 L 4540.926 3494.8126 L 4540.516 3494.6026 L 4539.906 3494.6026 L 4539.496 3494.8126 L 4539.086 3495.2126 L 4538.876 3495.8326 L 4538.876 3496.2426 L 4539.086 3496.8526 L 4539.496 3497.2626 L 4539.906 3497.4626 L 4540.516 3497.4626 L 4540.926 3497.2626 L 4541.336 3496.8526 M 4542.686 3493.1726 L 4542.686 3497.4626 M 4542.686 3497.4626 L 4545.136 3497.4626 M 4547.516 3494.6026 L 4547.106 3494.8126 L 4546.696 3495.2126 L 4546.486 3495.8326 L 4546.486 3496.2426 L 4546.696 3496.8526 L 4547.106 3497.2626 L 4547.516 3497.4626 L 4548.126 3497.4626 L 4548.536 3497.2626 L 4548.946 3496.8526 L 4549.146 3496.2426 L 4549.146 3495.8326 L 4548.946 3495.2126 L 4548.536 3494.8126 L 4548.126 3494.6026 L 4547.516 3494.6026 M 4550.496 3494.6026 L 4551.316 3497.4626 M 4552.136 3494.6026 L 4551.316 3497.4626 M 4552.136 3494.6026 L 4552.956 3497.4626 M 4553.776 3494.6026 L 4552.956 3497.4626 M 4555.126 3493.1726 L 4555.126 3497.4626 M 4555.126 3493.1726 L 4556.966 3493.1726 L 4557.576 3493.3726 L 4557.776 3493.5826 L 4557.986 3493.9926 L 4557.986 3494.6026 L 4557.776 3495.0126 L 4557.576 3495.2126 L 4556.966 3495.4226 L 4555.126 3495.4226 M 4559.336 3494.6026 L 4559.336 3497.4626 M 4559.336 3495.8326 L 4559.536 3495.2126 L 4559.946 3494.8126 L 4560.356 3494.6026 L 4560.976 3494.6026 M 4563.346 3494.6026 L 4562.936 3494.8126 L 4562.526 3495.2126 L 4562.326 3495.8326 L 4562.326 3496.2426 L 4562.526 3496.8526 L 4562.936 3497.2626 L 4563.346 3497.4626 L 4563.956 3497.4626 L 4564.366 3497.2626 L 4564.776 3496.8526 L 4564.976 3496.2426 L 4564.976 3495.8326 L 4564.776 3495.2126 L 4564.366 3494.8126 L 4563.956 3494.6026 L 4563.346 3494.6026 M 4567.966 3493.1726 L 4567.556 3493.1726 L 4567.146 3493.3726 L 4566.946 3493.9926 L 4566.946 3497.4626 M 4566.326 3494.6026 L 4567.766 3494.6026 M 4569.316 3493.1726 L 4569.526 3493.3726 L 4569.726 3493.1726 L 4569.526 3492.9626 L 4569.316 3493.1726 M 4569.526 3494.6026 L 4569.526 3497.4626 M 4571.076 3493.1726 L 4571.076 3497.4626 M 4572.426 3495.8326 L 4574.876 3495.8326 L 4574.876 3495.4226 L 4574.676 3495.0126 L 4574.476 3494.8126 L 4574.066 3494.6026 L 4573.446 3494.6026 L 4573.036 3494.8126 L 4572.626 3495.2126 L 4572.426 3495.8326 L 4572.426 3496.2426 L 4572.626 3496.8526 L 4573.036 3497.2626 L 4573.446 3497.4626 L 4574.066 3497.4626 L 4574.476 3497.2626 L 4574.876 3496.8526 M 4577.456 3493.1726 L 4577.046 3493.3726 L 4576.636 3493.7826 L 4576.436 3494.1926 L 4576.226 3494.8126 L 4576.226 3495.8326 L 4576.436 3496.4426 L 4576.636 3496.8526 L 4577.046 3497.2626 L 4577.456 3497.4626 L 4578.276 3497.4626 L 4578.686 3497.2626 L 4579.096 3496.8526 L 4579.296 3496.4426 L 4579.506 3495.8326 L 4579.506 3494.8126 L 4579.296 3494.1926 L 4579.096 3493.7826 L 4578.686 3493.3726 L 4578.276 3493.1726 L 4577.456 3493.1726 M 4580.856 3493.1726 L 4580.856 3497.4626 M 4583.716 3493.1726 L 4580.856 3496.0326 M 4581.876 3495.0126 L 4583.716 3497.4626" fill="none" stroke-width="0.6" c_note="note_name" style=""/></g><g c_partid="part_pcbtext" c_etype="" c_origin="4512.126,3504.713" c_rotation="0" c_mirror="0" id="gge117_3" locked="0" layerid="3" c_shapetype="group"><path c_fontsize="4.5" c_fontfamily="" c_text="U5" d="M 4512.126 3500.1726 L 4512.126 3503.2426 L 4512.326 3503.8526 L 4512.736 3504.2626 L 4513.356 3504.4626 L 4513.766 3504.4626 L 4514.376 3504.2626 L 4514.786 3503.8526 L 4514.986 3503.2426 L 4514.986 3500.1726 M 4518.796 3500.1726 L 4516.746 3500.1726 L 4516.546 3502.0126 L 4516.746 3501.8126 L 4517.366 3501.6026 L 4517.976 3501.6026 L 4518.586 3501.8126 L 4518.996 3502.2126 L 4519.206 3502.8326 L 4519.206 3503.2426 L 4518.996 3503.8526 L 4518.586 3504.2626 L 4517.976 3504.4626 L 4517.366 3504.4626 L 4516.746 3504.2626 L 4516.546 3504.0626 L 4516.336 3503.6526" fill="none" stroke-width="0.6" c_note="note_pre" style=""/></g><g c_partid="part_pcbtext" c_etype="" c_origin="4021.5,3515.5" c_rotation="90" c_mirror="0" id="gge143_3" locked="0" layerid="3" c_shapetype="group" display="none"><path c_fontsize="4.5" c_fontfamily="" c_text="Header_Female_1X6_2.54mm" d="M 4016.96 3515.5 L 4021.25 3515.5 M 4016.96 3512.64 L 4021.25 3512.64 M 4019 3515.5 L 4019 3512.64 M 4019.62 3511.29 L 4019.62 3508.83 L 4019.21 3508.83 L 4018.8 3509.04 L 4018.6 3509.24 L 4018.39 3509.65 L 4018.39 3510.26 L 4018.6 3510.67 L 4019 3511.08 L 4019.62 3511.29 L 4020.03 3511.29 L 4020.64 3511.08 L 4021.05 3510.67 L 4021.25 3510.26 L 4021.25 3509.65 L 4021.05 3509.24 L 4020.64 3508.83 M 4018.39 3505.03 L 4021.25 3505.03 M 4019 3505.03 L 4018.6 3505.44 L 4018.39 3505.85 L 4018.39 3506.46 L 4018.6 3506.87 L 4019 3507.28 L 4019.62 3507.48 L 4020.03 3507.48 L 4020.64 3507.28 L 4021.05 3506.87 L 4021.25 3506.46 L 4021.25 3505.85 L 4021.05 3505.44 L 4020.64 3505.03 M 4016.96 3501.22 L 4021.25 3501.22 M 4019 3501.22 L 4018.6 3501.63 L 4018.39 3502.04 L 4018.39 3502.65 L 4018.6 3503.06 L 4019 3503.47 L 4019.62 3503.68 L 4020.03 3503.68 L 4020.64 3503.47 L 4021.05 3503.06 L 4021.25 3502.65 L 4021.25 3502.04 L 4021.05 3501.63 L 4020.64 3501.22 M 4019.62 3499.87 L 4019.62 3497.42 L 4019.21 3497.42 L 4018.8 3497.62 L 4018.6 3497.83 L 4018.39 3498.24 L 4018.39 3498.85 L 4018.6 3499.26 L 4019 3499.67 L 4019.62 3499.87 L 4020.03 3499.87 L 4020.64 3499.67 L 4021.05 3499.26 L 4021.25 3498.85 L 4021.25 3498.24 L 4021.05 3497.83 L 4020.64 3497.42 M 4018.39 3496.07 L 4021.25 3496.07 M 4019.62 3496.07 L 4019 3495.86 L 4018.6 3495.45 L 4018.39 3495.05 L 4018.39 3494.43 M 4022.69 3493.08 L 4022.69 3489.4 M 4016.96 3488.05 L 4021.25 3488.05 M 4016.96 3488.05 L 4016.96 3485.39 M 4019 3488.05 L 4019 3486.41 M 4019.62 3484.04 L 4019.62 3481.59 L 4019.21 3481.59 L 4018.8 3481.79 L 4018.6 3482 L 4018.39 3482.4 L 4018.39 3483.02 L 4018.6 3483.43 L 4019 3483.84 L 4019.62 3484.04 L 4020.03 3484.04 L 4020.64 3483.84 L 4021.05 3483.43 L 4021.25 3483.02 L 4021.25 3482.4 L 4021.05 3482 L 4020.64 3481.59 M 4018.39 3480.24 L 4021.25 3480.24 M 4019.21 3480.24 L 4018.6 3479.62 L 4018.39 3479.21 L 4018.39 3478.6 L 4018.6 3478.19 L 4019.21 3477.99 L 4021.25 3477.99 M 4019.21 3477.99 L 4018.6 3477.37 L 4018.39 3476.96 L 4018.39 3476.35 L 4018.6 3475.94 L 4019.21 3475.74 L 4021.25 3475.74 M 4018.39 3471.93 L 4021.25 3471.93 M 4019 3471.93 L 4018.6 3472.34 L 4018.39 3472.75 L 4018.39 3473.36 L 4018.6 3473.77 L 4019 3474.18 L 4019.62 3474.39 L 4020.03 3474.39 L 4020.64 3474.18 L 4021.05 3473.77 L 4021.25 3473.36 L 4021.25 3472.75 L 4021.05 3472.34 L 4020.64 3471.93 M 4016.96 3470.58 L 4021.25 3470.58 M 4019.62 3469.23 L 4019.62 3466.78 L 4019.21 3466.78 L 4018.8 3466.98 L 4018.6 3467.19 L 4018.39 3467.6 L 4018.39 3468.21 L 4018.6 3468.62 L 4019 3469.03 L 4019.62 3469.23 L 4020.03 3469.23 L 4020.64 3469.03 L 4021.05 3468.62 L 4021.25 3468.21 L 4021.25 3467.6 L 4021.05 3467.19 L 4020.64 3466.78 M 4022.69 3465.43 L 4022.69 3461.75 M 4017.78 3460.4 L 4017.57 3459.99 L 4016.96 3459.37 L 4021.25 3459.37 M 4016.96 3458.02 L 4021.25 3455.16 M 4016.96 3455.16 L 4021.25 3458.02 M 4017.57 3451.35 L 4017.16 3451.56 L 4016.96 3452.17 L 4016.96 3452.58 L 4017.16 3453.2 L 4017.78 3453.6 L 4018.8 3453.81 L 4019.82 3453.81 L 4020.64 3453.6 L 4021.05 3453.2 L 4021.25 3452.58 L 4021.25 3452.38 L 4021.05 3451.76 L 4020.64 3451.35 L 4020.03 3451.15 L 4019.82 3451.15 L 4019.21 3451.35 L 4018.8 3451.76 L 4018.6 3452.38 L 4018.6 3452.58 L 4018.8 3453.2 L 4019.21 3453.6 L 4019.82 3453.81 M 4022.69 3449.8 L 4022.69 3446.12 M 4017.98 3444.56 L 4017.78 3444.56 L 4017.37 3444.36 L 4017.16 3444.15 L 4016.96 3443.75 L 4016.96 3442.93 L 4017.16 3442.52 L 4017.37 3442.31 L 4017.78 3442.11 L 4018.19 3442.11 L 4018.6 3442.31 L 4019.21 3442.72 L 4021.25 3444.77 L 4021.25 3441.9 M 4020.23 3440.35 L 4020.44 3440.55 L 4020.64 3440.35 L 4020.44 3440.15 L 4020.23 3440.35 M 4016.96 3436.34 L 4016.96 3438.39 L 4018.8 3438.59 L 4018.6 3438.39 L 4018.39 3437.77 L 4018.39 3437.16 L 4018.6 3436.55 L 4019 3436.14 L 4019.62 3435.93 L 4020.03 3435.93 L 4020.64 3436.14 L 4021.05 3436.55 L 4021.25 3437.16 L 4021.25 3437.77 L 4021.05 3438.39 L 4020.85 3438.59 L 4020.44 3438.8 M 4016.96 3432.54 L 4019.82 3434.58 L 4019.82 3431.51 M 4016.96 3432.54 L 4021.25 3432.54 M 4018.39 3430.16 L 4021.25 3430.16 M 4019.21 3430.16 L 4018.6 3429.55 L 4018.39 3429.14 L 4018.39 3428.53 L 4018.6 3428.12 L 4019.21 3427.91 L 4021.25 3427.91 M 4019.21 3427.91 L 4018.6 3427.3 L 4018.39 3426.89 L 4018.39 3426.28 L 4018.6 3425.87 L 4019.21 3425.66 L 4021.25 3425.66 M 4018.39 3424.31 L 4021.25 3424.31 M 4019.21 3424.31 L 4018.6 3423.7 L 4018.39 3423.29 L 4018.39 3422.68 L 4018.6 3422.27 L 4019.21 3422.06 L 4021.25 3422.06 M 4019.21 3422.06 L 4018.6 3421.45 L 4018.39 3421.04 L 4018.39 3420.43 L 4018.6 3420.02 L 4019.21 3419.81 L 4021.25 3419.81" fill="none" stroke-width="0.6" c_note="note_name" style=""/></g><g c_partid="part_pcbtext" c_etype="" c_origin="4028.5,3515.5" c_rotation="90" c_mirror="0" id="gge145_3" locked="0" layerid="3" c_shapetype="group"><path c_fontsize="4.5" c_fontfamily="" c_text="J2" d="M 4023.96 3513.45 L 4027.23 3513.45 L 4027.85 3513.66 L 4028.05 3513.86 L 4028.25 3514.27 L 4028.25 3514.68 L 4028.05 3515.09 L 4027.85 3515.3 L 4027.23 3515.5 L 4026.82 3515.5 M 4024.98 3511.9 L 4024.78 3511.9 L 4024.37 3511.7 L 4024.16 3511.49 L 4023.96 3511.08 L 4023.96 3510.26 L 4024.16 3509.85 L 4024.37 3509.65 L 4024.78 3509.45 L 4025.19 3509.45 L 4025.6 3509.65 L 4026.21 3510.06 L 4028.25 3512.1 L 4028.25 3509.24" fill="none" stroke-width="0.6" c_note="note_pre" style=""/></g><g c_partid="part_pcbtext" c_etype="pinpart" c_origin="4036.408,3546.992" c_rotation="90" c_mirror="0" id="gge151_3" locked="1" layerid="3" c_shapetype="group"><path c_fontsize="3.1496" c_fontfamily="" c_text="1" d="M 4031.5577 3546.992 L 4031.4177 3546.702 L 4030.9877 3546.272 L 4033.9977 3546.272" fill="none" stroke-width="0.8"/></g><polyline points="4030.4134 3483.4606 4040.5866 3483.4606" stroke-width="0.7283" c_shapetype="line" stroke-linecap="round" fill="none" layerid="3" net="" id="gge147_3" locked="1"/><polyline points="4030.4134 3543.5394 4030.4134 3483.4606" stroke-width="0.7283" c_shapetype="line" stroke-linecap="round" fill="none" layerid="3" net="" id="gge148_3" locked="1"/><polyline points="4040.5866 3543.5394 4040.5866 3483.4606" stroke-width="0.7283" c_shapetype="line" stroke-linecap="round" fill="none" layerid="3" net="" id="gge149_3" locked="1"/><polyline points="4030.4134 3543.5394 4040.5866 3543.5394" stroke-width="0.7283" c_shapetype="line" stroke-linecap="round" fill="none" layerid="3" net="" id="gge150_3" locked="1"/></g><path d="M4020 3562.9252,4020 3464.5,4551.4961 3464.5,4551.4961 3562.9252z" stroke="none" id="bottomBoardSolderReal" mask="url(#bottomBoardSolderMask)" fill="#0B3B0B" display="none"/><g id="bottomSignalReal" fill="#DCAA14" stroke="#DCAA14" display="none"><g c_partid="part_pad" c_etype="pinpart" layerid="11" id="gge19_11" c_origin="4153.858,3528.674" net="" c_rotation="0" c_width="6" c_height="6"><ellipse cx="4153.858" cy="3528.674" rx="3" ry="3" stroke-width="0" c_etype="pad_hole"/></g><g c_partid="part_pad" c_etype="pinpart" layerid="11" id="gge24_11" c_origin="4134.173,3536.941" net="" c_rotation="0" c_width="6" c_height="6"><ellipse cx="4134.173" cy="3536.941" rx="3" ry="3" stroke-width="0" c_etype="pad_hole"/></g><g c_partid="part_pad" c_etype="pinpart" layerid="11" id="gge47_11" c_origin="4248.346,3528.674" net="" c_rotation="0" c_width="6" c_height="6"><ellipse cx="4248.346" cy="3528.674" rx="3" ry="3" stroke-width="0" c_etype="pad_hole"/></g><g c_partid="part_pad" c_etype="pinpart" layerid="11" id="gge52_11" c_origin="4228.661,3536.941" net="" c_rotation="0" c_width="6" c_height="6"><ellipse cx="4228.661" cy="3536.941" rx="3" ry="3" stroke-width="0" c_etype="pad_hole"/></g><g c_partid="part_pad" c_etype="pinpart" layerid="11" id="gge75_11" c_origin="4342.835,3528.674" net="" c_rotation="0" c_width="6" c_height="6"><ellipse cx="4342.835" cy="3528.674" rx="3" ry="3" stroke-width="0" c_etype="pad_hole"/></g><g c_partid="part_pad" c_etype="pinpart" layerid="11" id="gge80_11" c_origin="4323.15,3536.941" net="" c_rotation="0" c_width="6" c_height="6"><ellipse cx="4323.15" cy="3536.941" rx="3" ry="3" stroke-width="0" c_etype="pad_hole"/></g><g c_partid="part_pad" c_etype="pinpart" layerid="11" id="gge103_11" c_origin="4437.323,3528.674" net="" c_rotation="0" c_width="6" c_height="6"><ellipse cx="4437.323" cy="3528.674" rx="3" ry="3" stroke-width="0" c_etype="pad_hole"/></g><g c_partid="part_pad" c_etype="pinpart" layerid="11" id="gge108_11" c_origin="4417.638,3536.941" net="" c_rotation="0" c_width="6" c_height="6"><ellipse cx="4417.638" cy="3536.941" rx="3" ry="3" stroke-width="0" c_etype="pad_hole"/></g><g c_partid="part_pad" c_etype="pinpart" layerid="11" id="gge131_11" c_origin="4531.811,3528.674" net="" c_rotation="0" c_width="6" c_height="6"><ellipse cx="4531.811" cy="3528.674" rx="3" ry="3" stroke-width="0" c_etype="pad_hole"/></g><g c_partid="part_pad" c_etype="pinpart" layerid="11" id="gge136_11" c_origin="4512.126,3536.941" net="" c_rotation="0" c_width="6" c_height="6"><ellipse cx="4512.126" cy="3536.941" rx="3" ry="3" stroke-width="0" c_etype="pad_hole"/></g><g c_partid="part_pad" c_etype="pinpart" layerid="11" id="gge153_11" c_origin="4035.5,3518.5" net="" c_rotation="90" c_width="6.6929" c_height="6.6929"><ellipse cx="4035.5" cy="3518.5" rx="3.34645" ry="3.34645" stroke-width="0" c_etype="pad_hole"/></g><g c_partid="part_pad" c_etype="pinpart" layerid="11" id="gge158_11" c_origin="4035.5,3528.5" net="" c_rotation="90" c_width="6.6929" c_height="6.6929"><ellipse cx="4035.5" cy="3528.5" rx="3.34645" ry="3.34645" stroke-width="0" c_etype="pad_hole"/></g><g c_partid="part_pad" c_etype="pinpart" layerid="11" id="gge163_11" c_origin="4035.5,3538.5" net="" c_rotation="90" c_width="6.6929" c_height="6.6929"><ellipse cx="4035.5" cy="3538.5" rx="3.34645" ry="3.34645" stroke-width="0" c_etype="pad_hole"/></g><g c_partid="part_pad" c_etype="pinpart" layerid="11" id="gge168_11" c_origin="4035.5,3508.5" net="" c_rotation="90" c_width="6.6929" c_height="6.6929"><ellipse cx="4035.5" cy="3508.5" rx="3.34645" ry="3.34645" stroke-width="0" c_etype="pad_hole"/></g><g c_partid="part_pad" c_etype="pinpart" layerid="11" id="gge173_11" c_origin="4035.5,3498.5" net="" c_rotation="90" c_width="6.6929" c_height="6.6929"><ellipse cx="4035.5" cy="3498.5" rx="3.34645" ry="3.34645" stroke-width="0" c_etype="pad_hole"/></g><g c_partid="part_pad" c_etype="pinpart" layerid="11" id="gge178_11" c_origin="4035.5,3488.5" net="" c_rotation="90" c_width="6.6929" c_height="6.6929"><ellipse cx="4035.5" cy="3488.5" rx="3.34645" ry="3.34645" stroke-width="0" c_etype="pad_hole"/></g></g><g id="bottomSignalSolderReal" mask="url(#bottomSignalSolderMask)" fill="#00BE00" stroke="#00BE00" display="none"><g c_partid="part_pad" c_etype="pinpart" layerid="11" id="gge19_11" c_origin="4153.858,3528.674" net="" c_rotation="0" c_width="6" c_height="6"><ellipse cx="4153.858" cy="3528.674" rx="3" ry="3" stroke-width="0" c_etype="pad_hole"/></g><g c_partid="part_pad" c_etype="pinpart" layerid="11" id="gge24_11" c_origin="4134.173,3536.941" net="" c_rotation="0" c_width="6" c_height="6"><ellipse cx="4134.173" cy="3536.941" rx="3" ry="3" stroke-width="0" c_etype="pad_hole"/></g><g c_partid="part_pad" c_etype="pinpart" layerid="11" id="gge47_11" c_origin="4248.346,3528.674" net="" c_rotation="0" c_width="6" c_height="6"><ellipse cx="4248.346" cy="3528.674" rx="3" ry="3" stroke-width="0" c_etype="pad_hole"/></g><g c_partid="part_pad" c_etype="pinpart" layerid="11" id="gge52_11" c_origin="4228.661,3536.941" net="" c_rotation="0" c_width="6" c_height="6"><ellipse cx="4228.661" cy="3536.941" rx="3" ry="3" stroke-width="0" c_etype="pad_hole"/></g><g c_partid="part_pad" c_etype="pinpart" layerid="11" id="gge75_11" c_origin="4342.835,3528.674" net="" c_rotation="0" c_width="6" c_height="6"><ellipse cx="4342.835" cy="3528.674" rx="3" ry="3" stroke-width="0" c_etype="pad_hole"/></g><g c_partid="part_pad" c_etype="pinpart" layerid="11" id="gge80_11" c_origin="4323.15,3536.941" net="" c_rotation="0" c_width="6" c_height="6"><ellipse cx="4323.15" cy="3536.941" rx="3" ry="3" stroke-width="0" c_etype="pad_hole"/></g><g c_partid="part_pad" c_etype="pinpart" layerid="11" id="gge103_11" c_origin="4437.323,3528.674" net="" c_rotation="0" c_width="6" c_height="6"><ellipse cx="4437.323" cy="3528.674" rx="3" ry="3" stroke-width="0" c_etype="pad_hole"/></g><g c_partid="part_pad" c_etype="pinpart" layerid="11" id="gge108_11" c_origin="4417.638,3536.941" net="" c_rotation="0" c_width="6" c_height="6"><ellipse cx="4417.638" cy="3536.941" rx="3" ry="3" stroke-width="0" c_etype="pad_hole"/></g><g c_partid="part_pad" c_etype="pinpart" layerid="11" id="gge131_11" c_origin="4531.811,3528.674" net="" c_rotation="0" c_width="6" c_height="6"><ellipse cx="4531.811" cy="3528.674" rx="3" ry="3" stroke-width="0" c_etype="pad_hole"/></g><g c_partid="part_pad" c_etype="pinpart" layerid="11" id="gge136_11" c_origin="4512.126,3536.941" net="" c_rotation="0" c_width="6" c_height="6"><ellipse cx="4512.126" cy="3536.941" rx="3" ry="3" stroke-width="0" c_etype="pad_hole"/></g><g c_partid="part_pad" c_etype="pinpart" layerid="11" id="gge153_11" c_origin="4035.5,3518.5" net="" c_rotation="90" c_width="6.6929" c_height="6.6929"><ellipse cx="4035.5" cy="3518.5" rx="3.34645" ry="3.34645" stroke-width="0" c_etype="pad_hole"/></g><g c_partid="part_pad" c_etype="pinpart" layerid="11" id="gge158_11" c_origin="4035.5,3528.5" net="" c_rotation="90" c_width="6.6929" c_height="6.6929"><ellipse cx="4035.5" cy="3528.5" rx="3.34645" ry="3.34645" stroke-width="0" c_etype="pad_hole"/></g><g c_partid="part_pad" c_etype="pinpart" layerid="11" id="gge163_11" c_origin="4035.5,3538.5" net="" c_rotation="90" c_width="6.6929" c_height="6.6929"><ellipse cx="4035.5" cy="3538.5" rx="3.34645" ry="3.34645" stroke-width="0" c_etype="pad_hole"/></g><g c_partid="part_pad" c_etype="pinpart" layerid="11" id="gge168_11" c_origin="4035.5,3508.5" net="" c_rotation="90" c_width="6.6929" c_height="6.6929"><ellipse cx="4035.5" cy="3508.5" rx="3.34645" ry="3.34645" stroke-width="0" c_etype="pad_hole"/></g><g c_partid="part_pad" c_etype="pinpart" layerid="11" id="gge173_11" c_origin="4035.5,3498.5" net="" c_rotation="90" c_width="6.6929" c_height="6.6929"><ellipse cx="4035.5" cy="3498.5" rx="3.34645" ry="3.34645" stroke-width="0" c_etype="pad_hole"/></g><g c_partid="part_pad" c_etype="pinpart" layerid="11" id="gge178_11" c_origin="4035.5,3488.5" net="" c_rotation="90" c_width="6.6929" c_height="6.6929"><ellipse cx="4035.5" cy="3488.5" rx="3.34645" ry="3.34645" stroke-width="0" c_etype="pad_hole"/></g></g><g id="bottomSilkLayer" fill="#FFFFFF" stroke="#FFFFFF" display="none"><g c_partid="part_pcbtext" c_etype="pinpart" c_origin="4538.5,3499.5" c_rotation="0" c_mirror="1" id="gge391_4" locked="0" layerid="4" c_shapetype="group"><path c_fontsize="8" c_fontfamily="" c_text="PROTOTYPE  -  SUITS KAILH LOW PROFILE SWITCHES" d="M 4538.5 3491.4273 L 4538.5 3499.0636 M 4538.5 3491.4273 L 4535.2273 3491.4273 L 4534.1364 3491.7909 L 4533.7727 3492.1545 L 4533.4091 3492.8818 L 4533.4091 3493.9727 L 4533.7727 3494.7 L 4534.1364 3495.0636 L 4535.2273 3495.4273 L 4538.5 3495.4273 M 4531.0091 3491.4273 L 4531.0091 3499.0636 M 4531.0091 3491.4273 L 4527.7364 3491.4273 L 4526.6455 3491.7909 L 4526.2818 3492.1545 L 4525.9182 3492.8818 L 4525.9182 3493.6091 L 4526.2818 3494.3364 L 4526.6455 3494.7 L 4527.7364 3495.0636 L 4531.0091 3495.0636 M 4528.4636 3495.0636 L 4525.9182 3499.0636 M 4521.3364 3491.4273 L 4522.0636 3491.7909 L 4522.7909 3492.5182 L 4523.1545 3493.2455 L 4523.5182 3494.3364 L 4523.5182 3496.1545 L 4523.1545 3497.2455 L 4522.7909 3497.9727 L 4522.0636 3498.7 L 4521.3364 3499.0636 L 4519.8818 3499.0636 L 4519.1545 3498.7 L 4518.4273 3497.9727 L 4518.0636 3497.2455 L 4517.7 3496.1545 L 4517.7 3494.3364 L 4518.0636 3493.2455 L 4518.4273 3492.5182 L 4519.1545 3491.7909 L 4519.8818 3491.4273 L 4521.3364 3491.4273 M 4512.7545 3491.4273 L 4512.7545 3499.0636 M 4515.3 3491.4273 L 4510.2091 3491.4273 M 4505.6273 3491.4273 L 4506.3545 3491.7909 L 4507.0818 3492.5182 L 4507.4455 3493.2455 L 4507.8091 3494.3364 L 4507.8091 3496.1545 L 4507.4455 3497.2455 L 4507.0818 3497.9727 L 4506.3545 3498.7 L 4505.6273 3499.0636 L 4504.1727 3499.0636 L 4503.4455 3498.7 L 4502.7182 3497.9727 L 4502.3545 3497.2455 L 4501.9909 3496.1545 L 4501.9909 3494.3364 L 4502.3545 3493.2455 L 4502.7182 3492.5182 L 4503.4455 3491.7909 L 4504.1727 3491.4273 L 4505.6273 3491.4273 M 4497.0455 3491.4273 L 4497.0455 3499.0636 M 4499.5909 3491.4273 L 4494.5 3491.4273 M 4492.1 3491.4273 L 4489.1909 3495.0636 L 4489.1909 3499.0636 M 4486.2818 3491.4273 L 4489.1909 3495.0636 M 4483.8818 3491.4273 L 4483.8818 3499.0636 M 4483.8818 3491.4273 L 4480.6091 3491.4273 L 4479.5182 3491.7909 L 4479.1545 3492.1545 L 4478.7909 3492.8818 L 4478.7909 3493.9727 L 4479.1545 3494.7 L 4479.5182 3495.0636 L 4480.6091 3495.4273 L 4483.8818 3495.4273 M 4476.3909 3491.4273 L 4476.3909 3499.0636 M 4476.3909 3491.4273 L 4471.6636 3491.4273 M 4476.3909 3495.0636 L 4473.4818 3495.0636 M 4476.3909 3499.0636 L 4471.6636 3499.0636 M 4458.0636 3495.7909 L 4451.5182 3495.7909 M 4432.8273 3492.5182 L 4433.5545 3491.7909 L 4434.6455 3491.4273 L 4436.1 3491.4273 L 4437.1909 3491.7909 L 4437.9182 3492.5182 L 4437.9182 3493.2455 L 4437.5545 3493.9727 L 4437.1909 3494.3364 L 4436.4636 3494.7 L 4434.2818 3495.4273 L 4433.5545 3495.7909 L 4433.1909 3496.1545 L 4432.8273 3496.8818 L 4432.8273 3497.9727 L 4433.5545 3498.7 L 4434.6455 3499.0636 L 4436.1 3499.0636 L 4437.1909 3498.7 L 4437.9182 3497.9727 M 4430.4273 3491.4273 L 4430.4273 3496.8818 L 4430.0636 3497.9727 L 4429.3364 3498.7 L 4428.2455 3499.0636 L 4427.5182 3499.0636 L 4426.4273 3498.7 L 4425.7 3497.9727 L 4425.3364 3496.8818 L 4425.3364 3491.4273 M 4422.9364 3491.4273 L 4422.9364 3499.0636 M 4417.9909 3491.4273 L 4417.9909 3499.0636 M 4420.5364 3491.4273 L 4415.4455 3491.4273 M 4407.9545 3492.5182 L 4408.6818 3491.7909 L 4409.7727 3491.4273 L 4411.2273 3491.4273 L 4412.3182 3491.7909 L 4413.0455 3492.5182 L 4413.0455 3493.2455 L 4412.6818 3493.9727 L 4412.3182 3494.3364 L 4411.5909 3494.7 L 4409.4091 3495.4273 L 4408.6818 3495.7909 L 4408.3182 3496.1545 L 4407.9545 3496.8818 L 4407.9545 3497.9727 L 4408.6818 3498.7 L 4409.7727 3499.0636 L 4411.2273 3499.0636 L 4412.3182 3498.7 L 4413.0455 3497.9727 M 4399.9545 3491.4273 L 4399.9545 3499.0636 M 4394.8636 3491.4273 L 4399.9545 3496.5182 M 4398.1364 3494.7 L 4394.8636 3499.0636 M 4389.5545 3491.4273 L 4392.4636 3499.0636 M 4389.5545 3491.4273 L 4386.6455 3499.0636 M 4391.3727 3496.5182 L 4387.7364 3496.5182 M 4384.2455 3491.4273 L 4384.2455 3499.0636 M 4381.8455 3491.4273 L 4381.8455 3499.0636 M 4381.8455 3499.0636 L 4377.4818 3499.0636 M 4375.0818 3491.4273 L 4375.0818 3499.0636 M 4369.9909 3491.4273 L 4369.9909 3499.0636 M 4375.0818 3495.0636 L 4369.9909 3495.0636 M 4361.9909 3491.4273 L 4361.9909 3499.0636 M 4361.9909 3499.0636 L 4357.6273 3499.0636 M 4353.0455 3491.4273 L 4353.7727 3491.7909 L 4354.5 3492.5182 L 4354.8636 3493.2455 L 4355.2273 3494.3364 L 4355.2273 3496.1545 L 4354.8636 3497.2455 L 4354.5 3497.9727 L 4353.7727 3498.7 L 4353.0455 3499.0636 L 4351.5909 3499.0636 L 4350.8636 3498.7 L 4350.1364 3497.9727 L 4349.7727 3497.2455 L 4349.4091 3496.1545 L 4349.4091 3494.3364 L 4349.7727 3493.2455 L 4350.1364 3492.5182 L 4350.8636 3491.7909 L 4351.5909 3491.4273 L 4353.0455 3491.4273 M 4347.0091 3491.4273 L 4345.1909 3499.0636 M 4343.3727 3491.4273 L 4345.1909 3499.0636 M 4343.3727 3491.4273 L 4341.5545 3499.0636 M 4339.7364 3491.4273 L 4341.5545 3499.0636 M 4331.7364 3491.4273 L 4331.7364 3499.0636 M 4331.7364 3491.4273 L 4328.4636 3491.4273 L 4327.3727 3491.7909 L 4327.0091 3492.1545 L 4326.6455 3492.8818 L 4326.6455 3493.9727 L 4327.0091 3494.7 L 4327.3727 3495.0636 L 4328.4636 3495.4273 L 4331.7364 3495.4273 M 4324.2455 3491.4273 L 4324.2455 3499.0636 M 4324.2455 3491.4273 L 4320.9727 3491.4273 L 4319.8818 3491.7909 L 4319.5182 3492.1545 L 4319.1545 3492.8818 L 4319.1545 3493.6091 L 4319.5182 3494.3364 L 4319.8818 3494.7 L 4320.9727 3495.0636 L 4324.2455 3495.0636 M 4321.7 3495.0636 L 4319.1545 3499.0636 M 4314.5727 3491.4273 L 4315.3 3491.7909 L 4316.0273 3492.5182 L 4316.3909 3493.2455 L 4316.7545 3494.3364 L 4316.7545 3496.1545 L 4316.3909 3497.2455 L 4316.0273 3497.9727 L 4315.3 3498.7 L 4314.5727 3499.0636 L 4313.1182 3499.0636 L 4312.3909 3498.7 L 4311.6636 3497.9727 L 4311.3 3497.2455 L 4310.9364 3496.1545 L 4310.9364 3494.3364 L 4311.3 3493.2455 L 4311.6636 3492.5182 L 4312.3909 3491.7909 L 4313.1182 3491.4273 L 4314.5727 3491.4273 M 4308.5364 3491.4273 L 4308.5364 3499.0636 M 4308.5364 3491.4273 L 4303.8091 3491.4273 M 4308.5364 3495.0636 L 4305.6273 3495.0636 M 4301.4091 3491.4273 L 4301.4091 3499.0636 M 4299.0091 3491.4273 L 4299.0091 3499.0636 M 4299.0091 3499.0636 L 4294.6455 3499.0636 M 4292.2455 3491.4273 L 4292.2455 3499.0636 M 4292.2455 3491.4273 L 4287.5182 3491.4273 M 4292.2455 3495.0636 L 4289.3364 3495.0636 M 4292.2455 3499.0636 L 4287.5182 3499.0636 M 4274.4273 3492.5182 L 4275.1545 3491.7909 L 4276.2455 3491.4273 L 4277.7 3491.4273 L 4278.7909 3491.7909 L 4279.5182 3492.5182 L 4279.5182 3493.2455 L 4279.1545 3493.9727 L 4278.7909 3494.3364 L 4278.0636 3494.7 L 4275.8818 3495.4273 L 4275.1545 3495.7909 L 4274.7909 3496.1545 L 4274.4273 3496.8818 L 4274.4273 3497.9727 L 4275.1545 3498.7 L 4276.2455 3499.0636 L 4277.7 3499.0636 L 4278.7909 3498.7 L 4279.5182 3497.9727 M 4272.0273 3491.4273 L 4270.2091 3499.0636 M 4268.3909 3491.4273 L 4270.2091 3499.0636 M 4268.3909 3491.4273 L 4266.5727 3499.0636 M 4264.7545 3491.4273 L 4266.5727 3499.0636 M 4262.3545 3491.4273 L 4262.3545 3499.0636 M 4257.4091 3491.4273 L 4257.4091 3499.0636 M 4259.9545 3491.4273 L 4254.8636 3491.4273 M 4247.0091 3493.2455 L 4247.3727 3492.5182 L 4248.1 3491.7909 L 4248.8273 3491.4273 L 4250.2818 3491.4273 L 4251.0091 3491.7909 L 4251.7364 3492.5182 L 4252.1 3493.2455 L 4252.4636 3494.3364 L 4252.4636 3496.1545 L 4252.1 3497.2455 L 4251.7364 3497.9727 L 4251.0091 3498.7 L 4250.2818 3499.0636 L 4248.8273 3499.0636 L 4248.1 3498.7 L 4247.3727 3497.9727 L 4247.0091 3497.2455 M 4244.6091 3491.4273 L 4244.6091 3499.0636 M 4239.5182 3491.4273 L 4239.5182 3499.0636 M 4244.6091 3495.0636 L 4239.5182 3495.0636 M 4237.1182 3491.4273 L 4237.1182 3499.0636 M 4237.1182 3491.4273 L 4232.3909 3491.4273 M 4237.1182 3495.0636 L 4234.2091 3495.0636 M 4237.1182 3499.0636 L 4232.3909 3499.0636 M 4224.9 3492.5182 L 4225.6273 3491.7909 L 4226.7182 3491.4273 L 4228.1727 3491.4273 L 4229.2636 3491.7909 L 4229.9909 3492.5182 L 4229.9909 3493.2455 L 4229.6273 3493.9727 L 4229.2636 3494.3364 L 4228.5364 3494.7 L 4226.3545 3495.4273 L 4225.6273 3495.7909 L 4225.2636 3496.1545 L 4224.9 3496.8818 L 4224.9 3497.9727 L 4225.6273 3498.7 L 4226.7182 3499.0636 L 4228.1727 3499.0636 L 4229.2636 3498.7 L 4229.9909 3497.9727" fill="none" stroke-width="0.8"/></g><g c_partid="part_pcbtext" c_etype="pinpart" c_origin="4358.5,3553" c_rotation="0" c_mirror="1" id="gge395_4" locked="0" layerid="4" c_shapetype="group"><path c_fontsize="8" c_fontfamily="" c_text="11/08/2020" d="M 4358.5 3546.3818 L 4357.7727 3546.0182 L 4356.6818 3544.9273 L 4356.6818 3552.5636 M 4354.2818 3546.3818 L 4353.5545 3546.0182 L 4352.4636 3544.9273 L 4352.4636 3552.5636 M 4343.5182 3543.4727 L 4350.0636 3555.1091 M 4338.9364 3544.9273 L 4340.0273 3545.2909 L 4340.7545 3546.3818 L 4341.1182 3548.2 L 4341.1182 3549.2909 L 4340.7545 3551.1091 L 4340.0273 3552.2 L 4338.9364 3552.5636 L 4338.2091 3552.5636 L 4337.1182 3552.2 L 4336.3909 3551.1091 L 4336.0273 3549.2909 L 4336.0273 3548.2 L 4336.3909 3546.3818 L 4337.1182 3545.2909 L 4338.2091 3544.9273 L 4338.9364 3544.9273 M 4331.8091 3544.9273 L 4332.9 3545.2909 L 4333.2636 3546.0182 L 4333.2636 3546.7455 L 4332.9 3547.4727 L 4332.1727 3547.8364 L 4330.7182 3548.2 L 4329.6273 3548.5636 L 4328.9 3549.2909 L 4328.5364 3550.0182 L 4328.5364 3551.1091 L 4328.9 3551.8364 L 4329.2636 3552.2 L 4330.3545 3552.5636 L 4331.8091 3552.5636 L 4332.9 3552.2 L 4333.2636 3551.8364 L 4333.6273 3551.1091 L 4333.6273 3550.0182 L 4333.2636 3549.2909 L 4332.5364 3548.5636 L 4331.4455 3548.2 L 4329.9909 3547.8364 L 4329.2636 3547.4727 L 4328.9 3546.7455 L 4328.9 3546.0182 L 4329.2636 3545.2909 L 4330.3545 3544.9273 L 4331.8091 3544.9273 M 4319.5909 3543.4727 L 4326.1364 3555.1091 M 4316.8273 3546.7455 L 4316.8273 3546.3818 L 4316.4636 3545.6545 L 4316.1 3545.2909 L 4315.3727 3544.9273 L 4313.9182 3544.9273 L 4313.1909 3545.2909 L 4312.8273 3545.6545 L 4312.4636 3546.3818 L 4312.4636 3547.1091 L 4312.8273 3547.8364 L 4313.5545 3548.9273 L 4317.1909 3552.5636 L 4312.1 3552.5636 M 4307.5182 3544.9273 L 4308.6091 3545.2909 L 4309.3364 3546.3818 L 4309.7 3548.2 L 4309.7 3549.2909 L 4309.3364 3551.1091 L 4308.6091 3552.2 L 4307.5182 3552.5636 L 4306.7909 3552.5636 L 4305.7 3552.2 L 4304.9727 3551.1091 L 4304.6091 3549.2909 L 4304.6091 3548.2 L 4304.9727 3546.3818 L 4305.7 3545.2909 L 4306.7909 3544.9273 L 4307.5182 3544.9273 M 4301.8455 3546.7455 L 4301.8455 3546.3818 L 4301.4818 3545.6545 L 4301.1182 3545.2909 L 4300.3909 3544.9273 L 4298.9364 3544.9273 L 4298.2091 3545.2909 L 4297.8455 3545.6545 L 4297.4818 3546.3818 L 4297.4818 3547.1091 L 4297.8455 3547.8364 L 4298.5727 3548.9273 L 4302.2091 3552.5636 L 4297.1182 3552.5636 M 4292.5364 3544.9273 L 4293.6273 3545.2909 L 4294.3545 3546.3818 L 4294.7182 3548.2 L 4294.7182 3549.2909 L 4294.3545 3551.1091 L 4293.6273 3552.2 L 4292.5364 3552.5636 L 4291.8091 3552.5636 L 4290.7182 3552.2 L 4289.9909 3551.1091 L 4289.6273 3549.2909 L 4289.6273 3548.2 L 4289.9909 3546.3818 L 4290.7182 3545.2909 L 4291.8091 3544.9273 L 4292.5364 3544.9273" fill="none" stroke-width="0.8"/></g></g></g></g></svg>