<?xml version="1.0" encoding="utf-8" standalone="no"?><svg xmlns="http://www.w3.org/2000/svg" xmlns:xlink="http://www.w3.org/1999/xlink" width="60.833mm" height="54.864000000000004mm" viewBox="4060.5 3454.5 239.5 216"><title>Photo View</title><rect x="4060.5" y="3454.5" width="239.5" height="216" fill="#000000" stroke="none"/><defs xmlns="http://www.w3.org/2000/svg" id="patterns"><pattern id="gridPattern" x="4000" y="3000" width="10" height="10" patternUnits="userSpaceOnUse"><rect id="gridCell" x="0" y="0" width="0.26317" height="0.26317" fill="#FFFFFF" stroke="none" fill-opacity="0.8"/></pattern><pattern id="gridPattern2" x="4000.26317" y="3000.26317" width="10" height="10" patternUnits="userSpaceOnUse"><path id="gridCell2" d="M10 0V10H-10" fill="none" stroke="#FFFFFF" stroke-width="0.26317" stroke-opacity="0.6"/></pattern><marker id="arrowOnStart" orient="auto" refY="0" refX="0" style="overflow:visible" markerUnits="strokeWidth"><path d="M 2,0 l 4,-2, 0,4 z" stroke-width="6"/></marker><marker id="arrowOnEnd" orient="auto" refY="0" refX="0" style="overflow:visible" markerUnits="strokeWidth"><path d="M -2,0 l -4,-2, 0,4 z" stroke-width="6"/></marker><marker id="arrowOnStartChrome" orient="auto" refY="0" refX="0" style="overflow:visible" markerUnits="strokeWidth"><path d="M 2,0 l 4,-2, 0,4 z" stroke-width="3" stroke="#FFFFFF"/></marker><marker id="arrowOnEndChrome" orient="auto" refY="0" refX="0" style="overflow:visible" markerUnits="strokeWidth"><path d="M -2,0 l -4,-2, 0,4 z" stroke-width="3" stroke="#FFFFFF"/></marker><svg id="icon-lock" title="Unlock" viewBox="0 0 20 20" height="20" width="20"><path stroke="#F0F" stroke-width="2" style="cursor:pointer;fill-opacity:.001;fill:#fff" d="M 5 7 C 5 -1 15 -1 15 7L1 7 1 19 19 19 19 7 15 7"/></svg><mask id="multiLayerMask" maskUnits="userSpaceOnUse" x="4070.5" y="3464.5" width="219.5" height="196"><path d="M4153 3660.5,4145.0019 3629.0075,4144.9998 3629.0003,4144.9997 3629.0002,4144.9998 3629.0002,4144.9917 3629,4122 3629,4122 3602.0071,4121.9998 3602.0002,4121.9918 3602,4070.5 3602,4070.5 3489,4082.4918 3489,4082.4998 3488.9998,4082.5 3488.9905,4082.5 3464.5,4278.5 3464.5,4278.5 3487.9905,4278.5002 3487.9998,4278.5082 3488,4290 3488,4290 3601.5,4239.0082 3601.5,4239.0002 3601.5002,4239 3601.5071,4239 3629,4215.0085 3629,4215.0002 3629.0003,4215.0001 3629.0005,4214.999 3629.0049,4208.5 3660.5z" stroke="none" fill="white"/><g fill="black"><path d="M4106.49 3482.6499999999996A2.15 2.15 0 0 1 4106.49 3478.3500000000004L4106.51 3478.3500000000004A2.15 2.15 0 0 1 4106.51 3482.6499999999996z" stroke-width="0"/><path d="M4116.49 3482.6499999999996A2.15 2.15 0 0 1 4116.49 3478.3500000000004L4116.51 3478.3500000000004A2.15 2.15 0 0 1 4116.51 3482.6499999999996z" stroke-width="0"/><path d="M4146.49 3482.6499999999996A2.15 2.15 0 0 1 4146.49 3478.3500000000004L4146.51 3478.3500000000004A2.15 2.15 0 0 1 4146.51 3482.6499999999996z" stroke-width="0"/><path d="M4136.49 3482.6499999999996A2.15 2.15 0 0 1 4136.49 3478.3500000000004L4136.51 3478.3500000000004A2.15 2.15 0 0 1 4136.51 3482.6499999999996z" stroke-width="0"/><path d="M4126.49 3482.6499999999996A2.15 2.15 0 0 1 4126.49 3478.3500000000004L4126.51 3478.3500000000004A2.15 2.15 0 0 1 4126.51 3482.6499999999996z" stroke-width="0"/><path d="M4096.49 3482.65A2.15 2.15 0 0 1 4096.49 3478.3500000000004L4096.51 3478.3500000000004A2.15 2.15 0 0 1 4096.51 3482.65z" stroke-width="0"/><circle cx="4200.5" cy="3610" r="1.8" stroke-width="0"/><circle cx="4161.5" cy="3610" r="1.8" stroke-width="0"/><circle cx="4200" cy="3508" r="1.8" stroke-width="0"/><circle cx="4161" cy="3508" r="1.8" stroke-width="0"/><circle cx="4200" cy="3559" r="1.8" stroke-width="0"/><circle cx="4161" cy="3559" r="1.8" stroke-width="0"/><circle cx="4129" cy="3539" r="1.8" stroke-width="0"/><circle cx="4129" cy="3578" r="1.8" stroke-width="0"/><circle cx="4231.5" cy="3539" r="1.8" stroke-width="0"/><circle cx="4231.5" cy="3578" r="1.8" stroke-width="0"/><circle cx="4093.622" cy="3533.398" r="9.9055" stroke-width="0"/><circle cx="4266.85" cy="3533.398" r="9.9055" stroke-width="0"/></g></mask><mask id="topBoardSolderMask" maskUnits="userSpaceOnUse" x="4070.5" y="3464.5" width="219.5" height="196"><path d="M4153 3660.5,4145.0019 3629.0075,4144.9998 3629.0003,4144.9997 3629.0002,4144.9998 3629.0002,4144.9917 3629,4122 3629,4122 3602.0071,4121.9998 3602.0002,4121.9918 3602,4070.5 3602,4070.5 3489,4082.4918 3489,4082.4998 3488.9998,4082.5 3488.9905,4082.5 3464.5,4278.5 3464.5,4278.5 3487.9905,4278.5002 3487.9998,4278.5082 3488,4290 3488,4290 3601.5,4239.0082 3601.5,4239.0002 3601.5002,4239 3601.5071,4239 3629,4215.0085 3629,4215.0002 3629.0003,4215.0001 3629.0005,4214.999 3629.0049,4208.5 3660.5z" stroke="none" fill="white"/><g fill="black"><path d="M4186.4993438334795 3610.974249781278A0.98425 0.98425 0 0 1 4186.5006561665205 3609.0057502187215L4201.5006561665205 3609.0157502187217A0.98425 0.98425 0 0 1 4201.4993438334795 3610.9842497812783z" stroke-width="0"/><path d="M4200.804030150617 3609.3040301506167A0.98425 0.98425 0 0 1 4202.195969849383 3610.6959698493833L4201.195969849383 3611.6959698493833A0.98425 0.98425 0 0 1 4199.804030150617 3610.3040301506167z" stroke-width="0"/><path d="M4180.4994531945285 3609.00575015189A0.98425 0.98425 0 0 1 4180.5005468054715 3610.9742498481096L4162.5005468054715 3610.98424984811A0.98425 0.98425 0 0 1 4162.4994531945285 3609.01575015189z" stroke-width="0"/><path d="M4162.5 3610.9842500000004A0.98425 0.98425 0 0 1 4162.5 3609.0157499999996L4166.5 3609.0157499999996A0.98425 0.98425 0 0 1 4166.5 3610.9842500000004z" stroke-width="0"/><path d="M4185.9993438334795 3508.974249781278A0.98425 0.98425 0 0 1 4186.0006561665205 3507.0057502187215L4201.0006561665205 3507.0157502187217A0.98425 0.98425 0 0 1 4200.9993438334795 3508.9842497812783z" stroke-width="0"/><path d="M4200.304030150617 3507.3040301506167A0.98425 0.98425 0 0 1 4201.695969849383 3508.6959698493833L4200.695969849383 3509.6959698493833A0.98425 0.98425 0 0 1 4199.304030150617 3508.3040301506167z" stroke-width="0"/><path d="M4179.9994531945285 3507.00575015189A0.98425 0.98425 0 0 1 4180.0005468054715 3508.9742498481096L4162.0005468054715 3508.98424984811A0.98425 0.98425 0 0 1 4161.9994531945285 3507.01575015189z" stroke-width="0"/><path d="M4162 3508.9842500000004A0.98425 0.98425 0 0 1 4162 3507.0157499999996L4166 3507.0157499999996A0.98425 0.98425 0 0 1 4166 3508.9842500000004z" stroke-width="0"/><path d="M4185.9993438334795 3559.974249781278A0.98425 0.98425 0 0 1 4186.0006561665205 3558.0057502187215L4201.0006561665205 3558.0157502187217A0.98425 0.98425 0 0 1 4200.9993438334795 3559.9842497812783z" stroke-width="0"/><path d="M4200.304030150617 3558.3040301506167A0.98425 0.98425 0 0 1 4201.695969849383 3559.6959698493833L4200.695969849383 3560.6959698493833A0.98425 0.98425 0 0 1 4199.304030150617 3559.3040301506167z" stroke-width="0"/><path d="M4179.9994531945285 3558.00575015189A0.98425 0.98425 0 0 1 4180.0005468054715 3559.9742498481096L4162.0005468054715 3559.98424984811A0.98425 0.98425 0 0 1 4161.9994531945285 3558.01575015189z" stroke-width="0"/><path d="M4162 3559.9842500000004A0.98425 0.98425 0 0 1 4162 3558.0157499999996L4166 3558.0157499999996A0.98425 0.98425 0 0 1 4166 3559.9842500000004z" stroke-width="0"/><path d="M4129.974249781278 3553.000656166521A0.98425 0.98425 0 0 1 4128.005750218722 3552.999343833479L4128.015750218722 3537.999343833479A0.98425 0.98425 0 0 1 4129.984249781278 3538.000656166521z" stroke-width="0"/><path d="M4128.304030150617 3538.6959698493833A0.98425 0.98425 0 0 1 4129.695969849383 3537.3040301506167L4130.695969849383 3538.3040301506167A0.98425 0.98425 0 0 1 4129.304030150617 3539.6959698493833z" stroke-width="0"/><path d="M4128.0057501518895 3559.000546805471A0.98425 0.98425 0 0 1 4129.97424984811 3558.999453194529L4129.98424984811 3576.999453194529A0.98425 0.98425 0 0 1 4128.01575015189 3577.000546805471z" stroke-width="0"/><path d="M4129.98425 3577A0.98425 0.98425 0 0 1 4128.01575 3577L4128.01575 3573A0.98425 0.98425 0 0 1 4129.98425 3573z" stroke-width="0"/><path d="M4232.474249781278 3553.000656166521A0.98425 0.98425 0 0 1 4230.505750218722 3552.999343833479L4230.515750218722 3537.999343833479A0.98425 0.98425 0 0 1 4232.484249781278 3538.000656166521z" stroke-width="0"/><path d="M4230.804030150617 3538.6959698493833A0.98425 0.98425 0 0 1 4232.195969849383 3537.3040301506167L4233.195969849383 3538.3040301506167A0.98425 0.98425 0 0 1 4231.804030150617 3539.6959698493833z" stroke-width="0"/><path d="M4230.5057501518895 3559.000546805471A0.98425 0.98425 0 0 1 4232.47424984811 3558.999453194529L4232.48424984811 3576.999453194529A0.98425 0.98425 0 0 1 4230.51575015189 3577.000546805471z" stroke-width="0"/><path d="M4232.48425 3577A0.98425 0.98425 0 0 1 4230.51575 3577L4230.51575 3573A0.98425 0.98425 0 0 1 4232.48425 3573z" stroke-width="0"/><path d="M4188.209 3605.707A1.4764 1.4764 0 0 0 4190.791 3604.273A11.7724 11.7724 0 1 0 4191.257 3614.771A1.4764 1.4764 0 0 0 4188.559 3613.572A8.8196 8.8196 0 1 1 4188.209 3605.707z" stroke-width="0"/><path d="M4177.532 3612.934A1.4764 1.4764 0 0 0 4175.468 3615.046A7.0674 7.0674 0 1 0 4175.468 3604.934A1.4764 1.4764 0 0 0 4177.532 3607.046A4.1146 4.1146 0 1 1 4177.532 3612.934z" stroke-width="0"/><path d="M4180.124 3609.751A0.9843 0.9843 0 0 1 4178.876 3608.229A2.2773 2.2773 0 1 1 4178.876 3611.751A0.9843 0.9843 0 0 1 4180.124 3610.229A0.3088 0.3088 0 1 0 4180.124 3609.751z" stroke-width="0"/><path d="M4187.709 3503.707A1.4764 1.4764 0 0 0 4190.291 3502.273A11.7724 11.7724 0 1 0 4190.757 3512.771A1.4764 1.4764 0 0 0 4188.059 3511.572A8.8196 8.8196 0 1 1 4187.709 3503.707z" stroke-width="0"/><path d="M4177.032 3510.934A1.4764 1.4764 0 0 0 4174.968 3513.046A7.0674 7.0674 0 1 0 4174.968 3502.934A1.4764 1.4764 0 0 0 4177.032 3505.046A4.1146 4.1146 0 1 1 4177.032 3510.934z" stroke-width="0"/><path d="M4179.624 3507.751A0.9843 0.9843 0 0 1 4178.376 3506.229A2.2773 2.2773 0 1 1 4178.376 3509.751A0.9843 0.9843 0 0 1 4179.624 3508.229A0.3088 0.3088 0 1 0 4179.624 3507.751z" stroke-width="0"/><path d="M4187.709 3554.707A1.4764 1.4764 0 0 0 4190.291 3553.273A11.7724 11.7724 0 1 0 4190.757 3563.771A1.4764 1.4764 0 0 0 4188.059 3562.572A8.8196 8.8196 0 1 1 4187.709 3554.707z" stroke-width="0"/><path d="M4177.032 3561.934A1.4764 1.4764 0 0 0 4174.968 3564.046A7.0674 7.0674 0 1 0 4174.968 3553.934A1.4764 1.4764 0 0 0 4177.032 3556.046A4.1146 4.1146 0 1 1 4177.032 3561.934z" stroke-width="0"/><path d="M4179.624 3558.751A0.9843 0.9843 0 0 1 4178.376 3557.229A2.2773 2.2773 0 1 1 4178.376 3560.751A0.9843 0.9843 0 0 1 4179.624 3559.229A0.3088 0.3088 0 1 0 4179.624 3558.751z" stroke-width="0"/><path d="M4124.707 3551.291A1.4764 1.4764 0 0 0 4123.273 3548.709A11.7724 11.7724 0 1 0 4133.771 3548.243A1.4764 1.4764 0 0 0 4132.572 3550.941A8.8196 8.8196 0 1 1 4124.707 3551.291z" stroke-width="0"/><path d="M4131.934 3561.968A1.4764 1.4764 0 0 0 4134.046 3564.032A7.0674 7.0674 0 1 0 4123.934 3564.032A1.4764 1.4764 0 0 0 4126.046 3561.968A4.1146 4.1146 0 1 1 4131.934 3561.968z" stroke-width="0"/><path d="M4128.751 3559.376A0.9843 0.9843 0 0 1 4127.229 3560.624A2.2773 2.2773 0 1 1 4130.751 3560.624A0.9843 0.9843 0 0 1 4129.229 3559.376A0.3088 0.3088 0 1 0 4128.751 3559.376z" stroke-width="0"/><path d="M4227.207 3551.291A1.4764 1.4764 0 0 0 4225.773 3548.709A11.7724 11.7724 0 1 0 4236.271 3548.243A1.4764 1.4764 0 0 0 4235.072 3550.941A8.8196 8.8196 0 1 1 4227.207 3551.291z" stroke-width="0"/><path d="M4234.434 3561.968A1.4764 1.4764 0 0 0 4236.546 3564.032A7.0674 7.0674 0 1 0 4226.434 3564.032A1.4764 1.4764 0 0 0 4228.546 3561.968A4.1146 4.1146 0 1 1 4234.434 3561.968z" stroke-width="0"/><path d="M4231.251 3559.376A0.9843 0.9843 0 0 1 4229.729 3560.624A2.2773 2.2773 0 1 1 4233.251 3560.624A0.9843 0.9843 0 0 1 4231.729 3559.376A0.3088 0.3088 0 1 0 4231.251 3559.376z" stroke-width="0"/><ellipse cx="4106.5" cy="3480.5" rx="3.85" ry="3.85" stroke-width="0" c_etype="pad_outer"/><ellipse cx="4116.5" cy="3480.5" rx="3.85" ry="3.85" stroke-width="0" c_etype="pad_outer"/><ellipse cx="4146.5" cy="3480.5" rx="3.85" ry="3.85" stroke-width="0" c_etype="pad_outer"/><ellipse cx="4136.5" cy="3480.5" rx="3.85" ry="3.85" stroke-width="0" c_etype="pad_outer"/><ellipse cx="4126.5" cy="3480.5" rx="3.85" ry="3.85" stroke-width="0" c_etype="pad_outer"/><ellipse cx="4096.5" cy="3480.5" rx="3.85" ry="3.85" stroke-width="0" c_etype="pad_outer"/><ellipse cx="4200.5" cy="3610" rx="3.4" ry="3.4" stroke-width="0" c_etype="pad_outer"/><ellipse cx="4161.5" cy="3610" rx="3.4" ry="3.4" stroke-width="0" c_etype="pad_outer"/><ellipse cx="4200" cy="3508" rx="3.4" ry="3.4" stroke-width="0" c_etype="pad_outer"/><ellipse cx="4161" cy="3508" rx="3.4" ry="3.4" stroke-width="0" c_etype="pad_outer"/><ellipse cx="4200" cy="3559" rx="3.4" ry="3.4" stroke-width="0" c_etype="pad_outer"/><ellipse cx="4161" cy="3559" rx="3.4" ry="3.4" stroke-width="0" c_etype="pad_outer"/><ellipse cx="4129" cy="3539" rx="3.4" ry="3.4" stroke-width="0" c_etype="pad_outer"/><ellipse cx="4129" cy="3578" rx="3.4" ry="3.4" stroke-width="0" c_etype="pad_outer"/><ellipse cx="4231.5" cy="3539" rx="3.4" ry="3.4" stroke-width="0" c_etype="pad_outer"/><ellipse cx="4231.5" cy="3578" rx="3.4" ry="3.4" stroke-width="0" c_etype="pad_outer"/></g></mask><mask id="topSignalSolderMask" maskUnits="userSpaceOnUse" x="4070.5" y="3464.5" width="219.5" height="196"><path d="M4153 3660.5,4145.0019 3629.0075,4144.9998 3629.0003,4144.9997 3629.0002,4144.9998 3629.0002,4144.9917 3629,4122 3629,4122 3602.0071,4121.9998 3602.0002,4121.9918 3602,4070.5 3602,4070.5 3489,4082.4918 3489,4082.4998 3488.9998,4082.5 3488.9905,4082.5 3464.5,4278.5 3464.5,4278.5 3487.9905,4278.5002 3487.9998,4278.5082 3488,4290 3488,4290 3601.5,4239.0082 3601.5,4239.0002 3601.5002,4239 3601.5071,4239 3629,4215.0085 3629,4215.0002 3629.0003,4215.0001 3629.0005,4214.999 3629.0049,4208.5 3660.5z" stroke="none" fill="white"/><g fill="black"><path d="M4186.4993438334795 3610.974249781278A0.98425 0.98425 0 0 1 4186.5006561665205 3609.0057502187215L4201.5006561665205 3609.0157502187217A0.98425 0.98425 0 0 1 4201.4993438334795 3610.9842497812783z" stroke-width="0"/><path d="M4200.804030150617 3609.3040301506167A0.98425 0.98425 0 0 1 4202.195969849383 3610.6959698493833L4201.195969849383 3611.6959698493833A0.98425 0.98425 0 0 1 4199.804030150617 3610.3040301506167z" stroke-width="0"/><path d="M4180.4994531945285 3609.00575015189A0.98425 0.98425 0 0 1 4180.5005468054715 3610.9742498481096L4162.5005468054715 3610.98424984811A0.98425 0.98425 0 0 1 4162.4994531945285 3609.01575015189z" stroke-width="0"/><path d="M4162.5 3610.9842500000004A0.98425 0.98425 0 0 1 4162.5 3609.0157499999996L4166.5 3609.0157499999996A0.98425 0.98425 0 0 1 4166.5 3610.9842500000004z" stroke-width="0"/><path d="M4185.9993438334795 3508.974249781278A0.98425 0.98425 0 0 1 4186.0006561665205 3507.0057502187215L4201.0006561665205 3507.0157502187217A0.98425 0.98425 0 0 1 4200.9993438334795 3508.9842497812783z" stroke-width="0"/><path d="M4200.304030150617 3507.3040301506167A0.98425 0.98425 0 0 1 4201.695969849383 3508.6959698493833L4200.695969849383 3509.6959698493833A0.98425 0.98425 0 0 1 4199.304030150617 3508.3040301506167z" stroke-width="0"/><path d="M4179.9994531945285 3507.00575015189A0.98425 0.98425 0 0 1 4180.0005468054715 3508.9742498481096L4162.0005468054715 3508.98424984811A0.98425 0.98425 0 0 1 4161.9994531945285 3507.01575015189z" stroke-width="0"/><path d="M4162 3508.9842500000004A0.98425 0.98425 0 0 1 4162 3507.0157499999996L4166 3507.0157499999996A0.98425 0.98425 0 0 1 4166 3508.9842500000004z" stroke-width="0"/><path d="M4185.9993438334795 3559.974249781278A0.98425 0.98425 0 0 1 4186.0006561665205 3558.0057502187215L4201.0006561665205 3558.0157502187217A0.98425 0.98425 0 0 1 4200.9993438334795 3559.9842497812783z" stroke-width="0"/><path d="M4200.304030150617 3558.3040301506167A0.98425 0.98425 0 0 1 4201.695969849383 3559.6959698493833L4200.695969849383 3560.6959698493833A0.98425 0.98425 0 0 1 4199.304030150617 3559.3040301506167z" stroke-width="0"/><path d="M4179.9994531945285 3558.00575015189A0.98425 0.98425 0 0 1 4180.0005468054715 3559.9742498481096L4162.0005468054715 3559.98424984811A0.98425 0.98425 0 0 1 4161.9994531945285 3558.01575015189z" stroke-width="0"/><path d="M4162 3559.9842500000004A0.98425 0.98425 0 0 1 4162 3558.0157499999996L4166 3558.0157499999996A0.98425 0.98425 0 0 1 4166 3559.9842500000004z" stroke-width="0"/><path d="M4129.974249781278 3553.000656166521A0.98425 0.98425 0 0 1 4128.005750218722 3552.999343833479L4128.015750218722 3537.999343833479A0.98425 0.98425 0 0 1 4129.984249781278 3538.000656166521z" stroke-width="0"/><path d="M4128.304030150617 3538.6959698493833A0.98425 0.98425 0 0 1 4129.695969849383 3537.3040301506167L4130.695969849383 3538.3040301506167A0.98425 0.98425 0 0 1 4129.304030150617 3539.6959698493833z" stroke-width="0"/><path d="M4128.0057501518895 3559.000546805471A0.98425 0.98425 0 0 1 4129.97424984811 3558.999453194529L4129.98424984811 3576.999453194529A0.98425 0.98425 0 0 1 4128.01575015189 3577.000546805471z" stroke-width="0"/><path d="M4129.98425 3577A0.98425 0.98425 0 0 1 4128.01575 3577L4128.01575 3573A0.98425 0.98425 0 0 1 4129.98425 3573z" stroke-width="0"/><path d="M4232.474249781278 3553.000656166521A0.98425 0.98425 0 0 1 4230.505750218722 3552.999343833479L4230.515750218722 3537.999343833479A0.98425 0.98425 0 0 1 4232.484249781278 3538.000656166521z" stroke-width="0"/><path d="M4230.804030150617 3538.6959698493833A0.98425 0.98425 0 0 1 4232.195969849383 3537.3040301506167L4233.195969849383 3538.3040301506167A0.98425 0.98425 0 0 1 4231.804030150617 3539.6959698493833z" stroke-width="0"/><path d="M4230.5057501518895 3559.000546805471A0.98425 0.98425 0 0 1 4232.47424984811 3558.999453194529L4232.48424984811 3576.999453194529A0.98425 0.98425 0 0 1 4230.51575015189 3577.000546805471z" stroke-width="0"/><path d="M4232.48425 3577A0.98425 0.98425 0 0 1 4230.51575 3577L4230.51575 3573A0.98425 0.98425 0 0 1 4232.48425 3573z" stroke-width="0"/><path d="M4188.209 3605.707A1.4764 1.4764 0 0 0 4190.791 3604.273A11.7724 11.7724 0 1 0 4191.257 3614.771A1.4764 1.4764 0 0 0 4188.559 3613.572A8.8196 8.8196 0 1 1 4188.209 3605.707z" stroke-width="0"/><path d="M4177.532 3612.934A1.4764 1.4764 0 0 0 4175.468 3615.046A7.0674 7.0674 0 1 0 4175.468 3604.934A1.4764 1.4764 0 0 0 4177.532 3607.046A4.1146 4.1146 0 1 1 4177.532 3612.934z" stroke-width="0"/><path d="M4180.124 3609.751A0.9843 0.9843 0 0 1 4178.876 3608.229A2.2773 2.2773 0 1 1 4178.876 3611.751A0.9843 0.9843 0 0 1 4180.124 3610.229A0.3088 0.3088 0 1 0 4180.124 3609.751z" stroke-width="0"/><path d="M4187.709 3503.707A1.4764 1.4764 0 0 0 4190.291 3502.273A11.7724 11.7724 0 1 0 4190.757 3512.771A1.4764 1.4764 0 0 0 4188.059 3511.572A8.8196 8.8196 0 1 1 4187.709 3503.707z" stroke-width="0"/><path d="M4177.032 3510.934A1.4764 1.4764 0 0 0 4174.968 3513.046A7.0674 7.0674 0 1 0 4174.968 3502.934A1.4764 1.4764 0 0 0 4177.032 3505.046A4.1146 4.1146 0 1 1 4177.032 3510.934z" stroke-width="0"/><path d="M4179.624 3507.751A0.9843 0.9843 0 0 1 4178.376 3506.229A2.2773 2.2773 0 1 1 4178.376 3509.751A0.9843 0.9843 0 0 1 4179.624 3508.229A0.3088 0.3088 0 1 0 4179.624 3507.751z" stroke-width="0"/><path d="M4187.709 3554.707A1.4764 1.4764 0 0 0 4190.291 3553.273A11.7724 11.7724 0 1 0 4190.757 3563.771A1.4764 1.4764 0 0 0 4188.059 3562.572A8.8196 8.8196 0 1 1 4187.709 3554.707z" stroke-width="0"/><path d="M4177.032 3561.934A1.4764 1.4764 0 0 0 4174.968 3564.046A7.0674 7.0674 0 1 0 4174.968 3553.934A1.4764 1.4764 0 0 0 4177.032 3556.046A4.1146 4.1146 0 1 1 4177.032 3561.934z" stroke-width="0"/><path d="M4179.624 3558.751A0.9843 0.9843 0 0 1 4178.376 3557.229A2.2773 2.2773 0 1 1 4178.376 3560.751A0.9843 0.9843 0 0 1 4179.624 3559.229A0.3088 0.3088 0 1 0 4179.624 3558.751z" stroke-width="0"/><path d="M4124.707 3551.291A1.4764 1.4764 0 0 0 4123.273 3548.709A11.7724 11.7724 0 1 0 4133.771 3548.243A1.4764 1.4764 0 0 0 4132.572 3550.941A8.8196 8.8196 0 1 1 4124.707 3551.291z" stroke-width="0"/><path d="M4131.934 3561.968A1.4764 1.4764 0 0 0 4134.046 3564.032A7.0674 7.0674 0 1 0 4123.934 3564.032A1.4764 1.4764 0 0 0 4126.046 3561.968A4.1146 4.1146 0 1 1 4131.934 3561.968z" stroke-width="0"/><path d="M4128.751 3559.376A0.9843 0.9843 0 0 1 4127.229 3560.624A2.2773 2.2773 0 1 1 4130.751 3560.624A0.9843 0.9843 0 0 1 4129.229 3559.376A0.3088 0.3088 0 1 0 4128.751 3559.376z" stroke-width="0"/><path d="M4227.207 3551.291A1.4764 1.4764 0 0 0 4225.773 3548.709A11.7724 11.7724 0 1 0 4236.271 3548.243A1.4764 1.4764 0 0 0 4235.072 3550.941A8.8196 8.8196 0 1 1 4227.207 3551.291z" stroke-width="0"/><path d="M4234.434 3561.968A1.4764 1.4764 0 0 0 4236.546 3564.032A7.0674 7.0674 0 1 0 4226.434 3564.032A1.4764 1.4764 0 0 0 4228.546 3561.968A4.1146 4.1146 0 1 1 4234.434 3561.968z" stroke-width="0"/><path d="M4231.251 3559.376A0.9843 0.9843 0 0 1 4229.729 3560.624A2.2773 2.2773 0 1 1 4233.251 3560.624A0.9843 0.9843 0 0 1 4231.729 3559.376A0.3088 0.3088 0 1 0 4231.251 3559.376z" stroke-width="0"/><ellipse cx="4106.5" cy="3480.5" rx="3.85" ry="3.85" stroke-width="0" c_etype="pad_outer"/><ellipse cx="4116.5" cy="3480.5" rx="3.85" ry="3.85" stroke-width="0" c_etype="pad_outer"/><ellipse cx="4146.5" cy="3480.5" rx="3.85" ry="3.85" stroke-width="0" c_etype="pad_outer"/><ellipse cx="4136.5" cy="3480.5" rx="3.85" ry="3.85" stroke-width="0" c_etype="pad_outer"/><ellipse cx="4126.5" cy="3480.5" rx="3.85" ry="3.85" stroke-width="0" c_etype="pad_outer"/><ellipse cx="4096.5" cy="3480.5" rx="3.85" ry="3.85" stroke-width="0" c_etype="pad_outer"/><ellipse cx="4200.5" cy="3610" rx="3.4" ry="3.4" stroke-width="0" c_etype="pad_outer"/><ellipse cx="4161.5" cy="3610" rx="3.4" ry="3.4" stroke-width="0" c_etype="pad_outer"/><ellipse cx="4200" cy="3508" rx="3.4" ry="3.4" stroke-width="0" c_etype="pad_outer"/><ellipse cx="4161" cy="3508" rx="3.4" ry="3.4" stroke-width="0" c_etype="pad_outer"/><ellipse cx="4200" cy="3559" rx="3.4" ry="3.4" stroke-width="0" c_etype="pad_outer"/><ellipse cx="4161" cy="3559" rx="3.4" ry="3.4" stroke-width="0" c_etype="pad_outer"/><ellipse cx="4129" cy="3539" rx="3.4" ry="3.4" stroke-width="0" c_etype="pad_outer"/><ellipse cx="4129" cy="3578" rx="3.4" ry="3.4" stroke-width="0" c_etype="pad_outer"/><ellipse cx="4231.5" cy="3539" rx="3.4" ry="3.4" stroke-width="0" c_etype="pad_outer"/><ellipse cx="4231.5" cy="3578" rx="3.4" ry="3.4" stroke-width="0" c_etype="pad_outer"/></g></mask><mask id="bottomBoardSolderMask" maskUnits="userSpaceOnUse" x="4070.5" y="3464.5" width="219.5" height="196"><path d="M4153 3660.5,4145.0019 3629.0075,4144.9998 3629.0003,4144.9997 3629.0002,4144.9998 3629.0002,4144.9917 3629,4122 3629,4122 3602.0071,4121.9998 3602.0002,4121.9918 3602,4070.5 3602,4070.5 3489,4082.4918 3489,4082.4998 3488.9998,4082.5 3488.9905,4082.5 3464.5,4278.5 3464.5,4278.5 3487.9905,4278.5002 3487.9998,4278.5082 3488,4290 3488,4290 3601.5,4239.0082 3601.5,4239.0002 3601.5002,4239 3601.5071,4239 3629,4215.0085 3629,4215.0002 3629.0003,4215.0001 3629.0005,4214.999 3629.0049,4208.5 3660.5z" stroke="none" fill="white"/><g fill="black"><ellipse cx="4106.5" cy="3480.5" rx="3.85" ry="3.85" stroke-width="0" c_etype="pad_outer"/><ellipse cx="4116.5" cy="3480.5" rx="3.85" ry="3.85" stroke-width="0" c_etype="pad_outer"/><ellipse cx="4146.5" cy="3480.5" rx="3.85" ry="3.85" stroke-width="0" c_etype="pad_outer"/><ellipse cx="4136.5" cy="3480.5" rx="3.85" ry="3.85" stroke-width="0" c_etype="pad_outer"/><ellipse cx="4126.5" cy="3480.5" rx="3.85" ry="3.85" stroke-width="0" c_etype="pad_outer"/><ellipse cx="4096.5" cy="3480.5" rx="3.85" ry="3.85" stroke-width="0" c_etype="pad_outer"/><ellipse cx="4200.5" cy="3610" rx="3.4" ry="3.4" stroke-width="0" c_etype="pad_outer"/><ellipse cx="4161.5" cy="3610" rx="3.4" ry="3.4" stroke-width="0" c_etype="pad_outer"/><ellipse cx="4200" cy="3508" rx="3.4" ry="3.4" stroke-width="0" c_etype="pad_outer"/><ellipse cx="4161" cy="3508" rx="3.4" ry="3.4" stroke-width="0" c_etype="pad_outer"/><ellipse cx="4200" cy="3559" rx="3.4" ry="3.4" stroke-width="0" c_etype="pad_outer"/><ellipse cx="4161" cy="3559" rx="3.4" ry="3.4" stroke-width="0" c_etype="pad_outer"/><ellipse cx="4129" cy="3539" rx="3.4" ry="3.4" stroke-width="0" c_etype="pad_outer"/><ellipse cx="4129" cy="3578" rx="3.4" ry="3.4" stroke-width="0" c_etype="pad_outer"/><ellipse cx="4231.5" cy="3539" rx="3.4" ry="3.4" stroke-width="0" c_etype="pad_outer"/><ellipse cx="4231.5" cy="3578" rx="3.4" ry="3.4" stroke-width="0" c_etype="pad_outer"/></g></mask><mask id="bottomSignalSolderMask" maskUnits="userSpaceOnUse" x="4070.5" y="3464.5" width="219.5" height="196"><path d="M4153 3660.5,4145.0019 3629.0075,4144.9998 3629.0003,4144.9997 3629.0002,4144.9998 3629.0002,4144.9917 3629,4122 3629,4122 3602.0071,4121.9998 3602.0002,4121.9918 3602,4070.5 3602,4070.5 3489,4082.4918 3489,4082.4998 3488.9998,4082.5 3488.9905,4082.5 3464.5,4278.5 3464.5,4278.5 3487.9905,4278.5002 3487.9998,4278.5082 3488,4290 3488,4290 3601.5,4239.0082 3601.5,4239.0002 3601.5002,4239 3601.5071,4239 3629,4215.0085 3629,4215.0002 3629.0003,4215.0001 3629.0005,4214.999 3629.0049,4208.5 3660.5z" stroke="none" fill="white"/><g fill="black"><ellipse cx="4106.5" cy="3480.5" rx="3.85" ry="3.85" stroke-width="0" c_etype="pad_outer"/><ellipse cx="4116.5" cy="3480.5" rx="3.85" ry="3.85" stroke-width="0" c_etype="pad_outer"/><ellipse cx="4146.5" cy="3480.5" rx="3.85" ry="3.85" stroke-width="0" c_etype="pad_outer"/><ellipse cx="4136.5" cy="3480.5" rx="3.85" ry="3.85" stroke-width="0" c_etype="pad_outer"/><ellipse cx="4126.5" cy="3480.5" rx="3.85" ry="3.85" stroke-width="0" c_etype="pad_outer"/><ellipse cx="4096.5" cy="3480.5" rx="3.85" ry="3.85" stroke-width="0" c_etype="pad_outer"/><ellipse cx="4200.5" cy="3610" rx="3.4" ry="3.4" stroke-width="0" c_etype="pad_outer"/><ellipse cx="4161.5" cy="3610" rx="3.4" ry="3.4" stroke-width="0" c_etype="pad_outer"/><ellipse cx="4200" cy="3508" rx="3.4" ry="3.4" stroke-width="0" c_etype="pad_outer"/><ellipse cx="4161" cy="3508" rx="3.4" ry="3.4" stroke-width="0" c_etype="pad_outer"/><ellipse cx="4200" cy="3559" rx="3.4" ry="3.4" stroke-width="0" c_etype="pad_outer"/><ellipse cx="4161" cy="3559" rx="3.4" ry="3.4" stroke-width="0" c_etype="pad_outer"/><ellipse cx="4129" cy="3539" rx="3.4" ry="3.4" stroke-width="0" c_etype="pad_outer"/><ellipse cx="4129" cy="3578" rx="3.4" ry="3.4" stroke-width="0" c_etype="pad_outer"/><ellipse cx="4231.5" cy="3539" rx="3.4" ry="3.4" stroke-width="0" c_etype="pad_outer"/><ellipse cx="4231.5" cy="3578" rx="3.4" ry="3.4" stroke-width="0" c_etype="pad_outer"/></g></mask></defs><g xmlns="http://www.w3.org/2000/svg" id="g1" mask="url(#multiLayerMask)" class="photoview" transform="matrix(-1, 0, 0, 1, 8360.5, 0)"><g id="layer_other" class="shapeBox"><path d="M4153 3660.5,4145.0019 3629.0075,4144.9998 3629.0003,4144.9997 3629.0002,4144.9998 3629.0002,4144.9917 3629,4122 3629,4122 3602.0071,4121.9998 3602.0002,4121.9918 3602,4070.5 3602,4070.5 3489,4082.4918 3489,4082.4998 3488.9998,4082.5 3488.9905,4082.5 3464.5,4278.5 3464.5,4278.5 3487.9905,4278.5002 3487.9998,4278.5082 3488,4290 3488,4290 3601.5,4239.0082 3601.5,4239.0002 3601.5002,4239 3601.5071,4239 3629,4215.0085 3629,4215.0002 3629.0003,4215.0001 3629.0005,4214.999 3629.0049,4208.5 3660.5z" stroke="none" id="boardOutlineReal" fill="#80785F"/><path d="M4153 3660.5,4145.0019 3629.0075,4144.9998 3629.0003,4144.9997 3629.0002,4144.9998 3629.0002,4144.9917 3629,4122 3629,4122 3602.0071,4121.9998 3602.0002,4121.9918 3602,4070.5 3602,4070.5 3489,4082.4918 3489,4082.4998 3488.9998,4082.5 3488.9905,4082.5 3464.5,4278.5 3464.5,4278.5 3487.9905,4278.5002 3487.9998,4278.5082 3488,4290 3488,4290 3601.5,4239.0082 3601.5,4239.0002 3601.5002,4239 3601.5071,4239 3629,4215.0085 3629,4215.0002 3629.0003,4215.0001 3629.0005,4214.999 3629.0049,4208.5 3660.5z" stroke="none" id="topBoardSolderReal" mask="url(#topBoardSolderMask)" fill="#0B3B0B" display="none"/><g id="topSignalReal" fill="#DCAA14" stroke="#DCAA14" display="none"><polyline points="4129 3539 4129.0551 3532.0551 4115.5 3518.5" stroke-width="3.937" c_shapetype="line" stroke-linecap="round" fill="none" layerid="1" net="" id="gge758_1" locked="0"/><polyline points="4126.5 3480.5 4126.5 3490 4133.5 3497 4159 3497 4170 3486 4192.5 3486 4209.5 3503 4209.5 3600.9055 4200.5 3610" stroke-width="3.937" c_shapetype="line" stroke-linecap="round" fill="none" layerid="1" net="" id="gge764_1" locked="0"/><polyline points="4231.5 3539 4231.4173 3510.4173 4197 3476 4165 3476 4153.5 3487.5 4143 3487.5 4143 3487 4136.5 3480.5" stroke-width="3.937" c_shapetype="line" stroke-linecap="round" fill="none" layerid="1" net="" id="gge766_1" locked="0"/><polyline points="4161 3508 4127.81 3507.81 4116.5 3496.5" stroke-width="3.937" c_shapetype="line" stroke-linecap="round" fill="none" layerid="1" net="" id="gge763_1" locked="0"/><polyline points="4116.5 3480.5 4116.5 3496.5" stroke-width="3.937" c_shapetype="line" stroke-linecap="round" fill="none" layerid="1" net="" id="gge761_1" locked="0"/><polyline points="4106.5 3480.5 4106.5 3509.5 4115.5 3518.5" stroke-width="3.937" c_shapetype="line" stroke-linecap="round" fill="none" layerid="1" net="" id="gge760_1" locked="0"/><polyline points="4186.5 3610 4199.5 3610" stroke-width="1.9685" c_shapetype="line" stroke-linecap="round" fill="none" layerid="1" net="" id="gge889_1" locked="0"/><polyline points="4180.5 3610 4162.5 3610 4162.5 3610" stroke-width="1.9685" c_shapetype="line" stroke-linecap="round" fill="none" layerid="1" net="" id="gge890_1" locked="0"/><polyline points="4186 3508 4199 3508" stroke-width="1.9685" c_shapetype="line" stroke-linecap="round" fill="none" layerid="1" net="" id="gge915_1" locked="0"/><polyline points="4180 3508 4162 3508 4162 3508" stroke-width="1.9685" c_shapetype="line" stroke-linecap="round" fill="none" layerid="1" net="" id="gge916_1" locked="0"/><polyline points="4186 3559 4199 3559" stroke-width="1.9685" c_shapetype="line" stroke-linecap="round" fill="none" layerid="1" net="" id="gge941_1" locked="0"/><polyline points="4180 3559 4162 3559 4162 3559" stroke-width="1.9685" c_shapetype="line" stroke-linecap="round" fill="none" layerid="1" net="" id="gge942_1" locked="0"/><polyline points="4129 3553 4129 3540" stroke-width="1.9685" c_shapetype="line" stroke-linecap="round" fill="none" layerid="1" net="" id="gge967_1" locked="0"/><polyline points="4129 3559 4129 3577 4129 3577" stroke-width="1.9685" c_shapetype="line" stroke-linecap="round" fill="none" layerid="1" net="" id="gge968_1" locked="0"/><polyline points="4231.5 3553 4231.5 3540" stroke-width="1.9685" c_shapetype="line" stroke-linecap="round" fill="none" layerid="1" net="" id="gge993_1" locked="0"/><polyline points="4231.5 3559 4231.5 3577 4231.5 3577" stroke-width="1.9685" c_shapetype="line" stroke-linecap="round" fill="none" layerid="1" net="" id="gge994_1" locked="0"/><path d="M 4189.5 3605 A 10.296 10.296 0 1 0 4189.9083 3614.1815" locked="0" c_shapetype="line" fill="none" stroke-width="2.95275" c_helper_type="arc2" net="" layerid="1" id="gge891_1"/><path d="M 4176.5 3614 A 5.591 5.591 0 1 0 4176.5 3606" locked="0" c_shapetype="line" fill="none" stroke-width="2.95275" c_helper_type="arc2" net="" layerid="1" id="gge892_1"/><path d="M 4179.5 3609 A 1.293 1.293 0 1 1 4179.5 3611" locked="0" c_shapetype="line" fill="none" stroke-width="1.9685" c_helper_type="arc2" net="" layerid="1" id="gge893_1"/><path d="M 4189 3503 A 10.296 10.296 0 1 0 4189.4083 3512.1815" locked="0" c_shapetype="line" fill="none" stroke-width="2.95275" c_helper_type="arc2" net="" layerid="1" id="gge917_1"/><path d="M 4176 3512 A 5.591 5.591 0 1 0 4176 3504" locked="0" c_shapetype="line" fill="none" stroke-width="2.95275" c_helper_type="arc2" net="" layerid="1" id="gge918_1"/><path d="M 4179 3507 A 1.293 1.293 0 1 1 4179 3509" locked="0" c_shapetype="line" fill="none" stroke-width="1.9685" c_helper_type="arc2" net="" layerid="1" id="gge919_1"/><path d="M 4189 3554 A 10.296 10.296 0 1 0 4189.4083 3563.1815" locked="0" c_shapetype="line" fill="none" stroke-width="2.95275" c_helper_type="arc2" net="" layerid="1" id="gge943_1"/><path d="M 4176 3563 A 5.591 5.591 0 1 0 4176 3555" locked="0" c_shapetype="line" fill="none" stroke-width="2.95275" c_helper_type="arc2" net="" layerid="1" id="gge944_1"/><path d="M 4179 3558 A 1.293 1.293 0 1 1 4179 3560" locked="0" c_shapetype="line" fill="none" stroke-width="1.9685" c_helper_type="arc2" net="" layerid="1" id="gge945_1"/><path d="M 4124 3550 A 10.296 10.296 0 1 0 4133.1815 3549.5917" locked="0" c_shapetype="line" fill="none" stroke-width="2.95275" c_helper_type="arc2" net="" layerid="1" id="gge969_1"/><path d="M 4133 3563 A 5.591 5.591 0 1 0 4125 3563" locked="0" c_shapetype="line" fill="none" stroke-width="2.95275" c_helper_type="arc2" net="" layerid="1" id="gge970_1"/><path d="M 4128 3560 A 1.293 1.293 0 1 1 4130 3560" locked="0" c_shapetype="line" fill="none" stroke-width="1.9685" c_helper_type="arc2" net="" layerid="1" id="gge971_1"/><path d="M 4226.5 3550 A 10.296 10.296 0 1 0 4235.6815 3549.5917" locked="0" c_shapetype="line" fill="none" stroke-width="2.95275" c_helper_type="arc2" net="" layerid="1" id="gge995_1"/><path d="M 4235.5 3563 A 5.591 5.591 0 1 0 4227.5 3563" locked="0" c_shapetype="line" fill="none" stroke-width="2.95275" c_helper_type="arc2" net="" layerid="1" id="gge996_1"/><path d="M 4230.5 3560 A 1.293 1.293 0 1 1 4232.5 3560" locked="0" c_shapetype="line" fill="none" stroke-width="1.9685" c_helper_type="arc2" net="" layerid="1" id="gge997_1"/><g c_partid="part_pad" c_etype="pinpart" layerid="11" id="gge727_11" c_origin="4106.5,3480.5" net="" c_rotation="0" c_width="6.9" c_height="6.9"><ellipse cx="4106.5" cy="3480.5" rx="3.45" ry="3.45" stroke-width="0" c_etype="pad_shell"/></g><g c_partid="part_pad" c_etype="pinpart" layerid="11" id="gge732_11" c_origin="4116.5,3480.5" net="" c_rotation="0" c_width="6.9" c_height="6.9"><ellipse cx="4116.5" cy="3480.5" rx="3.45" ry="3.45" stroke-width="0" c_etype="pad_shell"/></g><g c_partid="part_pad" c_etype="pinpart" layerid="11" id="gge737_11" c_origin="4146.5,3480.5" net="" c_rotation="0" c_width="6.9" c_height="6.9"><ellipse cx="4146.5" cy="3480.5" rx="3.45" ry="3.45" stroke-width="0" c_etype="pad_shell"/></g><g c_partid="part_pad" c_etype="pinpart" layerid="11" id="gge742_11" c_origin="4136.5,3480.5" net="" c_rotation="0" c_width="6.9" c_height="6.9"><ellipse cx="4136.5" cy="3480.5" rx="3.45" ry="3.45" stroke-width="0" c_etype="pad_shell"/></g><g c_partid="part_pad" c_etype="pinpart" layerid="11" id="gge747_11" c_origin="4126.5,3480.5" net="" c_rotation="0" c_width="6.9" c_height="6.9"><ellipse cx="4126.5" cy="3480.5" rx="3.45" ry="3.45" stroke-width="0" c_etype="pad_shell"/></g><g c_partid="part_pad" c_etype="pinpart" layerid="11" id="gge752_11" c_origin="4096.5,3480.5" net="" c_rotation="0" c_width="6.9" c_height="6.9"><ellipse cx="4096.5" cy="3480.5" rx="3.45" ry="3.45" stroke-width="0" c_etype="pad_shell"/></g><g c_partid="part_pad" c_etype="pinpart" layerid="11" id="gge895_11" c_origin="4200.5,3610" net="" c_rotation="0" c_width="6" c_height="6"><ellipse cx="4200.5" cy="3610" rx="3" ry="3" stroke-width="0" c_etype="pad_shell"/></g><g c_partid="part_pad" c_etype="pinpart" layerid="11" id="gge900_11" c_origin="4161.5,3610" net="" c_rotation="0" c_width="6" c_height="6"><ellipse cx="4161.5" cy="3610" rx="3" ry="3" stroke-width="0" c_etype="pad_shell"/></g><g c_partid="part_pad" c_etype="pinpart" layerid="11" id="gge921_11" c_origin="4200,3508" net="" c_rotation="0" c_width="6" c_height="6"><ellipse cx="4200" cy="3508" rx="3" ry="3" stroke-width="0" c_etype="pad_shell"/></g><g c_partid="part_pad" c_etype="pinpart" layerid="11" id="gge926_11" c_origin="4161,3508" net="" c_rotation="0" c_width="6" c_height="6"><ellipse cx="4161" cy="3508" rx="3" ry="3" stroke-width="0" c_etype="pad_shell"/></g><g c_partid="part_pad" c_etype="pinpart" layerid="11" id="gge947_11" c_origin="4200,3559" net="" c_rotation="0" c_width="6" c_height="6"><ellipse cx="4200" cy="3559" rx="3" ry="3" stroke-width="0" c_etype="pad_shell"/></g><g c_partid="part_pad" c_etype="pinpart" layerid="11" id="gge952_11" c_origin="4161,3559" net="" c_rotation="0" c_width="6" c_height="6"><ellipse cx="4161" cy="3559" rx="3" ry="3" stroke-width="0" c_etype="pad_shell"/></g><g c_partid="part_pad" c_etype="pinpart" layerid="11" id="gge973_11" c_origin="4129,3539" net="" c_rotation="90" c_width="6" c_height="6"><ellipse cx="4129" cy="3539" rx="3" ry="3" stroke-width="0" c_etype="pad_shell"/></g><g c_partid="part_pad" c_etype="pinpart" layerid="11" id="gge978_11" c_origin="4129,3578" net="" c_rotation="90" c_width="6" c_height="6"><ellipse cx="4129" cy="3578" rx="3" ry="3" stroke-width="0" c_etype="pad_shell"/></g><g c_partid="part_pad" c_etype="pinpart" layerid="11" id="gge999_11" c_origin="4231.5,3539" net="" c_rotation="90" c_width="6" c_height="6"><ellipse cx="4231.5" cy="3539" rx="3" ry="3" stroke-width="0" c_etype="pad_shell"/></g><g c_partid="part_pad" c_etype="pinpart" layerid="11" id="gge1004_11" c_origin="4231.5,3578" net="" c_rotation="90" c_width="6" c_height="6"><ellipse cx="4231.5" cy="3578" rx="3" ry="3" stroke-width="0" c_etype="pad_shell"/></g></g><g id="topSignalSolderReal" mask="url(#topSignalSolderMask)" fill="#00BE00" stroke="#00BE00" display="none"><polyline points="4129 3539 4129.0551 3532.0551 4115.5 3518.5" stroke-width="3.937" c_shapetype="line" stroke-linecap="round" fill="none" layerid="1" net="" id="gge758_1" locked="0"/><polyline points="4126.5 3480.5 4126.5 3490 4133.5 3497 4159 3497 4170 3486 4192.5 3486 4209.5 3503 4209.5 3600.9055 4200.5 3610" stroke-width="3.937" c_shapetype="line" stroke-linecap="round" fill="none" layerid="1" net="" id="gge764_1" locked="0"/><polyline points="4231.5 3539 4231.4173 3510.4173 4197 3476 4165 3476 4153.5 3487.5 4143 3487.5 4143 3487 4136.5 3480.5" stroke-width="3.937" c_shapetype="line" stroke-linecap="round" fill="none" layerid="1" net="" id="gge766_1" locked="0"/><polyline points="4161 3508 4127.81 3507.81 4116.5 3496.5" stroke-width="3.937" c_shapetype="line" stroke-linecap="round" fill="none" layerid="1" net="" id="gge763_1" locked="0"/><polyline points="4116.5 3480.5 4116.5 3496.5" stroke-width="3.937" c_shapetype="line" stroke-linecap="round" fill="none" layerid="1" net="" id="gge761_1" locked="0"/><polyline points="4106.5 3480.5 4106.5 3509.5 4115.5 3518.5" stroke-width="3.937" c_shapetype="line" stroke-linecap="round" fill="none" layerid="1" net="" id="gge760_1" locked="0"/><polyline points="4186.5 3610 4199.5 3610" stroke-width="1.9685" c_shapetype="line" stroke-linecap="round" fill="none" layerid="1" net="" id="gge889_1" locked="0"/><polyline points="4180.5 3610 4162.5 3610 4162.5 3610" stroke-width="1.9685" c_shapetype="line" stroke-linecap="round" fill="none" layerid="1" net="" id="gge890_1" locked="0"/><polyline points="4186 3508 4199 3508" stroke-width="1.9685" c_shapetype="line" stroke-linecap="round" fill="none" layerid="1" net="" id="gge915_1" locked="0"/><polyline points="4180 3508 4162 3508 4162 3508" stroke-width="1.9685" c_shapetype="line" stroke-linecap="round" fill="none" layerid="1" net="" id="gge916_1" locked="0"/><polyline points="4186 3559 4199 3559" stroke-width="1.9685" c_shapetype="line" stroke-linecap="round" fill="none" layerid="1" net="" id="gge941_1" locked="0"/><polyline points="4180 3559 4162 3559 4162 3559" stroke-width="1.9685" c_shapetype="line" stroke-linecap="round" fill="none" layerid="1" net="" id="gge942_1" locked="0"/><polyline points="4129 3553 4129 3540" stroke-width="1.9685" c_shapetype="line" stroke-linecap="round" fill="none" layerid="1" net="" id="gge967_1" locked="0"/><polyline points="4129 3559 4129 3577 4129 3577" stroke-width="1.9685" c_shapetype="line" stroke-linecap="round" fill="none" layerid="1" net="" id="gge968_1" locked="0"/><polyline points="4231.5 3553 4231.5 3540" stroke-width="1.9685" c_shapetype="line" stroke-linecap="round" fill="none" layerid="1" net="" id="gge993_1" locked="0"/><polyline points="4231.5 3559 4231.5 3577 4231.5 3577" stroke-width="1.9685" c_shapetype="line" stroke-linecap="round" fill="none" layerid="1" net="" id="gge994_1" locked="0"/><path d="M 4189.5 3605 A 10.296 10.296 0 1 0 4189.9083 3614.1815" locked="0" c_shapetype="line" fill="none" stroke-width="2.95275" c_helper_type="arc2" net="" layerid="1" id="gge891_1"/><path d="M 4176.5 3614 A 5.591 5.591 0 1 0 4176.5 3606" locked="0" c_shapetype="line" fill="none" stroke-width="2.95275" c_helper_type="arc2" net="" layerid="1" id="gge892_1"/><path d="M 4179.5 3609 A 1.293 1.293 0 1 1 4179.5 3611" locked="0" c_shapetype="line" fill="none" stroke-width="1.9685" c_helper_type="arc2" net="" layerid="1" id="gge893_1"/><path d="M 4189 3503 A 10.296 10.296 0 1 0 4189.4083 3512.1815" locked="0" c_shapetype="line" fill="none" stroke-width="2.95275" c_helper_type="arc2" net="" layerid="1" id="gge917_1"/><path d="M 4176 3512 A 5.591 5.591 0 1 0 4176 3504" locked="0" c_shapetype="line" fill="none" stroke-width="2.95275" c_helper_type="arc2" net="" layerid="1" id="gge918_1"/><path d="M 4179 3507 A 1.293 1.293 0 1 1 4179 3509" locked="0" c_shapetype="line" fill="none" stroke-width="1.9685" c_helper_type="arc2" net="" layerid="1" id="gge919_1"/><path d="M 4189 3554 A 10.296 10.296 0 1 0 4189.4083 3563.1815" locked="0" c_shapetype="line" fill="none" stroke-width="2.95275" c_helper_type="arc2" net="" layerid="1" id="gge943_1"/><path d="M 4176 3563 A 5.591 5.591 0 1 0 4176 3555" locked="0" c_shapetype="line" fill="none" stroke-width="2.95275" c_helper_type="arc2" net="" layerid="1" id="gge944_1"/><path d="M 4179 3558 A 1.293 1.293 0 1 1 4179 3560" locked="0" c_shapetype="line" fill="none" stroke-width="1.9685" c_helper_type="arc2" net="" layerid="1" id="gge945_1"/><path d="M 4124 3550 A 10.296 10.296 0 1 0 4133.1815 3549.5917" locked="0" c_shapetype="line" fill="none" stroke-width="2.95275" c_helper_type="arc2" net="" layerid="1" id="gge969_1"/><path d="M 4133 3563 A 5.591 5.591 0 1 0 4125 3563" locked="0" c_shapetype="line" fill="none" stroke-width="2.95275" c_helper_type="arc2" net="" layerid="1" id="gge970_1"/><path d="M 4128 3560 A 1.293 1.293 0 1 1 4130 3560" locked="0" c_shapetype="line" fill="none" stroke-width="1.9685" c_helper_type="arc2" net="" layerid="1" id="gge971_1"/><path d="M 4226.5 3550 A 10.296 10.296 0 1 0 4235.6815 3549.5917" locked="0" c_shapetype="line" fill="none" stroke-width="2.95275" c_helper_type="arc2" net="" layerid="1" id="gge995_1"/><path d="M 4235.5 3563 A 5.591 5.591 0 1 0 4227.5 3563" locked="0" c_shapetype="line" fill="none" stroke-width="2.95275" c_helper_type="arc2" net="" layerid="1" id="gge996_1"/><path d="M 4230.5 3560 A 1.293 1.293 0 1 1 4232.5 3560" locked="0" c_shapetype="line" fill="none" stroke-width="1.9685" c_helper_type="arc2" net="" layerid="1" id="gge997_1"/><g c_partid="part_pad" c_etype="pinpart" layerid="11" id="gge727_11" c_origin="4106.5,3480.5" net="" c_rotation="0" c_width="6.9" c_height="6.9"><ellipse cx="4106.5" cy="3480.5" rx="3.45" ry="3.45" stroke-width="0" c_etype="pad_shell"/></g><g c_partid="part_pad" c_etype="pinpart" layerid="11" id="gge732_11" c_origin="4116.5,3480.5" net="" c_rotation="0" c_width="6.9" c_height="6.9"><ellipse cx="4116.5" cy="3480.5" rx="3.45" ry="3.45" stroke-width="0" c_etype="pad_shell"/></g><g c_partid="part_pad" c_etype="pinpart" layerid="11" id="gge737_11" c_origin="4146.5,3480.5" net="" c_rotation="0" c_width="6.9" c_height="6.9"><ellipse cx="4146.5" cy="3480.5" rx="3.45" ry="3.45" stroke-width="0" c_etype="pad_shell"/></g><g c_partid="part_pad" c_etype="pinpart" layerid="11" id="gge742_11" c_origin="4136.5,3480.5" net="" c_rotation="0" c_width="6.9" c_height="6.9"><ellipse cx="4136.5" cy="3480.5" rx="3.45" ry="3.45" stroke-width="0" c_etype="pad_shell"/></g><g c_partid="part_pad" c_etype="pinpart" layerid="11" id="gge747_11" c_origin="4126.5,3480.5" net="" c_rotation="0" c_width="6.9" c_height="6.9"><ellipse cx="4126.5" cy="3480.5" rx="3.45" ry="3.45" stroke-width="0" c_etype="pad_shell"/></g><g c_partid="part_pad" c_etype="pinpart" layerid="11" id="gge752_11" c_origin="4096.5,3480.5" net="" c_rotation="0" c_width="6.9" c_height="6.9"><ellipse cx="4096.5" cy="3480.5" rx="3.45" ry="3.45" stroke-width="0" c_etype="pad_shell"/></g><g c_partid="part_pad" c_etype="pinpart" layerid="11" id="gge895_11" c_origin="4200.5,3610" net="" c_rotation="0" c_width="6" c_height="6"><ellipse cx="4200.5" cy="3610" rx="3" ry="3" stroke-width="0" c_etype="pad_shell"/></g><g c_partid="part_pad" c_etype="pinpart" layerid="11" id="gge900_11" c_origin="4161.5,3610" net="" c_rotation="0" c_width="6" c_height="6"><ellipse cx="4161.5" cy="3610" rx="3" ry="3" stroke-width="0" c_etype="pad_shell"/></g><g c_partid="part_pad" c_etype="pinpart" layerid="11" id="gge921_11" c_origin="4200,3508" net="" c_rotation="0" c_width="6" c_height="6"><ellipse cx="4200" cy="3508" rx="3" ry="3" stroke-width="0" c_etype="pad_shell"/></g><g c_partid="part_pad" c_etype="pinpart" layerid="11" id="gge926_11" c_origin="4161,3508" net="" c_rotation="0" c_width="6" c_height="6"><ellipse cx="4161" cy="3508" rx="3" ry="3" stroke-width="0" c_etype="pad_shell"/></g><g c_partid="part_pad" c_etype="pinpart" layerid="11" id="gge947_11" c_origin="4200,3559" net="" c_rotation="0" c_width="6" c_height="6"><ellipse cx="4200" cy="3559" rx="3" ry="3" stroke-width="0" c_etype="pad_shell"/></g><g c_partid="part_pad" c_etype="pinpart" layerid="11" id="gge952_11" c_origin="4161,3559" net="" c_rotation="0" c_width="6" c_height="6"><ellipse cx="4161" cy="3559" rx="3" ry="3" stroke-width="0" c_etype="pad_shell"/></g><g c_partid="part_pad" c_etype="pinpart" layerid="11" id="gge973_11" c_origin="4129,3539" net="" c_rotation="90" c_width="6" c_height="6"><ellipse cx="4129" cy="3539" rx="3" ry="3" stroke-width="0" c_etype="pad_shell"/></g><g c_partid="part_pad" c_etype="pinpart" layerid="11" id="gge978_11" c_origin="4129,3578" net="" c_rotation="90" c_width="6" c_height="6"><ellipse cx="4129" cy="3578" rx="3" ry="3" stroke-width="0" c_etype="pad_shell"/></g><g c_partid="part_pad" c_etype="pinpart" layerid="11" id="gge999_11" c_origin="4231.5,3539" net="" c_rotation="90" c_width="6" c_height="6"><ellipse cx="4231.5" cy="3539" rx="3" ry="3" stroke-width="0" c_etype="pad_shell"/></g><g c_partid="part_pad" c_etype="pinpart" layerid="11" id="gge1004_11" c_origin="4231.5,3578" net="" c_rotation="90" c_width="6" c_height="6"><ellipse cx="4231.5" cy="3578" rx="3" ry="3" stroke-width="0" c_etype="pad_shell"/></g></g><g id="topSilkLayer" fill="#FFFFFF" stroke="#FFFFFF" display="none"><g c_partid="part_pcbtext" c_etype="pinpart" c_origin="4092,3487.5" c_rotation="270" c_mirror="0" id="gge807_3" locked="0" layerid="3" c_shapetype="group"><path c_fontsize="8" c_fontfamily="" c_text="GND" d="M 4098.25 3492.95 L 4098.98 3492.59 L 4099.71 3491.86 L 4100.07 3491.14 L 4100.07 3489.68 L 4099.71 3488.95 L 4098.98 3488.23 L 4098.25 3487.86 L 4097.16 3487.5 L 4095.35 3487.5 L 4094.25 3487.86 L 4093.53 3488.23 L 4092.8 3488.95 L 4092.44 3489.68 L 4092.44 3491.14 L 4092.8 3491.86 L 4093.53 3492.59 L 4094.25 3492.95 L 4095.35 3492.95 M 4095.35 3491.14 L 4095.35 3492.95 M 4100.07 3495.35 L 4092.44 3495.35 M 4100.07 3495.35 L 4092.44 3500.45 M 4100.07 3500.45 L 4092.44 3500.45 M 4100.07 3502.85 L 4092.44 3502.85 M 4100.07 3502.85 L 4100.07 3505.39 L 4099.71 3506.48 L 4098.98 3507.21 L 4098.25 3507.57 L 4097.16 3507.94 L 4095.35 3507.94 L 4094.25 3507.57 L 4093.53 3507.21 L 4092.8 3506.48 L 4092.44 3505.39 L 4092.44 3502.85" fill="none" stroke-width="0.8"/></g><g c_partid="part_pcbtext" c_etype="pinpart" c_origin="4112.5,3487.5" c_rotation="270" c_mirror="0" id="gge809_3" locked="0" layerid="3" c_shapetype="group"><path c_fontsize="8" c_fontfamily="" c_text="LEFT" d="M 4120.57 3487.5 L 4112.94 3487.5 M 4112.94 3487.5 L 4112.94 3491.86 M 4120.57 3494.26 L 4112.94 3494.26 M 4120.57 3494.26 L 4120.57 3498.99 M 4116.94 3494.26 L 4116.94 3497.17 M 4112.94 3494.26 L 4112.94 3498.99 M 4120.57 3501.39 L 4112.94 3501.39 M 4120.57 3501.39 L 4120.57 3506.12 M 4116.94 3501.39 L 4116.94 3504.3 M 4120.57 3511.06 L 4112.94 3511.06 M 4120.57 3508.52 L 4120.57 3513.61" fill="none" stroke-width="0.8"/></g><g c_partid="part_pcbtext" c_etype="pinpart" c_origin="4102,3487.5" c_rotation="270" c_mirror="0" id="gge811_3" locked="0" layerid="3" c_shapetype="group"><path c_fontsize="8" c_fontfamily="" c_text="UP" d="M 4110.07 3487.5 L 4104.62 3487.5 L 4103.53 3487.86 L 4102.8 3488.59 L 4102.44 3489.68 L 4102.44 3490.41 L 4102.8 3491.5 L 4103.53 3492.23 L 4104.62 3492.59 L 4110.07 3492.59 M 4110.07 3494.99 L 4102.44 3494.99 M 4110.07 3494.99 L 4110.07 3498.26 L 4109.71 3499.35 L 4109.35 3499.72 L 4108.62 3500.08 L 4107.53 3500.08 L 4106.8 3499.72 L 4106.44 3499.35 L 4106.07 3498.26 L 4106.07 3494.99" fill="none" stroke-width="0.8"/></g><g c_partid="part_pcbtext" c_etype="pinpart" c_origin="4133,3487.5" c_rotation="270" c_mirror="0" id="gge813_3" locked="0" layerid="3" c_shapetype="group"><path c_fontsize="8" c_fontfamily="" c_text="DOWN" d="M 4141.07 3487.5 L 4133.44 3487.5 M 4141.07 3487.5 L 4141.07 3490.05 L 4140.71 3491.14 L 4139.98 3491.86 L 4139.25 3492.23 L 4138.16 3492.59 L 4136.35 3492.59 L 4135.25 3492.23 L 4134.53 3491.86 L 4133.8 3491.14 L 4133.44 3490.05 L 4133.44 3487.5 M 4141.07 3497.17 L 4140.71 3496.45 L 4139.98 3495.72 L 4139.25 3495.35 L 4138.16 3494.99 L 4136.35 3494.99 L 4135.25 3495.35 L 4134.53 3495.72 L 4133.8 3496.45 L 4133.44 3497.17 L 4133.44 3498.63 L 4133.8 3499.35 L 4134.53 3500.08 L 4135.25 3500.45 L 4136.35 3500.81 L 4138.16 3500.81 L 4139.25 3500.45 L 4139.98 3500.08 L 4140.71 3499.35 L 4141.07 3498.63 L 4141.07 3497.17 M 4141.07 3503.21 L 4133.44 3505.03 M 4141.07 3506.85 L 4133.44 3505.03 M 4141.07 3506.85 L 4133.44 3508.66 M 4141.07 3510.48 L 4133.44 3508.66 M 4141.07 3512.88 L 4133.44 3512.88 M 4141.07 3512.88 L 4133.44 3517.97 M 4141.07 3517.97 L 4133.44 3517.97" fill="none" stroke-width="0.8"/></g><g c_partid="part_pcbtext" c_etype="pinpart" c_origin="4123.054,3487.393" c_rotation="270" c_mirror="0" id="gge815_3" locked="0" layerid="3" c_shapetype="group"><path c_fontsize="8" c_fontfamily="" c_text="RIGHT" d="M 4131.1238 3487.3933 L 4123.4938 3487.3933 M 4131.1238 3487.3933 L 4131.1238 3490.6633 L 4130.7638 3491.7533 L 4130.4038 3492.1233 L 4129.6738 3492.4833 L 4128.9438 3492.4833 L 4128.2138 3492.1233 L 4127.8538 3491.7533 L 4127.4938 3490.6633 L 4127.4938 3487.3933 M 4127.4938 3489.9433 L 4123.4938 3492.4833 M 4131.1238 3494.8833 L 4123.4938 3494.8833 M 4129.3038 3502.7433 L 4130.0338 3502.3733 L 4130.7638 3501.6433 L 4131.1238 3500.9233 L 4131.1238 3499.4633 L 4130.7638 3498.7433 L 4130.0338 3498.0133 L 4129.3038 3497.6433 L 4128.2138 3497.2833 L 4126.4038 3497.2833 L 4125.3038 3497.6433 L 4124.5838 3498.0133 L 4123.8538 3498.7433 L 4123.4938 3499.4633 L 4123.4938 3500.9233 L 4123.8538 3501.6433 L 4124.5838 3502.3733 L 4125.3038 3502.7433 L 4126.4038 3502.7433 M 4126.4038 3500.9233 L 4126.4038 3502.7433 M 4131.1238 3505.1433 L 4123.4938 3505.1433 M 4131.1238 3510.2333 L 4123.4938 3510.2333 M 4127.4938 3505.1433 L 4127.4938 3510.2333 M 4131.1238 3515.1733 L 4123.4938 3515.1733 M 4131.1238 3512.6333 L 4131.1238 3517.7233" fill="none" stroke-width="0.8"/></g><g c_partid="part_pcbtext" c_etype="pinpart" c_origin="4143,3487.5" c_rotation="270" c_mirror="0" id="gge817_3" locked="0" layerid="3" c_shapetype="group"><path c_fontsize="8" c_fontfamily="" c_text="MIDDLE" d="M 4151.07 3487.5 L 4143.44 3487.5 M 4151.07 3487.5 L 4143.44 3490.41 M 4151.07 3493.32 L 4143.44 3490.41 M 4151.07 3493.32 L 4143.44 3493.32 M 4151.07 3495.72 L 4143.44 3495.72 M 4151.07 3498.12 L 4143.44 3498.12 M 4151.07 3498.12 L 4151.07 3500.66 L 4150.71 3501.75 L 4149.98 3502.48 L 4149.25 3502.85 L 4148.16 3503.21 L 4146.35 3503.21 L 4145.25 3502.85 L 4144.53 3502.48 L 4143.8 3501.75 L 4143.44 3500.66 L 4143.44 3498.12 M 4151.07 3505.61 L 4143.44 3505.61 M 4151.07 3505.61 L 4151.07 3508.15 L 4150.71 3509.25 L 4149.98 3509.97 L 4149.25 3510.34 L 4148.16 3510.7 L 4146.35 3510.7 L 4145.25 3510.34 L 4144.53 3509.97 L 4143.8 3509.25 L 4143.44 3508.15 L 4143.44 3505.61 M 4151.07 3513.1 L 4143.44 3513.1 M 4143.44 3513.1 L 4143.44 3517.46 M 4151.07 3519.86 L 4143.44 3519.86 M 4151.07 3519.86 L 4151.07 3524.59 M 4147.44 3519.86 L 4147.44 3522.77 M 4143.44 3519.86 L 4143.44 3524.59" fill="none" stroke-width="0.8"/></g><g c_partid="part_pcbtext" c_etype="" c_origin="4121.5,3467" c_rotation="0" c_mirror="0" id="gge720_3" locked="0" layerid="3" c_shapetype="group" display="none"><path c_fontsize="4.5" c_fontfamily="" c_text="2.54_1X6_CONNECTOR" d="M 4121.7 3463.48 L 4121.7 3463.28 L 4121.91 3462.87 L 4122.11 3462.66 L 4122.52 3462.46 L 4123.34 3462.46 L 4123.75 3462.66 L 4123.95 3462.87 L 4124.16 3463.28 L 4124.16 3463.69 L 4123.95 3464.1 L 4123.55 3464.71 L 4121.5 3466.75 L 4124.36 3466.75 M 4125.92 3465.73 L 4125.71 3465.94 L 4125.92 3466.14 L 4126.12 3465.94 L 4125.92 3465.73 M 4129.93 3462.46 L 4127.88 3462.46 L 4127.68 3464.3 L 4127.88 3464.1 L 4128.5 3463.89 L 4129.11 3463.89 L 4129.72 3464.1 L 4130.13 3464.5 L 4130.34 3465.12 L 4130.34 3465.53 L 4130.13 3466.14 L 4129.72 3466.55 L 4129.11 3466.75 L 4128.5 3466.75 L 4127.88 3466.55 L 4127.68 3466.35 L 4127.47 3465.94 M 4133.73 3462.46 L 4131.69 3465.32 L 4134.75 3465.32 M 4133.73 3462.46 L 4133.73 3466.75 M 4136.1 3468.19 L 4139.79 3468.19 M 4141.14 3463.28 L 4141.55 3463.07 L 4142.16 3462.46 L 4142.16 3466.75 M 4143.51 3462.46 L 4146.37 3466.75 M 4146.37 3462.46 L 4143.51 3466.75 M 4150.18 3463.07 L 4149.97 3462.66 L 4149.36 3462.46 L 4148.95 3462.46 L 4148.34 3462.66 L 4147.93 3463.28 L 4147.72 3464.3 L 4147.72 3465.32 L 4147.93 3466.14 L 4148.34 3466.55 L 4148.95 3466.75 L 4149.15 3466.75 L 4149.77 3466.55 L 4150.18 3466.14 L 4150.38 3465.53 L 4150.38 3465.32 L 4150.18 3464.71 L 4149.77 3464.3 L 4149.15 3464.1 L 4148.95 3464.1 L 4148.34 3464.3 L 4147.93 3464.71 L 4147.72 3465.32 M 4151.73 3468.19 L 4155.41 3468.19 M 4159.83 3463.48 L 4159.63 3463.07 L 4159.22 3462.66 L 4158.81 3462.46 L 4157.99 3462.46 L 4157.58 3462.66 L 4157.17 3463.07 L 4156.97 3463.48 L 4156.76 3464.1 L 4156.76 3465.12 L 4156.97 3465.73 L 4157.17 3466.14 L 4157.58 3466.55 L 4157.99 3466.75 L 4158.81 3466.75 L 4159.22 3466.55 L 4159.63 3466.14 L 4159.83 3465.73 M 4162.41 3462.46 L 4162 3462.66 L 4161.59 3463.07 L 4161.39 3463.48 L 4161.18 3464.1 L 4161.18 3465.12 L 4161.39 3465.73 L 4161.59 3466.14 L 4162 3466.55 L 4162.41 3466.75 L 4163.23 3466.75 L 4163.64 3466.55 L 4164.05 3466.14 L 4164.25 3465.73 L 4164.45 3465.12 L 4164.45 3464.1 L 4164.25 3463.48 L 4164.05 3463.07 L 4163.64 3462.66 L 4163.23 3462.46 L 4162.41 3462.46 M 4165.8 3462.46 L 4165.8 3466.75 M 4165.8 3462.46 L 4168.67 3466.75 M 4168.67 3462.46 L 4168.67 3466.75 M 4170.02 3462.46 L 4170.02 3466.75 M 4170.02 3462.46 L 4172.88 3466.75 M 4172.88 3462.46 L 4172.88 3466.75 M 4174.23 3462.46 L 4174.23 3466.75 M 4174.23 3462.46 L 4176.89 3462.46 M 4174.23 3464.5 L 4175.87 3464.5 M 4174.23 3466.75 L 4176.89 3466.75 M 4181.31 3463.48 L 4181.1 3463.07 L 4180.7 3462.66 L 4180.29 3462.46 L 4179.47 3462.46 L 4179.06 3462.66 L 4178.65 3463.07 L 4178.45 3463.48 L 4178.24 3464.1 L 4178.24 3465.12 L 4178.45 3465.73 L 4178.65 3466.14 L 4179.06 3466.55 L 4179.47 3466.75 L 4180.29 3466.75 L 4180.7 3466.55 L 4181.1 3466.14 L 4181.31 3465.73 M 4184.09 3462.46 L 4184.09 3466.75 M 4182.66 3462.46 L 4185.52 3462.46 M 4188.1 3462.46 L 4187.69 3462.66 L 4187.28 3463.07 L 4187.08 3463.48 L 4186.87 3464.1 L 4186.87 3465.12 L 4187.08 3465.73 L 4187.28 3466.14 L 4187.69 3466.55 L 4188.1 3466.75 L 4188.92 3466.75 L 4189.33 3466.55 L 4189.74 3466.14 L 4189.94 3465.73 L 4190.15 3465.12 L 4190.15 3464.1 L 4189.94 3463.48 L 4189.74 3463.07 L 4189.33 3462.66 L 4188.92 3462.46 L 4188.1 3462.46 M 4191.5 3462.46 L 4191.5 3466.75 M 4191.5 3462.46 L 4193.34 3462.46 L 4193.95 3462.66 L 4194.15 3462.87 L 4194.36 3463.28 L 4194.36 3463.69 L 4194.15 3464.1 L 4193.95 3464.3 L 4193.34 3464.5 L 4191.5 3464.5 M 4192.93 3464.5 L 4194.36 3466.75" fill="none" stroke-width="0.6" c_note="note_name" style=""/></g><g c_partid="part_pcbtext" c_etype="" c_origin="4121.5,3474" c_rotation="0" c_mirror="0" id="gge722_3" locked="0" layerid="3" c_shapetype="group" display="none"><path c_fontsize="4.5" c_fontfamily="" c_text="CC12" d="M 4124.57 3470.48 L 4124.36 3470.07 L 4123.95 3469.66 L 4123.55 3469.46 L 4122.73 3469.46 L 4122.32 3469.66 L 4121.91 3470.07 L 4121.7 3470.48 L 4121.5 3471.1 L 4121.5 3472.12 L 4121.7 3472.73 L 4121.91 3473.14 L 4122.32 3473.55 L 4122.73 3473.75 L 4123.55 3473.75 L 4123.95 3473.55 L 4124.36 3473.14 L 4124.57 3472.73 M 4128.99 3470.48 L 4128.78 3470.07 L 4128.37 3469.66 L 4127.96 3469.46 L 4127.15 3469.46 L 4126.74 3469.66 L 4126.33 3470.07 L 4126.12 3470.48 L 4125.92 3471.1 L 4125.92 3472.12 L 4126.12 3472.73 L 4126.33 3473.14 L 4126.74 3473.55 L 4127.15 3473.75 L 4127.96 3473.75 L 4128.37 3473.55 L 4128.78 3473.14 L 4128.99 3472.73 M 4130.34 3470.28 L 4130.75 3470.07 L 4131.36 3469.46 L 4131.36 3473.75 M 4132.91 3470.48 L 4132.91 3470.28 L 4133.12 3469.87 L 4133.32 3469.66 L 4133.73 3469.46 L 4134.55 3469.46 L 4134.96 3469.66 L 4135.16 3469.87 L 4135.37 3470.28 L 4135.37 3470.69 L 4135.16 3471.1 L 4134.75 3471.71 L 4132.71 3473.75 L 4135.57 3473.75" fill="none" stroke-width="0.6" c_note="note_pre" style=""/></g><g c_partid="part_pcbtext" c_etype="" c_origin="4180.5,3588" c_rotation="0" c_mirror="0" id="gge880_3" locked="0" layerid="3" c_shapetype="group" display="none"><path c_fontsize="4.5" c_fontfamily="" c_text="PCB_BUTTON_PAD" d="M 4180.5 3583.46 L 4180.5 3587.75 M 4180.5 3583.46 L 4182.34 3583.46 L 4182.95 3583.66 L 4183.16 3583.87 L 4183.36 3584.28 L 4183.36 3584.89 L 4183.16 3585.3 L 4182.95 3585.5 L 4182.34 3585.71 L 4180.5 3585.71 M 4187.78 3584.48 L 4187.58 3584.07 L 4187.17 3583.66 L 4186.76 3583.46 L 4185.94 3583.46 L 4185.53 3583.66 L 4185.12 3584.07 L 4184.92 3584.48 L 4184.71 3585.1 L 4184.71 3586.12 L 4184.92 3586.73 L 4185.12 3587.14 L 4185.53 3587.55 L 4185.94 3587.75 L 4186.76 3587.75 L 4187.17 3587.55 L 4187.58 3587.14 L 4187.78 3586.73 M 4189.13 3583.46 L 4189.13 3587.75 M 4189.13 3583.46 L 4190.97 3583.46 L 4191.59 3583.66 L 4191.79 3583.87 L 4192 3584.28 L 4192 3584.69 L 4191.79 3585.1 L 4191.59 3585.3 L 4190.97 3585.5 M 4189.13 3585.5 L 4190.97 3585.5 L 4191.59 3585.71 L 4191.79 3585.91 L 4192 3586.32 L 4192 3586.94 L 4191.79 3587.35 L 4191.59 3587.55 L 4190.97 3587.75 L 4189.13 3587.75 M 4193.35 3589.19 L 4197.03 3589.19 M 4198.38 3583.46 L 4198.38 3587.75 M 4198.38 3583.46 L 4200.22 3583.46 L 4200.83 3583.66 L 4201.04 3583.87 L 4201.24 3584.28 L 4201.24 3584.69 L 4201.04 3585.1 L 4200.83 3585.3 L 4200.22 3585.5 M 4198.38 3585.5 L 4200.22 3585.5 L 4200.83 3585.71 L 4201.04 3585.91 L 4201.24 3586.32 L 4201.24 3586.94 L 4201.04 3587.35 L 4200.83 3587.55 L 4200.22 3587.75 L 4198.38 3587.75 M 4202.59 3583.46 L 4202.59 3586.53 L 4202.8 3587.14 L 4203.2 3587.55 L 4203.82 3587.75 L 4204.23 3587.75 L 4204.84 3587.55 L 4205.25 3587.14 L 4205.45 3586.53 L 4205.45 3583.46 M 4208.24 3583.46 L 4208.24 3587.75 M 4206.8 3583.46 L 4209.67 3583.46 M 4212.45 3583.46 L 4212.45 3587.75 M 4211.02 3583.46 L 4213.88 3583.46 M 4216.46 3583.46 L 4216.05 3583.66 L 4215.64 3584.07 L 4215.44 3584.48 L 4215.23 3585.1 L 4215.23 3586.12 L 4215.44 3586.73 L 4215.64 3587.14 L 4216.05 3587.55 L 4216.46 3587.75 L 4217.28 3587.75 L 4217.69 3587.55 L 4218.1 3587.14 L 4218.3 3586.73 L 4218.5 3586.12 L 4218.5 3585.1 L 4218.3 3584.48 L 4218.1 3584.07 L 4217.69 3583.66 L 4217.28 3583.46 L 4216.46 3583.46 M 4219.85 3583.46 L 4219.85 3587.75 M 4219.85 3583.46 L 4222.72 3587.75 M 4222.72 3583.46 L 4222.72 3587.75 M 4224.07 3589.19 L 4227.75 3589.19 M 4229.1 3583.46 L 4229.1 3587.75 M 4229.1 3583.46 L 4230.94 3583.46 L 4231.55 3583.66 L 4231.76 3583.87 L 4231.96 3584.28 L 4231.96 3584.89 L 4231.76 3585.3 L 4231.55 3585.5 L 4230.94 3585.71 L 4229.1 3585.71 M 4234.95 3583.46 L 4233.31 3587.75 M 4234.95 3583.46 L 4236.59 3587.75 M 4233.93 3586.32 L 4235.97 3586.32 M 4237.94 3583.46 L 4237.94 3587.75 M 4237.94 3583.46 L 4239.37 3583.46 L 4239.98 3583.66 L 4240.39 3584.07 L 4240.6 3584.48 L 4240.8 3585.1 L 4240.8 3586.12 L 4240.6 3586.73 L 4240.39 3587.14 L 4239.98 3587.55 L 4239.37 3587.75 L 4237.94 3587.75" fill="none" stroke-width="0.6" c_note="note_name" style=""/></g><g c_partid="part_pcbtext" c_etype="" c_origin="4172.264,3592.693" c_rotation="0" c_mirror="0" id="gge882_3" locked="0" layerid="3" c_shapetype="group"><path c_fontsize="4.5" c_fontfamily="" c_text="RIGHT" d="M 4172.2638 3588.1529 L 4172.2638 3592.4429 M 4172.2638 3588.1529 L 4174.1038 3588.1529 L 4174.7138 3588.3529 L 4174.9238 3588.5629 L 4175.1238 3588.9729 L 4175.1238 3589.3829 L 4174.9238 3589.7929 L 4174.7138 3589.9929 L 4174.1038 3590.1929 L 4172.2638 3590.1929 M 4173.6938 3590.1929 L 4175.1238 3592.4429 M 4176.4738 3588.1529 L 4176.4738 3592.4429 M 4180.8938 3589.1729 L 4180.6938 3588.7629 L 4180.2838 3588.3529 L 4179.8738 3588.1529 L 4179.0538 3588.1529 L 4178.6438 3588.3529 L 4178.2338 3588.7629 L 4178.0338 3589.1729 L 4177.8238 3589.7929 L 4177.8238 3590.8129 L 4178.0338 3591.4229 L 4178.2338 3591.8329 L 4178.6438 3592.2429 L 4179.0538 3592.4429 L 4179.8738 3592.4429 L 4180.2838 3592.2429 L 4180.6938 3591.8329 L 4180.8938 3591.4229 L 4180.8938 3590.8129 M 4179.8738 3590.8129 L 4180.8938 3590.8129 M 4182.2438 3588.1529 L 4182.2438 3592.4429 M 4185.1138 3588.1529 L 4185.1138 3592.4429 M 4182.2438 3590.1929 L 4185.1138 3590.1929 M 4187.8938 3588.1529 L 4187.8938 3592.4429 M 4186.4638 3588.1529 L 4189.3238 3588.1529" fill="none" stroke-width="0.6" c_note="note_pre" style=""/></g><g c_partid="part_pcbtext" c_etype="" c_origin="4180,3486" c_rotation="0" c_mirror="0" id="gge906_3" locked="0" layerid="3" c_shapetype="group" display="none"><path c_fontsize="4.5" c_fontfamily="" c_text="PCB_BUTTON_PAD" d="M 4180 3481.46 L 4180 3485.75 M 4180 3481.46 L 4181.84 3481.46 L 4182.45 3481.66 L 4182.66 3481.87 L 4182.86 3482.28 L 4182.86 3482.89 L 4182.66 3483.3 L 4182.45 3483.5 L 4181.84 3483.71 L 4180 3483.71 M 4187.28 3482.48 L 4187.08 3482.07 L 4186.67 3481.66 L 4186.26 3481.46 L 4185.44 3481.46 L 4185.03 3481.66 L 4184.62 3482.07 L 4184.42 3482.48 L 4184.21 3483.1 L 4184.21 3484.12 L 4184.42 3484.73 L 4184.62 3485.14 L 4185.03 3485.55 L 4185.44 3485.75 L 4186.26 3485.75 L 4186.67 3485.55 L 4187.08 3485.14 L 4187.28 3484.73 M 4188.63 3481.46 L 4188.63 3485.75 M 4188.63 3481.46 L 4190.47 3481.46 L 4191.09 3481.66 L 4191.29 3481.87 L 4191.5 3482.28 L 4191.5 3482.69 L 4191.29 3483.1 L 4191.09 3483.3 L 4190.47 3483.5 M 4188.63 3483.5 L 4190.47 3483.5 L 4191.09 3483.71 L 4191.29 3483.91 L 4191.5 3484.32 L 4191.5 3484.94 L 4191.29 3485.35 L 4191.09 3485.55 L 4190.47 3485.75 L 4188.63 3485.75 M 4192.85 3487.19 L 4196.53 3487.19 M 4197.88 3481.46 L 4197.88 3485.75 M 4197.88 3481.46 L 4199.72 3481.46 L 4200.33 3481.66 L 4200.54 3481.87 L 4200.74 3482.28 L 4200.74 3482.69 L 4200.54 3483.1 L 4200.33 3483.3 L 4199.72 3483.5 M 4197.88 3483.5 L 4199.72 3483.5 L 4200.33 3483.71 L 4200.54 3483.91 L 4200.74 3484.32 L 4200.74 3484.94 L 4200.54 3485.35 L 4200.33 3485.55 L 4199.72 3485.75 L 4197.88 3485.75 M 4202.09 3481.46 L 4202.09 3484.53 L 4202.3 3485.14 L 4202.7 3485.55 L 4203.32 3485.75 L 4203.73 3485.75 L 4204.34 3485.55 L 4204.75 3485.14 L 4204.95 3484.53 L 4204.95 3481.46 M 4207.74 3481.46 L 4207.74 3485.75 M 4206.3 3481.46 L 4209.17 3481.46 M 4211.95 3481.46 L 4211.95 3485.75 M 4210.52 3481.46 L 4213.38 3481.46 M 4215.96 3481.46 L 4215.55 3481.66 L 4215.14 3482.07 L 4214.94 3482.48 L 4214.73 3483.1 L 4214.73 3484.12 L 4214.94 3484.73 L 4215.14 3485.14 L 4215.55 3485.55 L 4215.96 3485.75 L 4216.78 3485.75 L 4217.19 3485.55 L 4217.6 3485.14 L 4217.8 3484.73 L 4218 3484.12 L 4218 3483.1 L 4217.8 3482.48 L 4217.6 3482.07 L 4217.19 3481.66 L 4216.78 3481.46 L 4215.96 3481.46 M 4219.35 3481.46 L 4219.35 3485.75 M 4219.35 3481.46 L 4222.22 3485.75 M 4222.22 3481.46 L 4222.22 3485.75 M 4223.57 3487.19 L 4227.25 3487.19 M 4228.6 3481.46 L 4228.6 3485.75 M 4228.6 3481.46 L 4230.44 3481.46 L 4231.05 3481.66 L 4231.26 3481.87 L 4231.46 3482.28 L 4231.46 3482.89 L 4231.26 3483.3 L 4231.05 3483.5 L 4230.44 3483.71 L 4228.6 3483.71 M 4234.45 3481.46 L 4232.81 3485.75 M 4234.45 3481.46 L 4236.09 3485.75 M 4233.43 3484.32 L 4235.47 3484.32 M 4237.44 3481.46 L 4237.44 3485.75 M 4237.44 3481.46 L 4238.87 3481.46 L 4239.48 3481.66 L 4239.89 3482.07 L 4240.1 3482.48 L 4240.3 3483.1 L 4240.3 3484.12 L 4240.1 3484.73 L 4239.89 3485.14 L 4239.48 3485.55 L 4238.87 3485.75 L 4237.44 3485.75" fill="none" stroke-width="0.6" c_note="note_name" style=""/></g><g c_partid="part_pcbtext" c_etype="" c_origin="4172.764,3490.193" c_rotation="0" c_mirror="0" id="gge908_3" locked="0" layerid="3" c_shapetype="group"><path c_fontsize="4.5" c_fontfamily="" c_text="LEFT" d="M 4172.7638 3485.6529 L 4172.7638 3489.9429 M 4172.7638 3489.9429 L 4175.2138 3489.9429 M 4176.5638 3485.6529 L 4176.5638 3489.9429 M 4176.5638 3485.6529 L 4179.2238 3485.6529 M 4176.5638 3487.6929 L 4178.2038 3487.6929 M 4176.5638 3489.9429 L 4179.2238 3489.9429 M 4180.5738 3485.6529 L 4180.5738 3489.9429 M 4180.5738 3485.6529 L 4183.2338 3485.6529 M 4180.5738 3487.6929 L 4182.2138 3487.6929 M 4186.0138 3485.6529 L 4186.0138 3489.9429 M 4184.5838 3485.6529 L 4187.4538 3485.6529" fill="none" stroke-width="0.6" c_note="note_pre" style=""/></g><g c_partid="part_pcbtext" c_etype="" c_origin="4180,3537" c_rotation="0" c_mirror="0" id="gge932_3" locked="0" layerid="3" c_shapetype="group" display="none"><path c_fontsize="4.5" c_fontfamily="" c_text="PCB_BUTTON_PAD" d="M 4180 3532.46 L 4180 3536.75 M 4180 3532.46 L 4181.84 3532.46 L 4182.45 3532.66 L 4182.66 3532.87 L 4182.86 3533.28 L 4182.86 3533.89 L 4182.66 3534.3 L 4182.45 3534.5 L 4181.84 3534.71 L 4180 3534.71 M 4187.28 3533.48 L 4187.08 3533.07 L 4186.67 3532.66 L 4186.26 3532.46 L 4185.44 3532.46 L 4185.03 3532.66 L 4184.62 3533.07 L 4184.42 3533.48 L 4184.21 3534.1 L 4184.21 3535.12 L 4184.42 3535.73 L 4184.62 3536.14 L 4185.03 3536.55 L 4185.44 3536.75 L 4186.26 3536.75 L 4186.67 3536.55 L 4187.08 3536.14 L 4187.28 3535.73 M 4188.63 3532.46 L 4188.63 3536.75 M 4188.63 3532.46 L 4190.47 3532.46 L 4191.09 3532.66 L 4191.29 3532.87 L 4191.5 3533.28 L 4191.5 3533.69 L 4191.29 3534.1 L 4191.09 3534.3 L 4190.47 3534.5 M 4188.63 3534.5 L 4190.47 3534.5 L 4191.09 3534.71 L 4191.29 3534.91 L 4191.5 3535.32 L 4191.5 3535.94 L 4191.29 3536.35 L 4191.09 3536.55 L 4190.47 3536.75 L 4188.63 3536.75 M 4192.85 3538.19 L 4196.53 3538.19 M 4197.88 3532.46 L 4197.88 3536.75 M 4197.88 3532.46 L 4199.72 3532.46 L 4200.33 3532.66 L 4200.54 3532.87 L 4200.74 3533.28 L 4200.74 3533.69 L 4200.54 3534.1 L 4200.33 3534.3 L 4199.72 3534.5 M 4197.88 3534.5 L 4199.72 3534.5 L 4200.33 3534.71 L 4200.54 3534.91 L 4200.74 3535.32 L 4200.74 3535.94 L 4200.54 3536.35 L 4200.33 3536.55 L 4199.72 3536.75 L 4197.88 3536.75 M 4202.09 3532.46 L 4202.09 3535.53 L 4202.3 3536.14 L 4202.7 3536.55 L 4203.32 3536.75 L 4203.73 3536.75 L 4204.34 3536.55 L 4204.75 3536.14 L 4204.95 3535.53 L 4204.95 3532.46 M 4207.74 3532.46 L 4207.74 3536.75 M 4206.3 3532.46 L 4209.17 3532.46 M 4211.95 3532.46 L 4211.95 3536.75 M 4210.52 3532.46 L 4213.38 3532.46 M 4215.96 3532.46 L 4215.55 3532.66 L 4215.14 3533.07 L 4214.94 3533.48 L 4214.73 3534.1 L 4214.73 3535.12 L 4214.94 3535.73 L 4215.14 3536.14 L 4215.55 3536.55 L 4215.96 3536.75 L 4216.78 3536.75 L 4217.19 3536.55 L 4217.6 3536.14 L 4217.8 3535.73 L 4218 3535.12 L 4218 3534.1 L 4217.8 3533.48 L 4217.6 3533.07 L 4217.19 3532.66 L 4216.78 3532.46 L 4215.96 3532.46 M 4219.35 3532.46 L 4219.35 3536.75 M 4219.35 3532.46 L 4222.22 3536.75 M 4222.22 3532.46 L 4222.22 3536.75 M 4223.57 3538.19 L 4227.25 3538.19 M 4228.6 3532.46 L 4228.6 3536.75 M 4228.6 3532.46 L 4230.44 3532.46 L 4231.05 3532.66 L 4231.26 3532.87 L 4231.46 3533.28 L 4231.46 3533.89 L 4231.26 3534.3 L 4231.05 3534.5 L 4230.44 3534.71 L 4228.6 3534.71 M 4234.45 3532.46 L 4232.81 3536.75 M 4234.45 3532.46 L 4236.09 3536.75 M 4233.43 3535.32 L 4235.47 3535.32 M 4237.44 3532.46 L 4237.44 3536.75 M 4237.44 3532.46 L 4238.87 3532.46 L 4239.48 3532.66 L 4239.89 3533.07 L 4240.1 3533.48 L 4240.3 3534.1 L 4240.3 3535.12 L 4240.1 3535.73 L 4239.89 3536.14 L 4239.48 3536.55 L 4238.87 3536.75 L 4237.44 3536.75" fill="none" stroke-width="0.6" c_note="note_name" style=""/></g><g c_partid="part_pcbtext" c_etype="" c_origin="4170.028,3540.886" c_rotation="0" c_mirror="0" id="gge934_3" locked="0" layerid="3" c_shapetype="group"><path c_fontsize="4.5" c_fontfamily="" c_text="MIDDLE" d="M 4170.0276 3536.3458 L 4170.0276 3540.6358 M 4170.0276 3536.3458 L 4171.6676 3540.6358 M 4173.2976 3536.3458 L 4171.6676 3540.6358 M 4173.2976 3536.3458 L 4173.2976 3540.6358 M 4174.6476 3536.3458 L 4174.6476 3540.6358 M 4175.9976 3536.3458 L 4175.9976 3540.6358 M 4175.9976 3536.3458 L 4177.4276 3536.3458 L 4178.0476 3536.5458 L 4178.4576 3536.9558 L 4178.6576 3537.3658 L 4178.8676 3537.9858 L 4178.8676 3539.0058 L 4178.6576 3539.6158 L 4178.4576 3540.0258 L 4178.0476 3540.4358 L 4177.4276 3540.6358 L 4175.9976 3540.6358 M 4180.2176 3536.3458 L 4180.2176 3540.6358 M 4180.2176 3536.3458 L 4181.6476 3536.3458 L 4182.2576 3536.5458 L 4182.6676 3536.9558 L 4182.8776 3537.3658 L 4183.0776 3537.9858 L 4183.0776 3539.0058 L 4182.8776 3539.6158 L 4182.6676 3540.0258 L 4182.2576 3540.4358 L 4181.6476 3540.6358 L 4180.2176 3540.6358 M 4184.4276 3536.3458 L 4184.4276 3540.6358 M 4184.4276 3540.6358 L 4186.8776 3540.6358 M 4188.2276 3536.3458 L 4188.2276 3540.6358 M 4188.2276 3536.3458 L 4190.8876 3536.3458 M 4188.2276 3538.3858 L 4189.8676 3538.3858 M 4188.2276 3540.6358 L 4190.8876 3540.6358" fill="none" stroke-width="0.6" c_note="note_pre" style=""/></g><g c_partid="part_pcbtext" c_etype="" c_origin="4107,3559" c_rotation="90" c_mirror="0" id="gge958_3" locked="0" layerid="3" c_shapetype="group" display="none"><path c_fontsize="4.5" c_fontfamily="" c_text="PCB_BUTTON_PAD" d="M 4102.46 3559 L 4106.75 3559 M 4102.46 3559 L 4102.46 3557.16 L 4102.66 3556.55 L 4102.87 3556.34 L 4103.28 3556.14 L 4103.89 3556.14 L 4104.3 3556.34 L 4104.5 3556.55 L 4104.71 3557.16 L 4104.71 3559 M 4103.48 3551.72 L 4103.07 3551.92 L 4102.66 3552.33 L 4102.46 3552.74 L 4102.46 3553.56 L 4102.66 3553.97 L 4103.07 3554.38 L 4103.48 3554.58 L 4104.1 3554.79 L 4105.12 3554.79 L 4105.73 3554.58 L 4106.14 3554.38 L 4106.55 3553.97 L 4106.75 3553.56 L 4106.75 3552.74 L 4106.55 3552.33 L 4106.14 3551.92 L 4105.73 3551.72 M 4102.46 3550.37 L 4106.75 3550.37 M 4102.46 3550.37 L 4102.46 3548.53 L 4102.66 3547.91 L 4102.87 3547.71 L 4103.28 3547.5 L 4103.69 3547.5 L 4104.1 3547.71 L 4104.3 3547.91 L 4104.5 3548.53 M 4104.5 3550.37 L 4104.5 3548.53 L 4104.71 3547.91 L 4104.91 3547.71 L 4105.32 3547.5 L 4105.94 3547.5 L 4106.35 3547.71 L 4106.55 3547.91 L 4106.75 3548.53 L 4106.75 3550.37 M 4108.19 3546.15 L 4108.19 3542.47 M 4102.46 3541.12 L 4106.75 3541.12 M 4102.46 3541.12 L 4102.46 3539.28 L 4102.66 3538.67 L 4102.87 3538.46 L 4103.28 3538.26 L 4103.69 3538.26 L 4104.1 3538.46 L 4104.3 3538.67 L 4104.5 3539.28 M 4104.5 3541.12 L 4104.5 3539.28 L 4104.71 3538.67 L 4104.91 3538.46 L 4105.32 3538.26 L 4105.94 3538.26 L 4106.35 3538.46 L 4106.55 3538.67 L 4106.75 3539.28 L 4106.75 3541.12 M 4102.46 3536.91 L 4105.53 3536.91 L 4106.14 3536.7 L 4106.55 3536.3 L 4106.75 3535.68 L 4106.75 3535.27 L 4106.55 3534.66 L 4106.14 3534.25 L 4105.53 3534.05 L 4102.46 3534.05 M 4102.46 3531.26 L 4106.75 3531.26 M 4102.46 3532.7 L 4102.46 3529.83 M 4102.46 3527.05 L 4106.75 3527.05 M 4102.46 3528.48 L 4102.46 3525.62 M 4102.46 3523.04 L 4102.66 3523.45 L 4103.07 3523.86 L 4103.48 3524.06 L 4104.1 3524.27 L 4105.12 3524.27 L 4105.73 3524.06 L 4106.14 3523.86 L 4106.55 3523.45 L 4106.75 3523.04 L 4106.75 3522.22 L 4106.55 3521.81 L 4106.14 3521.4 L 4105.73 3521.2 L 4105.12 3521 L 4104.1 3521 L 4103.48 3521.2 L 4103.07 3521.4 L 4102.66 3521.81 L 4102.46 3522.22 L 4102.46 3523.04 M 4102.46 3519.65 L 4106.75 3519.65 M 4102.46 3519.65 L 4106.75 3516.78 M 4102.46 3516.78 L 4106.75 3516.78 M 4108.19 3515.43 L 4108.19 3511.75 M 4102.46 3510.4 L 4106.75 3510.4 M 4102.46 3510.4 L 4102.46 3508.56 L 4102.66 3507.95 L 4102.87 3507.74 L 4103.28 3507.54 L 4103.89 3507.54 L 4104.3 3507.74 L 4104.5 3507.95 L 4104.71 3508.56 L 4104.71 3510.4 M 4102.46 3504.55 L 4106.75 3506.19 M 4102.46 3504.55 L 4106.75 3502.91 M 4105.32 3505.57 L 4105.32 3503.53 M 4102.46 3501.56 L 4106.75 3501.56 M 4102.46 3501.56 L 4102.46 3500.13 L 4102.66 3499.52 L 4103.07 3499.11 L 4103.48 3498.9 L 4104.1 3498.7 L 4105.12 3498.7 L 4105.73 3498.9 L 4106.14 3499.11 L 4106.55 3499.52 L 4106.75 3500.13 L 4106.75 3501.56" fill="none" stroke-width="0.6" c_note="note_name" style=""/></g><g c_partid="part_pcbtext" c_etype="" c_origin="4109.792,3562.079" c_rotation="90" c_mirror="0" id="gge960_3" locked="0" layerid="3" c_shapetype="group"><path c_fontsize="4.5" c_fontfamily="" c_text="UP" d="M 4105.2483 3562.0829 L 4108.3183 3562.0829 L 4108.9283 3561.8729 L 4109.3383 3561.4629 L 4109.5483 3560.8529 L 4109.5483 3560.4429 L 4109.3383 3559.8329 L 4108.9283 3559.4229 L 4108.3183 3559.2129 L 4105.2483 3559.2129 M 4105.2483 3557.8629 L 4109.5483 3557.8629 M 4105.2483 3557.8629 L 4105.2483 3556.0229 L 4105.4583 3555.4129 L 4105.6583 3555.2029 L 4106.0683 3555.0029 L 4106.6783 3555.0029 L 4107.0883 3555.2029 L 4107.2983 3555.4129 L 4107.4983 3556.0229 L 4107.4983 3557.8629" fill="none" stroke-width="0.6" c_note="note_pre" style=""/></g><g c_partid="part_pcbtext" c_etype="" c_origin="4209.5,3559" c_rotation="90" c_mirror="0" id="gge984_3" locked="0" layerid="3" c_shapetype="group" display="none"><path c_fontsize="4.5" c_fontfamily="" c_text="PCB_BUTTON_PAD" d="M 4204.96 3559 L 4209.25 3559 M 4204.96 3559 L 4204.96 3557.16 L 4205.16 3556.55 L 4205.37 3556.34 L 4205.78 3556.14 L 4206.39 3556.14 L 4206.8 3556.34 L 4207 3556.55 L 4207.21 3557.16 L 4207.21 3559 M 4205.98 3551.72 L 4205.57 3551.92 L 4205.16 3552.33 L 4204.96 3552.74 L 4204.96 3553.56 L 4205.16 3553.97 L 4205.57 3554.38 L 4205.98 3554.58 L 4206.6 3554.79 L 4207.62 3554.79 L 4208.23 3554.58 L 4208.64 3554.38 L 4209.05 3553.97 L 4209.25 3553.56 L 4209.25 3552.74 L 4209.05 3552.33 L 4208.64 3551.92 L 4208.23 3551.72 M 4204.96 3550.37 L 4209.25 3550.37 M 4204.96 3550.37 L 4204.96 3548.53 L 4205.16 3547.91 L 4205.37 3547.71 L 4205.78 3547.5 L 4206.19 3547.5 L 4206.6 3547.71 L 4206.8 3547.91 L 4207 3548.53 M 4207 3550.37 L 4207 3548.53 L 4207.21 3547.91 L 4207.41 3547.71 L 4207.82 3547.5 L 4208.44 3547.5 L 4208.85 3547.71 L 4209.05 3547.91 L 4209.25 3548.53 L 4209.25 3550.37 M 4210.69 3546.15 L 4210.69 3542.47 M 4204.96 3541.12 L 4209.25 3541.12 M 4204.96 3541.12 L 4204.96 3539.28 L 4205.16 3538.67 L 4205.37 3538.46 L 4205.78 3538.26 L 4206.19 3538.26 L 4206.6 3538.46 L 4206.8 3538.67 L 4207 3539.28 M 4207 3541.12 L 4207 3539.28 L 4207.21 3538.67 L 4207.41 3538.46 L 4207.82 3538.26 L 4208.44 3538.26 L 4208.85 3538.46 L 4209.05 3538.67 L 4209.25 3539.28 L 4209.25 3541.12 M 4204.96 3536.91 L 4208.03 3536.91 L 4208.64 3536.7 L 4209.05 3536.3 L 4209.25 3535.68 L 4209.25 3535.27 L 4209.05 3534.66 L 4208.64 3534.25 L 4208.03 3534.05 L 4204.96 3534.05 M 4204.96 3531.26 L 4209.25 3531.26 M 4204.96 3532.7 L 4204.96 3529.83 M 4204.96 3527.05 L 4209.25 3527.05 M 4204.96 3528.48 L 4204.96 3525.62 M 4204.96 3523.04 L 4205.16 3523.45 L 4205.57 3523.86 L 4205.98 3524.06 L 4206.6 3524.27 L 4207.62 3524.27 L 4208.23 3524.06 L 4208.64 3523.86 L 4209.05 3523.45 L 4209.25 3523.04 L 4209.25 3522.22 L 4209.05 3521.81 L 4208.64 3521.4 L 4208.23 3521.2 L 4207.62 3521 L 4206.6 3521 L 4205.98 3521.2 L 4205.57 3521.4 L 4205.16 3521.81 L 4204.96 3522.22 L 4204.96 3523.04 M 4204.96 3519.65 L 4209.25 3519.65 M 4204.96 3519.65 L 4209.25 3516.78 M 4204.96 3516.78 L 4209.25 3516.78 M 4210.69 3515.43 L 4210.69 3511.75 M 4204.96 3510.4 L 4209.25 3510.4 M 4204.96 3510.4 L 4204.96 3508.56 L 4205.16 3507.95 L 4205.37 3507.74 L 4205.78 3507.54 L 4206.39 3507.54 L 4206.8 3507.74 L 4207 3507.95 L 4207.21 3508.56 L 4207.21 3510.4 M 4204.96 3504.55 L 4209.25 3506.19 M 4204.96 3504.55 L 4209.25 3502.91 M 4207.82 3505.57 L 4207.82 3503.53 M 4204.96 3501.56 L 4209.25 3501.56 M 4204.96 3501.56 L 4204.96 3500.13 L 4205.16 3499.52 L 4205.57 3499.11 L 4205.98 3498.9 L 4206.6 3498.7 L 4207.62 3498.7 L 4208.23 3498.9 L 4208.64 3499.11 L 4209.05 3499.52 L 4209.25 3500.13 L 4209.25 3501.56" fill="none" stroke-width="0.6" c_note="note_name" style=""/></g><g c_partid="part_pcbtext" c_etype="" c_origin="4256.223,3566.366" c_rotation="90" c_mirror="0" id="gge986_3" locked="0" layerid="3" c_shapetype="group"><path c_fontsize="4.5" c_fontfamily="" c_text="DOWN" d="M 4251.6799 3566.3697 L 4255.9799 3566.3697 M 4251.6799 3566.3697 L 4251.6799 3564.9297 L 4251.8899 3564.3197 L 4252.2999 3563.9097 L 4252.6999 3563.7097 L 4253.3199 3563.4997 L 4254.3399 3563.4997 L 4254.9499 3563.7097 L 4255.3599 3563.9097 L 4255.7699 3564.3197 L 4255.9799 3564.9297 L 4255.9799 3566.3697 M 4251.6799 3560.9297 L 4251.8899 3561.3297 L 4252.2999 3561.7397 L 4252.6999 3561.9497 L 4253.3199 3562.1497 L 4254.3399 3562.1497 L 4254.9499 3561.9497 L 4255.3599 3561.7397 L 4255.7699 3561.3297 L 4255.9799 3560.9297 L 4255.9799 3560.1097 L 4255.7699 3559.6997 L 4255.3599 3559.2897 L 4254.9499 3559.0797 L 4254.3399 3558.8797 L 4253.3199 3558.8797 L 4252.6999 3559.0797 L 4252.2999 3559.2897 L 4251.8899 3559.6997 L 4251.6799 3560.1097 L 4251.6799 3560.9297 M 4251.6799 3557.5297 L 4255.9799 3556.5097 M 4251.6799 3555.4797 L 4255.9799 3556.5097 M 4251.6799 3555.4797 L 4255.9799 3554.4597 M 4251.6799 3553.4397 L 4255.9799 3554.4597 M 4251.6799 3552.0897 L 4255.9799 3552.0897 M 4251.6799 3552.0897 L 4255.9799 3549.2297 M 4251.6799 3549.2297 L 4255.9799 3549.2297" fill="none" stroke-width="0.6" c_note="note_pre" style=""/></g><polyline points="4091.5 3485.5 4091.5 3475.5 4151.5 3475.5 4151.5 3485.5 4091.5 3485.5" stroke-width="0.472" c_shapetype="line" stroke-linecap="round" fill="none" layerid="3" net="" id="gge725_3" locked="0"/><circle cx="4180.5" cy="3610" r="14" stroke-width="1" fill="none" layerid="3" id="gge894_3" locked="0" c_shapetype="line"/><circle cx="4180" cy="3508" r="14" stroke-width="1" fill="none" layerid="3" id="gge920_3" locked="0" c_shapetype="line"/><circle cx="4180" cy="3559" r="14" stroke-width="1" fill="none" layerid="3" id="gge946_3" locked="0" c_shapetype="line"/><circle cx="4129" cy="3559" r="14" stroke-width="1" fill="none" layerid="3" id="gge972_3" locked="0" c_shapetype="line"/><circle cx="4231.5" cy="3559" r="14" stroke-width="1" fill="none" layerid="3" id="gge998_3" locked="0" c_shapetype="line"/><circle cx="4180.236" cy="3507.807" r="14.003" stroke-width="1" fill="none" layerid="3" id="gge825_3" locked="0" c_shapetype="line"/><circle cx="4231.417" cy="3558.988" r="14.004" stroke-width="1" fill="none" layerid="3" id="gge827_3" locked="0" c_shapetype="line"/><circle cx="4180.236" cy="3558.988" r="14.003" stroke-width="1" fill="none" layerid="3" id="gge829_3" locked="0" c_shapetype="line"/><circle cx="4129.055" cy="3558.988" r="14.004" stroke-width="1" fill="none" layerid="3" id="gge831_3" locked="0" c_shapetype="line"/><circle cx="4180.236" cy="3610.169" r="14.003" stroke-width="1" fill="none" layerid="3" id="gge833_3" locked="0" c_shapetype="line"/></g><path d="M4153 3660.5,4145.0019 3629.0075,4144.9998 3629.0003,4144.9997 3629.0002,4144.9998 3629.0002,4144.9917 3629,4122 3629,4122 3602.0071,4121.9998 3602.0002,4121.9918 3602,4070.5 3602,4070.5 3489,4082.4918 3489,4082.4998 3488.9998,4082.5 3488.9905,4082.5 3464.5,4278.5 3464.5,4278.5 3487.9905,4278.5002 3487.9998,4278.5082 3488,4290 3488,4290 3601.5,4239.0082 3601.5,4239.0002 3601.5002,4239 3601.5071,4239 3629,4215.0085 3629,4215.0002 3629.0003,4215.0001 3629.0005,4214.999 3629.0049,4208.5 3660.5z" stroke="none" id="bottomBoardSolderReal" mask="url(#bottomBoardSolderMask)" fill="#0B3B0B"/><g id="bottomSignalReal" fill="#DCAA14" stroke="#DCAA14"><polyline points="4111 3523.5 4111 3569 4120 3578" stroke-width="3.937" c_shapetype="line" stroke-linecap="round" fill="none" layerid="2" net="" id="gge1035_2" locked="0"/><polyline points="4129 3578 4120 3578" stroke-width="3.937" c_shapetype="line" stroke-linecap="round" fill="none" layerid="2" net="" id="gge1034_2" locked="0"/><polyline points="4200 3559 4200 3568.7037 4190.7037 3578" stroke-width="3.937" c_shapetype="line" stroke-linecap="round" fill="none" layerid="2" net="" id="gge1033_2" locked="0"/><polyline points="4200 3508 4200 3559" stroke-width="3.937" c_shapetype="line" stroke-linecap="round" fill="none" layerid="2" net="" id="gge1032_2" locked="0"/><polyline points="4129 3578 4129.5 3578 4161.5 3610" stroke-width="3.937" c_shapetype="line" stroke-linecap="round" fill="none" layerid="2" net="" id="gge1031_2" locked="0"/><polyline points="4129 3578 4231.5 3578" stroke-width="3.937" c_shapetype="line" stroke-linecap="round" fill="none" layerid="2" net="" id="gge1030_2" locked="0"/><polyline points="4146.5 3480.5 4146.5 3548 4147 3548.5" stroke-width="3.937" c_shapetype="line" stroke-linecap="round" fill="none" layerid="2" net="" id="gge1014_2" locked="0"/><polyline points="4161 3559 4157.5 3559 4147 3548.5" stroke-width="3.937" c_shapetype="line" stroke-linecap="round" fill="none" layerid="2" net="" id="gge1013_2" locked="0"/><polyline points="4096.5 3480.5 4096.5 3509 4111 3523.5" stroke-width="3.937" c_shapetype="line" stroke-linecap="round" fill="none" layerid="2" net="" id="gge1010_2" locked="0"/><g c_partid="part_pad" c_etype="pinpart" layerid="11" id="gge727_11" c_origin="4106.5,3480.5" net="" c_rotation="0" c_width="6.9" c_height="6.9"><ellipse cx="4106.5" cy="3480.5" rx="3.45" ry="3.45" stroke-width="0" c_etype="pad_hole"/></g><g c_partid="part_pad" c_etype="pinpart" layerid="11" id="gge732_11" c_origin="4116.5,3480.5" net="" c_rotation="0" c_width="6.9" c_height="6.9"><ellipse cx="4116.5" cy="3480.5" rx="3.45" ry="3.45" stroke-width="0" c_etype="pad_hole"/></g><g c_partid="part_pad" c_etype="pinpart" layerid="11" id="gge737_11" c_origin="4146.5,3480.5" net="" c_rotation="0" c_width="6.9" c_height="6.9"><ellipse cx="4146.5" cy="3480.5" rx="3.45" ry="3.45" stroke-width="0" c_etype="pad_hole"/></g><g c_partid="part_pad" c_etype="pinpart" layerid="11" id="gge742_11" c_origin="4136.5,3480.5" net="" c_rotation="0" c_width="6.9" c_height="6.9"><ellipse cx="4136.5" cy="3480.5" rx="3.45" ry="3.45" stroke-width="0" c_etype="pad_hole"/></g><g c_partid="part_pad" c_etype="pinpart" layerid="11" id="gge747_11" c_origin="4126.5,3480.5" net="" c_rotation="0" c_width="6.9" c_height="6.9"><ellipse cx="4126.5" cy="3480.5" rx="3.45" ry="3.45" stroke-width="0" c_etype="pad_hole"/></g><g c_partid="part_pad" c_etype="pinpart" layerid="11" id="gge752_11" c_origin="4096.5,3480.5" net="" c_rotation="0" c_width="6.9" c_height="6.9"><ellipse cx="4096.5" cy="3480.5" rx="3.45" ry="3.45" stroke-width="0" c_etype="pad_hole"/></g><g c_partid="part_pad" c_etype="pinpart" layerid="11" id="gge895_11" c_origin="4200.5,3610" net="" c_rotation="0" c_width="6" c_height="6"><ellipse cx="4200.5" cy="3610" rx="3" ry="3" stroke-width="0" c_etype="pad_hole"/></g><g c_partid="part_pad" c_etype="pinpart" layerid="11" id="gge900_11" c_origin="4161.5,3610" net="" c_rotation="0" c_width="6" c_height="6"><ellipse cx="4161.5" cy="3610" rx="3" ry="3" stroke-width="0" c_etype="pad_hole"/></g><g c_partid="part_pad" c_etype="pinpart" layerid="11" id="gge921_11" c_origin="4200,3508" net="" c_rotation="0" c_width="6" c_height="6"><ellipse cx="4200" cy="3508" rx="3" ry="3" stroke-width="0" c_etype="pad_hole"/></g><g c_partid="part_pad" c_etype="pinpart" layerid="11" id="gge926_11" c_origin="4161,3508" net="" c_rotation="0" c_width="6" c_height="6"><ellipse cx="4161" cy="3508" rx="3" ry="3" stroke-width="0" c_etype="pad_hole"/></g><g c_partid="part_pad" c_etype="pinpart" layerid="11" id="gge947_11" c_origin="4200,3559" net="" c_rotation="0" c_width="6" c_height="6"><ellipse cx="4200" cy="3559" rx="3" ry="3" stroke-width="0" c_etype="pad_hole"/></g><g c_partid="part_pad" c_etype="pinpart" layerid="11" id="gge952_11" c_origin="4161,3559" net="" c_rotation="0" c_width="6" c_height="6"><ellipse cx="4161" cy="3559" rx="3" ry="3" stroke-width="0" c_etype="pad_hole"/></g><g c_partid="part_pad" c_etype="pinpart" layerid="11" id="gge973_11" c_origin="4129,3539" net="" c_rotation="90" c_width="6" c_height="6"><ellipse cx="4129" cy="3539" rx="3" ry="3" stroke-width="0" c_etype="pad_hole"/></g><g c_partid="part_pad" c_etype="pinpart" layerid="11" id="gge978_11" c_origin="4129,3578" net="" c_rotation="90" c_width="6" c_height="6"><ellipse cx="4129" cy="3578" rx="3" ry="3" stroke-width="0" c_etype="pad_hole"/></g><g c_partid="part_pad" c_etype="pinpart" layerid="11" id="gge999_11" c_origin="4231.5,3539" net="" c_rotation="90" c_width="6" c_height="6"><ellipse cx="4231.5" cy="3539" rx="3" ry="3" stroke-width="0" c_etype="pad_hole"/></g><g c_partid="part_pad" c_etype="pinpart" layerid="11" id="gge1004_11" c_origin="4231.5,3578" net="" c_rotation="90" c_width="6" c_height="6"><ellipse cx="4231.5" cy="3578" rx="3" ry="3" stroke-width="0" c_etype="pad_hole"/></g></g><g id="bottomSignalSolderReal" mask="url(#bottomSignalSolderMask)" fill="#00BE00" stroke="#00BE00"><polyline points="4111 3523.5 4111 3569 4120 3578" stroke-width="3.937" c_shapetype="line" stroke-linecap="round" fill="none" layerid="2" net="" id="gge1035_2" locked="0"/><polyline points="4129 3578 4120 3578" stroke-width="3.937" c_shapetype="line" stroke-linecap="round" fill="none" layerid="2" net="" id="gge1034_2" locked="0"/><polyline points="4200 3559 4200 3568.7037 4190.7037 3578" stroke-width="3.937" c_shapetype="line" stroke-linecap="round" fill="none" layerid="2" net="" id="gge1033_2" locked="0"/><polyline points="4200 3508 4200 3559" stroke-width="3.937" c_shapetype="line" stroke-linecap="round" fill="none" layerid="2" net="" id="gge1032_2" locked="0"/><polyline points="4129 3578 4129.5 3578 4161.5 3610" stroke-width="3.937" c_shapetype="line" stroke-linecap="round" fill="none" layerid="2" net="" id="gge1031_2" locked="0"/><polyline points="4129 3578 4231.5 3578" stroke-width="3.937" c_shapetype="line" stroke-linecap="round" fill="none" layerid="2" net="" id="gge1030_2" locked="0"/><polyline points="4146.5 3480.5 4146.5 3548 4147 3548.5" stroke-width="3.937" c_shapetype="line" stroke-linecap="round" fill="none" layerid="2" net="" id="gge1014_2" locked="0"/><polyline points="4161 3559 4157.5 3559 4147 3548.5" stroke-width="3.937" c_shapetype="line" stroke-linecap="round" fill="none" layerid="2" net="" id="gge1013_2" locked="0"/><polyline points="4096.5 3480.5 4096.5 3509 4111 3523.5" stroke-width="3.937" c_shapetype="line" stroke-linecap="round" fill="none" layerid="2" net="" id="gge1010_2" locked="0"/><g c_partid="part_pad" c_etype="pinpart" layerid="11" id="gge727_11" c_origin="4106.5,3480.5" net="" c_rotation="0" c_width="6.9" c_height="6.9"><ellipse cx="4106.5" cy="3480.5" rx="3.45" ry="3.45" stroke-width="0" c_etype="pad_hole"/></g><g c_partid="part_pad" c_etype="pinpart" layerid="11" id="gge732_11" c_origin="4116.5,3480.5" net="" c_rotation="0" c_width="6.9" c_height="6.9"><ellipse cx="4116.5" cy="3480.5" rx="3.45" ry="3.45" stroke-width="0" c_etype="pad_hole"/></g><g c_partid="part_pad" c_etype="pinpart" layerid="11" id="gge737_11" c_origin="4146.5,3480.5" net="" c_rotation="0" c_width="6.9" c_height="6.9"><ellipse cx="4146.5" cy="3480.5" rx="3.45" ry="3.45" stroke-width="0" c_etype="pad_hole"/></g><g c_partid="part_pad" c_etype="pinpart" layerid="11" id="gge742_11" c_origin="4136.5,3480.5" net="" c_rotation="0" c_width="6.9" c_height="6.9"><ellipse cx="4136.5" cy="3480.5" rx="3.45" ry="3.45" stroke-width="0" c_etype="pad_hole"/></g><g c_partid="part_pad" c_etype="pinpart" layerid="11" id="gge747_11" c_origin="4126.5,3480.5" net="" c_rotation="0" c_width="6.9" c_height="6.9"><ellipse cx="4126.5" cy="3480.5" rx="3.45" ry="3.45" stroke-width="0" c_etype="pad_hole"/></g><g c_partid="part_pad" c_etype="pinpart" layerid="11" id="gge752_11" c_origin="4096.5,3480.5" net="" c_rotation="0" c_width="6.9" c_height="6.9"><ellipse cx="4096.5" cy="3480.5" rx="3.45" ry="3.45" stroke-width="0" c_etype="pad_hole"/></g><g c_partid="part_pad" c_etype="pinpart" layerid="11" id="gge895_11" c_origin="4200.5,3610" net="" c_rotation="0" c_width="6" c_height="6"><ellipse cx="4200.5" cy="3610" rx="3" ry="3" stroke-width="0" c_etype="pad_hole"/></g><g c_partid="part_pad" c_etype="pinpart" layerid="11" id="gge900_11" c_origin="4161.5,3610" net="" c_rotation="0" c_width="6" c_height="6"><ellipse cx="4161.5" cy="3610" rx="3" ry="3" stroke-width="0" c_etype="pad_hole"/></g><g c_partid="part_pad" c_etype="pinpart" layerid="11" id="gge921_11" c_origin="4200,3508" net="" c_rotation="0" c_width="6" c_height="6"><ellipse cx="4200" cy="3508" rx="3" ry="3" stroke-width="0" c_etype="pad_hole"/></g><g c_partid="part_pad" c_etype="pinpart" layerid="11" id="gge926_11" c_origin="4161,3508" net="" c_rotation="0" c_width="6" c_height="6"><ellipse cx="4161" cy="3508" rx="3" ry="3" stroke-width="0" c_etype="pad_hole"/></g><g c_partid="part_pad" c_etype="pinpart" layerid="11" id="gge947_11" c_origin="4200,3559" net="" c_rotation="0" c_width="6" c_height="6"><ellipse cx="4200" cy="3559" rx="3" ry="3" stroke-width="0" c_etype="pad_hole"/></g><g c_partid="part_pad" c_etype="pinpart" layerid="11" id="gge952_11" c_origin="4161,3559" net="" c_rotation="0" c_width="6" c_height="6"><ellipse cx="4161" cy="3559" rx="3" ry="3" stroke-width="0" c_etype="pad_hole"/></g><g c_partid="part_pad" c_etype="pinpart" layerid="11" id="gge973_11" c_origin="4129,3539" net="" c_rotation="90" c_width="6" c_height="6"><ellipse cx="4129" cy="3539" rx="3" ry="3" stroke-width="0" c_etype="pad_hole"/></g><g c_partid="part_pad" c_etype="pinpart" layerid="11" id="gge978_11" c_origin="4129,3578" net="" c_rotation="90" c_width="6" c_height="6"><ellipse cx="4129" cy="3578" rx="3" ry="3" stroke-width="0" c_etype="pad_hole"/></g><g c_partid="part_pad" c_etype="pinpart" layerid="11" id="gge999_11" c_origin="4231.5,3539" net="" c_rotation="90" c_width="6" c_height="6"><ellipse cx="4231.5" cy="3539" rx="3" ry="3" stroke-width="0" c_etype="pad_hole"/></g><g c_partid="part_pad" c_etype="pinpart" layerid="11" id="gge1004_11" c_origin="4231.5,3578" net="" c_rotation="90" c_width="6" c_height="6"><ellipse cx="4231.5" cy="3578" rx="3" ry="3" stroke-width="0" c_etype="pad_hole"/></g></g><g id="bottomSilkLayer" fill="#FFFFFF" stroke="#FFFFFF"><g c_partid="part_pcbtext" c_etype="pinpart" c_origin="4222.291,3530.579" c_rotation="0" c_mirror="1" id="gge1036_4" locked="0" layerid="4" c_shapetype="group"><path c_fontsize="8" c_fontfamily="" c_text="WOR_CH_DPAD" d="M 4222.2914 3522.506 L 4220.4732 3530.1423 M 4218.655 3522.506 L 4220.4732 3530.1423 M 4218.655 3522.506 L 4216.8369 3530.1423 M 4215.0187 3522.506 L 4216.8369 3530.1423 M 4210.4369 3522.506 L 4211.1641 3522.8696 L 4211.8914 3523.5969 L 4212.255 3524.3242 L 4212.6187 3525.4151 L 4212.6187 3527.2332 L 4212.255 3528.3242 L 4211.8914 3529.0514 L 4211.1641 3529.7787 L 4210.4369 3530.1423 L 4208.9823 3530.1423 L 4208.255 3529.7787 L 4207.5278 3529.0514 L 4207.1641 3528.3242 L 4206.8005 3527.2332 L 4206.8005 3525.4151 L 4207.1641 3524.3242 L 4207.5278 3523.5969 L 4208.255 3522.8696 L 4208.9823 3522.506 L 4210.4369 3522.506 M 4204.4005 3522.506 L 4204.4005 3530.1423 M 4204.4005 3522.506 L 4201.1278 3522.506 L 4200.0369 3522.8696 L 4199.6732 3523.2332 L 4199.3096 3523.9605 L 4199.3096 3524.6878 L 4199.6732 3525.4151 L 4200.0369 3525.7787 L 4201.1278 3526.1423 L 4204.4005 3526.1423 M 4201.855 3526.1423 L 4199.3096 3530.1423 M 4196.9096 3532.6878 L 4190.3641 3532.6878 M 4182.5096 3524.3242 L 4182.8732 3523.5969 L 4183.6005 3522.8696 L 4184.3278 3522.506 L 4185.7823 3522.506 L 4186.5096 3522.8696 L 4187.2369 3523.5969 L 4187.6005 3524.3242 L 4187.9641 3525.4151 L 4187.9641 3527.2332 L 4187.6005 3528.3242 L 4187.2369 3529.0514 L 4186.5096 3529.7787 L 4185.7823 3530.1423 L 4184.3278 3530.1423 L 4183.6005 3529.7787 L 4182.8732 3529.0514 L 4182.5096 3528.3242 M 4180.1096 3522.506 L 4180.1096 3530.1423 M 4175.0187 3522.506 L 4175.0187 3530.1423 M 4180.1096 3526.1423 L 4175.0187 3526.1423 M 4172.6187 3532.6878 L 4166.0732 3532.6878 M 4163.6732 3522.506 L 4163.6732 3530.1423 M 4163.6732 3522.506 L 4161.1278 3522.506 L 4160.0369 3522.8696 L 4159.3096 3523.5969 L 4158.9459 3524.3242 L 4158.5823 3525.4151 L 4158.5823 3527.2332 L 4158.9459 3528.3242 L 4159.3096 3529.0514 L 4160.0369 3529.7787 L 4161.1278 3530.1423 L 4163.6732 3530.1423 M 4156.1823 3522.506 L 4156.1823 3530.1423 M 4156.1823 3522.506 L 4152.9096 3522.506 L 4151.8187 3522.8696 L 4151.455 3523.2332 L 4151.0914 3523.9605 L 4151.0914 3525.0514 L 4151.455 3525.7787 L 4151.8187 3526.1423 L 4152.9096 3526.506 L 4156.1823 3526.506 M 4145.7823 3522.506 L 4148.6914 3530.1423 M 4145.7823 3522.506 L 4142.8732 3530.1423 M 4147.6005 3527.5969 L 4143.9641 3527.5969 M 4140.4732 3522.506 L 4140.4732 3530.1423 M 4140.4732 3522.506 L 4137.9278 3522.506 L 4136.8369 3522.8696 L 4136.1096 3523.5969 L 4135.7459 3524.3242 L 4135.3823 3525.4151 L 4135.3823 3527.2332 L 4135.7459 3528.3242 L 4136.1096 3529.0514 L 4136.8369 3529.7787 L 4137.9278 3530.1423 L 4140.4732 3530.1423" fill="none" stroke-width="0.8"/></g><g c_partid="part_pcbtext" c_etype="pinpart" c_origin="4216.028,3573.886" c_rotation="0" c_mirror="1" id="gge1040_4" locked="0" layerid="4" c_shapetype="group"><path c_fontsize="8" c_fontfamily="" c_text="12/08/2020" d="M 4216.0276 3567.2676 L 4215.3003 3566.904 L 4214.2094 3565.8131 L 4214.2094 3573.4494 M 4211.4458 3567.6313 L 4211.4458 3567.2676 L 4211.0821 3566.5403 L 4210.7185 3566.1767 L 4209.9912 3565.8131 L 4208.5367 3565.8131 L 4207.8094 3566.1767 L 4207.4458 3566.5403 L 4207.0821 3567.2676 L 4207.0821 3567.9949 L 4207.4458 3568.7222 L 4208.1731 3569.8131 L 4211.8094 3573.4494 L 4206.7185 3573.4494 M 4197.7731 3564.3585 L 4204.3185 3575.9949 M 4193.1912 3565.8131 L 4194.2821 3566.1767 L 4195.0094 3567.2676 L 4195.3731 3569.0858 L 4195.3731 3570.1767 L 4195.0094 3571.9949 L 4194.2821 3573.0858 L 4193.1912 3573.4494 L 4192.464 3573.4494 L 4191.3731 3573.0858 L 4190.6458 3571.9949 L 4190.2821 3570.1767 L 4190.2821 3569.0858 L 4190.6458 3567.2676 L 4191.3731 3566.1767 L 4192.464 3565.8131 L 4193.1912 3565.8131 M 4186.064 3565.8131 L 4187.1549 3566.1767 L 4187.5185 3566.904 L 4187.5185 3567.6313 L 4187.1549 3568.3585 L 4186.4276 3568.7222 L 4184.9731 3569.0858 L 4183.8821 3569.4494 L 4183.1549 3570.1767 L 4182.7912 3570.904 L 4182.7912 3571.9949 L 4183.1549 3572.7222 L 4183.5185 3573.0858 L 4184.6094 3573.4494 L 4186.064 3573.4494 L 4187.1549 3573.0858 L 4187.5185 3572.7222 L 4187.8821 3571.9949 L 4187.8821 3570.904 L 4187.5185 3570.1767 L 4186.7912 3569.4494 L 4185.7003 3569.0858 L 4184.2458 3568.7222 L 4183.5185 3568.3585 L 4183.1549 3567.6313 L 4183.1549 3566.904 L 4183.5185 3566.1767 L 4184.6094 3565.8131 L 4186.064 3565.8131 M 4173.8458 3564.3585 L 4180.3912 3575.9949 M 4171.0821 3567.6313 L 4171.0821 3567.2676 L 4170.7185 3566.5403 L 4170.3549 3566.1767 L 4169.6276 3565.8131 L 4168.1731 3565.8131 L 4167.4458 3566.1767 L 4167.0821 3566.5403 L 4166.7185 3567.2676 L 4166.7185 3567.9949 L 4167.0821 3568.7222 L 4167.8094 3569.8131 L 4171.4458 3573.4494 L 4166.3549 3573.4494 M 4161.7731 3565.8131 L 4162.864 3566.1767 L 4163.5912 3567.2676 L 4163.9549 3569.0858 L 4163.9549 3570.1767 L 4163.5912 3571.9949 L 4162.864 3573.0858 L 4161.7731 3573.4494 L 4161.0458 3573.4494 L 4159.9549 3573.0858 L 4159.2276 3571.9949 L 4158.864 3570.1767 L 4158.864 3569.0858 L 4159.2276 3567.2676 L 4159.9549 3566.1767 L 4161.0458 3565.8131 L 4161.7731 3565.8131 M 4156.1003 3567.6313 L 4156.1003 3567.2676 L 4155.7367 3566.5403 L 4155.3731 3566.1767 L 4154.6458 3565.8131 L 4153.1912 3565.8131 L 4152.464 3566.1767 L 4152.1003 3566.5403 L 4151.7367 3567.2676 L 4151.7367 3567.9949 L 4152.1003 3568.7222 L 4152.8276 3569.8131 L 4156.464 3573.4494 L 4151.3731 3573.4494 M 4146.7912 3565.8131 L 4147.8821 3566.1767 L 4148.6094 3567.2676 L 4148.9731 3569.0858 L 4148.9731 3570.1767 L 4148.6094 3571.9949 L 4147.8821 3573.0858 L 4146.7912 3573.4494 L 4146.064 3573.4494 L 4144.9731 3573.0858 L 4144.2458 3571.9949 L 4143.8821 3570.1767 L 4143.8821 3569.0858 L 4144.2458 3567.2676 L 4144.9731 3566.1767 L 4146.064 3565.8131 L 4146.7912 3565.8131" fill="none" stroke-width="0.8"/></g><g c_partid="part_pcbtext" c_etype="pinpart" c_origin="4212.528,3551.886" c_rotation="0" c_mirror="1" id="gge1044_4" locked="0" layerid="4" c_shapetype="group"><path c_fontsize="8" c_fontfamily="" c_text="PROTOTYPE" d="M 4212.5276 3543.8131 L 4212.5276 3551.4494 M 4212.5276 3543.8131 L 4209.2549 3543.8131 L 4208.164 3544.1767 L 4207.8003 3544.5403 L 4207.4367 3545.2676 L 4207.4367 3546.3585 L 4207.8003 3547.0858 L 4208.164 3547.4494 L 4209.2549 3547.8131 L 4212.5276 3547.8131 M 4205.0367 3543.8131 L 4205.0367 3551.4494 M 4205.0367 3543.8131 L 4201.764 3543.8131 L 4200.6731 3544.1767 L 4200.3094 3544.5403 L 4199.9458 3545.2676 L 4199.9458 3545.9949 L 4200.3094 3546.7222 L 4200.6731 3547.0858 L 4201.764 3547.4494 L 4205.0367 3547.4494 M 4202.4912 3547.4494 L 4199.9458 3551.4494 M 4195.364 3543.8131 L 4196.0912 3544.1767 L 4196.8185 3544.904 L 4197.1821 3545.6313 L 4197.5458 3546.7222 L 4197.5458 3548.5403 L 4197.1821 3549.6313 L 4196.8185 3550.3585 L 4196.0912 3551.0858 L 4195.364 3551.4494 L 4193.9094 3551.4494 L 4193.1821 3551.0858 L 4192.4549 3550.3585 L 4192.0912 3549.6313 L 4191.7276 3548.5403 L 4191.7276 3546.7222 L 4192.0912 3545.6313 L 4192.4549 3544.904 L 4193.1821 3544.1767 L 4193.9094 3543.8131 L 4195.364 3543.8131 M 4186.7821 3543.8131 L 4186.7821 3551.4494 M 4189.3276 3543.8131 L 4184.2367 3543.8131 M 4179.6549 3543.8131 L 4180.3821 3544.1767 L 4181.1094 3544.904 L 4181.4731 3545.6313 L 4181.8367 3546.7222 L 4181.8367 3548.5403 L 4181.4731 3549.6313 L 4181.1094 3550.3585 L 4180.3821 3551.0858 L 4179.6549 3551.4494 L 4178.2003 3551.4494 L 4177.4731 3551.0858 L 4176.7458 3550.3585 L 4176.3821 3549.6313 L 4176.0185 3548.5403 L 4176.0185 3546.7222 L 4176.3821 3545.6313 L 4176.7458 3544.904 L 4177.4731 3544.1767 L 4178.2003 3543.8131 L 4179.6549 3543.8131 M 4171.0731 3543.8131 L 4171.0731 3551.4494 M 4173.6185 3543.8131 L 4168.5276 3543.8131 M 4166.1276 3543.8131 L 4163.2185 3547.4494 L 4163.2185 3551.4494 M 4160.3094 3543.8131 L 4163.2185 3547.4494 M 4157.9094 3543.8131 L 4157.9094 3551.4494 M 4157.9094 3543.8131 L 4154.6367 3543.8131 L 4153.5458 3544.1767 L 4153.1821 3544.5403 L 4152.8185 3545.2676 L 4152.8185 3546.3585 L 4153.1821 3547.0858 L 4153.5458 3547.4494 L 4154.6367 3547.8131 L 4157.9094 3547.8131 M 4150.4185 3543.8131 L 4150.4185 3551.4494 M 4150.4185 3543.8131 L 4145.6912 3543.8131 M 4150.4185 3547.4494 L 4147.5094 3547.4494 M 4150.4185 3551.4494 L 4145.6912 3551.4494" fill="none" stroke-width="0.8"/></g><polyline points="4091.5 3485.5 4091.5 3475.5 4151.5 3475.5 4151.5 3485.5 4091.5 3485.5" stroke-width="0.472" c_shapetype="line" stroke-linecap="round" fill="none" layerid="4" net="" id="gge726_4" locked="0"/></g></g></g></svg>